<?xml version="1.0" encoding="utf-8"?>
<!-- Generator: Adobe Illustrator 25.0.0, SVG Export Plug-In . SVG Version: 6.00 Build 0)  -->
<svg version="1.1" id="Layer_1" xmlns="http://www.w3.org/2000/svg" xmlns:xlink="http://www.w3.org/1999/xlink" x="0px" y="0px"
	 viewBox="0 0 240 160" style="enable-background:new 0 0 240 160;" xml:space="preserve">
<style type="text/css">
	.st0{fill:#EBEBEB;}
	.st1{fill:#FFFFFF;}
	.st2{fill:#A6A6A6;}
	.st3{fill:#0B7D77;}
	.st4{fill:#C7C7C7;}
	.st5{opacity:0.1;enable-background:new    ;}
	.st6{fill:#263238;}
	.st7{fill:#37474F;}
	.st8{fill:#D3766A;}
	.st9{fill:#FF9CBD;}
	.st10{fill:#DBDBDB;}
</style>
<g>
	<path class="st0" d="M171,81.9c-1.5,0.9-3.3,1.3-5,1.2c-1.7-0.2-3.4-0.9-4.7-2c-1.3-1.1-2.3-2.7-2.6-4.4c-0.4-1.7-0.2-3.5,0.4-5.1
		c0.7-1.6,1.9-3,3.4-3.9c1.5-0.9,3.3-1.3,5-1.2c1.7,0.2,3.4,0.9,4.7,2c1.3,1.2,2.3,2.7,2.6,4.4c0.4,1.7,0.2,3.5-0.4,5.1
		C173.6,79.7,172.5,81,171,81.9z"/>
	<path class="st1" d="M169.2,73.9c0,0.5-0.2,1-0.4,1.4c-0.3,0.4-0.7,0.7-1.1,0.9c-0.5,0.2-1,0.2-1.5,0.1c-0.5-0.1-0.9-0.3-1.3-0.7
		c-0.3-0.4-0.6-0.8-0.7-1.3c-0.1-0.5,0-1,0.2-1.5c0.2-0.5,0.5-0.9,0.9-1.1c0.4-0.3,0.9-0.4,1.4-0.4c0.3,0,0.7,0.1,1,0.2
		c0.3,0.1,0.6,0.3,0.8,0.6c0.2,0.2,0.4,0.5,0.5,0.8C169.2,73.2,169.2,73.6,169.2,73.9z"/>
	<path class="st1" d="M171,80.9v1c-1.3,0.8-2.8,1.2-4.4,1.2c-1.5,0-3-0.5-4.4-1.3l0-1c0-0.6,0.1-1.1,0.4-1.7c0.2-0.5,0.6-1,1-1.4
		c0.4-0.4,0.9-0.7,1.4-0.9c0.5-0.2,1.1-0.3,1.7-0.3c0.6,0,1.1,0.1,1.7,0.4c0.5,0.2,1,0.6,1.4,1c0.4,0.4,0.7,0.9,0.9,1.4
		C170.9,79.7,171,80.3,171,80.9L171,80.9z"/>
	<path class="st0" d="M77.6,57.2c-0.9,0.5-1.9,0.8-2.9,0.8c-1,0-2-0.3-2.9-0.9c-1-0.6-1.8-1.6-2.2-2.7c-0.4-1.1-0.5-2.3-0.1-3.5
		c0.3-1.1,1-2.1,2-2.8c1-0.7,2.1-1.1,3.3-1.1c1.2,0,2.3,0.4,3.3,1.1C79,49,79.7,50,80,51.1c0.3,1.1,0.2,2.4-0.2,3.5
		C79.4,55.7,78.6,56.6,77.6,57.2z"/>
	<path class="st1" d="M76.4,51.9c0,0.3-0.1,0.6-0.3,0.9c-0.2,0.3-0.4,0.5-0.7,0.6c-0.3,0.1-0.6,0.2-1,0.1c-0.3-0.1-0.6-0.2-0.8-0.5
		c-0.2-0.2-0.4-0.5-0.4-0.9c-0.1-0.3,0-0.7,0.1-1c0.1-0.3,0.3-0.6,0.6-0.7c0.3-0.2,0.6-0.3,0.9-0.3c0.2,0,0.4,0,0.6,0.1
		c0.2,0.1,0.4,0.2,0.5,0.4c0.2,0.2,0.3,0.3,0.4,0.5C76.4,51.5,76.4,51.7,76.4,51.9z"/>
	<path class="st1" d="M77.6,56.5v0.7c-0.9,0.5-1.9,0.8-2.9,0.8c-1,0-2-0.3-2.9-0.9v-0.7c0-0.8,0.3-1.5,0.9-2c0.5-0.5,1.3-0.8,2-0.8
		c0.8,0,1.5,0.3,2,0.9C77.3,55,77.6,55.8,77.6,56.5z"/>
	<path class="st0" d="M101.9,58H65.6V33.2h36.3V58z M65.9,57.7h35.7V33.5H65.9V57.7z"/>
	<path class="st2" d="M68.4,34.8c0,0.1,0,0.3-0.1,0.4c-0.1,0.1-0.2,0.2-0.3,0.3c-0.1,0.1-0.3,0.1-0.4,0c-0.1,0-0.3-0.1-0.4-0.2
		c-0.1-0.1-0.2-0.2-0.2-0.4c0-0.1,0-0.3,0-0.4c0.1-0.1,0.1-0.2,0.3-0.3c0.1-0.1,0.3-0.1,0.4-0.1c0.2,0,0.4,0.1,0.5,0.2
		C68.4,34.4,68.4,34.6,68.4,34.8z"/>
	<path class="st0" d="M71.4,34.8c0,0.1,0,0.3-0.1,0.4c-0.1,0.1-0.2,0.2-0.3,0.3c-0.1,0.1-0.3,0.1-0.4,0c-0.1,0-0.3-0.1-0.4-0.2
		c-0.1-0.1-0.2-0.2-0.2-0.4c0-0.1,0-0.3,0-0.4c0.1-0.1,0.1-0.2,0.3-0.3c0.1-0.1,0.3-0.1,0.4-0.1c0.2,0,0.4,0.1,0.5,0.2
		C71.3,34.4,71.4,34.6,71.4,34.8z"/>
	<path class="st3" d="M74.3,34.8c0,0.1,0,0.3-0.1,0.4c-0.1,0.1-0.2,0.2-0.3,0.3c-0.1,0.1-0.3,0.1-0.4,0c-0.1,0-0.3-0.1-0.4-0.2
		c-0.1-0.1-0.2-0.2-0.2-0.4c0-0.1,0-0.3,0-0.4c0.1-0.1,0.1-0.2,0.3-0.3c0.1-0.1,0.3-0.1,0.4-0.1c0.2,0,0.4,0.1,0.5,0.2
		C74.3,34.4,74.3,34.6,74.3,34.8z"/>
	<path class="st0" d="M101.7,36h-36v0.3h36V36z"/>
	<path class="st0" d="M87.9,64.5L69,67.1l1.6,12l18.9-2.6L87.9,64.5z"/>
	<path class="st1" d="M87.9,64.5c-0.7,0.8-1.3,1.6-2,2.5c-0.7,0.8-1.4,1.6-2,2.4c-0.7,0.8-1.4,1.7-2.2,2.5L81.6,72
		c-0.6,0.7-1.3,1.5-1.9,2.2l-0.1,0.1l-0.1-0.1c-0.8-0.5-1.6-1.1-2.4-1.6L77,72.5c-0.9-0.6-1.8-1.2-2.7-1.8s-1.7-1.2-2.6-1.8
		c-0.9-0.6-1.7-1.2-2.6-1.8c0.9,0.5,1.8,1.1,2.7,1.6c0.9,0.5,1.8,1.1,2.7,1.6c1,0.6,2,1.2,3,1.9c0.7,0.5,1.5,0.9,2.2,1.4
		c0.6-0.7,1.2-1.3,1.8-2c0.8-0.9,1.6-1.7,2.3-2.6c0.7-0.8,1.4-1.5,2.1-2.3C86.5,66,87.2,65.2,87.9,64.5z"/>
	<path class="st1" d="M77.4,72.5L77.4,72.5c-0.1,0.1-0.2,0.2-0.3,0.3c-0.4,0.5-0.9,0.9-1.3,1.4c-0.5,0.5-1.1,1.1-1.7,1.6
		s-1.1,1-1.7,1.5c-0.6,0.5-1.2,1-1.8,1.4c0.5-0.6,1-1.1,1.6-1.7c0.5-0.5,1.1-1.1,1.7-1.6c0.6-0.5,1.1-1,1.7-1.5
		c0.5-0.4,0.9-0.8,1.4-1.2C77.1,72.6,77.2,72.6,77.4,72.5L77.4,72.5z"/>
	<path class="st1" d="M89.4,76.1c-0.7-0.3-1.4-0.6-2.1-0.9c-0.7-0.3-1.4-0.7-2.1-1c-0.7-0.3-1.4-0.7-2-1.1c-0.5-0.3-1.1-0.6-1.6-1
		l-0.3-0.2l0,0h0l0.4,0.2c0.6,0.2,1.1,0.5,1.7,0.7c0.7,0.3,1.4,0.7,2.1,1c0.7,0.3,1.4,0.7,2,1.1S88.8,75.7,89.4,76.1z"/>
	<path class="st0" d="M170.5,32.8h-23.4v14.8h23.4V32.8z"/>
	<path class="st1" d="M170.5,32.8c-0.9,0.9-1.9,1.8-2.9,2.7c-1,0.9-1.9,1.7-2.9,2.6s-2,1.8-3,2.7l-0.1,0.1c-0.9,0.8-1.8,1.6-2.7,2.3
		l-0.1,0.1l-0.1-0.1c-0.9-0.8-1.8-1.6-2.7-2.3l-0.1-0.1c-1-0.9-2-1.8-3-2.7c-1-0.9-1.9-1.7-2.9-2.6c-1-0.9-1.9-1.8-2.9-2.7
		c1,0.8,2,1.6,3,2.4s2,1.6,3,2.4c1.1,0.9,2.2,1.8,3.3,2.8c0.8,0.7,1.6,1.4,2.5,2.1c0.8-0.7,1.6-1.4,2.5-2.1c1.1-0.9,2.2-1.8,3.3-2.8
		c1-0.8,2-1.6,3-2.4C168.5,34.4,169.5,33.5,170.5,32.8z"/>
	<path class="st1" d="M156.4,40.7C156.4,40.7,156.4,40.7,156.4,40.7c-0.2,0.1-0.3,0.2-0.4,0.3c-0.6,0.5-1.2,1-1.8,1.4
		c-0.7,0.6-1.5,1.1-2.3,1.7c-0.8,0.5-1.5,1.1-2.3,1.6c-0.8,0.5-1.6,1-2.4,1.5c0.7-0.6,1.4-1.2,2.2-1.8c0.8-0.6,1.5-1.1,2.3-1.7
		c0.8-0.5,1.5-1.1,2.3-1.6c0.6-0.4,1.3-0.8,1.9-1.2C156,40.9,156.2,40.8,156.4,40.7L156.4,40.7z"/>
	<path class="st1" d="M170.4,47.1c-0.8-0.5-1.6-0.9-2.4-1.5c-0.8-0.5-1.6-1-2.3-1.6c-0.8-0.5-1.5-1.1-2.3-1.7
		c-0.6-0.5-1.2-0.9-1.8-1.4c-0.1-0.1-0.2-0.2-0.4-0.3c0,0,0,0,0,0l0,0l0.5,0.3c0.7,0.4,1.3,0.8,1.9,1.2c0.8,0.5,1.6,1,2.3,1.6
		c0.8,0.5,1.5,1.1,2.3,1.7C169,45.9,169.7,46.5,170.4,47.1z"/>
	<path class="st0" d="M116.4,144.9c22.7,0,41-1.4,41-3.2c0-1.8-18.4-3.2-41-3.2c-22.7,0-41,1.4-41,3.2
		C75.4,143.5,93.7,144.9,116.4,144.9z"/>
	<path class="st4" d="M130.3,14.9H130v39.4h0.3V14.9z"/>
	<path class="st3" d="M118.4,65.6l0.9,2.1h21.5l0.9-2.1l-9.2-6.3h-5.1L118.4,65.6z"/>
	<path class="st3" d="M127,53.2l0.6,6.1h5.1l0.6-6.1H127z"/>
	<path class="st5" d="M118.4,65.6l0.9,2.1h21.5l0.9-2.1H118.4z"/>
	<path class="st5" d="M127.6,59.3l-0.1-0.7l5.2-0.4l-0.1,1H127.6z"/>
	<path class="st4" d="M110.8,14.9h-0.3v27h0.3V14.9z"/>
	<path class="st3" d="M98.9,53.2l0.9,2.1h21.5l0.9-2.1l-9.2-6.3h-5.1L98.9,53.2z"/>
	<path class="st3" d="M107.4,40.8l0.6,6.1h5.1l0.6-6.1H107.4z"/>
	<path class="st5" d="M98.9,53.2l0.9,2.1h21.5l0.9-2.1H98.9z"/>
	<path class="st5" d="M108.1,46.9l-0.1-0.7l5.3-0.3l-0.1,1H108.1z"/>
	<path class="st6" d="M159.7,104.8c0.1-1.4,0.3-2.9,0.6-4.3c0.3-1.3,0.7-2.6,1.5-3.6c0.4-0.5,0.8-0.9,1.3-1.2
		c0.5-0.3,1.1-0.5,1.7-0.6c1.2-0.1,2.3,0.4,3.2,1.1c1.1,0.9,1.9,2.1,2.7,3.3c0.9,1.3,1.6,2.7,2.3,4.1c0,0,0,0.1-0.1,0
		c-0.6-1.2-1.3-2.3-2.1-3.4c-0.7-1-1.5-2-2.4-2.9c-0.8-0.8-1.8-1.5-3-1.6c-1.2,0-2.2,0.6-3,1.5c-0.8,1-1.2,2.3-1.5,3.5
		c-0.3,1.3-0.5,2.7-0.6,4.1c-0.2,2.8-0.3,5.7-0.4,8.5c0,1.6-0.1,3.2-0.1,4.8l0,2.4c0,0.8,0,1.6-0.1,2.4c0,0.2-0.3,0.1-0.3,0
		c-0.1-0.7-0.1-1.5-0.1-2.2c0-0.8,0-1.5,0-2.3c0-1.5,0-3,0-4.5C159.5,110.8,159.5,107.8,159.7,104.8z"/>
	<path class="st3" d="M163.8,102.6c0.1-0.8,0.4-1.8,0.9-2.5c0.8-1.1,1.7-0.6,0.9,0.6c-0.6,0.9-1,2-1.1,3.1c0,0,1.4,2,3,2.9
		c-0.1-0.8-0.3-1.9-0.1-3.1c0.3-2.4,1.8-2.3,1.4-0.4c-0.3,1.6-0.4,3.2-0.3,3.9c0.6,0.4,1.2,0.7,1.8,0.9c-0.1-0.3-0.2-0.6-0.3-1
		c-0.6-2.2,0.9-2.9,0.9-1.6c0.1,1,0.3,2.1,0.6,3.1c0.8,0.3,1.5,0.5,1.9,0.6c1.1,0.4,2,1,2.7,1.9c0.8-0.7,1.4-1.5,1.9-2.4
		c-0.5-0.4-1.3-1.1-2.4-1.9c-2.1-1.5-1.4-3.3,0.3-2.2c1.2,0.8,2.1,2.4,2.5,3.2c0.6-1.4,0.9-2.9,0.9-4.4c-1.6-1.5-5.7-3.7-4.5-3.7
		c1.1,0,3.6,1.6,4.5,2.2c0-0.4-0.1-0.8-0.1-1.3c-1.5-1-6.6-2.6-5.8-3.1c0.9-0.5,4.4,1.1,5.5,1.6c-0.2-0.7-0.5-1.3-0.9-1.9
		c-2.1-2.9-6-3.9-7.7-3.3c-1.2,0.4-0.9,3.4-1.1,3.3C164.2,95.4,162,96.8,163.8,102.6z M175.5,102.3c0.3-0.4,1.9,0.8,1.5,1.5
		C176.5,104.4,175.1,102.8,175.5,102.3L175.5,102.3z M167.3,99.7c0.4,0.3-0.2,1.8-0.8,1.3C165.9,100.7,166.9,99.5,167.3,99.7
		L167.3,99.7z"/>
	<path class="st6" d="M167.9,100.2c0.2-0.4,0.4-0.9,0.7-1.3c0.2-0.4,0.5-0.8,0.8-1.1c-0.1-0.1-0.1-0.2-0.2-0.3c0,0,0-0.1,0,0
		c0.1,0.1,0.2,0.2,0.2,0.3c0,0,0,0,0,0c0,0,0,0,0,0c0.3,0.4,0.6,0.7,0.8,1.1c0.5,0.1,0.9,0.2,1.4,0.4c0.5,0.2,0.9,0.3,1.4,0.5
		c0,0,0,0.1,0,0.1c-0.5-0.2-0.9-0.4-1.4-0.5c-0.5-0.2-0.9-0.3-1.3-0.4c0.1,0.2,0.3,0.4,0.4,0.6c0.8,0.3,1.7,0.6,2.5,1
		c0.8,0.4,1.6,0.9,2.4,1.3c0,0,0,0.1,0,0.1c-0.8-0.5-1.6-0.9-2.4-1.2c-0.8-0.4-1.6-0.7-2.3-1c2,3.1,3.1,6.6,4.7,9.8
		c0,0-0.1,0.1-0.1,0c-0.5-1.1-1-2.3-1.6-3.4c-0.5-1-0.9-2-1.4-3c-0.1-0.3-0.3-0.6-0.4-0.9c0.1,1.6,0.1,3.3,0.3,4.9c0,0,0,0,0,0
		c0,0,0,0,0,0c0,0,0,0,0,0c0,0,0,0,0,0c0,0,0,0,0,0c0,0,0,0,0,0c0,0,0,0,0,0c0,0,0,0,0,0c-0.1-1.7-0.4-3.5-0.4-5.2c0,0,0,0,0,0
		c-0.3-0.7-0.7-1.3-1.1-2c-0.6,1.5-1.3,3.1-1.6,4.7c0,0-0.1,0-0.1,0c0.4-1.6,0.9-3.3,1.6-4.8c-0.4-0.7-0.9-1.4-1.4-2
		c-0.2,0.4-0.5,0.8-0.7,1.2c-0.2,0.4-0.5,0.8-0.7,1.1c-0.5,0.8-0.9,1.7-1.2,2.6c0,0-0.1,0-0.1,0
		C167.1,101.9,167.5,101.1,167.9,100.2z"/>
	<path class="st6" d="M152.5,103.9c1.3-1.3,2.7-2.9,4.7-2.9c1.9,0,3.3,1.5,4,3.1c0.8,1.6,1.1,3.5,1.4,5.3c0.3,2.1,0.4,4.3,0.5,6.5
		c0,1.2,0,2.4,0,3.6c0,1.2-0.1,2.4-0.3,3.6c0,0.2-0.3,0.2-0.4,0c-0.1-1,0-2,0-3c0-1,0-2,0-3c-0.1-2-0.2-4-0.5-6
		c-0.2-1.8-0.4-3.5-0.9-5.2c-0.5-1.5-1.4-3.3-2.9-3.9C156,100.9,153.9,102.6,152.5,103.9C152.5,104,152.4,104,152.5,103.9z"/>
	<path class="st3" d="M146.1,106.7c0,0.3,0,0.5,0,0.8c0.6-0.5,1.3-0.7,2.1-0.9c1.8-0.2,1.7,1.2,0.5,1.2c-0.8,0-1.7,0.2-2.4,0.5
		c0.3,2.4,0.9,4.2,1,4.3c1.6-0.1,3.2-0.3,4.7-0.6c-0.4-0.9-1.5-2.2-0.9-2.3c0.5-0.1,1.1,1,1.4,2.2c1.2-0.2,2.3-0.5,3.4-0.9
		c-0.8-0.7-2-1.5-1.5-1.9c0.5-0.4,1.4,0.8,2,1.7c0.5-0.2,1-0.5,1.5-0.8c-1.1-1.6-3.6-1.9-3.3-3c0.3-1.1,2.7,0.4,3.8,2.5
		c1.3-1.3,1.6-3.2,1.5-4.8c-1.1-0.1-3.2,0.1-3.1-0.7c0.2-0.8,1.7-0.6,2.9-0.2c-0.1-0.6-0.4-1.2-0.7-1.8c-1.2-1.5-4.7,0.4-4.7,0.4
		s0.4-3.6-1-4.2c-0.8-0.4-2.2-0.4-3.5,0.5c0.8,0.1,1.7,0.3,2.1,0.9c0.5,0.7-0.3,1.1-0.8,0.7c-0.3-0.2-1-0.9-2.1-1
		c-0.5,0.4-0.9,0.9-1.3,1.4c-0.1,0.2-0.3,0.4-0.4,0.6c0.7-0.3,1.4-0.4,2.1-0.4c0.7,0,1.4,0.2,2.1,0.5c1.5,0.8,0.7,2.4-0.6,1.7
		c-1.3-0.6-2.6-1.2-4-0.9c-0.5,1.3-0.7,2.6-0.7,4c0.7-0.5,1.5-0.9,2.3-1.1c1.5-0.4,2,0.5,0.3,0.7C147.8,106,146.9,106.3,146.1,106.7
		z M148,104.3c-0.1-0.5,1-0.6,1.2-0.2C149.3,104.4,148.1,104.8,148,104.3z M157.2,107c0.1-0.3,0.8,0,0.8,0.4
		C157.9,107.8,157.1,107.3,157.2,107z M152.1,108.8c0.5-0.2,1.4,1.1,0.8,1.4S151.7,108.9,152.1,108.8z"/>
	<path class="st6" d="M147.5,112.3c0.8-1.3,1.6-2.7,2.4-4c0.4-0.6,0.8-1.2,1.2-1.8l-0.2,0l-0.3-0.1c-0.2,0-0.5-0.1-0.7-0.1
		c-0.2,0-0.5,0-0.7,0c-0.3,0-0.5,0-0.7,0c0,0,0,0,0,0c0,0,0,0,0,0c0,0,0,0,0,0c0,0,0,0,0,0c0.2,0,0.5,0,0.8,0c0.2,0,0.5,0,0.7,0
		c0.2,0,0.5,0,0.7,0.1c0.1,0,0.2,0,0.4,0.1c0.1,0,0.2,0,0.2,0c0.4-0.6,0.9-1.2,1.3-1.8c-1.4-0.7-2.9-1.1-4.4-1.4c0,0,0,0,0,0
		c1.5,0.2,3,0.7,4.4,1.3l0.8-0.9c0.3-0.3,0.6-0.7,0.9-1.1c0,0,0.1,0,0,0c-0.4,0.4-0.7,0.8-1,1.2c0.6,0.4,1.1,0.8,1.6,1.3
		c0.5,0.5,1,1,1.6,1.5c0,0,0,0,0,0c-0.5-0.5-1-1-1.6-1.4c-0.5-0.4-1.1-0.9-1.6-1.3c-0.1,0.2-0.2,0.3-0.4,0.5
		c-0.1,0.1-0.1,0.2-0.2,0.2l0,0c-0.2,0.3-0.4,0.5-0.6,0.8c0.2,0.4,0.4,0.7,0.6,1.1c0.2,0.4,0.3,0.8,0.5,1.1c0.3,0.8,0.5,1.7,0.7,2.5
		c0,0,0,0,0,0c-0.2-0.8-0.4-1.7-0.7-2.5c-0.2-0.4-0.3-0.8-0.5-1.2c-0.2-0.4-0.4-0.7-0.5-1.1c-0.2,0.2-0.4,0.5-0.5,0.7
		c-0.1,0.1-0.1,0.1-0.1,0.2c0,0,0,0,0,0c-0.5,0.8-1.1,1.5-1.6,2.3c0,0.1,0.1,0.1,0.1,0.2c0,0.1,0.1,0.2,0.1,0.3
		c0.1,0.2,0.1,0.4,0.1,0.6c0,0.2,0.1,0.4,0.1,0.6c0,0.2,0,0.4,0,0.6c0,0,0,0,0,0c0-0.2,0-0.4,0-0.6c0-0.2-0.1-0.4-0.1-0.6
		c0-0.2-0.1-0.4-0.1-0.5c0-0.1-0.1-0.2-0.1-0.3s0-0.1-0.1-0.1c-0.2,0.4-0.5,0.7-0.7,1.1C148.4,110.9,148,111.6,147.5,112.3
		C147.5,112.4,147.5,112.4,147.5,112.3C147.5,112.4,147.5,112.4,147.5,112.3C147.5,112.4,147.5,112.4,147.5,112.3
		C147.5,112.4,147.5,112.4,147.5,112.3z"/>
	<path class="st6" d="M159.8,122.6c0-0.8,0.1-1.5,0.2-2.3c0.1-0.8,0.2-1.5,0.2-2.3c0.2-1.5,0.2-2.9,0.6-4.4c0.3-1.2,0.9-2.4,1.8-3.3
		c0.5-0.5,1.1-0.8,1.7-0.8c0.7,0,1.3,0.2,1.9,0.6c0.6,0.5,1.1,1,1.6,1.6c0.5,0.6,0.9,1.3,1.2,2c0,0,0,0,0,0
		c-0.7-1.1-1.6-2.1-2.6-2.9c-0.5-0.4-1-0.6-1.7-0.7c-0.3,0-0.6,0-0.9,0.2c-0.3,0.1-0.5,0.3-0.7,0.5c-0.9,0.8-1.4,1.9-1.7,3
		c-0.4,1.3-0.5,2.7-0.7,4c-0.1,0.8-0.2,1.6-0.3,2.4c-0.1,0.8-0.2,1.6-0.3,2.4c0,0,0,0-0.1,0.1c0,0-0.1,0-0.1,0
		C159.9,122.7,159.8,122.7,159.8,122.6C159.8,122.7,159.8,122.6,159.8,122.6z"/>
	<path class="st3" d="M163.5,116.7c0.2,0.3,0.5,0.6,0.8,0.8c-0.1-0.7-0.3-2.1,0.1-2.7c0.6-1.1,1.3-0.5,0.9,0.4
		c-0.3,0.9-0.5,1.8-0.6,2.7c0.8,0.5,1.6,0.9,2.5,1.2c-0.1-0.4-0.1-0.9-0.1-1.3c0.1-1.2,1-1.1,0.8,0.1c-0.1,0.5-0.1,0.9-0.1,1.4
		c1.3,0.4,2.6,0.7,3.9,0.9c0.7-0.9,1.2-1.9,1.6-2.9c-0.9-0.2-2.9-0.3-2.8-1c0.1-0.9,1.9-0.2,3,0.4c0.2-0.8,0.4-1.6,0.3-2.4
		c-0.8-0.2-1.7-0.4-2.6-0.4c-1.9-0.2-1.9-1.3-0.4-1.2c1,0,2.4,0.7,3,1c-0.4-2.6-2.4-4.3-4-4.4c-2.7-0.1-1.7,3.3-1.7,3.3
		s-1.8-1.3-3.6-1.3C162.7,111.3,161.6,114.1,163.5,116.7z M170.8,111.8c-0.1-0.4,1.1-0.5,1.2,0C172.1,112.4,170.8,112.2,170.8,111.8
		z M172.7,115.8c0-0.2,0.5-0.3,0.6,0C173.4,116,172.7,116,172.7,115.8z M166.2,116c0.4,0.1,0.6,1.5-0.1,1.5
		C165.6,117.5,165.8,116,166.2,116z"/>
	<path class="st6" d="M166.8,117.7c0.1-0.2,0.1-0.4,0.2-0.6C166.9,117.3,166.8,117.5,166.8,117.7
		C166.8,117.7,166.8,117.7,166.8,117.7C166.8,117.7,166.8,117.7,166.8,117.7C166.8,117.7,166.8,117.7,166.8,117.7
		C166.8,117.7,166.8,117.7,166.8,117.7C166.8,117.7,166.8,117.7,166.8,117.7C166.8,117.7,166.8,117.7,166.8,117.7
		C166.8,117.7,166.8,117.7,166.8,117.7C166.8,117.7,166.8,117.7,166.8,117.7z"/>
	<path class="st6" d="M167.5,115.3c0.1-0.4,0.3-0.7,0.4-1.1c0.1-0.2,0.2-0.4,0.2-0.6c0.1-0.2,0.1-0.3,0.2-0.5
		c-0.1-0.2-0.2-0.3-0.2-0.5c0,0,0,0,0,0c0.2,0.3,0.4,0.5,0.5,0.8c0.1,0.1,0.1,0.3,0.2,0.4c0.2,0,0.3,0,0.5,0.1
		c0.2,0,0.3,0.1,0.5,0.1c0.2,0,0.3,0.1,0.5,0.1s0.3,0.1,0.5,0.1c0,0,0,0.1,0,0.1c-0.2-0.1-0.3-0.1-0.5-0.1c-0.2,0-0.3-0.1-0.5-0.1
		s-0.3,0-0.5-0.1l-0.4,0c0.1,0.1,0.1,0.2,0.2,0.3c0,0,0,0,0,0.1c0.1,0,0.3,0,0.4,0c0.1,0,0.3,0.1,0.4,0.1c0.3,0.1,0.6,0.1,0.8,0.2
		c0.6,0.2,1.2,0.4,1.8,0.5c0,0,0,0.1,0,0c-0.6-0.2-1.2-0.4-1.8-0.5c-0.3-0.1-0.6-0.1-0.8-0.2l-0.4-0.1c-0.1,0-0.2,0-0.3-0.1
		c0.3,0.6,0.6,1.1,0.8,1.7c0.6,1.2,1,2.5,1.5,3.8c0,0,0,0.1,0,0c-0.5-1.3-1-2.5-1.6-3.7c-0.1-0.2-0.2-0.4-0.3-0.7c0,0,0,0.1,0,0.1
		c0,0.1-0.1,0.3-0.1,0.5c-0.1,0.3-0.1,0.6-0.1,0.9c-0.1,0.6-0.2,1.3-0.2,1.9c0,0-0.1,0-0.1,0c0-0.3,0-0.6,0.1-0.9s0-0.6,0.1-1
		c0-0.3,0.1-0.6,0.1-0.9c0-0.2,0.1-0.3,0.1-0.5c0-0.1,0-0.2,0.1-0.3c-0.2-0.3-0.3-0.6-0.5-1c-0.2-0.3-0.3-0.6-0.5-0.9
		c-0.1-0.1-0.1-0.3-0.2-0.4c-0.1,0.2-0.1,0.3-0.2,0.5l-0.2,0.5c-0.2,0.4-0.3,0.8-0.4,1.1c-0.2,0.5-0.4,1.1-0.6,1.7
		C167.1,116.4,167.3,115.9,167.5,115.3z"/>
	<path class="st6" d="M166.9,117.1c0,0,0-0.1,0-0.1C167,117,167,117.1,166.9,117.1z"/>
	<path class="st7" d="M155.2,121.1l0.2,4l0.5,10.4h10.8l0.5-10.4l0.2-4H155.2z"/>
	<path class="st6" d="M155.2,121.1l0.2,4h11.7l0.2-4H155.2z"/>
	<path class="st7" d="M154.5,122.8h13.7v-3.3h-13.7V122.8z"/>
	<path class="st7" d="M165.8,135.6h-1.9v1.7h1.9V135.6z"/>
	<path class="st6" d="M165.8,135.6h-1.9v0.9h1.9V135.6z"/>
	<path class="st7" d="M158.7,135.6h-1.9v1.7h1.9V135.6z"/>
	<path class="st6" d="M158.7,135.6h-1.9v0.9h1.9V135.6z"/>
	<path class="st6" d="M60.4,137.4l15-0.1l15,0l30,0l30,0l15,0l15,0.1l-15,0.1l-15,0l-30,0l-30,0l-15,0L60.4,137.4z"/>
	<path class="st6" d="M120.4,100c-0.3,0-0.6,0-1,0v-0.2c0.3,0,0.7,0,1,0h0.2v0.2H120.4L120.4,100z M122,100l0-0.2
		c0.4,0,0.8-0.1,1.1-0.1l0,0.2C122.8,99.9,122.4,100,122,100z M118,99.9c-0.4,0-0.8-0.1-1.1-0.1l0-0.2c0.4,0,0.8,0.1,1.1,0.1
		L118,99.9z M124.6,99.7l0-0.2c0.4-0.1,0.7-0.2,1.1-0.3l0.1,0.2C125.4,99.5,125,99.6,124.6,99.7L124.6,99.7z M115.5,99.6
		c-0.4-0.1-0.8-0.1-1.1-0.2l0-0.2c0.4,0.1,0.8,0.1,1.1,0.2L115.5,99.6z M112.9,99c-0.4-0.1-0.7-0.2-1.1-0.3l0.1-0.2
		c0.4,0.1,0.7,0.2,1.1,0.3L112.9,99z M127.1,99l-0.1-0.2c0.4-0.1,0.7-0.3,1.1-0.4l0.1,0.2C127.8,98.7,127.5,98.9,127.1,99L127.1,99z
		 M110.4,98.3c-0.7-0.2-1.1-0.4-1.1-0.4l0.1-0.2c0,0,0.4,0.2,1.1,0.4L110.4,98.3z M129.5,97.9l-0.1-0.2c0.3-0.2,0.7-0.4,1-0.6
		l0.1,0.2C130.1,97.5,129.8,97.7,129.5,97.9L129.5,97.9z M131.6,96.5l-0.1-0.2c0.3-0.2,0.6-0.5,0.9-0.7l0.1,0.2
		C132.2,96,131.9,96.2,131.6,96.5L131.6,96.5z M133.6,94.8l-0.1-0.2c0.3-0.3,0.5-0.5,0.8-0.8l0.2,0.1
		C134.1,94.2,133.9,94.5,133.6,94.8L133.6,94.8z M135.3,92.8l-0.2-0.1c0.2-0.3,0.5-0.6,0.7-0.9l0.2,0.1
		C135.8,92.2,135.6,92.6,135.3,92.8L135.3,92.8z M136.8,90.7l-0.2-0.1c0.2-0.3,0.4-0.7,0.6-1l0.2,0.1C137.2,90,137,90.4,136.8,90.7
		L136.8,90.7z M138,88.4l-0.2-0.1c0.1-0.3,0.3-0.7,0.4-1.1l0.2,0.1C138.3,87.7,138.1,88.1,138,88.4L138,88.4z M138.8,86l-0.2-0.1
		c0.1-0.4,0.2-0.7,0.3-1.1l0.2,0C139.1,85.2,139,85.6,138.8,86L138.8,86z M139.4,83.4l-0.2,0c0.1-0.4,0.1-0.8,0.1-1.1l0.2,0
		C139.5,82.7,139.5,83.1,139.4,83.4L139.4,83.4z M139.6,80.9h-0.2c0-0.2,0-0.3,0-0.5c0-0.2,0-0.4,0-0.6h0.2c0,0.2,0,0.4,0,0.6
		C139.6,80.5,139.6,80.7,139.6,80.9L139.6,80.9z M140.7,80.6c-0.2,0-0.3,0-0.5,0v-0.2c0.4,0,0.8,0,1.1,0l0,0.2
		C141.2,80.6,140.9,80.6,140.7,80.6L140.7,80.6z M138.8,80.4c-0.4-0.1-0.8-0.2-1.1-0.3l0.1-0.2c0.4,0.1,0.7,0.2,1.1,0.3L138.8,80.4z
		 M142.8,80.4l0-0.2c0.4-0.1,0.7-0.2,1.1-0.3l0.1,0.2C143.6,80.2,143.2,80.3,142.8,80.4L142.8,80.4z M136.3,79.7
		c-0.4-0.2-0.7-0.3-1-0.5l0.1-0.2c0.3,0.2,0.7,0.4,1,0.5L136.3,79.7z M145.3,79.5l-0.1-0.2c0.3-0.2,0.7-0.4,1-0.6l0.1,0.2
		C146,79.2,145.6,79.4,145.3,79.5L145.3,79.5z M134.1,78.3c-0.2-0.2-0.4-0.3-0.6-0.5c-0.1-0.1-0.2-0.2-0.3-0.3l0.2-0.2
		c0.1,0.1,0.2,0.2,0.3,0.3c0.2,0.2,0.4,0.3,0.5,0.5L134.1,78.3z M139.3,78.3c0-0.4-0.1-0.8-0.2-1.1l0.2,0c0.1,0.4,0.1,0.8,0.2,1.1
		L139.3,78.3z M147.4,78.1l-0.1-0.2c0.3-0.3,0.6-0.5,0.8-0.8l0.2,0.1C148,77.6,147.7,77.8,147.4,78.1L147.4,78.1z M132.4,76.4
		c-0.2-0.3-0.4-0.7-0.5-1l0.2-0.1c0.1,0.4,0.3,0.7,0.5,1L132.4,76.4z M149.2,76.1L149,76c0.2-0.2,0.3-0.5,0.5-0.7
		c0-0.1,0.1-0.2,0.1-0.2l0.2,0.1c0,0.1-0.1,0.2-0.1,0.2C149.5,75.7,149.3,75.9,149.2,76.1L149.2,76.1z M138.9,75.8
		c-0.1-0.4-0.2-0.7-0.3-1.1l0.2-0.1c0.1,0.3,0.2,0.7,0.3,1.1L138.9,75.8z M131.8,73.9h-0.2c0-0.4,0.1-0.8,0.3-1.1l0.2,0.1
		C131.9,73.2,131.8,73.6,131.8,73.9z M150.4,73.9l-0.2-0.1c0.1-0.3,0.3-0.7,0.4-1.1l0.2,0.1C150.7,73.2,150.6,73.5,150.4,73.9
		L150.4,73.9z M137.9,73.4c-0.2-0.3-0.4-0.6-0.6-0.9l0.2-0.1c0.2,0.3,0.5,0.6,0.6,1L137.9,73.4z M132.9,71.8l-0.1-0.2
		c0.3-0.2,0.7-0.4,1-0.5l0.1,0.2C133.5,71.4,133.2,71.5,132.9,71.8L132.9,71.8z M136.2,71.6c-0.3-0.2-0.7-0.3-1-0.4l0-0.2
		c0.4,0.1,0.8,0.2,1.1,0.4L136.2,71.6z M151.3,71.4l-0.2-0.1c0.1-0.3,0.2-0.7,0.3-1.1l0.2,0C151.4,70.7,151.3,71.1,151.3,71.4
		L151.3,71.4z M151.8,68.9l-0.2,0l0.2-1.1l0.2,0L151.8,68.9z M152.3,66.4l-0.2,0c0.1-0.4,0.2-0.8,0.3-1.1l0.2,0.1
		C152.5,65.6,152.4,66,152.3,66.4L152.3,66.4z M153.1,63.9l-0.2-0.1c0.1-0.4,0.3-0.7,0.4-1.1l0.2,0.1
		C153.3,63.2,153.2,63.6,153.1,63.9L153.1,63.9z M154.3,61.7l-0.2-0.1c0.2-0.3,0.5-0.6,0.7-0.9l0.2,0.1
		C154.7,61.1,154.5,61.4,154.3,61.7L154.3,61.7z M156,59.9l-0.1-0.2c0.3-0.2,0.6-0.4,1-0.6l0.1,0.2C156.7,59.5,156.3,59.7,156,59.9
		L156,59.9z M158.3,58.7l-0.1-0.2c0.3-0.1,0.6-0.2,0.9-0.4l0.1,0.2C158.9,58.4,158.5,58.5,158.3,58.7L158.3,58.7z"/>
	<path class="st3" d="M158.5,53.7l-2.2,6l4.6-3.6l17.6-6.4L158.5,53.7z"/>
	<path class="st5" d="M158.5,53.7l-2.2,6l4.6-3.6l17.6-6.4L158.5,53.7z"/>
	<path class="st6" d="M161.5,57.6l-5.2,2.2l4.6-3.6L161.5,57.6z"/>
	<path class="st3" d="M160.9,56.2l17.6-6.4l-14.4,14.1L160.9,56.2z"/>
	<path class="st3" d="M158.5,53.7l-7.3-4.7l27.3,0.8L158.5,53.7z"/>
	<path class="st3" d="M72.7,137.3l47.7,0.2c11.6-9.1,12.8-22.6,4.5-30.8c-5-4.9-11.4-4-17.4-4.7h0c-2.1-0.3-4.2-0.8-6.1-1.8
		c-6.2-3.3-9.7-11-15-17.6c-0.7-0.8-1.3-1.6-2.1-2.4C80,75.6,71.4,75.5,66.9,82C55.5,98.4,60.7,122.9,72.7,137.3z"/>
	<path class="st5" d="M71.6,99.7c1.2,19.6,23.9,26.9,38,21c12.3-5.1,8.3-16.7-2.1-18.7h0c-2.1-0.3-4.2-0.8-6.1-1.8
		c-6.2-3.3-9.7-11-15-17.6C78.5,78.6,70.7,85.3,71.6,99.7z"/>
	<path class="st8" d="M116.5,140.4c-0.7-0.3-17.4-13.6-17.7-14.5c-0.1-0.3,1.7-2.9,3.9-5.9c0.5-0.6,1-1.3,1.5-2c3.4-4.4,7-8.9,7-8.9
		l11.2,8.9l-7.3,8.7l-1.6,1.9c0,0,4.1,7.9,4.3,9C118.1,138.6,117.3,140.7,116.5,140.4z"/>
	<path class="st6" d="M116.5,140.4c-0.7-0.3-17.4-13.6-17.7-14.5c-0.1-0.3,1.1-2,2.7-4.3c2.4,2.9,10.8,11.5,13.1,12.6
		c1.5,0.7,1.2-0.7,0.6-2.1c1.1,2.2,2.4,4.8,2.5,5.4C118.1,138.6,117.3,140.7,116.5,140.4z"/>
	<path class="st7" d="M133.7,100.9c-0.8,5.8-15,22.5-16.7,24.4l-0.4,0.4l-11.8-9.1l0.1-0.2l10.4-13.6c0,0-17.2,10-25.8,5.5
		c-3.9-2-6.7-5.7-6.7-5.7l11.2-6c0,0,3.1,1,5.1,0.7c6.8-1,22.2-6.8,25.8-6.7C129.7,91,134.4,95.6,133.7,100.9z"/>
	<path class="st6" d="M119.1,97.9c-0.4,0.4-0.7,0.9-1.1,1.4c-0.4,0.5-0.7,1-1.1,1.4v0c0.1-0.1,0.1-0.3,0.2-0.4
		c0.2-0.5,0.4-1,0.7-1.4c0,0,0,0,0,0c0,0,0,0,0,0c0,0,0,0,0,0c0,0,0,0,0,0c-0.3,0.5-0.6,0.9-0.9,1.4c-0.1,0.2-0.2,0.5-0.3,0.7
		c-0.1,0.1-0.1,0.3-0.2,0.4c0,0.1,0,0.1-0.1,0.2c-0.2,0.2-0.3,0.4-0.5,0.7c-0.3,0.5-0.7,1-1,1.5c0,0,0,0.1,0,0
		c0.4-0.5,0.8-0.9,1.1-1.4c0.4-0.5,0.7-1,1.1-1.5c0.3-0.5,0.7-1,1-1.5C118.5,98.9,118.8,98.4,119.1,97.9
		C119.2,97.9,119.1,97.9,119.1,97.9z"/>
	<path class="st6" d="M81,81.2c-0.2,3.5-0.9,7.6,0.5,10.8c1.1,2.6,3.6,4.3,6.1,5.4c5.5,2.4,13.2,2.7,17-2.7c1.5-2.2,1.8-6.7-0.8-8.4
		c-1.3-0.9-2.9-1-4.3-1.4c-0.9-0.2-1.8-0.6-2.5-1.2c-0.7-0.6-1.3-1.3-1.7-2.2c-1.8-3.5-1.4-6.1-1.8-10c0-0.4-0.1-0.8-0.3-1.1
		c-0.2-0.3-0.4-0.7-0.7-0.9c-0.6-0.6-1.4-1.1-2.3-1.3c-0.7-0.3-1.5-0.5-2.3-0.4c-1.7,0.2-3.3,1.7-4.6,2.7c-1.3,1-1.9,2-2,3.7
		C81.2,76.5,81.1,78.9,81,81.2z"/>
	<path class="st6" d="M80.6,82.8c0.3-3.2,0.8-6.3,1.1-9.5c0,0,0,0,0,0c-0.2,2.6-0.5,5.2-0.7,7.8c-0.3,2.5-0.7,5.2-0.8,7.7
		c-0.1,5.8,5.8,8.1,10.7,7.8c0.2,0,0.2,0.3,0,0.3c-4.3,0.1-9.4-1.4-10.7-6C79.5,88.4,80.3,85.4,80.6,82.8z"/>
	<path class="st6" d="M93.2,71.2C93.2,71.1,93.3,71.1,93.2,71.2c0.2,3.2,0.1,6.9,1.9,9.6c0.9,1.4,2.2,2.4,3.7,3
		c1.2,0.5,2.4,0.5,3.7,0.8c4.9,1,4.9,7.5,1.4,10.1c-0.1,0.1-0.2-0.1-0.1-0.1c2.5-2,3.3-5.6,1.3-8.2c-1.6-2.1-4.7-1.4-7-2.6
		C93.5,81.4,93.2,75.8,93.2,71.2z"/>
	<path class="st8" d="M88.3,84.9c2.1,3,9.3,11.3,14.3,12.4c2.7,0.6,16,2.5,17.8,0.8c2.1-1.9,1.1-9.2-0.5-9.3
		c-5.2-0.2-14.7,0.8-17.1,0.3c-1.1-0.2-6.8-3.9-12.9-6.9C87.5,81.2,86.9,83,88.3,84.9z"/>
	<path class="st0" d="M93.4,92.2l2-7.4c0,0-3.4-1.9-5.4-2.6c-2.7-1-3.7-0.3-2,2.8C89.1,87,93.4,92.2,93.4,92.2z"/>
	<path class="st6" d="M92.9,91.2c0.2-1.1,0.4-2.2,0.7-3.3c0.1-0.5,0.3-1.1,0.4-1.6c0.2-0.5,0.4-1.1,0.5-1.6c0,0,0.1,0,0,0
		c-0.2,0.5-0.3,1.1-0.4,1.6c-0.1,0.5-0.3,1.1-0.4,1.6C93.5,89.1,93.2,90.1,92.9,91.2C92.9,91.3,92.9,91.2,92.9,91.2z"/>
	<path class="st6" d="M95.1,85.9l-1.7,6.2c0,0-4.3-5.2-5.4-7.2c-0.5-1-0.8-1.7-0.8-2.2L95.1,85.9z"/>
	<path class="st0" d="M77.5,105.4c0.7,0.2,19.4-5.2,19.4-5.2l-2.2-6.5c0,0,1.1-2.1,0.6-4.1c-0.7-2.7-5.7-7.1-6.1-7.4
		c-1.6-1-3-1-4.3-0.3C79.4,84.7,77.5,105.4,77.5,105.4z"/>
	<path class="st6" d="M91.8,84.5c0.5,0.6,1,1.1,1.5,1.6c-0.2-0.4-0.5-0.8-0.7-1.2c0,0,0,0,0,0c0.4,0.5,0.7,1,1,1.5
		c0.4,0.4,0.7,0.9,1,1.3c0.4,0.6,0.7,1.2,0.9,1.8c0.2,0.7,0.2,1.3,0.1,2c-0.1,0.8-0.4,1.5-0.6,2.2c0,0.1-0.2,0-0.1-0.1
		c0.4-1.3,0.8-2.6,0.5-3.9c-0.3-1.3-1.1-2.4-1.9-3.5C92.8,85.7,92.3,85.1,91.8,84.5C91.7,84.5,91.8,84.5,91.8,84.5z"/>
	<path class="st6" d="M88.7,93.2c0.8-0.2,1.6-0.3,2.4-0.3c0.4,0,0.8,0,1.2,0c0.2,0,0.4,0,0.6,0c0.2,0,0.4,0,0.6-0.1c0,0,0,0,0,0
		C93.4,92.9,93.2,93,93,93c-0.2,0-0.4,0-0.6,0.1c-0.4,0-0.8,0-1.2,0C90.3,93.1,89.5,93.1,88.7,93.2C88.6,93.2,88.6,93.2,88.7,93.2z"
		/>
	<path class="st6" d="M86.9,94.4c0.6-0.2,1.3-0.5,1.9-0.6c0.3-0.1,0.7-0.2,1-0.2l0.5-0.1c0.2,0,0.4,0,0.5-0.1c0,0,0,0,0,0
		c-0.2,0-0.3,0.1-0.5,0.1l-0.5,0.1c-0.3,0.1-0.7,0.2-1,0.3C88.2,94.1,87.6,94.3,86.9,94.4C86.9,94.5,86.9,94.5,86.9,94.4
		C86.9,94.4,86.9,94.4,86.9,94.4C86.9,94.4,86.9,94.4,86.9,94.4C86.9,94.4,86.9,94.4,86.9,94.4z"/>
	<path class="st8" d="M86,82.2c0.1,0.3,1.7,2.6,3.2,2.5c0.5,0,0.5-2.8,0.5-2.8l0-0.2l0.7-2.8l-3.8-2.5C86.7,76.4,86,82,86,82.2z"/>
	<path class="st6" d="M90.5,78.9l-0.7,2.9c-0.8-0.3-1.5-0.8-2-1.3c-0.6-0.6-1-1.3-1.3-2.1c0.1-1,0.2-1.8,0.2-1.9c0,0,0,0,0,0
		l0.5,0.3L90.5,78.9z"/>
	<path class="st8" d="M94.2,73.6c1.3,5-1.6,6.3-2.6,6.6c-1,0.2-4.3,1-6.1-3.9c-1.8-4.8,0.1-7,2.3-7.7C90,68,92.9,68.6,94.2,73.6z"/>
	<path class="st6" d="M93.2,73c-0.1,0-0.2,0-0.4,0c-0.1,0-0.3,0-0.4-0.1c0,0,0-0.1-0.1-0.1c0,0,0-0.1,0-0.1c0-0.1,0.1-0.1,0.2-0.1
		c0.1,0,0.2,0,0.2,0c0.2,0,0.3,0.1,0.5,0.2c0,0,0,0.1,0,0.1c0,0,0,0.1,0,0.1C93.4,72.9,93.4,72.9,93.2,73C93.3,73,93.3,73,93.2,73z"
		/>
	<path class="st6" d="M89.9,74c0.1,0,0.2-0.1,0.3-0.1c0.1,0,0.2-0.1,0.3-0.2c0,0,0-0.1,0-0.1c0,0,0-0.1-0.1-0.1
		c-0.1,0-0.1-0.1-0.2-0.1c-0.1,0-0.2,0-0.2,0c-0.2,0.1-0.3,0.2-0.4,0.3c0,0,0,0.1,0,0.1c0,0,0,0.1,0,0.1c0,0,0.1,0.1,0.1,0.1
		C89.8,74,89.9,74,89.9,74z"/>
	<path class="st6" d="M90.7,74.7C90.7,74.7,90.7,74.7,90.7,74.7c0.1,0.4,0.1,0.8-0.2,1c0,0,0,0,0,0C90.9,75.5,90.9,75,90.7,74.7z"/>
	<path class="st6" d="M90.4,74.4c-0.6,0.1-0.4,1.2,0.1,1.1C91,75.4,90.8,74.3,90.4,74.4z"/>
	<path class="st6" d="M90.2,74.5c-0.1,0.1-0.2,0.2-0.3,0.2c-0.1,0-0.3-0.1-0.4-0.2c0,0,0,0,0,0c0,0.2,0.2,0.4,0.4,0.4
		C90.1,75,90.2,74.7,90.2,74.5C90.2,74.5,90.2,74.4,90.2,74.5z"/>
	<path class="st6" d="M92.7,74.2C92.7,74.2,92.8,74.2,92.7,74.2c0.1,0.4,0.2,0.8,0.5,0.8v0C92.9,75.1,92.7,74.6,92.7,74.2z"/>
	<path class="st6" d="M93,73.8c0.5-0.1,0.8,1,0.3,1.1C92.7,75,92.5,73.9,93,73.8z"/>
	<path class="st6" d="M93.2,73.8c0.1,0,0.2,0.1,0.3,0.1c0.1,0,0.2-0.2,0.2-0.3c0,0,0,0,0,0c0,0.2,0,0.4-0.2,0.5
		C93.4,74.3,93.3,74.1,93.2,73.8C93.2,73.9,93.2,73.8,93.2,73.8z"/>
	<path class="st6" d="M91.2,77.7c0.1,0.1,0.2,0.2,0.3,0.2c0.1,0,0.3-0.1,0.4-0.1c0,0,0,0,0,0c0,0.1-0.1,0.1-0.2,0.2
		c-0.1,0-0.2,0.1-0.2,0.1c-0.1,0-0.1,0-0.2-0.1C91.2,77.9,91.2,77.8,91.2,77.7C91.2,77.7,91.2,77.7,91.2,77.7z"/>
	<path class="st6" d="M92.5,76.1c0.1,0.2,0.1,0.5,0.2,0.8c0,0-0.1,0-0.1,0.1c-0.2,0.1-0.4,0.1-0.6,0c-0.2,0-0.4-0.2-0.6-0.3
		c0,0,0,0,0,0c0,0,0,0,0,0c0,0,0,0,0,0c0,0,0,0,0,0c0.3,0.2,0.7,0.2,1.1,0.1c0-0.1-0.3-0.9-0.2-0.9c0.2,0,0.4,0,0.6,0
		c-0.3-1.1-0.7-2.1-1-3.2c0,0,0,0,0,0c0,0,0,0,0,0c0,0,0,0,0,0c0,0,0,0,0,0c0.5,1.1,0.9,2.2,1.2,3.3C93.1,76.3,92.6,76.2,92.5,76.1z
		"/>
	<path class="st6" d="M92.5,76.9c-0.1,0.2-0.3,0.4-0.4,0.6c-0.1,0.1-0.2,0.1-0.4,0.1c-0.3,0-0.4-0.3-0.4-0.5c0-0.1,0-0.2,0-0.4
		C91.7,76.9,92.1,76.9,92.5,76.9z"/>
	<path class="st9" d="M92.1,77.4c-0.1,0.1-0.2,0.1-0.4,0.1c-0.3,0-0.4-0.3-0.4-0.5c0.1,0,0.3,0,0.4,0.1C91.9,77.2,92,77.3,92.1,77.4
		z"/>
	<path class="st6" d="M85.8,76.7c0.5-0.2,1.6-2.1,0.9-4.7c0,0,0.4,2.4,0.3,2.8c-0.1,0.4,0.6-1.1,0.1-3.2c0.8,0.3,1.6,0.5,2.5,0.5
		c1.1,0,1.7-0.2,1.7-0.3c0.1-0.1-1.5-0.2-2.1-0.5c0,0,3,0.5,4.3,0.3c0.1,0-0.5-3-2.7-3.7c-2.2-0.7-4.9,1.4-5.5,2.4
		c0,0-0.9,0.4-1.6,2.1C83.1,74.1,85.2,76.9,85.8,76.7z"/>
	<path class="st8" d="M86.3,76.5c0,0-1.4-1.4-2-0.9c-0.6,0.5,0.6,2.7,1.4,2.8c0.1,0,0.2,0,0.3,0c0.1,0,0.2-0.1,0.3-0.1
		c0.1-0.1,0.2-0.1,0.3-0.2c0.1-0.1,0.1-0.2,0.1-0.3L86.3,76.5z"/>
	<path class="st6" d="M84.7,76.2C84.7,76.2,84.7,76.3,84.7,76.2c0.6,0.2,1,0.7,1.3,1.2c0-0.1-0.1-0.1-0.2-0.1c-0.1,0-0.1,0-0.2,0
		s-0.1,0-0.2,0c-0.1,0-0.1,0.1-0.2,0.1c0,0,0,0,0,0c0.1-0.1,0.2-0.1,0.3-0.1c0.1,0,0.2,0.1,0.3,0.1c0.1,0.1,0.3,0.3,0.4,0.4
		c0,0,0.1,0,0.1-0.1C86.3,77.1,85.5,76.2,84.7,76.2z"/>
	<path class="st8" d="M82.2,86.4c-1.5,8.6,0,15,1.4,15.8c3.9,2.1,13.3-2.2,16-3.1c1.1-0.3-3.8-8.5-4.9-8c-2.6,1.2-6.2,3.2-6.3,3.2
		c-0.3,0-0.6-2.2-2.1-8.6C85,80.5,82.8,82.9,82.2,86.4z"/>
	<path class="st8" d="M108.1,87c0.3,1.1-2.4,1.5-2.4,1.5c0.5,0.2,0.8,0.5,1.1,0.9c0.4,0.7-0.6,1.7-0.6,1.7c0.4,0.3,0.8,0.7,1,1.1
		c0.3,0.8-0.6,1.8-0.6,1.8c0.3,0.5,0.4,1,0.2,1.5c-0.3,1.4-2.4,1.9-3.7,2.5c-1.3,0.6-3.5,0.9-4.5,1.3l-4.3-7.9c0,0,4.2-4.4,6.6-5.1
		C102.1,86,107.7,85.4,108.1,87z"/>
	<path class="st6" d="M105.6,88.5c-1.5-0.1-3,0.2-4.5,0.5c0,0,0,0,0,0c0,0,0,0,0,0c0,0,0,0,0,0c0,0,0,0,0,0
		C102.6,88.8,104.2,88.8,105.6,88.5C105.6,88.6,105.6,88.6,105.6,88.5C105.6,88.5,105.6,88.5,105.6,88.5
		C105.7,88.5,105.6,88.5,105.6,88.5C105.6,88.5,105.6,88.5,105.6,88.5z"/>
	<path class="st6" d="M106,91c-0.3,0-0.7,0.1-1,0.2c-0.4,0.1-0.7,0.2-1.1,0.3c-0.7,0.2-1.4,0.4-2.1,0.7c0,0,0,0.1,0,0.1
		c0.7-0.2,1.4-0.4,2.1-0.6c0.4-0.1,0.7-0.2,1.1-0.3C105.4,91.3,105.7,91.2,106,91C106.1,91.1,106.1,91.1,106,91
		C106.1,91,106.1,91,106,91C106.1,91,106.1,91,106,91C106.1,91,106.1,91,106,91z"/>
	<path class="st6" d="M106.5,94.1c-0.3,0-0.6,0.1-0.9,0.2l-1,0.3c-0.6,0.2-1.3,0.4-1.9,0.6c0,0,0,0.1,0,0.1c0.7-0.2,1.3-0.3,2-0.5
		c0.3-0.1,0.6-0.2,1-0.3C106,94.3,106.3,94.2,106.5,94.1C106.5,94.1,106.5,94.1,106.5,94.1C106.5,94.1,106.5,94.1,106.5,94.1
		C106.5,94.1,106.5,94.1,106.5,94.1C106.5,94.1,106.5,94.1,106.5,94.1z"/>
	<path class="st6" d="M88.3,94.3c1-0.6,2.1-1.1,3.1-1.7l1.6-0.8l0.8-0.4c0.3-0.1,0.5-0.3,0.8-0.4l-0.1,0c0.7-0.7,1.4-1.4,2.1-2
		c0.4-0.3,0.7-0.6,1.1-0.9c0.4-0.3,0.8-0.6,1.2-0.8c-0.4,0.3-0.8,0.6-1.1,0.9c-0.4,0.3-0.7,0.6-1.1,1c-0.7,0.7-1.4,1.3-2.1,2l0,0
		l0,0c-0.2,0.1-0.5,0.2-0.8,0.4l-0.8,0.4l-1.6,0.8C90.4,93.2,89.4,93.8,88.3,94.3z"/>
	<path class="st0" d="M80.7,93.8l6.8-3.4c0,0-0.9-3.8-1.6-5.8c-1-2.7-2.2-2.9-3.4,0.4C81.7,87.2,80.7,93.8,80.7,93.8z"/>
	<path class="st6" d="M81.1,92.8c1-0.6,1.9-1.1,2.9-1.6c0.5-0.3,1-0.5,1.5-0.7c0.5-0.2,1-0.4,1.5-0.7c0,0,0,0,0,0
		c-0.5,0.2-1,0.5-1.5,0.8c-0.5,0.2-1,0.5-1.5,0.8C83.1,91.9,82.1,92.4,81.1,92.8C81.1,92.9,81.1,92.9,81.1,92.8z"/>
	<path class="st6" d="M81.5,93.4c-0.3,0.2-0.5,0.3-0.8,0.5l-0.1,0.1l0-0.1c0.1-0.9,0.2-1.9,0.4-2.8c0.2-0.9,0.4-1.9,0.6-2.8
		c-0.1,0.5-0.1,0.9-0.2,1.4c-0.1,0.5-0.1,0.9-0.2,1.4c-0.1,0.9-0.3,1.9-0.5,2.8l-0.1-0.1C81,93.7,81.3,93.5,81.5,93.4z"/>
	<path class="st6" d="M81.3,89.2c0,0.2,0,0.4,0,0.7c0,0.2,0,0.4-0.1,0.7C81.2,90,81.2,89.6,81.3,89.2L81.3,89.2z"/>
	<path class="st6" d="M86.7,90.8c0.3-0.2,0.5-0.3,0.8-0.4c-0.1-0.4-0.2-0.9-0.3-1.3c-0.1-0.2-0.1-0.4-0.1-0.7c0-0.2-0.1-0.5-0.2-0.7
		c0,0,0,0,0,0c0.1,0.3,0.1,0.5,0.2,0.7s0.1,0.4,0.2,0.6c0.1,0.5,0.3,0.9,0.4,1.4C87.4,90.6,87.1,90.7,86.7,90.8
		C86.7,90.9,86.7,90.9,86.7,90.8C86.7,90.9,86.7,90.9,86.7,90.8C86.7,90.9,86.7,90.9,86.7,90.8C86.7,90.8,86.7,90.8,86.7,90.8z"/>
	<path class="st6" d="M87.3,88c0,0.3,0,0.5,0,0.8C87.2,88.5,87.2,88.2,87.3,88z"/>
	<path class="st4" d="M114.2,98.7H94.3v0.9h19.9V98.7z"/>
	<path class="st2" d="M98.5,98.7l-0.7,0.9h16.3v-0.9H98.5z"/>
	<path class="st4" d="M99.4,99.6h19.4l1.6-13.2H101L99.4,99.6z"/>
	<path class="st1" d="M108.7,93c0,0.2,0,0.3,0.1,0.5c0.1,0.1,0.1,0.3,0.2,0.4c0.1,0.1,0.2,0.2,0.4,0.3c0.1,0.1,0.3,0.1,0.5,0.1
		c0.3,0,0.6-0.1,0.8-0.3c0.2-0.2,0.4-0.5,0.4-0.8c0-0.2,0-0.3-0.1-0.4c-0.1-0.1-0.1-0.3-0.2-0.4c-0.1-0.1-0.2-0.2-0.4-0.3
		c-0.1-0.1-0.3-0.1-0.4-0.1c-0.3,0-0.6,0.1-0.9,0.3C108.8,92.4,108.7,92.7,108.7,93z"/>
	<path class="st8" d="M120.2,87.7c0.7,1.1,2.5,2.4,2.8,3.4c0.1,0.2,0.1,0.5,0,0.7c-0.1,0.2-0.2,0.4-0.4,0.6c0,0,1,0.4,1.1,1.3
		c0,0.5-0.7,1-0.7,1s0.8,0.3,0.9,1.1c0,0.7-0.7,1-0.7,1s0.6,0.7,0.5,1.4c-0.4,1.4-6,2.1-7.1,0.2c-0.5-0.9,0.8-1,0.8-1
		s-2-0.3-2.2-1.5s1.6-1.2,1.6-1.2s-1.9-0.3-2-1.5c-0.1-1.3,1.7-1,1.7-1s-1.3-0.7-1.2-1.6c0.3-1.5,3.4,0.1,4.6-0.4L120.2,87.7z"/>
	<path class="st6" d="M123.1,96.9C123.1,96.9,123.1,96.9,123.1,96.9C123.1,96.9,123.1,96.9,123.1,96.9
		C123.1,96.9,123.1,96.9,123.1,96.9C123.1,96.9,123.1,96.9,123.1,96.9c-1.8,0.7-3.8,0.9-5.8,0.4c-0.1,0-0.1-0.1,0-0.1
		C119.2,97.4,121.2,97.2,123.1,96.9z"/>
	<path class="st6" d="M123,94.6C123.1,94.6,123.1,94.6,123,94.6c-1.8,0.7-4.3,0.9-6.3,0.1c-0.1,0-0.1-0.1,0-0.1
		C118.1,95,121.3,95,123,94.6z"/>
	<path class="st6" d="M116.4,92c2,0.7,4,0.7,6.1,0.4c0,0,0,0,0,0c-1,0.4-2.3,0.5-3.4,0.5C118.1,92.9,117.2,92.6,116.4,92
		C116.3,92.1,116.3,92,116.4,92z"/>
	<path class="st8" d="M159.6,125.3c-0.3,0.7-13.6,17.3-14.5,17.6c-0.3,0.1-2.9-1.7-5.9-3.9c-0.6-0.5-1.3-1-2-1.5
		c-4.4-3.4-8.9-7.1-8.9-7.1l8.9-11.1l8.7,7.4l1.9,1.6c0,0,7.9-4.1,9-4.3C157.8,123.8,159.9,124.6,159.6,125.3z"/>
	<path class="st6" d="M159.6,125.3c-0.3,0.7-13.6,17.3-14.5,17.6c-0.3,0.1-2.3-1.3-4.8-3.1c2.5-1.9,12.2-10.6,13.5-12.9
		c0.7-1.2-0.3-1.2-1.5-0.9c2-1,4-1.9,4.5-2C157.8,123.8,159.9,124.6,159.6,125.3z"/>
	<path class="st7" d="M145.4,125l-9.3,12.5L105,115.8l-3-2.1c0,0-0.9,0.6-2.1,1.3c-1.8,1-4.4,2.2-6.7,2.6
		c-3.9,0.6-10.4,0.5-13.6-3.9c-2.8-3.7-1.3-8.5-1.3-8.5l4.3-1.8c0,0,10.1-8.4,16.6-8.6c2.8-0.1,6.8,2,10.5,4.2S145.4,125,145.4,125z
		"/>
	<path class="st6" d="M101.9,113.8c0,0-0.9,0.6-2.1,1.3c-2.3-2.7-7.1-7.7-7.2-7.8L101.9,113.8z"/>
	<path class="st6" d="M86.2,100.6c-0.6,0.4-1.2,0.9-1.8,1.3s-1.2,0.8-1.7,1.3c-0.6,0.5-1.1,1-1.6,1.5c-0.3,0.2-0.5,0.5-0.8,0.7
		c-0.3,0.2-0.5,0.5-0.7,0.8c0,0,0,0.1,0,0c0.3-0.2,0.6-0.4,0.8-0.7c0.3-0.2,0.6-0.5,0.8-0.7c0.5-0.5,1.1-0.9,1.6-1.4
		c0.5-0.5,1-1,1.6-1.4C85,101.6,85.6,101.1,86.2,100.6C86.2,100.6,86.2,100.6,86.2,100.6z"/>
	<path class="st6" d="M143.3,124.6c-0.6,0.6-1.1,1.3-1.7,2c-0.6,0.7-1.1,1.4-1.7,2.1c-1.1,1.4-2.2,2.8-3.3,4.2
		c-0.6,0.8-1.2,1.5-1.7,2.3c0,0,0,0.1,0.1,0c1.2-1.3,2.3-2.7,3.4-4.1c1.1-1.4,2.2-2.8,3.3-4.2C142.2,126.2,142.8,125.4,143.3,124.6
		C143.3,124.6,143.3,124.5,143.3,124.6z"/>
	<path class="st6" d="M117.6,124.7c-1.6-1.2-3.2-2.4-4.8-3.5c-1.6-1.1-3.2-2.3-4.8-3.4c-0.5-0.3-0.9-0.6-1.4-0.9
		c-0.5-0.3-1-0.6-1.4-0.9c0,0-0.1,0,0,0c0.4,0.3,0.8,0.6,1.2,1c0.4,0.3,0.8,0.6,1.2,0.9c0.8,0.6,1.6,1.1,2.4,1.7
		c1.6,1.1,3.2,2.3,4.8,3.4c0.9,0.6,1.8,1.3,2.8,1.9C117.6,124.8,117.7,124.7,117.6,124.7z"/>
	<path class="st6" d="M127.6,111.8c-1.4-1.2-3-2.3-4.5-3.4c-1.5-1.1-3-2.2-4.6-3.3c-1.5-1.1-3-2.2-4.5-3.3c-1.5-1.1-2.9-2.1-4.5-3.1
		c-0.9-0.5-1.7-1-2.6-1.4c-0.9-0.4-1.8-0.8-2.7-1.1c0,0,0,0,0,0c0,0,0,0,0,0c0,0,0,0,0,0c0,0,0,0,0,0c0.8,0.4,1.6,0.8,2.3,1.2
		s1.5,0.8,2.3,1.3c1.5,0.9,3,2,4.5,3c3,2.2,6.1,4.4,9.1,6.5C124.1,109.5,125.8,110.8,127.6,111.8
		C127.6,111.9,127.7,111.9,127.6,111.8z"/>
	<path class="st3" d="M123.4,81.7c0.8-4.9-2.5-9.5-7.4-10.3c-4.9-0.8-9.5,2.5-10.3,7.4c-0.8,4.9,2.5,9.5,7.4,10.3
		C118,89.8,122.6,86.5,123.4,81.7z"/>
	<path class="st2" d="M119.8,86h-10.4v-8.8l5.2-3.3l5.2,3.3V86z"/>
	<path class="st1" d="M119.2,85.9H110V74.3h6.9l2.4,2.3V85.9z"/>
	<path class="st0" d="M116.8,74.3l2.4,2.3h-2.4V74.3z"/>
	<path class="st10" d="M110.9,76.6h5.1v-0.3h-5.1V76.6z"/>
	<path class="st10" d="M110.9,77.4h5.1v-0.3h-5.1V77.4z"/>
	<path class="st10" d="M110.9,78.2h5.1v-0.3h-5.1V78.2z"/>
	<path class="st10" d="M110.9,78.9h7.5v-0.3h-7.5V78.9z"/>
	<path class="st10" d="M110.9,79.7h7.5v-0.3h-7.5V79.7z"/>
	<path class="st10" d="M110.9,80.5h7.5v-0.3h-7.5V80.5z"/>
	<path class="st10" d="M110.9,81.2h7.5v-0.3h-7.5V81.2z"/>
	<path class="st10" d="M110.9,82h7.5v-0.3h-7.5V82z"/>
	<path class="st10" d="M110.9,82.8h7.5v-0.3h-7.5V82.8z"/>
	<path class="st10" d="M110.9,83.5h7.5v-0.3h-7.5V83.5z"/>
	<path class="st10" d="M110.9,84.3h7.5V84h-7.5V84.3z"/>
	<path class="st10" d="M110.9,85.1h7.5v-0.3h-7.5V85.1z"/>
	<path class="st0" d="M119.8,79.4V86h-10.4v-6.6c0.4,0.3,0.9,0.5,1.3,0.8c0.4,0.3,0.9,0.5,1.3,0.8c0.5,0.3,1,0.6,1.5,0.9l1.1,0.7
		l1.1-0.7h0h0l1.5-0.9c0.4-0.3,0.9-0.5,1.3-0.8C118.9,79.9,119.4,79.6,119.8,79.4z"/>
	<path class="st10" d="M119.8,79.4c-0.4,0.3-0.9,0.6-1.3,0.9c-0.4,0.3-0.9,0.6-1.3,0.9c-0.4,0.3-0.9,0.6-1.3,0.9l0,0l-1.2,0.8
		l-0.1,0l-0.1,0l-1.2-0.8l0,0c-0.5-0.3-0.9-0.6-1.4-0.9c-0.4-0.3-0.9-0.6-1.3-0.9c-0.4-0.3-0.9-0.6-1.3-0.9c0.4,0.3,0.9,0.5,1.3,0.8
		c0.4,0.3,0.9,0.5,1.3,0.8c0.5,0.3,1,0.6,1.5,0.9l1.1,0.7l1.1-0.7l1.5-0.9c0.4-0.3,0.9-0.5,1.3-0.8
		C118.9,79.9,119.4,79.6,119.8,79.4z"/>
	<path class="st10" d="M113.5,81.9l-0.2,0.1c-0.3,0.2-0.5,0.4-0.8,0.6c-0.3,0.3-0.7,0.5-1,0.7c-0.3,0.2-0.7,0.5-1,0.7
		c-0.4,0.2-0.7,0.4-1.1,0.6c0.3-0.3,0.6-0.5,1-0.8c0.3-0.3,0.7-0.5,1-0.7c0.3-0.2,0.7-0.5,1-0.7c0.3-0.2,0.6-0.4,0.9-0.5
		C113.4,81.9,113.5,81.9,113.5,81.9z"/>
	<path class="st10" d="M119.8,84.7c-0.4-0.2-0.7-0.4-1.1-0.6c-0.3-0.2-0.7-0.5-1-0.7c-0.3-0.2-0.7-0.5-1-0.7
		c-0.3-0.2-0.5-0.4-0.8-0.6l-0.2-0.1h0h0l0.2,0.1c0.3,0.2,0.6,0.3,0.9,0.5c0.3,0.2,0.7,0.5,1,0.7c0.3,0.2,0.7,0.5,1,0.7
		C119.1,84.2,119.5,84.4,119.8,84.7z"/>
	<path class="st3" d="M116.7,78.8c0.3-1.2-0.4-2.4-1.6-2.6c-1.2-0.3-2.4,0.4-2.6,1.6c-0.3,1.2,0.4,2.4,1.6,2.6
		C115.3,80.7,116.5,80,116.7,78.8z"/>
	<path class="st1" d="M113.5,78.5c0.3,0.3,0.6,0.5,0.9,0.8l-0.2,0c0.1-0.2,0.2-0.4,0.3-0.6c0.1-0.2,0.2-0.4,0.4-0.5
		c0.3-0.4,0.5-0.7,0.8-1c-0.2,0.4-0.4,0.8-0.6,1.2c-0.1,0.2-0.2,0.4-0.3,0.6c-0.1,0.2-0.2,0.4-0.4,0.5l-0.1,0.1l-0.1-0.1
		C113.9,79.2,113.7,78.8,113.5,78.5z"/>
</g>
</svg>
