<?xml version="1.0" encoding="utf-8"?>
<!-- Generator: Adobe Illustrator 25.0.0, SVG Export Plug-In . SVG Version: 6.00 Build 0)  -->
<svg version="1.1" id="Layer_1" xmlns="http://www.w3.org/2000/svg" xmlns:xlink="http://www.w3.org/1999/xlink" x="0px" y="0px"
	 viewBox="0 0 240 160" style="enable-background:new 0 0 240 160;" xml:space="preserve">
<style type="text/css">
	.st0{fill:#EBEBEB;}
	.st1{fill:#A6A6A6;}
	.st2{fill:#FFFFFF;}
	.st3{fill:#DBDBDB;}
	.st4{fill:#C7C7C7;}
	.st5{fill:#263238;}
	.st6{fill:#0B7D77;}
	.st7{fill:#37474F;}
	.st8{fill:#455A64;}
	.st9{fill:#D3766A;}
	.st10{opacity:0.2;enable-background:new    ;}
	.st11{opacity:0.1;enable-background:new    ;}
</style>
<path class="st0" d="M59.4,24.2l4.2-0.1l2.1,0c0.7,0,1.4,0,2.1,0H68v0.1l0,3.6v0.2h-0.2l-4.2,0c-1.4,0-2.8,0-4.2-0.1h-0.1v-0.1
	c0-0.6,0-1.2,0-1.8L59.4,24.2z M59.4,24.2l0,1.8c0,0.6,0,1.2,0,1.8l-0.1-0.1c1.4,0,2.8-0.1,4.2-0.1l4.2,0l-0.2,0.2l0-3.6l0.1,0.1
	c-0.7,0-1.4,0-2.1,0l-2.1,0L59.4,24.2z"/>
<path class="st0" d="M64.2,19.7l4.2-0.1l2.1,0c0.7,0,1.4,0,2.1,0h0.1v0.1l0,3.6v0.2h-0.2l-4.2,0c-1.4,0-2.8,0-4.2-0.1h-0.1v-0.1
	c0-0.6,0-1.2,0-1.8L64.2,19.7z M64.2,19.7l0,1.8c0,0.6,0,1.2,0,1.8l-0.1-0.1c1.4,0,2.8-0.1,4.2-0.1l4.2,0l-0.2,0.2v-3.6l0.1,0.1
	c-0.7,0-1.4,0-2.1,0l-2.1,0L64.2,19.7z"/>
<path class="st0" d="M72.4,65.7l4.2-0.1l2.1,0c0.7,0,1.4,0,2.1,0H81v0.1l0,3.6v0.2h-0.2l-4.2,0c-1.4,0-2.8,0-4.2-0.1h-0.1v-0.1
	c0-0.6,0-1.2,0-1.8L72.4,65.7z M72.4,65.7l0,1.8c0,0.6,0,1.2,0,1.8l-0.1-0.1c1.4,0,2.8,0,4.2-0.1l4.2,0l-0.2,0.2v-3.6l0.1,0.1
	c-0.7,0-1.4,0-2.1,0l-2.1,0L72.4,65.7z"/>
<path class="st0" d="M77.1,61.2l4.2-0.1l2.1,0c0.7,0,1.4,0,2.1,0h0.1v0.1l0,3.6v0.2h-0.2l-4.2,0c-1.4,0-2.8,0-4.2-0.1H77v-0.1
	c0-0.6,0-1.2,0-1.8L77.1,61.2z M77.1,61.2l0,1.8c0,0.6,0,1.2,0,1.8l-0.1-0.1c1.4,0,2.8,0,4.2-0.1l4.2,0l-0.2,0.2v-3.6l0.1,0.1
	c-0.7,0-1.4,0-2.1,0l-2.1,0L77.1,61.2z"/>
<path class="st0" d="M54.7,19.7l4.2-0.1l2.1,0c0.7,0,1.4,0,2.1,0h0.1v0.1l0,3.6v0.2h-0.2l-4.2,0c-1.4,0-2.8,0-4.2-0.1h-0.1v-0.1
	c0-0.6,0-1.2,0-1.8L54.7,19.7z M54.7,19.7l0,1.8c0,0.6,0,1.2,0,1.8l-0.1-0.1c1.4,0,2.8-0.1,4.2-0.1l4.2,0L63,23.3l0-3.6l0.1,0.1
	c-0.7,0-1.4,0-2.1,0l-2.1,0L54.7,19.7z"/>
<path class="st0" d="M180.6,97.4l-4.2,0.1l-2.1,0c-0.7,0-1.4,0-2.1,0H172v-0.1l0-3.6v-0.2h0.2l4.2,0c1.4,0,2.8,0,4.2,0.1h0.1v0.1
	c0,0.6,0,1.2,0,1.8L180.6,97.4z M180.6,97.4l0-1.8c0-0.6,0-1.2,0-1.8l0.1,0.1c-1.4,0-2.8,0.1-4.2,0.1l-4.2,0l0.2-0.2l0,3.6l-0.1-0.1
	c0.7,0,1.4,0,2.1,0l2.1,0L180.6,97.4z"/>
<path class="st0" d="M185.3,102l-4.2,0.1l-2.1,0c-0.7,0-1.4,0-2.1,0h-0.1V102l0-3.6v-0.2h0.2l4.2,0c1.4,0,2.8,0,4.2,0.1h0.1v0.1
	c0,0.6,0,1.2,0,1.8L185.3,102z M185.3,102l0-1.8c0-0.6,0-1.2,0-1.8l0.1,0.1c-1.4,0-2.8,0.1-4.2,0.1l-4.2,0l0.2-0.2l0,3.6l-0.1-0.1
	c0.7,0,1.4,0,2.1,0l2.1,0L185.3,102z"/>
<path class="st0" d="M68,102l-4.2,0.1l-2.1,0c-0.7,0-1.4,0-2.1,0h-0.1V102l0-3.6v-0.2h0.2l4.2,0c1.4,0,2.8,0,4.2,0.1h0.1v0.1
	c0,0.6,0,1.2,0,1.8L68,102z M68,102l0-1.8c0-0.6,0-1.2,0-1.8l0.1,0.1c-1.4,0-2.8,0.1-4.2,0.1l-4.2,0l0.2-0.2l0,3.6l-0.1-0.1
	c0.7,0,1.4,0,2.1,0l2.1,0L68,102z"/>
<path class="st0" d="M172.1,19.7l4.2-0.1l2.1,0c0.7,0,1.4,0,2.1,0h0.1v0.1l0,3.6v0.2h-0.2l-4.2,0c-1.4,0-2.8,0-4.2-0.1H172v-0.1
	c0-0.6,0-1.2,0-1.8L172.1,19.7z M172.1,19.7l0,1.8c0,0.6,0,1.2,0,1.8l-0.1-0.1c1.4,0,2.8-0.1,4.2-0.1l4.2,0l-0.2,0.2l0-3.6l0.1,0.1
	c-0.7,0-1.4,0-2.1,0l-2.1,0L172.1,19.7z"/>
<path class="st0" d="M106.1,60H65.6V32.3h40.5V60z M65.9,59.7h39.9V32.6H65.9V59.7z"/>
<path class="st1" d="M68.7,34.1c0,0.2-0.1,0.3-0.1,0.4c-0.1,0.1-0.2,0.2-0.4,0.3c-0.1,0.1-0.3,0.1-0.5,0s-0.3-0.1-0.4-0.2
	c-0.1-0.1-0.2-0.3-0.2-0.4c0-0.2,0-0.3,0-0.5c0.1-0.1,0.2-0.3,0.3-0.4c0.1-0.1,0.3-0.1,0.4-0.1c0.1,0,0.2,0,0.3,0.1
	c0.1,0,0.2,0.1,0.3,0.2c0.1,0.1,0.1,0.2,0.2,0.3C68.7,33.9,68.7,34,68.7,34.1z"/>
<path class="st0" d="M72,34.1c0,0.2,0,0.3-0.1,0.4c-0.1,0.1-0.2,0.2-0.4,0.3c-0.1,0.1-0.3,0.1-0.5,0c-0.2,0-0.3-0.1-0.4-0.2
	c-0.1-0.1-0.2-0.3-0.2-0.4c0-0.2,0-0.3,0-0.5c0.1-0.1,0.2-0.3,0.3-0.4c0.1-0.1,0.3-0.1,0.4-0.1c0.1,0,0.2,0,0.3,0.1
	c0.1,0,0.2,0.1,0.3,0.2c0.1,0.1,0.1,0.2,0.2,0.3C72,33.9,72,34,72,34.1z"/>
<path class="st1" d="M75.3,34.1c0,0.2,0,0.3-0.1,0.4c-0.1,0.1-0.2,0.2-0.4,0.3c-0.1,0.1-0.3,0.1-0.5,0c-0.2,0-0.3-0.1-0.4-0.2
	c-0.1-0.1-0.2-0.3-0.2-0.4c0-0.2,0-0.3,0-0.5c0.1-0.1,0.2-0.3,0.3-0.4c0.1-0.1,0.3-0.1,0.4-0.1c0.2,0,0.4,0.1,0.6,0.2
	C75.2,33.7,75.3,33.9,75.3,34.1z"/>
<path class="st0" d="M105.9,35.5H65.7v0.3h40.2V35.5z"/>
<path class="st2" d="M183,29.2h-13.5v13.5H183V29.2z"/>
<path class="st3" d="M168.7,28.5v14.9h14.9V28.5H168.7z M183,42.8h-13.5V29.2H183V42.8z"/>
<path class="st0" d="M182,40.2v-4.7h-10.5v4.7H182z"/>
<path class="st4" d="M178.9,38.7v-5.4h-5.4v5.4H178.9z"/>
<path class="st4" d="M184.3,28.5h-0.6v14.9h0.6V28.5z"/>
<path class="st2" d="M183,48.5h-13.5V62H183V48.5z"/>
<path class="st4" d="M175.3,50.6h-3.5v10.2h3.5V50.6z"/>
<path class="st3" d="M168.7,47.8v14.9h14.9V47.8H168.7z M183,62h-13.5V48.5H183V62z"/>
<path class="st0" d="M178.9,52.5h-5.4v5.4h5.4V52.5z"/>
<path class="st4" d="M184.3,47.8h-0.6v14.9h0.6V47.8z"/>
<path class="st2" d="M183,67.7h-13.5v13.5H183V67.7z"/>
<path class="st0" d="M178.4,69.5h-7.4v4.4h7.4V69.5z"/>
<path class="st3" d="M168.7,67v14.9h14.9V67H168.7z M183,81.2h-13.5V67.7H183V81.2z"/>
<path class="st4" d="M178.9,71.7h-5.4v5.4h5.4V71.7z"/>
<path class="st4" d="M184.3,67h-0.6v14.9h0.6V67z"/>
<path class="st0" d="M85.3,81.1H55.1v44.9h30.1V81.1z"/>
<path class="st3" d="M86.7,79.6H53.7v1.5h33.1V79.6z"/>
<path class="st0" d="M97.1,79.6H86.7v1.5h10.4V79.6z"/>
<path class="st3" d="M95.5,81.1H85.3v44.9h10.2V81.1z"/>
<path class="st4" d="M82,100.4H58.4V87.1H82V100.4z M58.4,100.4h23.5V87.1H58.4V100.4z"/>
<path class="st4" d="M71.5,91h-4.6v2.6h4.6V91z"/>
<path class="st4" d="M72.9,93.5h-4.7v-2.3h4.7V93.5z M68.3,93.4h4.5v-2.2h-4.5V93.4z"/>
<path class="st4" d="M82,117.2H58.4v-13.4H82V117.2z M58.4,117.2h23.5v-13.2H58.4V117.2z"/>
<path class="st4" d="M71.5,107.8h-4.6v2.6h4.6V107.8z"/>
<path class="st4" d="M72.9,110.3h-4.7v-2.3h4.7V110.3z M68.3,110.2h4.5V108h-4.5V110.2z"/>
<path class="st0" d="M120,142.7c34.4,0,62.4-3.6,62.4-8.1c0-4.5-27.9-8.1-62.4-8.1c-34.4,0-62.4,3.6-62.4,8.1
	C57.6,139.1,85.6,142.7,120,142.7z"/>
<path class="st5" d="M76.3,97.3c-1-1-2.3-2.1-3.8-1.7c-1.4,0.4-2,1.9-2.2,3.2c-0.3,1.7-0.6,3.4-0.8,5c-0.3,1.7-0.5,3.4-0.8,5.1
	c-0.1,1-0.3,1.9-0.4,2.9c-0.1,0.5-0.1,1-0.2,1.4c-0.1,0.5-0.1,0.9-0.2,1.4c0,0.2,0.2,0.2,0.3,0c0.2-0.8,0.3-1.6,0.4-2.4l0.4-2.5
	c0.2-1.6,0.5-3.2,0.7-4.9c0.2-1.6,0.5-3.2,0.8-4.9c0.2-1.4,0.3-3.1,1.5-4c0.3-0.2,0.7-0.4,1.1-0.4c0.4,0,0.8,0,1.2,0.2
	C74.9,96.2,75.6,96.7,76.3,97.3C76.3,97.3,76.3,97.3,76.3,97.3z"/>
<path class="st6" d="M74.9,96.3c0,0-2-0.7-3,0.7s0.2,5.2,9.4,7.4c-0.3-2.9-1-5.7-2.2-8.3C77.1,91.8,73.6,93.4,74.9,96.3z"/>
<path class="st5" d="M80.8,103.8c-0.1-0.3-0.3-0.5-0.5-0.7c-0.2-0.2-0.3-0.5-0.5-0.7c-0.1-0.2-0.2-0.4-0.4-0.5c0,0,0-0.1,0-0.1
	c0,0,0-0.2,0-0.2c0-0.2,0-0.3,0.1-0.5c0-0.2,0.1-0.3,0.1-0.5c0-0.2,0.1-0.4,0.1-0.5c0,0,0,0,0,0c0,0.1,0,0.2-0.1,0.3l-0.1,0.2
	c0,0.2-0.1,0.3-0.1,0.5c0,0.2-0.1,0.3-0.1,0.5c0,0.1,0,0.2,0,0.2c-0.2-0.2-0.3-0.5-0.5-0.7c-0.5-0.6-1-1.3-1.5-1.9c0,0,0,0,0,0
	c0-1,0.1-1.9,0.2-2.9c0,0,0,0,0,0c-0.2,0.9-0.4,1.8-0.3,2.8c-0.2-0.2-0.4-0.4-0.6-0.6c-0.5-0.5-0.9-1-1.4-1.4c0,0,0,0,0,0
	c0,0,0,0,0,0c0,0,0,0,0,0c0,0,0,0,0,0c0.8,0.8,1.5,1.7,2.2,2.6c-0.6,0-1.1,0-1.7,0.1c-0.6,0-1.2,0.1-1.9,0.2c0,0,0,0,0,0
	c0.6-0.1,1.2-0.1,1.9-0.2c0.6,0,1.2,0,1.8,0c0.4,0.5,0.8,1,1.1,1.5h-0.5c-0.3,0-0.6,0-0.8,0c-0.6,0-1.1,0.1-1.7,0.3c0,0,0,0,0,0
	c0,0,0,0,0,0c0,0,0,0,0,0c0,0,0,0,0,0c0.6-0.1,1.1-0.1,1.7-0.1c0.3,0,0.5,0,0.8,0h0.4c0.1,0,0.2,0,0.2,0c0.2,0.3,0.5,0.6,0.7,1
	c0.2,0.3,0.4,0.5,0.6,0.8C80.3,103.3,80.5,103.6,80.8,103.8C80.7,103.9,80.7,103.9,80.8,103.8C80.8,103.8,80.8,103.8,80.8,103.8
	C80.8,103.8,80.8,103.8,80.8,103.8C80.8,103.8,80.8,103.8,80.8,103.8z"/>
<path class="st5" d="M75.8,98.4c-0.3,0-0.7-0.1-1,0c-0.3,0-0.6,0-1,0c0,0,0,0,0,0c0,0,0,0,0,0c0,0,0,0,0,0c0,0,0,0,0,0c0,0,0,0,0,0
	c0,0,0,0,0,0c0,0,0,0,0,0c0,0,0,0,0,0c0.3,0,0.7,0,1,0C75.2,98.4,75.5,98.4,75.8,98.4L75.8,98.4z"/>
<path class="st5" d="M78.7,99.1c0-0.3,0.1-0.6,0.1-0.9c0,0,0,0,0,0C78.7,98.5,78.7,98.8,78.7,99.1c-0.1,0.1-0.1,0.3-0.1,0.5
	c0,0.1,0,0.3,0,0.4c0,0,0,0,0,0c0,0,0,0,0,0c0,0,0,0,0,0c0,0,0,0,0,0c0-0.1,0-0.3,0-0.4L78.7,99.1z"/>
<path class="st5" d="M78.1,95.7c-0.1,0.3-0.2,0.6-0.2,0.9c0,0.2-0.1,0.3-0.1,0.5c0,0.2,0,0.3,0,0.5c0,0,0,0,0,0
	c0-0.1,0.1-0.3,0.1-0.4c0-0.2,0-0.3,0.1-0.5C78,96.3,78,96,78.1,95.7C78.1,95.6,78.1,95.6,78.1,95.7z"/>
<path class="st5" d="M66.1,114.3c-0.1-0.6-0.1-1.2-0.2-1.7c-0.1-1.1-0.3-2.3-0.4-3.4c-0.2-1.1-0.3-2.3-0.5-3.4
	c-0.1-0.5-0.2-1-0.3-1.5c-0.1-0.2-0.2-0.4-0.3-0.6s-0.3-0.3-0.5-0.4c-1.1-0.4-1.8,0.7-2.2,1.5c0,0,0,0,0,0c0,0,0,0,0,0c0,0,0,0,0,0
	c0,0,0,0,0,0c0.3-0.4,1-1.4,1.8-1.4c0.6,0,1,0.4,1.3,1.8c0.7,3.4,1.3,10.4,1.3,10.9c0,0.2,0.2,0.2,0.2,0
	C66.2,115.5,66.1,114.9,66.1,114.3z"/>
<path class="st6" d="M61.9,104.3c0,0,1-3.3-1.1-1.7c-3.5,2.8-3.6,8.8-3.6,8.8s6.2-3.6,7-6C65.2,102,61.9,104.3,61.9,104.3z"/>
<path class="st5" d="M63,106c-0.5,0.1-1,0.2-1.5,0.2l-0.7,0.1c-0.2,0-0.3,0-0.5,0.1c0.5-0.6,0.9-1.3,1.4-1.9c0,0,0-0.1,0,0
	c-0.4,0.4-0.7,0.8-1,1.2c-0.1-0.3-0.2-0.5-0.3-0.8c-0.1-0.3-0.2-0.6-0.3-0.9c0,0,0,0,0,0c0,0,0,0,0,0s0,0,0,0c0,0,0,0,0,0
	c0.1,0.3,0.1,0.6,0.2,0.9c0.1,0.3,0.2,0.6,0.3,0.9c-0.2,0.3-0.4,0.6-0.7,0.9c-0.1-0.3-0.2-0.6-0.3-0.9c0,0,0,0,0,0
	c0.1,0.3,0.2,0.7,0.3,1c-0.1,0.2-0.3,0.4-0.4,0.6c-0.3,0.4-0.5,0.8-0.7,1.2c0,0,0,0,0,0c0,0,0,0,0,0.1c-0.4,0.7-0.8,1.4-1.1,2.1
	c0,0,0,0,0,0c0.4-0.7,0.8-1.3,1.2-2c0.1,0,0.1,0,0.2,0l0.2,0c0.2,0,0.3-0.1,0.5-0.1c0.3-0.1,0.6-0.2,0.9-0.2c0,0,0,0,0,0
	c-0.4,0.1-0.7,0.1-1.1,0.2c-0.2,0-0.4,0-0.5,0.1h0c0.2-0.3,0.4-0.7,0.7-1c0.2-0.3,0.5-0.6,0.7-1c0.2,0,0.4-0.1,0.6-0.1l0.7-0.1
	C62.1,106.2,62.6,106.1,63,106C63.1,106,63,106,63,106z"/>
<path class="st5" d="M59.3,106.3l-0.1-0.3c-0.1-0.2-0.1-0.4-0.1-0.6c0,0,0,0,0,0c0,0.2,0.1,0.4,0.1,0.6c0,0.2,0.1,0.4,0.2,0.6
	c0,0,0,0,0,0c0,0,0,0,0,0c0,0,0,0,0,0c0,0,0,0,0,0C59.4,106.5,59.3,106.4,59.3,106.3z"/>
<path class="st5" d="M63.7,105.2c-0.3,0-0.6,0.1-0.9,0.1c-0.3,0-0.6,0.1-0.9,0.1v0c0.3,0,0.6,0,0.9-0.1
	C63.1,105.3,63.4,105.3,63.7,105.2C63.7,105.2,63.7,105.2,63.7,105.2z"/>
<path class="st5" d="M70.6,110.1c-0.1-2.5-0.3-4.9-0.5-7.4c-0.1-1.2-0.3-2.4-0.4-3.7c-0.2-1.2-0.4-2.4-0.7-3.5
	c-0.2-0.9-0.6-1.8-1.2-2.5c-0.3-0.4-0.6-0.6-1.1-0.8c-0.4-0.2-0.9-0.3-1.3-0.2c-1.1,0.1-1.9,0.8-2.7,1.5c-0.8,0.8-1.6,1.7-2.4,2.6
	c-0.2,0.2-0.4,0.4-0.6,0.7c0,0,0,0,0,0c0.8-0.9,1.6-1.7,2.4-2.5c0.8-0.7,1.6-1.6,2.6-1.9c0.5-0.2,1-0.2,1.5,0c0.4,0.1,0.8,0.4,1,0.7
	c0.6,0.7,1,1.4,1.2,2.3c0.7,2.3,0.9,4.6,1.1,7c0.2,2.3,0.4,4.8,0.5,7.1c0.1,2.4,0.2,4.8,0.4,7.2c0,0.3,0.1,0.6,0.1,0.9
	c0,0.2,0.3,0.2,0.3,0C70.9,115,70.8,112.6,70.6,110.1z"/>
<path class="st6" d="M62.6,93.8c0,0,1.4-2.6-0.3-3.4c-1.7-0.8-7.2,5.4-8.8,14.4c0,0,9-4,12-7.9C68.6,92.9,65.1,92.1,62.6,93.8z"/>
<path class="st5" d="M63.9,95.9c-1,0-2-0.1-3-0.1l0.6-0.6c0.3-0.3,0.5-0.6,0.8-0.9c0,0,0-0.1,0,0c-0.3,0.2-0.5,0.5-0.8,0.8
	c-0.3,0.3-0.5,0.5-0.8,0.8c-0.4,0.4-0.8,0.8-1.1,1.3c0,0,0-0.1,0-0.1c0-0.2,0-0.4,0-0.5v-1c0-0.7,0-1.4,0.1-2.1c0,0,0,0,0,0
	c0,0.7-0.1,1.4-0.2,2.1c0,0.3,0,0.7,0,1c0,0.2,0,0.4,0,0.5c0,0.1,0,0.2,0,0.3c-0.1,0.1-0.1,0.1-0.2,0.2c-0.8,0.9-1.6,1.9-2.3,2.8
	c0-0.1,0-0.1,0-0.2c0-0.1,0-0.2,0-0.3c0-0.2-0.1-0.5-0.1-0.7c0-0.2-0.1-0.4-0.1-0.6c0-0.2-0.1-0.5-0.1-0.7c0,0,0,0,0,0c0,0,0,0,0,0
	c0,0,0,0,0,0c0,0,0,0,0,0c0,0,0,0,0,0c0,0,0,0,0,0c0,0,0,0,0,0c0,0,0,0,0,0c0,0.2,0.1,0.5,0.1,0.7c0,0.2,0,0.4,0.1,0.7
	s0,0.4,0.1,0.7c0,0.1,0,0.2,0,0.3c0,0.1,0,0.1,0,0.2c0,0,0,0.1,0,0.1l-0.4,0.5c-0.5,0.7-1,1.4-1.5,2c0,0,0,0.1,0,0
	c0.5-0.6,1-1.2,1.5-1.8c0.4,0,0.7,0,1.1,0c0.4,0,0.8,0,1.2,0c0,0,0,0,0,0c0,0,0,0,0,0c0,0,0,0,0,0c0,0,0,0,0,0c-0.4,0-0.8,0-1.2,0
	s-0.7,0-1.1,0c0.4-0.5,0.9-1,1.3-1.6c0.2-0.2,0.3-0.4,0.5-0.6c0.1,0,0.3,0,0.4,0h0.5c0.3,0,0.7,0,1,0c0.7,0,1.4,0,2.1,0c0,0,0,0,0,0
	c-0.7,0-1.4,0-2.1-0.1l-1,0h-0.5c-0.1,0-0.2,0-0.3,0l1.2-1.4c0,0,0,0,0,0c0.4-0.4,0.7-0.9,1.1-1.3l0.2-0.2
	C61.8,96,62.9,95.9,63.9,95.9C63.9,96,63.9,96,63.9,95.9C63.9,95.9,63.9,95.9,63.9,95.9C63.9,95.9,63.9,95.9,63.9,95.9
	C63.9,95.9,63.9,95.9,63.9,95.9z"/>
<path class="st5" d="M63.4,97.7h-0.2c0,0,0,0,0,0L63.4,97.7C63.4,97.7,63.4,97.7,63.4,97.7C63.4,97.7,63.4,97.7,63.4,97.7
	C63.4,97.7,63.4,97.7,63.4,97.7C63.4,97.7,63.4,97.7,63.4,97.7z"/>
<path class="st5" d="M62.9,97.7c-0.3,0-0.6,0-1,0h-0.5c-0.1,0-0.3,0-0.5,0c0,0,0,0,0,0c0.1,0,0.3,0,0.5,0h0.5
	C62.2,97.8,62.5,97.8,62.9,97.7C62.9,97.7,62.9,97.7,62.9,97.7C62.9,97.7,62.9,97.7,62.9,97.7C62.9,97.7,62.9,97.7,62.9,97.7
	C62.9,97.7,62.9,97.7,62.9,97.7z"/>
<path class="st5" d="M60,100.7c-0.7-0.1-1.3-0.2-2-0.2c0,0,0,0,0,0C58.7,100.6,59.4,100.7,60,100.7C60.1,100.8,60.1,100.7,60,100.7z
	"/>
<path class="st5" d="M57.3,97.9l0-0.2c0-0.1,0-0.3-0.1-0.4c0-0.2-0.1-0.5-0.1-0.7c0,0,0,0,0,0c0,0.3,0.1,0.5,0.1,0.8
	c0,0.1,0,0.2,0,0.4c0,0.1,0,0.2,0.1,0.4c0,0,0.1,0,0.1,0C57.4,98,57.4,97.9,57.3,97.9z"/>
<path class="st5" d="M70.6,90.5c-0.3-0.6-0.7-1.4-1.5-1.3c-0.7,0-1,0.7-1.1,1.3c-0.4,1.7-0.5,3.5-0.6,5.3c-0.2,3.7-0.3,7.5-0.4,11.2
	c0,1,0,2.1,0,3.1c0,1,0,2.1,0.1,3.2c0,0,0,0,0,0c0,0,0,0,0.1,0c0,0,0,0,0.1,0c0,0,0,0,0,0c0-0.9,0-1.8,0-2.7c0-0.9,0-1.8,0-2.7
	c0-1.8,0.1-3.6,0.1-5.4c0.1-1.8,0.1-3.6,0.2-5.3l0.1-2.7c0-0.9,0.1-1.7,0.2-2.6c0.1-0.5,0.1-1,0.2-1.4c0.1-0.4,0.2-0.7,0.4-1
	c0.2-0.2,0.4-0.2,0.6-0.3c0.2,0,0.4,0,0.6,0.2C70.1,89.7,70.3,90.1,70.6,90.5C70.5,90.5,70.6,90.5,70.6,90.5z"/>
<path class="st6" d="M70.3,90.2c0,0-0.7-2.3,0.8-1.2c2.4,1.9,2.5,6.2,2.5,6.2s-4.3-2.5-4.9-4.2C68,88.6,70.3,90.2,70.3,90.2z"/>
<path class="st5" d="M72.7,93.4c0-0.1-0.1-0.1-0.1-0.2c0-0.1,0-0.1,0-0.2c0-0.1,0-0.2,0-0.3c0-0.2,0-0.4,0-0.6c0,0,0,0,0,0
	c0,0.2,0,0.4,0,0.6c0,0.1,0,0.2,0,0.3c0,0,0,0.1,0,0.1c-0.2-0.3-0.3-0.5-0.5-0.8c-0.1-0.1-0.1-0.1-0.2-0.2c0-0.3,0-0.5,0-0.8
	c0-0.3,0-0.5,0-0.8c0,0,0,0,0,0c0,0.3,0,0.6,0,0.8c0,0.2,0,0.4,0,0.6c-0.4-0.6-0.9-1.1-1.3-1.7c0,0,0,0,0,0c0.3,0.4,0.5,0.7,0.8,1.1
	c-0.5-0.1-1-0.2-1.5-0.3c0,0,0,0,0,0c0.5,0.1,1.1,0.2,1.6,0.3c0.2,0.3,0.4,0.6,0.6,0.9c0.1,0.1,0.2,0.2,0.2,0.4h0l-0.2,0
	c-0.1,0-0.2,0-0.4,0c-0.2,0-0.5,0-0.7,0c0,0,0,0,0,0c0.2,0,0.5,0,0.7,0.1l0.4,0l0.2,0h0.1l0.4,0.6c0.2,0.4,0.5,0.7,0.7,1.1
	c0,0,0,0,0,0c0,0,0,0,0,0c0,0,0,0,0,0c0,0,0,0,0,0C73.2,94.2,73,93.8,72.7,93.4z"/>
<path class="st5" d="M71.7,90.8c0-0.1,0-0.2,0-0.3c0-0.2,0-0.4,0-0.6c0,0,0,0,0,0c0,0.2,0,0.4,0,0.6C71.6,90.6,71.6,90.7,71.7,90.8
	c0,0,0,0.1,0,0.1c0,0,0,0.1,0,0.1c0,0,0,0,0,0c0,0,0,0,0,0c0,0,0,0,0,0c0,0,0,0,0,0c0,0,0-0.1,0-0.1C71.7,90.9,71.7,90.9,71.7,90.8z
	"/>
<path class="st5" d="M71.1,91.8c-0.2,0-0.3,0-0.5-0.1c-0.2,0-0.4,0-0.5-0.1c0,0,0,0,0,0C70.5,91.7,70.8,91.8,71.1,91.8
	C71.1,91.8,71.2,91.8,71.1,91.8z"/>
<path class="st5" d="M70.7,102.9c-0.9-0.7-1.7-1.7-2.9-1.7c-1,0-1.7,0.7-2.1,1.6c-0.2,0.4-0.4,0.9-0.5,1.4c-0.2,0.6-0.4,1.3-0.5,1.9
	c-0.3,1.3-0.6,2.5-0.8,3.8c-0.1,0.7-0.2,1.4-0.3,2.2c-0.1,0.7-0.2,1.5-0.2,2.2c0,0,0,0.1,0,0.1c0,0,0,0,0.1,0c0,0,0.1,0,0.1,0
	s0,0,0-0.1c0.1-0.6,0.2-1.2,0.3-1.8c0.1-0.6,0.2-1.2,0.3-1.8c0.2-1.2,0.5-2.4,0.7-3.6c0.3-1.1,0.5-2.3,0.9-3.4
	c0.3-0.8,0.7-1.7,1.5-2C68.5,101.1,69.7,102.2,70.7,102.9C70.7,102.9,70.7,102.9,70.7,102.9z"/>
<path class="st6" d="M69.7,102.2c0,0-0.8-2.4,0.4-2.9c1.8-0.7,6.6,4.6,5.6,12.8c-2.2-1.3-4.4-2.7-6.4-4.3c-2.7-2.3-3.4-5.2-2.2-6
	S69.7,102.2,69.7,102.2z"/>
<path class="st5" d="M75.2,110.5c-0.1-0.3-0.3-0.6-0.4-0.8c-0.2-0.3-0.3-0.6-0.5-0.8c-0.3-0.5-0.6-1.1-1-1.6l-0.2-0.3l0-0.1
	c0-0.1,0-0.2,0.1-0.2c0-0.2,0.1-0.4,0.1-0.5c0.1-0.3,0.1-0.7,0.2-1c0,0,0,0,0,0c-0.1,0.4-0.2,0.7-0.3,1c-0.1,0.2-0.1,0.3-0.1,0.5
	l0,0.2c-0.4-0.6-0.8-1.3-1.2-1.9c0-0.1,0-0.2,0-0.3c0-0.1,0-0.2,0-0.4c0-0.3,0.1-0.5,0.1-0.8c0.1-0.5,0.2-1,0.3-1.6c0,0,0,0,0,0
	c-0.1,0.5-0.3,1-0.4,1.6c0,0.3-0.1,0.5-0.1,0.8c0,0.1,0,0.3,0,0.4c0,0,0,0.1,0,0.1c-0.1-0.2-0.3-0.4-0.4-0.6
	c-0.4-0.6-0.9-1.1-1.3-1.6c0,0-0.1,0,0,0c0.7,1,1.4,2,2.1,3c0.1,0.2,0.2,0.4,0.4,0.6l-0.1,0c-0.2,0-0.3,0-0.5,0l-0.9-0.1
	c-0.6,0-1.2-0.1-1.9-0.2c0,0,0,0,0,0c0.6,0.1,1.2,0.2,1.9,0.3l0.9,0.1c0.2,0,0.5,0.1,0.7,0.1l0.7,1.2c-0.1,0-0.1,0-0.2,0h-0.9
	c-0.4,0-0.8,0-1.2,0c0,0,0,0,0,0c0.4,0,0.8,0,1.2,0c0.2,0,0.4,0,0.6,0l0.3,0c0.1,0,0.2,0,0.2,0c0.2,0.3,0.4,0.7,0.6,1
	c0.2,0.3,0.4,0.6,0.6,0.9C74.7,109.9,74.9,110.2,75.2,110.5C75.1,110.5,75.2,110.5,75.2,110.5z"/>
<path class="st5" d="M73.4,103.8c0,0.3-0.1,0.5-0.2,0.8c-0.1,0.3-0.1,0.5-0.2,0.8c0,0,0,0,0,0c0,0,0,0,0,0c0,0,0,0,0,0c0,0,0,0,0,0
	c0,0,0,0,0,0c0,0,0,0,0,0c0,0,0,0,0,0c0,0,0,0,0,0c0.1-0.3,0.2-0.5,0.2-0.8C73.4,104.4,73.4,104.1,73.4,103.8
	C73.5,103.8,73.4,103.8,73.4,103.8z"/>
<path class="st5" d="M70.7,105.4c-0.1,0-0.1-0.1-0.2-0.1l-0.3,0l-0.6-0.1c-0.4-0.1-0.9-0.1-1.3-0.2c0,0,0,0,0,0
	c0.4,0.1,0.8,0.1,1.3,0.2c0.2,0,0.4,0.1,0.6,0.1l0.3,0C70.5,105.4,70.6,105.4,70.7,105.4C70.7,105.5,70.7,105.5,70.7,105.4
	C70.7,105.5,70.7,105.5,70.7,105.4C70.7,105.5,70.7,105.5,70.7,105.4C70.7,105.4,70.7,105.4,70.7,105.4z"/>
<path class="st5" d="M73.4,109c-0.2,0-0.4,0-0.6,0h-0.3h-0.1c-0.1,0-0.1,0-0.2,0c0,0,0,0,0,0c0.1,0,0.1,0,0.2,0h0.2l0.3,0
	C73,109.1,73.2,109.1,73.4,109C73.4,109.1,73.4,109,73.4,109z"/>
<path class="st5" d="M74.7,108.1c0-0.1,0-0.2,0.1-0.4c0-0.2,0.1-0.5,0.1-0.7c0,0,0,0,0,0l-0.2,0.7L74.7,108.1
	c-0.1,0-0.1,0.1-0.1,0.1c0,0.1,0,0.1,0,0.2c0,0,0,0,0,0C74.7,108.3,74.7,108.2,74.7,108.1z"/>
<path class="st7" d="M62.3,113.3l0.3,2.9l0.9,9.8h7.7l1.1-9.8l0.3-2.9H62.3z"/>
<path class="st5" d="M62.3,113.3l0.3,2.9h9.6l0.3-2.9H62.3z"/>
<path class="st7" d="M61.5,114.9h11.7v-2.4H61.5V114.9z"/>
<path class="st5" d="M45,126l18.8-0.1l18.8,0l37.5-0.1l37.5,0.1l18.8,0L195,126l-18.8,0.1l-18.8,0l-37.5,0.1l-37.5-0.1l-18.8,0
	L45,126z"/>
<path class="st5" d="M160.1,132.6V21c0-2.3-1.8-4.1-4.1-4.1H84.1c-2.3,0-4.1,1.8-4.1,4.1v111.5c0,2.3,1.8,4.1,4.1,4.1h71.9
	C158.2,136.7,160.1,134.8,160.1,132.6z"/>
<path class="st2" d="M156.7,25.3H83.4v103.1h73.3V25.3z"/>
<path class="st7" d="M128.7,22v-0.4c0-0.2-0.2-0.4-0.4-0.4h-16.6c-0.2,0-0.4,0.2-0.4,0.4V22c0,0.2,0.2,0.4,0.4,0.4h16.6
	C128.5,22.4,128.7,22.2,128.7,22z"/>
<path class="st7" d="M120,134.7c1.2,0,2.3-1,2.3-2.3s-1-2.3-2.3-2.3s-2.3,1-2.3,2.3S118.8,134.7,120,134.7z"/>
<path class="st2" d="M156.7,25.3H83.4v103.1h73.3V25.3z"/>
<path class="st8" d="M156.7,25.3H83.4v2.5h73.3V25.3z"/>
<path class="st4" d="M85.4,26.6c0,0.1,0,0.3-0.1,0.4c-0.1,0.1-0.2,0.2-0.3,0.2c-0.1,0-0.2,0.1-0.4,0c-0.1,0-0.2-0.1-0.3-0.2
	c-0.1-0.1-0.1-0.2-0.2-0.3c0-0.1,0-0.3,0-0.4c0.1-0.1,0.1-0.2,0.2-0.3c0.1-0.1,0.2-0.1,0.4-0.1c0.2,0,0.3,0.1,0.4,0.2
	C85.3,26.2,85.4,26.4,85.4,26.6z"/>
<path class="st2" d="M87.9,26.6c0,0.1,0,0.3-0.1,0.4c-0.1,0.1-0.2,0.2-0.3,0.2c-0.1,0-0.2,0.1-0.4,0c-0.1,0-0.2-0.1-0.3-0.2
	c-0.1-0.1-0.1-0.2-0.2-0.3c0-0.1,0-0.3,0-0.4c0.1-0.1,0.1-0.2,0.2-0.3c0.1-0.1,0.2-0.1,0.4-0.1c0.2,0,0.3,0.1,0.4,0.2
	C87.8,26.2,87.9,26.4,87.9,26.6z"/>
<path class="st6" d="M90.5,26.6c0,0.1,0,0.3-0.1,0.4c-0.1,0.1-0.2,0.2-0.3,0.2c-0.1,0-0.2,0.1-0.4,0c-0.1,0-0.2-0.1-0.3-0.2
	c-0.1-0.1-0.2-0.2-0.2-0.3c0-0.1,0-0.3,0-0.4c0-0.1,0.1-0.2,0.2-0.3c0.1-0.1,0.2-0.1,0.4-0.1c0.2,0,0.3,0.1,0.5,0.2
	C90.4,26.2,90.5,26.4,90.5,26.6z"/>
<path class="st7" d="M97.6,38.1h-1.3v3.3h-0.8v-3.3h-1.3v-0.7h3.3V38.1z"/>
<path class="st7" d="M100.9,40.7v0.7h-2.7v-4h2.7v0.7h-1.9v1h1.7v0.6h-1.7v1L100.9,40.7z"/>
<path class="st7" d="M101.5,41.4v-4h1.7c0.2,0,0.3,0,0.5,0.1c0.2,0.1,0.3,0.2,0.4,0.3c0.1,0.1,0.2,0.3,0.3,0.4
	c0.1,0.2,0.1,0.3,0.1,0.5c0,0.2-0.1,0.5-0.2,0.7c-0.1,0.2-0.3,0.4-0.5,0.5l0.9,1.5h-0.9L103,40h-0.8v1.3H101.5z M102.3,39.4h1
	c0.1,0,0.1,0,0.2-0.1c0.1,0,0.1-0.1,0.2-0.1c0-0.1,0.1-0.1,0.1-0.2c0-0.1,0-0.2,0-0.2c0-0.1,0-0.2,0-0.3c0-0.1-0.1-0.1-0.1-0.2
	c0-0.1-0.1-0.1-0.2-0.1c-0.1,0-0.1,0-0.2,0h-0.9L102.3,39.4z"/>
<path class="st7" d="M108.4,41.4v-2.6l-1,1.9H107l-1-1.9v2.6h-0.8v-4h0.8l1.2,2.2l1.2-2.2h0.8v4H108.4z"/>
<path class="st7" d="M112.4,38.5c0,0-0.1-0.1-0.1-0.1c-0.1-0.1-0.2-0.1-0.2-0.1c-0.1,0-0.2-0.1-0.3-0.1c-0.1,0-0.2,0-0.3,0
	c-0.2,0-0.3,0-0.5,0.1c-0.1,0-0.1,0.1-0.1,0.1c0,0.1,0,0.1,0,0.2c0,0.1,0,0.1,0.1,0.2c0,0.1,0.1,0.1,0.2,0.1c0.1,0,0.2,0.1,0.3,0.1
	l0.4,0.1c0.2,0,0.4,0.1,0.5,0.2c0.1,0.1,0.3,0.1,0.4,0.2c0.1,0.1,0.2,0.2,0.3,0.3c0.1,0.1,0.1,0.3,0.1,0.5c0,0.2,0,0.4-0.1,0.5
	c-0.1,0.1-0.2,0.3-0.3,0.4c-0.1,0.1-0.3,0.2-0.5,0.2c-0.2,0-0.4,0.1-0.6,0.1c-0.3,0-0.6,0-0.9-0.1c-0.3-0.1-0.5-0.2-0.8-0.4l0.3-0.7
	c0.1,0.1,0.1,0.1,0.2,0.1c0.1,0.1,0.2,0.1,0.3,0.2c0.1,0.1,0.3,0.1,0.4,0.1c0.1,0,0.3,0.1,0.4,0.1c0.4,0,0.6-0.1,0.6-0.4
	c0-0.1,0-0.2-0.1-0.2c-0.1-0.1-0.1-0.1-0.2-0.2c-0.1-0.1-0.2-0.1-0.3-0.1l-0.4-0.1c-0.2,0-0.3-0.1-0.5-0.2c-0.1-0.1-0.2-0.1-0.3-0.2
	c-0.1-0.1-0.2-0.2-0.2-0.3c-0.1-0.1-0.1-0.3-0.1-0.4c0-0.2,0-0.4,0.1-0.5c0.1-0.2,0.2-0.3,0.3-0.4c0.1-0.1,0.3-0.2,0.5-0.2
	c0.2-0.1,0.4-0.1,0.6-0.1c0.3,0,0.5,0,0.8,0.1c0.2,0.1,0.4,0.2,0.6,0.3L112.4,38.5z"/>
<path class="st7" d="M116.4,41.4c-0.3,0-0.5-0.1-0.8-0.2c-0.2-0.1-0.4-0.3-0.6-0.5c-0.2-0.2-0.3-0.4-0.4-0.6
	c-0.1-0.2-0.1-0.5-0.1-0.7c0-0.3,0-0.5,0.1-0.8c0.1-0.2,0.2-0.5,0.4-0.6c0.2-0.2,0.4-0.3,0.6-0.4c0.2-0.1,0.5-0.2,0.8-0.2
	c0.3,0,0.5,0.1,0.8,0.2c0.2,0.1,0.4,0.3,0.6,0.5c0.2,0.2,0.3,0.4,0.4,0.6c0.1,0.4,0.2,0.7,0.1,1.1c-0.1,0.4-0.2,0.7-0.5,1
	c-0.2,0.2-0.4,0.3-0.6,0.4C117,41.3,116.7,41.4,116.4,41.4z M115.3,39.4c0,0.2,0,0.3,0.1,0.5c0,0.2,0.1,0.3,0.2,0.4
	c0.1,0.1,0.2,0.2,0.4,0.3c0.2,0.1,0.3,0.1,0.5,0.1c0.2,0,0.3,0,0.5-0.1c0.1-0.1,0.3-0.2,0.4-0.3c0.1-0.1,0.2-0.3,0.2-0.4
	c0.1-0.3,0.1-0.6,0-1c0-0.2-0.1-0.3-0.2-0.4c-0.1-0.1-0.2-0.2-0.4-0.3c-0.2-0.1-0.3-0.1-0.5-0.1c-0.2,0-0.3,0-0.5,0.1
	c-0.1,0.1-0.3,0.2-0.4,0.3c-0.1,0.1-0.2,0.3-0.2,0.4C115.3,39.1,115.3,39.2,115.3,39.4z"/>
<path class="st7" d="M119,41.4v-4h2.6v0.7h-1.9v1h1.6v0.6h-1.6v1.6L119,41.4z"/>
<path class="st7" d="M125.7,38.5c0,0-0.1-0.1-0.1-0.1c-0.1-0.1-0.2-0.1-0.2-0.1c-0.1,0-0.2-0.1-0.3-0.1c-0.1,0-0.2,0-0.3,0
	c-0.2,0-0.3,0-0.5,0.1c-0.1,0-0.1,0.1-0.1,0.1c0,0.1,0,0.1,0,0.2c0,0.1,0,0.1,0.1,0.2c0,0.1,0.1,0.1,0.2,0.1c0.1,0,0.2,0.1,0.3,0.1
	l0.4,0.1c0.2,0,0.4,0.1,0.5,0.2c0.1,0.1,0.3,0.1,0.4,0.2c0.1,0.1,0.2,0.2,0.3,0.3c0.1,0.1,0.1,0.3,0.1,0.5c0,0.2,0,0.4-0.1,0.5
	c-0.1,0.1-0.2,0.3-0.3,0.4c-0.1,0.1-0.3,0.2-0.5,0.2c-0.2,0-0.4,0.1-0.6,0.1c-0.3,0-0.6,0-0.9-0.1c-0.3-0.1-0.5-0.2-0.8-0.4l0.3-0.7
	c0.1,0.1,0.1,0.1,0.2,0.1c0.1,0.1,0.2,0.1,0.3,0.2c0.1,0.1,0.3,0.1,0.4,0.1c0.1,0,0.3,0.1,0.4,0.1c0.4,0,0.6-0.1,0.6-0.4
	c0-0.1,0-0.2-0.1-0.2c-0.1-0.1-0.1-0.1-0.2-0.2c-0.1-0.1-0.2-0.1-0.3-0.1l-0.4-0.1c-0.2,0-0.3-0.1-0.5-0.2c-0.1-0.1-0.2-0.1-0.3-0.2
	c-0.1-0.1-0.2-0.2-0.2-0.3c-0.1-0.1-0.1-0.3-0.1-0.4c0-0.2,0-0.4,0.1-0.5c0.1-0.2,0.2-0.3,0.3-0.4c0.1-0.1,0.3-0.2,0.5-0.2
	c0.2-0.1,0.4-0.1,0.6-0.1c0.3,0,0.5,0,0.8,0.1c0.2,0.1,0.4,0.2,0.6,0.3L125.7,38.5z"/>
<path class="st7" d="M129.5,40.7v0.7h-2.7v-4h2.7v0.7h-1.9v1h1.7v0.6h-1.7v1L129.5,40.7z"/>
<path class="st7" d="M130.1,41.4v-4h1.7c0.2,0,0.3,0,0.5,0.1c0.2,0.1,0.3,0.2,0.4,0.3c0.1,0.1,0.2,0.3,0.3,0.4
	c0.1,0.1,0.1,0.3,0.1,0.5c0,0.2-0.1,0.5-0.2,0.7c-0.1,0.2-0.3,0.4-0.5,0.5l0.9,1.5h-0.9l-0.8-1.3h-0.8v1.3L130.1,41.4z M130.9,39.4
	h1c0.1,0,0.1,0,0.2-0.1c0.1,0,0.1-0.1,0.2-0.1c0-0.1,0.1-0.1,0.1-0.2c0-0.1,0-0.2,0-0.2c0-0.1,0-0.2,0-0.3c0-0.1-0.1-0.1-0.1-0.2
	c0-0.1-0.1-0.1-0.2-0.1c-0.1,0-0.1,0-0.2,0h-0.9V39.4z"/>
<path class="st7" d="M134.1,37.4l1.1,3l1.1-3h0.8l-1.5,4h-0.6l-1.6-4H134.1z"/>
<path class="st7" d="M137.5,41.4v-4h0.8v4H137.5z"/>
<path class="st7" d="M138.8,39.4c0-0.2,0-0.5,0.1-0.7c0.1-0.2,0.2-0.5,0.4-0.6c0.2-0.2,0.4-0.3,0.6-0.5c0.3-0.1,0.5-0.2,0.8-0.2
	c0.3,0,0.7,0.1,0.9,0.2c0.3,0.2,0.5,0.4,0.6,0.6l-0.6,0.4c0-0.1-0.1-0.2-0.2-0.3c-0.1-0.1-0.2-0.1-0.2-0.2c-0.1,0-0.2-0.1-0.3-0.1
	c-0.1,0-0.2,0-0.3,0c-0.2,0-0.3,0-0.5,0.1c-0.1,0.1-0.3,0.2-0.4,0.3c-0.1,0.1-0.2,0.3-0.2,0.4c0,0.2-0.1,0.3-0.1,0.5
	c0,0.2,0,0.3,0.1,0.5c0.1,0.2,0.1,0.3,0.2,0.4c0.1,0.1,0.2,0.2,0.4,0.3c0.1,0.1,0.3,0.1,0.5,0.1c0.1,0,0.2,0,0.3,0
	c0.1,0,0.2-0.1,0.3-0.1c0.1-0.1,0.2-0.1,0.2-0.2c0.1-0.1,0.1-0.2,0.2-0.3l0.6,0.4c-0.1,0.1-0.2,0.3-0.3,0.4
	c-0.1,0.1-0.2,0.2-0.4,0.3c-0.1,0.1-0.3,0.1-0.5,0.2c-0.2,0-0.3,0.1-0.5,0.1c-0.3,0-0.5-0.1-0.8-0.2c-0.2-0.1-0.4-0.3-0.6-0.5
	c-0.2-0.2-0.3-0.4-0.4-0.6C138.9,39.9,138.8,39.6,138.8,39.4z"/>
<path class="st7" d="M145.6,40.7v0.7h-2.7v-4h2.7v0.7h-1.9v1h1.7v0.6h-1.7v1L145.6,40.7z"/>
<path class="st4" d="M91.1,50.5c0.1,0,0.2,0,0.3-0.1c0.1,0,0.1-0.1,0.2-0.2c0-0.1,0.1-0.1,0.1-0.2c0-0.1,0-0.2,0-0.3v-1.1h0.4v1.1
	c0,0.1,0,0.3-0.1,0.4c0,0.1-0.1,0.3-0.2,0.4c-0.1,0.1-0.2,0.2-0.3,0.2c-0.1,0.1-0.3,0.1-0.4,0.1c-0.2,0-0.3,0-0.5-0.1
	c-0.1-0.1-0.2-0.1-0.3-0.2c-0.1-0.1-0.1-0.2-0.2-0.4c0-0.1-0.1-0.3-0.1-0.4v-1.1h0.4v1.1c0,0.1,0,0.2,0,0.3c0,0.1,0,0.2,0.1,0.2
	c0,0.1,0.1,0.1,0.2,0.2C90.9,50.5,91,50.5,91.1,50.5z"/>
<path class="st4" d="M93.8,49.2C93.8,49.2,93.8,49.2,93.8,49.2l-0.2-0.1c-0.1,0-0.1,0-0.2-0.1c-0.1,0-0.1,0-0.2,0
	c-0.1,0-0.2,0-0.3,0.1c0,0-0.1,0-0.1,0.1c0,0,0,0.1,0,0.1c0,0,0,0.1,0,0.1c0,0,0.1,0.1,0.1,0.1c0,0,0.1,0,0.2,0.1l0.2,0.1
	c0.1,0,0.2,0.1,0.3,0.1c0.1,0,0.2,0.1,0.2,0.1c0.1,0,0.1,0.1,0.1,0.2c0,0.1,0.1,0.2,0.1,0.3c0,0.1,0,0.2-0.1,0.3
	c0,0.1-0.1,0.2-0.2,0.2c-0.1,0.1-0.2,0.1-0.3,0.1c-0.1,0-0.2,0-0.3,0c-0.2,0-0.3,0-0.5-0.1c-0.2,0-0.3-0.1-0.4-0.2l0.2-0.4
	c0,0,0.1,0.1,0.1,0.1c0.1,0,0.1,0.1,0.2,0.1c0.1,0,0.1,0.1,0.2,0.1c0.1,0,0.2,0,0.3,0c0.2,0,0.4-0.1,0.4-0.2c0,0,0-0.1,0-0.1
	c0,0-0.1-0.1-0.1-0.1c-0.1,0-0.1-0.1-0.2-0.1l-0.2-0.1c-0.1,0-0.2-0.1-0.3-0.1c-0.1,0-0.1-0.1-0.2-0.1c-0.1,0-0.1-0.1-0.1-0.2
	c0-0.1,0-0.1,0-0.2c0-0.1,0-0.2,0.1-0.3c0-0.1,0.1-0.2,0.2-0.2c0.1-0.1,0.2-0.1,0.3-0.1c0.1,0,0.2,0,0.3,0c0.1,0,0.3,0,0.4,0.1
	c0.1,0,0.2,0.1,0.3,0.2L93.8,49.2z"/>
<path class="st4" d="M96,50.5v0.4h-1.5v-2.2h1.5V49h-1.1v0.5h0.9v0.4h-0.9v0.6L96,50.5z"/>
<path class="st4" d="M96.3,50.9v-2.2h1c0.1,0,0.2,0,0.3,0.1c0.1,0,0.2,0.1,0.2,0.2c0.1,0.1,0.1,0.2,0.1,0.2c0,0.1,0.1,0.2,0,0.3
	c0,0.1,0,0.2-0.1,0.3c-0.1,0.1-0.2,0.2-0.3,0.3l0.5,0.8h-0.5l-0.5-0.7h-0.4v0.8H96.3z M96.8,49.8h0.5c0,0,0.1,0,0.1,0
	c0,0,0.1,0,0.1-0.1c0,0,0-0.1,0.1-0.1c0,0,0-0.1,0-0.1c0,0,0-0.1,0-0.1c0,0,0-0.1-0.1-0.1c0,0-0.1-0.1-0.1-0.1c0,0-0.1,0-0.1,0h-0.5
	L96.8,49.8z"/>
<path class="st4" d="M99.7,48.6h0.4l0.8,2.2h-0.4l-0.2-0.6h-0.8l-0.2,0.6h-0.4L99.7,48.6z M100.2,50l-0.3-0.9L99.5,50H100.2z"/>
<path class="st4" d="M102.6,50.6c-0.1,0.1-0.2,0.2-0.3,0.2c-0.1,0-0.2,0.1-0.3,0.1c-0.1,0-0.3,0-0.4-0.1c-0.1-0.1-0.2-0.1-0.3-0.2
	c-0.1-0.1-0.2-0.2-0.2-0.4c-0.1-0.1-0.1-0.3-0.1-0.5c0-0.1,0-0.3,0.1-0.4c0.1-0.1,0.1-0.3,0.2-0.4c0.1-0.1,0.2-0.2,0.3-0.2
	c0.1-0.1,0.3-0.1,0.4-0.1c0.2,0,0.4,0,0.5,0.1c0.1,0.1,0.3,0.2,0.3,0.4l-0.3,0.2c-0.1-0.1-0.1-0.2-0.2-0.3c-0.1-0.1-0.2-0.1-0.3-0.1
	c-0.1,0-0.2,0-0.3,0.1c-0.1,0-0.1,0.1-0.2,0.2c-0.1,0.1-0.1,0.2-0.1,0.2c0,0.1,0,0.2,0,0.3c0,0.1,0,0.2,0,0.3c0,0.1,0.1,0.2,0.1,0.2
	c0.1,0.1,0.1,0.1,0.2,0.2c0.1,0,0.2,0.1,0.3,0.1c0.1,0,0.2,0,0.3-0.1c0.1-0.1,0.2-0.1,0.3-0.2V50h-0.4v-0.3h0.8v1.2h-0.4L102.6,50.6
	z"/>
<path class="st4" d="M103.3,50.9v-2.2h1c0.1,0,0.2,0,0.3,0.1c0.1,0,0.2,0.1,0.2,0.2c0.1,0.1,0.1,0.1,0.1,0.2c0,0.1,0.1,0.2,0.1,0.3
	c0,0.1,0,0.3-0.1,0.4c-0.1,0.1-0.2,0.2-0.3,0.3l0.5,0.8h-0.5l-0.5-0.7h-0.4v0.8H103.3z M103.8,49.8h0.6c0,0,0.1,0,0.1,0
	c0,0,0.1,0,0.1-0.1c0,0,0-0.1,0.1-0.1c0,0,0-0.1,0-0.1c0,0,0-0.1,0-0.1c0,0,0-0.1-0.1-0.1c0,0-0.1-0.1-0.1-0.1c0,0-0.1,0-0.1,0h-0.5
	L103.8,49.8z"/>
<path class="st4" d="M107,50.5v0.4h-1.5v-2.2h1.5V49h-1.1v0.5h0.9v0.4h-0.9v0.6L107,50.5z"/>
<path class="st4" d="M108.8,50.5v0.4h-1.5v-2.2h1.5V49h-1.1v0.5h0.9v0.4h-0.9v0.6L108.8,50.5z"/>
<path class="st4" d="M111,50.9v-1.5l-0.6,1.1h-0.2l-0.6-1.1v1.5h-0.4v-2.2h0.5l0.7,1.3l0.7-1.3h0.5v2.2H111z"/>
<path class="st4" d="M113.4,50.5v0.4h-1.5v-2.2h1.5V49h-1.1v0.5h0.9v0.4h-0.9v0.6L113.4,50.5z"/>
<path class="st4" d="M114.2,49.4v1.4h-0.4v-2.2h0.3l1.2,1.5v-1.5h0.4v2.2h-0.4L114.2,49.4z"/>
<path class="st4" d="M117.8,49h-0.7v1.9h-0.4V49H116v-0.4h1.8L117.8,49z"/>
<path class="st6" d="M97.1,118.2V116h0.8c0.2,0,0.3,0,0.5,0.1c0.1,0.1,0.2,0.1,0.3,0.2c0.1,0.1,0.2,0.2,0.2,0.4
	c0,0.1,0.1,0.3,0.1,0.4c0,0.2,0,0.3-0.1,0.5c0,0.1-0.1,0.3-0.2,0.3c-0.1,0.1-0.2,0.2-0.3,0.2c-0.1,0.1-0.3,0.1-0.5,0.1H97.1z
	 M98.6,117.1c0-0.1,0-0.2,0-0.3c0-0.1-0.1-0.2-0.1-0.2c-0.1-0.1-0.1-0.1-0.2-0.2c-0.1,0-0.2-0.1-0.3-0.1h-0.4v1.5h0.4
	c0.1,0,0.2,0,0.3-0.1c0.1,0,0.2-0.1,0.2-0.2c0.1-0.1,0.1-0.1,0.1-0.2C98.6,117.3,98.6,117.2,98.6,117.1L98.6,117.1z"/>
<path class="st6" d="M100.9,117.8v0.4h-1.5V116h1.5v0.4h-1.1v0.5h0.9v0.4h-0.9v0.6H100.9z"/>
<path class="st6" d="M101.1,117.1c0-0.1,0-0.3,0.1-0.4c0-0.1,0.1-0.3,0.2-0.4c0.1-0.1,0.2-0.2,0.3-0.3c0.1-0.1,0.3-0.1,0.5-0.1
	c0.2,0,0.4,0,0.5,0.1c0.1,0.1,0.2,0.2,0.3,0.3l-0.3,0.2c0-0.1-0.1-0.1-0.1-0.2c0,0-0.1-0.1-0.1-0.1c0,0-0.1,0-0.2-0.1
	c-0.1,0-0.1,0-0.2,0c-0.1,0-0.2,0-0.3,0.1c-0.1,0-0.1,0.1-0.2,0.2c-0.1,0.1-0.1,0.2-0.1,0.2c-0.1,0.2-0.1,0.4,0,0.5
	c0,0.1,0.1,0.2,0.1,0.2c0.1,0.1,0.1,0.1,0.2,0.2c0.1,0,0.2,0.1,0.3,0.1c0.1,0,0.1,0,0.2,0c0.1,0,0.1,0,0.2-0.1c0,0,0.1-0.1,0.1-0.1
	c0,0,0.1-0.1,0.1-0.2l0.4,0.2c0,0.1-0.1,0.2-0.2,0.2c-0.1,0.1-0.1,0.1-0.2,0.2c-0.1,0-0.2,0.1-0.3,0.1c-0.1,0-0.2,0-0.3,0
	c-0.2,0-0.3,0-0.4-0.1c-0.1-0.1-0.2-0.2-0.3-0.3c-0.1-0.1-0.2-0.2-0.2-0.4C101.1,117.4,101.1,117.2,101.1,117.1z"/>
<path class="st6" d="M103.4,118.2V116h0.4v1.8h1.1v0.4H103.4z"/>
<path class="st6" d="M105.2,118.2V116h0.4v2.2H105.2z"/>
<path class="st6" d="M106.5,116.8v1.4h-0.4V116h0.3l1.2,1.5V116h0.4v2.2h-0.3L106.5,116.8z"/>
<path class="st6" d="M110,117.8v0.4h-1.5V116h1.5v0.4h-1.1v0.5h0.9v0.4h-0.9v0.6H110z"/>
<path class="st0" d="M150.2,53.9H89.9v0.7h60.3V53.9z"/>
<path class="st0" d="M150.2,55.7H89.9v0.7h60.3V55.7z"/>
<path class="st0" d="M150.2,57.5H89.9v0.7h60.3V57.5z"/>
<path class="st0" d="M150.2,59.2H89.9v0.7h60.3V59.2z"/>
<path class="st0" d="M150.2,61H89.9v0.7h60.3V61z"/>
<path class="st0" d="M150.2,62.7H89.9v0.7h60.3V62.7z"/>
<path class="st0" d="M150.2,64.5H89.9v0.7h60.3V64.5z"/>
<path class="st0" d="M150.2,66.3H89.9v0.7h60.3V66.3z"/>
<path class="st0" d="M150.2,68H89.9v0.7h60.3V68z"/>
<path class="st0" d="M150.2,69.8H89.9v0.7h60.3V69.8z"/>
<path class="st0" d="M127.2,71.5H89.9v0.7h37.2V71.5z"/>
<path class="st0" d="M150.2,75.1H89.9v0.7h60.3V75.1z"/>
<path class="st0" d="M150.2,76.8H89.9v0.7h60.3V76.8z"/>
<path class="st0" d="M150.2,78.6H89.9v0.7h60.3V78.6z"/>
<path class="st0" d="M150.2,80.4H89.9V81h60.3V80.4z"/>
<path class="st0" d="M150.2,82.1H89.9v0.7h60.3V82.1z"/>
<path class="st0" d="M150.2,83.9H89.9v0.7h60.3V83.9z"/>
<path class="st0" d="M150.2,85.6H89.9v0.7h60.3V85.6z"/>
<path class="st0" d="M150.2,87.4H89.9v0.7h60.3V87.4z"/>
<path class="st0" d="M127.2,89.2H89.9v0.7h37.2V89.2z"/>
<path class="st0" d="M150.2,92.7H89.9v0.7h60.3V92.7z"/>
<path class="st0" d="M150.2,94.4H89.9v0.7h60.3V94.4z"/>
<path class="st0" d="M150.2,96.2H89.9v0.7h60.3V96.2z"/>
<path class="st0" d="M150.2,98H89.9v0.7h60.3V98z"/>
<path class="st0" d="M150.2,99.7H89.9v0.7h60.3V99.7z"/>
<path class="st0" d="M150.2,101.5H89.9v0.7h60.3V101.5z"/>
<path class="st0" d="M150.2,103.3H89.9v0.7h60.3V103.3z"/>
<path class="st0" d="M127.2,105H89.9v0.7h37.2V105z"/>
<path class="st6" d="M117.3,121.4H89.7v-8.2h27.6V121.4z M90.1,121H117v-7.6H90.1V121z"/>
<path class="st6" d="M150.2,113.3H123v7.9h27.2V113.3z"/>
<path class="st6" d="M151.3,122.3h-29.4v-10h29.4V122.3z M122.2,121.9H151v-9.4h-28.7V121.9z"/>
<path class="st2" d="M131.4,116h0.4l0.8,2.2h-0.4l-0.2-0.6h-0.8l-0.2,0.6h-0.4L131.4,116z M131.9,117.4l-0.3-0.9l-0.3,0.9H131.9z"/>
<path class="st2" d="M132.7,117.1c0-0.1,0-0.3,0.1-0.4c0-0.1,0.1-0.3,0.2-0.4c0.1-0.1,0.2-0.2,0.3-0.3c0.1-0.1,0.3-0.1,0.5-0.1
	c0.2,0,0.4,0,0.5,0.1c0.1,0.1,0.2,0.2,0.3,0.3l-0.3,0.2c0-0.1-0.1-0.1-0.1-0.2c0,0-0.1-0.1-0.1-0.1c0,0-0.1,0-0.1-0.1
	c-0.1,0-0.1,0-0.2,0c-0.1,0-0.2,0-0.3,0.1c-0.1,0-0.1,0.1-0.2,0.2c-0.1,0.1-0.1,0.2-0.1,0.2c0,0.1,0,0.2,0,0.3c0,0.1,0,0.2,0,0.3
	c0,0.1,0.1,0.2,0.1,0.2c0.1,0.1,0.1,0.1,0.2,0.2c0.1,0,0.2,0.1,0.3,0.1c0.1,0,0.1,0,0.2,0c0.1,0,0.1,0,0.2-0.1
	c0.1,0,0.1-0.1,0.1-0.1c0,0,0.1-0.1,0.1-0.2l0.4,0.2c0,0.1-0.1,0.2-0.2,0.2c-0.1,0.1-0.1,0.1-0.2,0.2c-0.1,0-0.2,0.1-0.3,0.1
	c-0.1,0-0.2,0-0.3,0c-0.2,0-0.3,0-0.4-0.1c-0.1-0.1-0.2-0.2-0.3-0.3C132.8,117.7,132.7,117.4,132.7,117.1L132.7,117.1z"/>
<path class="st2" d="M134.8,117.1c0-0.1,0-0.3,0.1-0.4c0-0.1,0.1-0.3,0.2-0.4c0.1-0.1,0.2-0.2,0.4-0.3c0.1-0.1,0.3-0.1,0.4-0.1
	c0.2,0,0.4,0,0.5,0.1c0.1,0.1,0.3,0.2,0.3,0.3l-0.3,0.2c0-0.1-0.1-0.1-0.1-0.2c0,0-0.1-0.1-0.1-0.1c0,0-0.1,0-0.1-0.1
	c-0.1,0-0.1,0-0.2,0c-0.1,0-0.2,0-0.3,0.1c-0.1,0-0.1,0.1-0.2,0.2c-0.1,0.1-0.1,0.2-0.1,0.2c-0.1,0.2-0.1,0.4,0,0.6
	c0,0.1,0.1,0.2,0.1,0.2c0.1,0.1,0.1,0.1,0.2,0.2c0.1,0,0.2,0.1,0.3,0.1c0.1,0,0.1,0,0.2,0c0.1,0,0.1,0,0.2-0.1
	c0.1,0,0.1-0.1,0.1-0.1c0,0,0.1-0.1,0.1-0.2l0.4,0.2c0,0.1-0.1,0.2-0.1,0.2c-0.1,0.1-0.1,0.1-0.2,0.2c-0.1,0-0.2,0.1-0.3,0.1
	c-0.1,0-0.2,0-0.3,0c-0.2,0-0.3,0-0.4-0.1c-0.1-0.1-0.2-0.2-0.3-0.3c-0.1-0.1-0.2-0.2-0.2-0.4C134.9,117.4,134.8,117.2,134.8,117.1z
	"/>
<path class="st2" d="M138.6,117.8v0.4h-1.5V116h1.5v0.4h-1.1v0.5h0.9v0.4h-0.9v0.6H138.6z"/>
<path class="st2" d="M139,118.2V116h0.9c0.1,0,0.2,0,0.3,0.1c0.1,0,0.2,0.1,0.2,0.2c0.1,0.1,0.1,0.1,0.1,0.2c0,0.1,0.1,0.2,0.1,0.3
	c0,0.1,0,0.2-0.1,0.3c0,0.1-0.1,0.2-0.1,0.2c-0.1,0.1-0.1,0.1-0.2,0.2c-0.1,0-0.2,0.1-0.3,0.1h-0.5v0.7H139z M139.4,117.1h0.5
	c0,0,0.1,0,0.1,0c0,0,0.1,0,0.1-0.1c0.1-0.1,0.1-0.2,0.1-0.3c0-0.1,0-0.1,0-0.2c0,0,0-0.1-0.1-0.1c0,0-0.1-0.1-0.1-0.1
	c0,0-0.1,0-0.1,0h-0.5V117.1z"/>
<path class="st2" d="M142.6,116.4h-0.7v1.8h-0.4v-1.8h-0.7V116h1.9V116.4z"/>
<path class="st3" d="M156.7,27.8h-2.3v100.6h2.3V27.8z"/>
<path class="st1" d="M155.5,100.1c-0.2,0-0.3-0.1-0.4-0.2c-0.1-0.1-0.2-0.3-0.2-0.4V28.9c0-0.2,0.1-0.3,0.2-0.4
	c0.1-0.1,0.3-0.2,0.4-0.2c0.2,0,0.3,0.1,0.4,0.2c0.1,0.1,0.2,0.3,0.2,0.4v70.7c0,0.2-0.1,0.3-0.2,0.4
	C155.9,100,155.7,100.1,155.5,100.1z"/>
<path class="st9" d="M144.9,146.9c0.7,0.2,20.4,0,21.1-0.5c0.3-0.2,0.4-3.1,0.5-6.5c0,0,0-0.1,0-0.1c0-0.7,0-1.5,0-2.2
	c0-0.1,0-0.2,0-0.3l-1-10.2l-13.2,0.1l1.3,10.1l0,0.4l0.1,2.1v0.2c0,0-7.5,3.5-8.3,4.1C144.7,144.7,144.2,146.7,144.9,146.9z"/>
<path class="st0" d="M144.9,146.9c0.7,0.2,20.4,0,21.1-0.5c0.3-0.2,0.4-3.1,0.5-6.5c0,0,0-0.1,0-0.1c0-0.7,0-1.5,0-2.2
	c0-0.1,0-0.2,0-0.3l-12.8,0l0,0.4l0.1,2.1v0.2c0,0-7.5,3.5-8.3,4.1C144.7,144.7,144.2,146.7,144.9,146.9z"/>
<path class="st6" d="M144.9,146.9c0.4,0.1,5.7,0.1,10.9,0c1,0,2.1,0,3.1-0.1c3.7-0.1,6.8-0.3,7.1-0.4c0.3-0.2,0.4-3,0.5-6.4
	c0,0,0-0.1,0-0.1s0-0.1,0-0.1h0l-12.7,0v0.2c0,0-7.5,3.5-8.3,4.1C144.8,144.7,144.2,146.7,144.9,146.9z"/>
<path class="st5" d="M145.1,146.1c3.3-0.1,16.7-0.3,20-0.2c0,0,0,0,0,0C161.8,146.1,148.4,146.2,145.1,146.1
	C145,146.2,145,146.1,145.1,146.1z"/>
<path class="st5" d="M152.4,139.8c1.3-0.3,2.9-0.1,3.9,0.8c0,0,0,0.1-0.1,0.1c-1.2-0.4-2.5-0.6-3.8-0.8c0,0,0,0-0.1,0
	C152.3,139.9,152.3,139.9,152.4,139.8C152.3,139.9,152.3,139.9,152.4,139.8C152.3,139.8,152.3,139.8,152.4,139.8z"/>
<path class="st5" d="M151.4,140.4c1.3-0.3,2.9-0.1,3.9,0.8c0,0,0,0.1-0.1,0.1c-1.2-0.4-2.5-0.6-3.8-0.7c0,0,0,0-0.1,0
	C151.4,140.5,151.4,140.5,151.4,140.4C151.3,140.5,151.4,140.4,151.4,140.4C151.4,140.4,151.4,140.4,151.4,140.4z"/>
<path class="st5" d="M150.5,141c1.3-0.3,2.9-0.1,3.9,0.8c0,0,0,0.1-0.1,0.1c-1.2-0.4-2.5-0.6-3.8-0.7c0,0,0,0-0.1,0
	C150.4,141.1,150.4,141.1,150.5,141C150.4,141,150.4,141,150.5,141C150.5,141,150.5,141,150.5,141z"/>
<path class="st5" d="M155.8,146.9c1,0,2.1,0,3.1-0.1c3.7-0.1,6.8-0.3,7.1-0.4c0.3-0.2,0.4-3,0.5-6.4c0,0,0-0.1,0-0.1s0-0.1,0-0.1h0
	C164.7,140.9,158.6,145,155.8,146.9z"/>
<path class="st7" d="M152.9,139.8h14.2c0,0-2.9-33.1-2.7-33.7c0.1-0.7,1-4.1,2.1-8.5c0.3-1.4,0.7-2.8,1.1-4.4
	c1.1-4.1,2.2-8.6,3.2-12.5c1.5-5.9,2.7-10.4,2.7-10.4h-12c0,0-1.4,4.4-3.2,10.2c-2.9,9.4-6.7,22.3-7.1,25.4
	C150.6,111,152.9,139.8,152.9,139.8z"/>
<path class="st5" d="M153.5,137.4c2.2,0,1.5-0.1,3.7-0.1c1.1,0,8-0.1,9,0.1c0,0,0,0,0,0c-1,0.2-8,0.1-9,0.1
	C155.1,137.5,155.7,137.5,153.5,137.4C153.5,137.4,153.5,137.4,153.5,137.4C153.5,137.4,153.5,137.4,153.5,137.4
	C153.5,137.4,153.5,137.4,153.5,137.4C153.5,137.4,153.5,137.4,153.5,137.4z"/>
<path class="st5" d="M161.7,104.1c0.5-2.1,1.2-4.1,1.8-6.1c1.2-4.1,2.5-8.2,3.7-12.3c0.6-2,1.2-4.1,1.9-6.1c0.3-1,0.6-2.1,1-3.1
	c0.3-1,0.7-2,1-3c0.1-0.4,0.2-0.2,0,0.3c-0.3,1.1-0.6,2.1-0.9,3.2c-0.6,2.1-1.2,4.2-1.8,6.3c-1.2,4.2-2.5,8.3-3.7,12.5
	c-0.6,2.1-1.2,4.2-1.9,6.2c-0.3,1-0.6,2-0.8,3c-0.2,1.1-0.2,2.2-0.1,3.2c0.1,2.2,0.4,4.3,0.6,6.5c0.2,2.2,0.4,4.3,0.6,6.5
	c0.4,4.3,0.8,8.6,1.2,12.9c0,0.5,0.1,1.1,0.1,1.6c0,0.2-0.3,0.2-0.3,0c-0.5-4.3-0.8-8.6-1.2-12.8c-0.4-4.3-0.8-8.5-1.2-12.8
	c-0.1-1.1-0.2-2.1-0.2-3.2C161.3,106,161.5,105,161.7,104.1z"/>
<path class="st5" d="M162.9,70.3c0.8,6.5,2.4,18.6,3.6,27.3c2.7-10.6,7.1-27.3,7.1-27.3H162.9z"/>
<path class="st9" d="M159.9,147.1c0.7,0.2,20.4,0,21.1-0.4c0.3-0.2,0.4-3,0.5-6.5V140c0-0.7,0-1.5,0-2.2c0-0.1,0-0.2,0-0.3
	c0-5-0.3-10.2-0.3-10.2l-12.9,0.1l0.4,10.1v0.4l0.1,2.1v0.2c0,0-7.5,3.4-8.3,4.1C159.8,144.9,159.2,146.8,159.9,147.1z"/>
<path class="st0" d="M159.9,147.1c0.7,0.2,20.4,0,21.1-0.4c0.3-0.2,0.4-3.1,0.5-6.5V140c0-0.7,0-1.5,0-2.2c0-0.1,0-0.2,0-0.3h-12.8
	v0.4l0.1,2.1v0.2c0,0-7.5,3.4-8.3,4.1C159.8,144.9,159.2,146.8,159.9,147.1z"/>
<path class="st6" d="M159.9,147.1c0.7,0.2,20.4,0,21.1-0.4c0.3-0.2,0.4-3,0.5-6.5V140l-12.7,0v0.2c0,0-7.5,3.4-8.3,4.1
	C159.8,144.9,159.2,146.8,159.9,147.1z"/>
<path class="st5" d="M160.1,146.3c3.3-0.1,16.7-0.3,20-0.1c0,0,0,0,0,0C176.8,146.4,163.4,146.4,160.1,146.3
	C160,146.4,160,146.3,160.1,146.3z"/>
<path class="st5" d="M167.4,140c1.3-0.3,2.9-0.1,3.9,0.9c0,0,0,0.1-0.1,0.1c-1.2-0.4-2.5-0.6-3.8-0.8c0,0,0,0-0.1,0
	C167.4,140.1,167.3,140.1,167.4,140C167.3,140.1,167.3,140.1,167.4,140C167.4,140,167.4,140,167.4,140z"/>
<path class="st5" d="M166.5,140.6c1.3-0.3,2.9-0.1,3.9,0.9c0,0,0,0.1-0.1,0.1c-1.2-0.4-2.5-0.6-3.8-0.8c0,0,0,0,0,0c0,0,0,0,0,0
	s0,0,0,0C166.4,140.7,166.4,140.7,166.5,140.6C166.4,140.7,166.4,140.7,166.5,140.6C166.4,140.6,166.4,140.6,166.5,140.6
	C166.4,140.6,166.4,140.6,166.5,140.6C166.4,140.6,166.5,140.6,166.5,140.6z"/>
<path class="st5" d="M165.5,141.2c1.3-0.3,2.9-0.1,3.9,0.9c0,0,0,0.1-0.1,0.1c-1.2-0.4-2.5-0.6-3.8-0.8c0,0,0,0-0.1,0
	C165.5,141.3,165.5,141.3,165.5,141.2C165.5,141.2,165.5,141.2,165.5,141.2C165.5,141.2,165.5,141.2,165.5,141.2z"/>
<path class="st7" d="M161.9,70.3c0,0,0.3,5.8,1.6,10.3c0.1,0.4,0.2,0.7,0.3,1.1c1.2,0.5,2.4,1.1,3.5,1.8c0,0,0.1,4.6,0.3,9.8
	c0.2,5.8,0.3,12.2,0.3,13.6c-0.1,5.1,0.6,33.2,0.6,33.2l14.2,0.1c0,0-2.6-31.4-2.5-33.2c0-3-0.7-16.3-1.2-26
	c-0.3-6-0.6-10.6-0.6-10.6L161.9,70.3z"/>
<path class="st5" d="M169,137.5c2.2,0,1.5-0.1,3.7-0.1c1.1,0,8,0,9,0.1c0,0,0,0,0,0s0,0,0,0s0,0,0,0c0,0,0,0,0,0c-1,0.2-8,0.1-9,0.1
	C170.5,137.6,171.1,137.6,169,137.5C169,137.5,168.9,137.5,169,137.5C168.9,137.5,168.9,137.5,169,137.5
	C168.9,137.5,168.9,137.5,169,137.5C168.9,137.5,169,137.5,169,137.5z"/>
<path class="st5" d="M177.1,72.3c0.3,7.9,0.5,15.8,0.9,23.7c0.4,7.9,0.8,15.9,1.5,23.8c0.4,4.4,0.7,10.6,1.2,15c0,0,0,0,0,0
	c-1-7.8-1.6-17.5-2.1-25.4c-0.5-7.9-0.9-15.8-1.1-23.7C177.2,81.3,177.1,76.8,177.1,72.3C177,72.3,177.1,72.3,177.1,72.3z"/>
<path class="st5" d="M163.2,81.4c1.4,0.6,2.8,1.3,4.1,2.1c0,0,0,0,0,0c0,0,0,0,0,0c0,0,0,0,0,0c0,0,0,0,0,0c-1.4-0.7-2.8-1.3-4.1-2
	c0,0,0,0,0-0.1c0,0,0,0,0-0.1C163.1,81.4,163.1,81.4,163.2,81.4C163.2,81.3,163.2,81.3,163.2,81.4z"/>
<path class="st5" d="M163.1,76.5c0.1,0.5,0.2,1,0.3,1.5s0.2,1,0.3,1.4c0.1,0.4,0.3,0.9,0.7,1.2c0.2,0.2,0.4,0.3,0.6,0.5
	c0.1,0.1,0.2,0.2,0.3,0.3l0-0.2l-0.1-0.6c-0.1-0.4-0.1-0.8-0.2-1.3c-0.1-0.8-0.2-1.7-0.4-2.5c0,0,0,0,0,0c0,0,0,0,0,0c0,0,0,0,0,0
	c0,0,0,0,0,0c0.2,0.8,0.4,1.6,0.6,2.5c0.1,0.4,0.4,2.4,0.4,2.6c0,0.2,0,0.3,0,0.4c0,0.1,0,0.3,0,0.4c0,0-0.1,0-0.1,0
	c-0.1-0.1-0.1-0.3-0.1-0.4c0-0.1-0.1-0.3-0.1-0.4c0-0.1,0-0.1,0-0.2c-0.2-0.1-0.4-0.3-0.6-0.4c-0.2-0.1-0.4-0.3-0.6-0.4
	c-0.3-0.3-0.6-0.7-0.7-1.1c-0.1-0.5-0.2-1-0.2-1.4C163.2,77.6,163.2,77.1,163.1,76.5C163.1,76.5,163.1,76.4,163.1,76.5z"/>
<path class="st9" d="M168.3,57.3c-1.1,3.3-6,13.8-8.1,14.6c-2.2,0.8-10.5,1.7-12.3,0.3c-0.9-0.7-1.2-8.3,0-8.1s8.5,0.5,9.4,0.1
	c0.9-0.3,6.7-8.8,9.1-10.8C170.5,49.7,168.9,55.5,168.3,57.3z"/>
<path class="st6" d="M149.8,63.8l0.1,9.5c0,0,8.5,0,10.8-1.2c2.3-1.2,7.1-12.1,8.3-16.3s-0.7-4.8-3.8-1.8c-3.1,3.1-7.6,9.5-8.2,9.6
	C156.5,63.8,149.8,63.8,149.8,63.8z"/>
<path class="st10" d="M168.7,53c-0.1,0-0.1,0-0.2,0.1c-0.1,0-0.1,0.1-0.1,0.1c0,0.1,0,0.1,0,0.2c0,0.1,0,0.1,0.1,0.2
	c0,0,0.1,0.1,0.2,0.1c0.1,0,0.1,0,0.2,0c0.1,0,0.1-0.1,0.1-0.1c0-0.1,0.1-0.1,0.1-0.2c0-0.1,0-0.2-0.1-0.2
	C168.9,53.1,168.8,53,168.7,53z M168.7,53.6c-0.1,0-0.1,0-0.2-0.1c0,0-0.1-0.1-0.1-0.2c0-0.1,0-0.1,0.1-0.2c0,0,0.1-0.1,0.2-0.1
	c0.1,0,0.1,0,0.2,0.1c0,0,0.1,0.1,0.1,0.2c0,0.1,0,0.1-0.1,0.2S168.8,53.6,168.7,53.6z M162.1,57.7c0,0-0.1,0-0.1,0l-0.2,0.2
	c0,0,0,0.1,0,0.1c0,0.1,0,0.2,0.1,0.2c0.1,0.1,0.1,0.1,0.2,0.1c0.1,0,0.2,0,0.2-0.1c0.1-0.1,0.1-0.1,0.1-0.2c0,0,0-0.1,0-0.1
	c0,0,0-0.1-0.1-0.1c0,0-0.1-0.1-0.1-0.1C162.2,57.7,162.1,57.7,162.1,57.7z M162.1,58.3c0,0-0.1,0-0.1,0c0,0-0.1-0.1-0.1-0.1
	c0,0,0-0.1,0-0.1s0-0.1,0.1-0.1c0,0,0.1-0.1,0.1-0.1c0,0,0.1,0,0.1,0c0,0,0.1,0,0.1,0.1c0,0,0,0.1,0,0.1c0,0.1,0,0.1-0.1,0.2
	C162.2,58.2,162.1,58.3,162.1,58.3z M165.4,57.7c-0.1,0-0.2,0-0.2,0.1c-0.1,0.1-0.1,0.1-0.1,0.2c0,0.1,0,0.1,0.1,0.2
	c0,0.1,0.1,0.1,0.1,0.1c0.1,0,0.1,0,0.2,0c0.1,0,0.1,0,0.2-0.1c0,0,0.1-0.1,0.1-0.2s0-0.1,0-0.2c0-0.1-0.1-0.1-0.1-0.1
	C165.5,57.7,165.5,57.7,165.4,57.7z M165.4,58.3c0,0-0.1,0-0.1,0c0,0-0.1-0.1-0.1-0.1c0,0,0-0.1,0-0.1s0-0.1,0.1-0.1
	c0,0,0.1-0.1,0.1-0.1c0,0,0.1,0,0.1,0c0,0,0.1,0,0.1,0.1c0,0,0,0.1,0,0.1c0,0.1,0,0.1-0.1,0.2S165.5,58.3,165.4,58.3z M163.9,55.4
	L163.9,55.4c0,0.1,0,0.1,0,0.2c0,0,0,0.1,0,0.1c0,0,0,0.1,0,0.1c0,0,0,0.1,0,0.1c0,0,0,0-0.1,0c0,0-0.1,0-0.1,0c0,0-0.1,0-0.1,0
	c0,0-0.1,0-0.1-0.1l-0.1,0.1c0,0,0.1,0.1,0.1,0.1c0,0,0.1,0,0.1,0c0,0,0.1,0,0.1,0c0,0,0.1,0,0.1-0.1c0,0,0.1-0.1,0.1-0.1
	c0,0,0-0.1,0-0.1c0,0,0-0.1-0.1-0.1C164,55.5,163.9,55.5,163.9,55.4z M167.1,55.4c-0.1,0-0.1,0-0.2,0.1c-0.1,0-0.1,0.1-0.1,0.1
	c0,0.1,0,0.1,0,0.2c0,0.1,0,0.1,0.1,0.2c0,0,0.1,0.1,0.2,0.1c0.1,0,0.1,0,0.2,0c0.1,0,0.1-0.1,0.1-0.1c0-0.1,0.1-0.1,0.1-0.2
	c0-0.1,0-0.2-0.1-0.2C167.2,55.4,167.1,55.4,167.1,55.4z M167.1,55.9c-0.1,0-0.1,0-0.2-0.1c0,0-0.1-0.1-0.1-0.2c0-0.1,0-0.1,0.1-0.2
	c0,0,0.1-0.1,0.2-0.1c0.1,0,0.1,0,0.2,0.1s0.1,0.1,0.1,0.2c0,0.1,0,0.1-0.1,0.2C167.2,55.9,167.1,55.9,167.1,55.9z M158.7,62.4
	c-0.1,0-0.2,0-0.2,0.1c-0.1,0.1-0.1,0.1-0.1,0.2c0,0.1,0,0.2,0.1,0.2c0.1,0.1,0.1,0.1,0.2,0.1c0.1,0,0.2,0,0.2-0.1
	c0.1-0.1,0.1-0.1,0.1-0.2c0-0.1,0-0.2-0.1-0.2C158.9,62.4,158.8,62.4,158.7,62.4z M158.7,62.9c-0.1,0-0.1,0-0.1-0.1
	s-0.1-0.1-0.1-0.1c0-0.1,0-0.1,0.1-0.1s0.1-0.1,0.1-0.1c0,0,0.1,0,0.1,0s0.1,0,0.1,0c0,0,0,0,0.1,0.1c0,0,0,0.1,0,0.1
	c0,0,0,0.1,0,0.1c0,0,0,0.1-0.1,0.1C158.9,62.9,158.9,62.9,158.7,62.9C158.8,62.9,158.8,62.9,158.7,62.9z M162.1,62.4
	c-0.1,0-0.1,0-0.2,0.1c-0.1,0-0.1,0.1-0.1,0.1c0,0.1,0,0.1,0,0.2c0,0.1,0,0.1,0.1,0.2c0,0,0.1,0.1,0.2,0.1c0.1,0,0.1,0,0.2,0
	c0.1,0,0.1-0.1,0.1-0.1c0-0.1,0.1-0.1,0.1-0.2c0-0.1,0-0.2-0.1-0.2S162.2,62.4,162.1,62.4z M162.1,62.9c-0.1,0-0.1,0-0.1-0.1
	c0,0-0.1-0.1-0.1-0.1c0-0.1,0-0.1,0.1-0.1c0,0,0.1-0.1,0.1-0.1c0,0,0.1,0,0.1,0c0,0,0.1,0,0.1,0c0,0,0,0,0.1,0.1c0,0,0,0.1,0,0.1
	c0,0,0,0.1,0,0.1c0,0,0,0.1-0.1,0.1C162.2,62.9,162.2,62.9,162.1,62.9C162.1,62.9,162.1,62.9,162.1,62.9z M165.4,62.4
	c-0.1,0-0.1,0-0.2,0.1c-0.1,0-0.1,0.1-0.1,0.1c0,0.1,0,0.1,0,0.2c0,0.1,0,0.1,0.1,0.2c0,0,0.1,0.1,0.2,0.1c0.1,0,0.1,0,0.2,0
	c0.1,0,0.1-0.1,0.1-0.1c0-0.1,0.1-0.1,0.1-0.2c0-0.1,0-0.2-0.1-0.2S165.5,62.4,165.4,62.4z M165.4,62.9c-0.1,0-0.1,0-0.1-0.1
	c0,0-0.1-0.1-0.1-0.1c0-0.1,0-0.1,0.1-0.1c0,0,0.1-0.1,0.1-0.1c0,0,0.1,0,0.1,0c0,0,0.1,0,0.1,0c0,0,0,0,0.1,0.1c0,0,0,0.1,0,0.1
	c0,0,0,0.1,0,0.1c0,0,0,0.1-0.1,0.1C165.5,62.9,165.5,62.9,165.4,62.9C165.5,62.9,165.4,62.9,165.4,62.9z M160.4,60.1
	c-0.1,0-0.2,0-0.2,0.1c-0.1,0.1-0.1,0.1-0.1,0.2c0,0.1,0,0.2,0.1,0.2c0.1,0.1,0.1,0.1,0.2,0.1c0.1,0,0.2,0,0.2-0.1
	c0.1-0.1,0.1-0.1,0.1-0.2c0,0,0-0.1,0-0.1c0,0,0-0.1-0.1-0.1c0,0-0.1-0.1-0.1-0.1C160.5,60.1,160.5,60.1,160.4,60.1L160.4,60.1z
	 M160.4,60.6c-0.1,0-0.1,0-0.2-0.1c0,0-0.1-0.1-0.1-0.2c0-0.1,0-0.1,0.1-0.2c0,0,0.1-0.1,0.2-0.1c0.1,0,0.1,0,0.2,0.1
	c0,0,0.1,0.1,0.1,0.2c0,0.1,0,0.1-0.1,0.2C160.5,60.6,160.5,60.6,160.4,60.6z M163.7,60.1c-0.1,0-0.2,0-0.2,0.1
	c-0.1,0.1-0.1,0.1-0.1,0.2c0,0.1,0,0.2,0.1,0.2c0.1,0.1,0.1,0.1,0.2,0.1c0.1,0,0.2,0,0.2-0.1c0.1-0.1,0.1-0.1,0.1-0.2
	c0,0,0-0.1,0-0.1c0,0,0-0.1-0.1-0.1c0,0-0.1-0.1-0.1-0.1C163.8,60.1,163.8,60.1,163.7,60.1L163.7,60.1z M163.7,60.6
	c-0.1,0-0.1,0-0.2-0.1c0,0-0.1-0.1-0.1-0.2c0-0.1,0-0.1,0.1-0.2c0,0,0.1-0.1,0.2-0.1c0.1,0,0.1,0,0.2,0.1c0,0,0.1,0.1,0.1,0.2
	c0,0.1,0,0.1-0.1,0.2C163.8,60.6,163.8,60.6,163.7,60.6z M167.1,60.1c-0.1,0-0.2,0-0.2,0.1c-0.1,0.1-0.1,0.1-0.1,0.2
	c0,0.1,0,0.2,0.1,0.2c0.1,0.1,0.1,0.1,0.2,0.1c0,0,0.1,0,0.1,0l0.2-0.4c0-0.1-0.1-0.1-0.1-0.1C167.2,60.1,167.1,60.1,167.1,60.1
	L167.1,60.1z M167.1,60.6c0,0-0.1,0-0.1,0c0,0-0.1-0.1-0.1-0.1c0,0,0-0.1,0-0.1c0,0,0-0.1,0.1-0.1c0,0,0.1-0.1,0.1-0.1
	c0,0,0.1,0,0.1,0c0,0,0.1,0,0.1,0.1c0,0,0,0.1,0,0.1c0,0.1,0,0.1-0.1,0.1C167.2,60.6,167.1,60.6,167.1,60.6L167.1,60.6z M152.1,67.1
	c-0.1,0-0.1,0-0.2,0.1c-0.1,0-0.1,0.1-0.1,0.1c0,0.1,0,0.1,0,0.2c0,0.1,0,0.1,0.1,0.2c0,0,0.1,0.1,0.2,0.1c0.1,0,0.1,0,0.2,0
	c0.1,0,0.1-0.1,0.1-0.1c0-0.1,0.1-0.1,0.1-0.2c0,0,0-0.1,0-0.1c0,0,0-0.1-0.1-0.1c0,0-0.1-0.1-0.1-0.1
	C152.2,67.1,152.1,67.1,152.1,67.1L152.1,67.1z M152.1,67.6c-0.1,0-0.1,0-0.2-0.1c0,0-0.1-0.1-0.1-0.2c0-0.1,0-0.1,0.1-0.2
	c0,0,0.1-0.1,0.2-0.1c0.1,0,0.1,0,0.2,0.1c0,0,0.1,0.1,0.1,0.2c0,0.1,0,0.1-0.1,0.2C152.2,67.6,152.2,67.6,152.1,67.6z M155.4,67.1
	c-0.1,0-0.1,0-0.2,0.1c-0.1,0-0.1,0.1-0.1,0.1c0,0.1,0,0.1,0,0.2c0,0.1,0,0.1,0.1,0.2c0,0,0.1,0.1,0.2,0.1c0.1,0,0.1,0,0.2,0
	c0.1,0,0.1-0.1,0.1-0.1c0-0.1,0.1-0.1,0.1-0.2c0,0,0-0.1,0-0.1c0,0,0-0.1-0.1-0.1c0,0-0.1-0.1-0.1-0.1
	C155.5,67.1,155.5,67.1,155.4,67.1L155.4,67.1z M155.4,67.6c-0.1,0-0.1,0-0.2-0.1c0,0-0.1-0.1-0.1-0.2c0-0.1,0-0.1,0.1-0.2
	c0,0,0.1-0.1,0.2-0.1c0.1,0,0.1,0,0.2,0.1c0,0,0.1,0.1,0.1,0.2c0,0.1,0,0.1-0.1,0.2C155.5,67.6,155.5,67.6,155.4,67.6z M158.7,67.1
	c-0.1,0-0.1,0-0.2,0.1c-0.1,0-0.1,0.1-0.1,0.1c0,0.1,0,0.1,0,0.2c0,0.1,0,0.1,0.1,0.2c0,0,0.1,0.1,0.2,0.1c0.1,0,0.1,0,0.2,0
	c0.1,0,0.1-0.1,0.1-0.1c0-0.1,0.1-0.1,0.1-0.2c0,0,0-0.1,0-0.1c0,0,0-0.1-0.1-0.1c0,0-0.1-0.1-0.1-0.1
	C158.8,67.1,158.8,67.1,158.7,67.1L158.7,67.1z M158.7,67.6c-0.1,0-0.1,0-0.2-0.1c0,0-0.1-0.1-0.1-0.2c0-0.1,0-0.1,0.1-0.2
	c0,0,0.1-0.1,0.2-0.1c0.1,0,0.1,0,0.2,0.1c0,0,0.1,0.1,0.1,0.2c0,0.1,0,0.1-0.1,0.2C158.9,67.6,158.8,67.6,158.7,67.6z M162.1,67.1
	c-0.1,0-0.1,0-0.2,0.1c-0.1,0-0.1,0.1-0.1,0.1c0,0.1,0,0.1,0,0.2c0,0.1,0,0.1,0.1,0.2c0,0,0.1,0.1,0.2,0.1c0.1,0,0.1,0,0.2,0
	c0.1,0,0.1-0.1,0.1-0.1c0-0.1,0.1-0.1,0.1-0.2c0,0,0-0.1,0-0.1c0,0,0-0.1-0.1-0.1c0,0-0.1-0.1-0.1-0.1
	C162.2,67.1,162.1,67.1,162.1,67.1L162.1,67.1z M162.1,67.6c-0.1,0-0.1,0-0.2-0.1c0,0-0.1-0.1-0.1-0.2c0-0.1,0-0.1,0.1-0.2
	c0,0,0.1-0.1,0.2-0.1c0.1,0,0.1,0,0.2,0.1c0,0,0.1,0.1,0.1,0.2c0,0.1,0,0.1-0.1,0.2C162.2,67.6,162.1,67.6,162.1,67.6z M150.4,64.7
	c-0.1,0-0.2,0-0.2,0.1c-0.1,0.1-0.1,0.1-0.1,0.2c0,0.1,0,0.2,0.1,0.2s0.1,0.1,0.2,0.1c0.1,0,0.2,0,0.2-0.1s0.1-0.1,0.1-0.2
	c0-0.1,0-0.2-0.1-0.2C150.6,64.8,150.5,64.7,150.4,64.7z M150.4,65.3c-0.1,0-0.1,0-0.1-0.1c0,0-0.1-0.1-0.1-0.1c0-0.1,0-0.1,0.1-0.1
	c0,0,0.1-0.1,0.1-0.1c0,0,0.1,0,0.1,0c0,0,0.1,0,0.1,0s0,0,0.1,0.1c0,0,0,0.1,0,0.1c0,0,0,0.1,0,0.1c0,0,0,0.1-0.1,0.1
	S150.6,65.3,150.4,65.3C150.5,65.3,150.5,65.3,150.4,65.3z M153.8,64.7c-0.1,0-0.1,0-0.2,0.1s-0.1,0.1-0.1,0.1s0,0.1,0,0.2
	c0,0.1,0,0.1,0.1,0.2c0,0,0.1,0.1,0.2,0.1c0.1,0,0.1,0,0.2,0c0.1,0,0.1-0.1,0.1-0.1c0-0.1,0.1-0.1,0.1-0.2c0-0.1,0-0.2-0.1-0.2
	C153.9,64.8,153.8,64.7,153.8,64.7L153.8,64.7z M153.8,65.3c-0.1,0-0.1,0-0.1-0.1s-0.1-0.1-0.1-0.1c0-0.1,0-0.1,0.1-0.1
	s0.1-0.1,0.1-0.1c0,0,0.1,0,0.1,0s0.1,0,0.1,0c0,0,0,0,0.1,0.1c0,0,0,0.1,0,0.1c0,0,0,0.1,0,0.1c0,0,0,0.1-0.1,0.1
	C153.9,65.2,153.9,65.3,153.8,65.3C153.8,65.3,153.8,65.3,153.8,65.3z M157.1,64.7c-0.1,0-0.1,0-0.2,0.1c-0.1,0-0.1,0.1-0.1,0.1
	s0,0.1,0,0.2c0,0.1,0,0.1,0.1,0.2c0,0,0.1,0.1,0.2,0.1c0.1,0,0.1,0,0.2,0c0.1,0,0.1-0.1,0.1-0.1c0-0.1,0.1-0.1,0.1-0.2
	c0-0.1,0-0.2-0.1-0.2C157.2,64.8,157.2,64.7,157.1,64.7L157.1,64.7z M157.1,65.3c-0.1,0-0.1,0-0.1-0.1s-0.1-0.1-0.1-0.1
	c0-0.1,0-0.1,0.1-0.1s0.1-0.1,0.1-0.1c0,0,0.1,0,0.1,0s0.1,0,0.1,0c0,0,0,0,0.1,0.1c0,0,0,0.1,0,0.1c0,0,0,0.1,0,0.1
	c0,0,0,0.1-0.1,0.1C157.2,65.2,157.2,65.3,157.1,65.3C157.1,65.3,157.1,65.3,157.1,65.3z M160.4,64.7c-0.1,0-0.1,0-0.2,0.1
	c-0.1,0-0.1,0.1-0.1,0.1s0,0.1,0,0.2c0,0.1,0,0.1,0.1,0.2c0,0,0.1,0.1,0.2,0.1c0.1,0,0.1,0,0.2,0c0.1,0,0.1-0.1,0.1-0.1
	c0-0.1,0.1-0.1,0.1-0.2c0-0.1,0-0.2-0.1-0.2C160.6,64.8,160.5,64.7,160.4,64.7L160.4,64.7z M160.4,65.3
	C160.4,65.3,160.3,65.3,160.4,65.3c-0.1,0-0.1,0-0.2-0.1c0,0,0,0-0.1-0.1c0,0,0-0.1,0-0.1c0,0,0-0.1,0-0.1c0,0,0-0.1,0.1-0.1
	c0,0,0.1,0,0.1,0s0.1,0,0.1,0c0.1,0,0.1,0,0.1,0.1c0,0,0.1,0.1,0.1,0.1c0,0.1,0,0.1-0.1,0.1C160.5,65.2,160.5,65.3,160.4,65.3z
	 M163.7,64.7c-0.1,0-0.1,0-0.2,0.1c-0.1,0-0.1,0.1-0.1,0.1c0,0.1,0,0.1,0,0.2c0,0.1,0,0.1,0.1,0.2c0,0,0.1,0.1,0.2,0.1
	c0.1,0,0.1,0,0.2,0c0.1,0,0.1-0.1,0.1-0.1c0-0.1,0.1-0.1,0.1-0.2c0-0.1,0-0.2-0.1-0.2C163.9,64.8,163.8,64.7,163.7,64.7L163.7,64.7z
	 M163.7,65.3C163.7,65.3,163.7,65.3,163.7,65.3c-0.1,0-0.1,0-0.2-0.1c0,0,0,0-0.1-0.1c0,0,0-0.1,0-0.1c0,0,0-0.1,0-0.1
	c0,0,0-0.1,0.1-0.1c0,0,0.1,0,0.1,0s0.1,0,0.1,0c0.1,0,0.1,0,0.1,0.1s0.1,0.1,0.1,0.1c0,0.1,0,0.1-0.1,0.1S163.8,65.3,163.7,65.3z
	 M152.1,71.7c-0.1,0-0.2,0-0.2,0.1c-0.1,0.1-0.1,0.1-0.1,0.2c0,0.1,0,0.2,0.1,0.2c0.1,0.1,0.1,0.1,0.2,0.1c0.1,0,0.2,0,0.2-0.1
	c0.1-0.1,0.1-0.1,0.1-0.2c0-0.1,0-0.2-0.1-0.2C152.3,71.8,152.2,71.7,152.1,71.7L152.1,71.7z M152.1,72.3c-0.1,0-0.1,0-0.2-0.1
	c0,0-0.1-0.1-0.1-0.2c0-0.1,0-0.1,0.1-0.2c0,0,0.1-0.1,0.2-0.1c0.1,0,0.1,0,0.2,0.1c0,0,0.1,0.1,0.1,0.2c0,0.1,0,0.1-0.1,0.2
	C152.2,72.2,152.2,72.3,152.1,72.3z M155.4,71.7c-0.1,0-0.2,0-0.2,0.1c-0.1,0.1-0.1,0.1-0.1,0.2c0,0.1,0,0.2,0.1,0.2
	c0.1,0.1,0.1,0.1,0.2,0.1c0.1,0,0.2,0,0.2-0.1c0.1-0.1,0.1-0.1,0.1-0.2c0-0.1,0-0.2-0.1-0.2C155.6,71.8,155.5,71.7,155.4,71.7
	L155.4,71.7z M155.4,72.3c-0.1,0-0.1,0-0.2-0.1c0,0-0.1-0.1-0.1-0.2c0-0.1,0-0.1,0.1-0.2c0,0,0.1-0.1,0.2-0.1c0.1,0,0.1,0,0.2,0.1
	c0,0,0.1,0.1,0.1,0.2c0,0.1,0,0.1-0.1,0.2C155.5,72.2,155.5,72.3,155.4,72.3z M158.7,71.7c-0.1,0-0.2,0-0.2,0.1
	c-0.1,0.1-0.1,0.1-0.1,0.2c0,0.1,0,0.2,0.1,0.2c0.1,0.1,0.1,0.1,0.2,0.1c0.1,0,0.2,0,0.2-0.1c0.1-0.1,0.1-0.1,0.1-0.2
	c0-0.1,0-0.2-0.1-0.2C158.9,71.8,158.8,71.7,158.7,71.7L158.7,71.7z M158.7,72.3c0,0-0.1,0-0.1,0c0,0-0.1-0.1-0.1-0.1
	c0,0,0-0.1,0-0.1c0,0,0-0.1,0.1-0.1c0,0,0.1-0.1,0.1-0.1c0,0,0.1,0,0.1,0c0,0,0.1,0,0.1,0.1c0,0,0,0.1,0,0.1c0,0,0,0.1,0,0.1
	c0,0,0,0.1,0,0.1C158.9,72.2,158.9,72.3,158.7,72.3C158.8,72.3,158.8,72.3,158.7,72.3L158.7,72.3z M150.4,69.4c-0.1,0-0.1,0-0.2,0.1
	c-0.1,0-0.1,0.1-0.1,0.1c0,0.1,0,0.1,0,0.2c0,0.1,0,0.1,0.1,0.2c0,0,0.1,0.1,0.2,0.1c0.1,0,0.1,0,0.2,0c0.1,0,0.1-0.1,0.1-0.1
	c0-0.1,0.1-0.1,0.1-0.2c0-0.1,0-0.2-0.1-0.2C150.6,69.4,150.5,69.4,150.4,69.4L150.4,69.4z M150.4,69.9c-0.1,0-0.1,0-0.2-0.1
	c0,0-0.1-0.1-0.1-0.2c0-0.1,0-0.1,0.1-0.2c0,0,0.1-0.1,0.2-0.1c0,0,0.1,0,0.1,0c0,0,0.1,0,0.1,0c0,0,0,0,0,0.1c0,0,0,0.1,0,0.1
	s0,0.1,0,0.1c0,0,0,0.1,0,0.1C150.6,69.9,150.5,69.9,150.4,69.9C150.5,69.9,150.5,69.9,150.4,69.9z M153.8,69.4
	c-0.1,0-0.1,0-0.2,0.1c-0.1,0-0.1,0.1-0.1,0.1c0,0.1,0,0.1,0,0.2c0,0.1,0,0.1,0.1,0.2c0,0,0.1,0.1,0.2,0.1c0.1,0,0.1,0,0.2,0
	c0.1,0,0.1-0.1,0.1-0.1c0-0.1,0.1-0.1,0.1-0.2c0-0.1,0-0.2-0.1-0.2C153.9,69.4,153.8,69.4,153.8,69.4L153.8,69.4z M153.8,69.9
	c-0.1,0-0.1,0-0.2-0.1c0,0-0.1-0.1-0.1-0.2c0-0.1,0-0.1,0.1-0.2c0,0,0.1-0.1,0.2-0.1c0,0,0.1,0,0.1,0c0,0,0.1,0,0.1,0c0,0,0,0,0,0.1
	c0,0,0,0.1,0,0.1s0,0.1,0,0.1c0,0,0,0.1,0,0.1C153.9,69.9,153.9,69.9,153.8,69.9C153.8,69.9,153.8,69.9,153.8,69.9z M157.1,69.4
	c-0.1,0-0.1,0-0.2,0.1c-0.1,0-0.1,0.1-0.1,0.1c0,0.1,0,0.1,0,0.2c0,0.1,0,0.1,0.1,0.2c0,0,0.1,0.1,0.2,0.1c0.1,0,0.1,0,0.2,0
	c0.1,0,0.1-0.1,0.1-0.1c0-0.1,0.1-0.1,0.1-0.2c0-0.1,0-0.2-0.1-0.2C157.2,69.4,157.2,69.4,157.1,69.4L157.1,69.4z M157.1,69.9
	c-0.1,0-0.1,0-0.2-0.1c0,0-0.1-0.1-0.1-0.2c0-0.1,0-0.1,0.1-0.2c0,0,0.1-0.1,0.2-0.1c0,0,0.1,0,0.1,0c0,0,0.1,0,0.1,0c0,0,0,0,0,0.1
	c0,0,0,0.1,0,0.1s0,0.1,0,0.1c0,0,0,0.1,0,0.1C157.2,69.9,157.2,69.9,157.1,69.9C157.1,69.9,157.1,69.9,157.1,69.9z M160.4,69.4
	c-0.1,0-0.1,0-0.2,0.1c-0.1,0-0.1,0.1-0.1,0.1c0,0.1,0,0.1,0,0.2c0,0.1,0,0.1,0.1,0.2c0,0,0.1,0.1,0.2,0.1c0.1,0,0.1,0,0.2,0
	c0.1,0,0.1-0.1,0.1-0.1c0-0.1,0.1-0.1,0.1-0.2c0-0.1,0-0.2-0.1-0.2C160.6,69.4,160.5,69.4,160.4,69.4L160.4,69.4z M160.4,69.9
	C160.4,69.9,160.3,69.9,160.4,69.9c-0.1,0-0.1,0-0.2-0.1c0,0,0,0,0-0.1c0,0,0-0.1,0-0.1s0-0.1,0-0.1c0,0,0-0.1,0-0.1c0,0,0,0,0.1,0
	c0,0,0.1,0,0.1,0c0.1,0,0.1,0,0.2,0.1c0,0,0.1,0.1,0.1,0.2c0,0.1,0,0.1-0.1,0.2C160.5,69.9,160.5,69.9,160.4,69.9z"/>
<path class="st5" d="M152.3,68.5c0-0.7-0.1-3.8-0.1-4.5c0,0,0,0,0,0c-0.1,0.7-0.1,3.7-0.1,4.4c0,1.5,0,3,0.2,4.5c0,0,0,0,0,0
	C152.3,71.5,152.3,70,152.3,68.5z"/>
<path class="st11" d="M169,55.8c-1.2,4.2-6,15.1-8.3,16.3c-1.1,0.6-3.6,0.9-5.9,1l13.4-21C169.3,52,169.7,53.2,169,55.8z"/>
<path class="st6" d="M179.7,78.8c-0.1,0.1-20.8-1.4-21-1.6c-0.2-0.3,6.3-21.4,8-24.5c0.7-1.3,4.1-1.5,5.4-0.3
	c3.3,3.1,5.6,13.2,6.1,16.3C179,73.7,179.9,78.6,179.7,78.8z"/>
<path class="st10" d="M168.7,53c-0.1,0-0.1,0-0.2,0.1c-0.1,0-0.1,0.1-0.1,0.1c0,0.1,0,0.1,0,0.2c0,0.1,0,0.1,0.1,0.2
	c0,0,0.1,0.1,0.2,0.1c0.1,0,0.1,0,0.2,0c0.1,0,0.1-0.1,0.1-0.1c0-0.1,0.1-0.1,0.1-0.2c0-0.1,0-0.2-0.1-0.2
	C168.9,53.1,168.8,53,168.7,53z M168.7,53.6c-0.1,0-0.1,0-0.2-0.1s-0.1-0.1-0.1-0.2c0-0.1,0-0.1,0.1-0.2c0,0,0.1-0.1,0.2-0.1
	s0.1,0,0.2,0.1c0,0,0.1,0.1,0.1,0.2c0,0.1,0,0.1-0.1,0.2C168.8,53.6,168.8,53.6,168.7,53.6z M172,53c-0.1,0-0.1,0-0.2,0.1
	c-0.1,0-0.1,0.1-0.1,0.1c0,0.1,0,0.1,0,0.2c0,0.1,0,0.1,0.1,0.2c0,0,0.1,0.1,0.2,0.1c0.1,0,0.1,0,0.2,0c0.1,0,0.1-0.1,0.1-0.1
	c0-0.1,0.1-0.1,0.1-0.2c0-0.1,0-0.2-0.1-0.2C172.2,53.1,172.1,53,172,53z M172,53.6c-0.1,0-0.1,0-0.2-0.1c0,0-0.1-0.1-0.1-0.2
	c0-0.1,0-0.1,0.1-0.2c0,0,0.1-0.1,0.2-0.1c0.1,0,0.1,0,0.2,0.1c0,0,0.1,0.1,0.1,0.2c0,0.1,0,0.1-0.1,0.2S172.1,53.6,172,53.6z
	 M165.4,57.7c-0.1,0-0.2,0-0.2,0.1c-0.1,0.1-0.1,0.1-0.1,0.2c0,0.1,0,0.1,0.1,0.2c0,0.1,0.1,0.1,0.1,0.1c0.1,0,0.1,0,0.2,0
	c0.1,0,0.1,0,0.2-0.1c0,0,0.1-0.1,0.1-0.2s0-0.1,0-0.2c0-0.1-0.1-0.1-0.1-0.1C165.5,57.7,165.5,57.7,165.4,57.7z M165.4,58.3
	c0,0-0.1,0-0.1,0c0,0-0.1-0.1-0.1-0.1c0,0,0-0.1,0-0.1s0-0.1,0.1-0.1c0,0,0.1-0.1,0.1-0.1c0,0,0.1,0,0.1,0c0,0,0.1,0,0.1,0.1
	c0,0,0,0.1,0,0.1c0,0.1,0,0.1-0.1,0.2C165.5,58.2,165.5,58.3,165.4,58.3z M168.7,57.7c-0.1,0-0.2,0-0.2,0.1s-0.1,0.1-0.1,0.2
	c0,0.1,0,0.2,0.1,0.2s0.1,0.1,0.2,0.1c0.1,0,0.2,0,0.2-0.1s0.1-0.1,0.1-0.2c0-0.1,0-0.2-0.1-0.2S168.8,57.7,168.7,57.7z M168.7,58.3
	c-0.1,0-0.1,0-0.2-0.1c0,0-0.1-0.1-0.1-0.2c0-0.1,0-0.1,0.1-0.2s0.1-0.1,0.2-0.1s0.1,0,0.2,0.1c0,0,0.1,0.1,0.1,0.2
	c0,0.1,0,0.1-0.1,0.2C168.8,58.2,168.8,58.3,168.7,58.3z M172,57.7c-0.1,0-0.2,0-0.2,0.1s-0.1,0.1-0.1,0.2c0,0.1,0,0.2,0.1,0.2
	s0.1,0.1,0.2,0.1c0.1,0,0.2,0,0.2-0.1s0.1-0.1,0.1-0.2c0-0.1,0-0.2-0.1-0.2S172.1,57.7,172,57.7z M172,58.3c-0.1,0-0.1,0-0.2-0.1
	c0,0-0.1-0.1-0.1-0.2c0-0.1,0-0.1,0.1-0.2c0,0,0.1-0.1,0.2-0.1c0.1,0,0.1,0,0.2,0.1s0.1,0.1,0.1,0.2c0,0.1,0,0.1-0.1,0.2
	C172.2,58.2,172.1,58.3,172,58.3z M175.4,58.3L175.4,58.3c-0.1,0-0.2,0-0.2-0.1s-0.1-0.1-0.1-0.2c0,0,0-0.1,0-0.1c0,0,0-0.1,0.1-0.1
	c0,0,0-0.1,0-0.1c0,0-0.1,0.1-0.1,0.1c0,0,0,0.1,0,0.2c0,0.1,0,0.2,0.1,0.2c0.1,0.1,0.1,0.1,0.2,0.1c0,0,0,0,0.1,0
	C175.4,58.3,175.4,58.3,175.4,58.3L175.4,58.3z M167.1,55.4c-0.1,0-0.1,0-0.2,0.1c-0.1,0-0.1,0.1-0.1,0.1c0,0.1,0,0.1,0,0.2
	c0,0.1,0,0.1,0.1,0.2c0,0,0.1,0.1,0.2,0.1c0.1,0,0.1,0,0.2,0c0.1,0,0.1-0.1,0.1-0.1c0-0.1,0.1-0.1,0.1-0.2c0,0,0-0.1,0-0.1
	c0,0,0-0.1-0.1-0.1c0,0-0.1-0.1-0.1-0.1S167.1,55.4,167.1,55.4L167.1,55.4z M167.1,55.9c-0.1,0-0.1,0-0.2-0.1c0,0-0.1-0.1-0.1-0.2
	c0-0.1,0-0.1,0.1-0.2s0.1-0.1,0.2-0.1s0.1,0,0.2,0.1c0,0,0.1,0.1,0.1,0.2c0,0.1,0,0.1-0.1,0.2C167.2,55.9,167.1,55.9,167.1,55.9z
	 M170.4,55.4c-0.1,0-0.1,0-0.2,0.1c-0.1,0-0.1,0.1-0.1,0.1c0,0.1,0,0.1,0,0.2c0,0.1,0,0.1,0.1,0.2c0,0,0.1,0.1,0.2,0.1
	c0.1,0,0.1,0,0.2,0c0.1,0,0.1-0.1,0.1-0.1c0-0.1,0.1-0.1,0.1-0.2c0,0,0-0.1,0-0.1c0,0,0-0.1-0.1-0.1c0,0-0.1-0.1-0.1-0.1
	S170.4,55.4,170.4,55.4L170.4,55.4z M170.4,55.9c-0.1,0-0.1,0-0.2-0.1c0,0-0.1-0.1-0.1-0.2c0-0.1,0-0.1,0.1-0.2c0,0,0.1-0.1,0.2-0.1
	c0.1,0,0.1,0,0.2,0.1s0.1,0.1,0.1,0.2c0,0.1,0,0.1-0.1,0.2C170.5,55.9,170.4,55.9,170.4,55.9z M173.7,55.4c-0.1,0-0.1,0-0.2,0.1
	c-0.1,0-0.1,0.1-0.1,0.1c0,0.1,0,0.1,0,0.2c0,0.1,0,0.1,0.1,0.2c0,0,0.1,0.1,0.2,0.1c0.1,0,0.1,0,0.2,0c0.1,0,0.1-0.1,0.1-0.1
	c0-0.1,0.1-0.1,0.1-0.2c0,0,0-0.1,0-0.1s0-0.1-0.1-0.1c0,0-0.1-0.1-0.1-0.1S173.7,55.4,173.7,55.4L173.7,55.4z M173.7,55.9
	c-0.1,0-0.1,0-0.2-0.1c0,0-0.1-0.1-0.1-0.2c0-0.1,0-0.1,0.1-0.2c0,0,0.1-0.1,0.2-0.1c0.1,0,0.1,0,0.2,0.1c0,0,0.1,0.1,0.1,0.2
	c0,0.1,0,0.1-0.1,0.2C173.8,55.9,173.8,55.9,173.7,55.9z M165.4,62.4c-0.1,0-0.1,0-0.2,0.1c-0.1,0-0.1,0.1-0.1,0.1s0,0.1,0,0.2
	c0,0.1,0,0.1,0.1,0.2c0,0,0.1,0.1,0.2,0.1c0.1,0,0.1,0,0.2,0c0.1,0,0.1-0.1,0.1-0.1c0-0.1,0.1-0.1,0.1-0.2c0-0.1,0-0.2-0.1-0.2
	C165.6,62.4,165.5,62.4,165.4,62.4L165.4,62.4z M165.4,62.9c-0.1,0-0.1,0-0.1-0.1c0,0-0.1-0.1-0.1-0.1c0-0.1,0-0.1,0.1-0.1
	c0,0,0.1-0.1,0.1-0.1c0,0,0.1,0,0.1,0s0.1,0,0.1,0c0,0,0,0,0.1,0.1c0,0,0,0.1,0,0.1c0,0,0,0.1,0,0.1c0,0,0,0.1-0.1,0.1
	C165.5,62.9,165.5,62.9,165.4,62.9C165.4,62.9,165.4,62.9,165.4,62.9z M168.7,62.4c-0.1,0-0.1,0-0.2,0.1c-0.1,0-0.1,0.1-0.1,0.1
	c0,0.1,0,0.1,0,0.2c0,0.1,0,0.1,0.1,0.2c0,0,0.1,0.1,0.2,0.1c0.1,0,0.1,0,0.2,0c0.1,0,0.1-0.1,0.1-0.1c0-0.1,0.1-0.1,0.1-0.2
	c0-0.1,0-0.2-0.1-0.2S168.8,62.4,168.7,62.4z M168.7,62.9C168.7,62.9,168.7,62.9,168.7,62.9c-0.1,0-0.1,0-0.2-0.1c0,0,0,0-0.1-0.1
	c0,0,0-0.1,0-0.1c0,0,0-0.1,0-0.1c0,0,0-0.1,0.1-0.1c0,0,0.1,0,0.1,0s0.1,0,0.1,0c0.1,0,0.1,0,0.1,0.1c0,0,0.1,0.1,0.1,0.1
	c0,0.1,0,0.1-0.1,0.1C168.8,62.9,168.8,62.9,168.7,62.9z M172,62.4c-0.1,0-0.1,0-0.2,0.1c-0.1,0-0.1,0.1-0.1,0.1c0,0.1,0,0.1,0,0.2
	c0,0.1,0,0.1,0.1,0.2c0,0,0.1,0.1,0.2,0.1c0.1,0,0.1,0,0.2,0c0.1,0,0.1-0.1,0.1-0.1c0-0.1,0.1-0.1,0.1-0.2c0-0.1,0-0.2-0.1-0.2
	S172.1,62.4,172,62.4z M172,62.9C172,62.9,172,62.9,172,62.9c-0.1,0-0.1,0-0.2-0.1c0,0,0,0-0.1-0.1c0,0,0-0.1,0-0.1c0,0,0-0.1,0-0.1
	c0,0,0-0.1,0.1-0.1c0,0,0.1,0,0.1,0c0,0,0.1,0,0.1,0c0.1,0,0.1,0,0.1,0.1c0,0,0.1,0.1,0.1,0.1c0,0.1,0,0.1-0.1,0.1
	C172.1,62.9,172.1,62.9,172,62.9z M175.4,62.4c-0.1,0-0.2,0-0.2,0.1s-0.1,0.1-0.1,0.2c0,0.1,0,0.2,0.1,0.2c0.1,0.1,0.1,0.1,0.2,0.1
	s0.2,0,0.2-0.1c0.1-0.1,0.1-0.1,0.1-0.2c0-0.1,0-0.2-0.1-0.2S175.4,62.4,175.4,62.4z M175.4,62.9c-0.1,0-0.1,0-0.1-0.1
	c0,0-0.1-0.1-0.1-0.1c0-0.1,0-0.1,0.1-0.1c0,0,0.1-0.1,0.1-0.1c0,0,0.1,0,0.1,0c0,0,0.1,0,0.1,0c0,0,0,0,0.1,0.1c0,0,0,0.1,0,0.1
	c0,0,0,0.1,0,0.1c0,0,0,0.1-0.1,0.1C175.5,62.9,175.5,62.9,175.4,62.9C175.4,62.9,175.4,62.9,175.4,62.9z M163.9,60.2l0,0.1
	c0,0,0.1,0.1,0.1,0.2c0,0.1,0,0.1-0.1,0.1c0,0-0.1,0.1-0.1,0.1c0,0,0,0.1,0,0.1c0.1,0,0.2,0,0.2-0.1c0.1-0.1,0.1-0.1,0.1-0.2
	c0,0,0-0.1,0-0.1C164,60.2,164,60.2,163.9,60.2L163.9,60.2z M167.1,60.1c-0.1,0-0.2,0-0.2,0.1c-0.1,0.1-0.1,0.1-0.1,0.2
	c0,0.1,0,0.2,0.1,0.2c0.1,0.1,0.1,0.1,0.2,0.1c0.1,0,0.2,0,0.2-0.1c0.1-0.1,0.1-0.1,0.1-0.2c0,0,0-0.1,0-0.1c0,0,0-0.1-0.1-0.1
	c0,0-0.1-0.1-0.1-0.1C167.1,60.1,167.1,60.1,167.1,60.1L167.1,60.1z M167.1,60.6c0,0-0.1,0-0.1,0c0,0-0.1-0.1-0.1-0.1
	c0,0,0-0.1,0-0.1c0,0,0-0.1,0.1-0.1c0,0,0.1-0.1,0.1-0.1c0,0,0.1,0,0.1,0c0,0,0.1,0,0.1,0.1c0,0,0,0.1,0,0.1c0,0.1,0,0.1-0.1,0.1
	C167.2,60.6,167.1,60.6,167.1,60.6L167.1,60.6z M170.4,60.1c-0.1,0-0.2,0-0.2,0.1c-0.1,0.1-0.1,0.1-0.1,0.2c0,0.1,0,0.2,0.1,0.2
	c0.1,0.1,0.1,0.1,0.2,0.1c0.1,0,0.2,0,0.2-0.1c0.1-0.1,0.1-0.1,0.1-0.2c0,0,0-0.1,0-0.1c0,0,0-0.1-0.1-0.1c0,0-0.1-0.1-0.1-0.1
	C170.5,60.1,170.4,60.1,170.4,60.1L170.4,60.1z M170.4,60.6c0,0-0.1,0-0.1,0c0,0-0.1-0.1-0.1-0.1c0,0,0-0.1,0-0.1s0-0.1,0.1-0.1
	c0,0,0.1-0.1,0.1-0.1c0,0,0.1,0,0.1,0c0,0,0.1,0,0.1,0.1c0,0,0,0.1,0,0.1c0,0.1,0,0.1-0.1,0.1C170.5,60.6,170.4,60.6,170.4,60.6
	L170.4,60.6z M173.7,60.1c-0.1,0-0.2,0-0.2,0.1c-0.1,0.1-0.1,0.1-0.1,0.2c0,0.1,0,0.1,0.1,0.2c0,0.1,0.1,0.1,0.1,0.1
	c0.1,0,0.1,0,0.2,0c0.1,0,0.1,0,0.2-0.1c0,0,0.1-0.1,0.1-0.2s0-0.1,0-0.2c0-0.1-0.1-0.1-0.1-0.1C173.8,60.1,173.8,60.1,173.7,60.1z
	 M173.7,60.6c0,0-0.1,0-0.1,0c0,0-0.1-0.1-0.1-0.1s0-0.1,0-0.1s0-0.1,0.1-0.1c0,0,0.1-0.1,0.1-0.1c0,0,0.1,0,0.1,0
	c0,0,0.1,0,0.1,0.1c0,0,0,0.1,0,0.1c0,0.1,0,0.1-0.1,0.1C173.8,60.6,173.8,60.6,173.7,60.6L173.7,60.6z M162.1,67.1
	c-0.1,0-0.1,0-0.2,0.1c-0.1,0-0.1,0.1-0.1,0.1c0,0.1,0,0.1,0,0.2c0,0.1,0,0.1,0.1,0.2c0,0,0.1,0.1,0.2,0.1c0.1,0,0.1,0,0.2,0
	c0.1,0,0.1-0.1,0.1-0.1c0-0.1,0.1-0.1,0.1-0.2c0,0,0-0.1,0-0.1c0,0,0-0.1-0.1-0.1c0,0-0.1-0.1-0.1-0.1
	C162.2,67.1,162.1,67.1,162.1,67.1L162.1,67.1z M162.1,67.6c-0.1,0-0.1,0-0.2-0.1c0,0-0.1-0.1-0.1-0.2c0-0.1,0-0.1,0.1-0.2
	c0,0,0.1-0.1,0.2-0.1c0.1,0,0.1,0,0.2,0.1c0,0,0.1,0.1,0.1,0.2c0,0.1,0,0.1-0.1,0.2C162.2,67.6,162.1,67.6,162.1,67.6z M165.4,67.1
	c-0.1,0-0.1,0-0.2,0.1c-0.1,0-0.1,0.1-0.1,0.1c0,0.1,0,0.1,0,0.2c0,0.1,0,0.1,0.1,0.2c0,0,0.1,0.1,0.2,0.1c0.1,0,0.1,0,0.2,0
	c0.1,0,0.1-0.1,0.1-0.1c0-0.1,0.1-0.1,0.1-0.2c0,0,0-0.1,0-0.1c0,0,0-0.1-0.1-0.1c0,0-0.1-0.1-0.1-0.1
	C165.5,67.1,165.4,67.1,165.4,67.1L165.4,67.1z M165.4,67.6c-0.1,0-0.1,0-0.2-0.1c0,0-0.1-0.1-0.1-0.2c0-0.1,0-0.1,0.1-0.2
	c0,0,0.1-0.1,0.2-0.1c0.1,0,0.1,0,0.2,0.1c0,0,0.1,0.1,0.1,0.2c0,0.1,0,0.1-0.1,0.2C165.5,67.6,165.4,67.6,165.4,67.6z M168.7,67.1
	c-0.1,0-0.1,0-0.2,0.1c-0.1,0-0.1,0.1-0.1,0.1c0,0.1,0,0.1,0,0.2c0,0.1,0,0.1,0.1,0.2c0,0,0.1,0.1,0.2,0.1c0.1,0,0.1,0,0.2,0
	c0.1,0,0.1-0.1,0.1-0.1c0-0.1,0.1-0.1,0.1-0.2c0,0,0-0.1,0-0.1c0,0,0-0.1-0.1-0.1c0,0-0.1-0.1-0.1-0.1
	C168.8,67.1,168.8,67.1,168.7,67.1L168.7,67.1z M168.7,67.6c-0.1,0-0.1,0-0.2-0.1c0,0-0.1-0.1-0.1-0.2c0-0.1,0-0.1,0.1-0.2
	c0,0,0.1-0.1,0.2-0.1c0.1,0,0.1,0,0.2,0.1c0,0,0.1,0.1,0.1,0.2c0,0.1,0,0.1-0.1,0.2C168.8,67.6,168.8,67.6,168.7,67.6z M172,67.1
	c-0.1,0-0.1,0-0.2,0.1c-0.1,0-0.1,0.1-0.1,0.1c0,0.1,0,0.1,0,0.2c0,0.1,0,0.1,0.1,0.2c0,0,0.1,0.1,0.2,0.1c0.1,0,0.1,0,0.2,0
	c0.1,0,0.1-0.1,0.1-0.1c0-0.1,0.1-0.1,0.1-0.2c0,0,0-0.1,0-0.1c0,0,0-0.1-0.1-0.1c0,0-0.1-0.1-0.1-0.1
	C172.1,67.1,172.1,67.1,172,67.1L172,67.1z M172,67.6c-0.1,0-0.1,0-0.2-0.1c0,0-0.1-0.1-0.1-0.2c0-0.1,0-0.1,0.1-0.2
	c0,0,0.1-0.1,0.2-0.1c0.1,0,0.1,0,0.2,0.1c0,0,0.1,0.1,0.1,0.2c0,0.1,0,0.1-0.1,0.2C172.2,67.6,172.1,67.6,172,67.6z M175.4,67.1
	c-0.1,0-0.1,0-0.2,0.1c-0.1,0-0.1,0.1-0.1,0.1c0,0.1,0,0.1,0,0.2c0,0.1,0,0.1,0.1,0.2c0,0,0.1,0.1,0.2,0.1c0.1,0,0.1,0,0.2,0
	c0.1,0,0.1-0.1,0.1-0.1c0-0.1,0.1-0.1,0.1-0.2c0,0,0-0.1,0-0.1c0,0,0-0.1-0.1-0.1c0,0-0.1-0.1-0.1-0.1
	C175.4,67.1,175.4,67.1,175.4,67.1L175.4,67.1z M175.4,67.6c-0.1,0-0.1,0-0.2-0.1c0,0-0.1-0.1-0.1-0.2c0-0.1,0-0.1,0.1-0.2
	c0,0,0.1-0.1,0.2-0.1s0.1,0,0.2,0.1c0,0,0.1,0.1,0.1,0.2c0,0.1,0,0.1-0.1,0.2C175.5,67.6,175.4,67.6,175.4,67.6z M163.7,64.7
	c-0.1,0-0.1,0-0.2,0.1c-0.1,0-0.1,0.1-0.1,0.1c0,0.1,0,0.1,0,0.2c0,0.1,0,0.1,0.1,0.2c0,0,0.1,0.1,0.2,0.1c0.1,0,0.1,0,0.2,0
	c0.1,0,0.1-0.1,0.1-0.1c0-0.1,0.1-0.1,0.1-0.2c0-0.1,0-0.2-0.1-0.2C163.9,64.8,163.8,64.7,163.7,64.7L163.7,64.7z M163.7,65.3
	C163.7,65.3,163.7,65.3,163.7,65.3c-0.1,0-0.1,0-0.2-0.1c0,0,0,0-0.1-0.1c0,0,0-0.1,0-0.1c0,0,0-0.1,0-0.1c0,0,0-0.1,0.1-0.1
	c0,0,0.1,0,0.1,0s0.1,0,0.1,0c0.1,0,0.1,0,0.1,0.1c0,0,0.1,0.1,0.1,0.1c0,0.1,0,0.1-0.1,0.1C163.8,65.2,163.8,65.3,163.7,65.3z
	 M167.1,64.7c-0.1,0-0.2,0-0.2,0.1c-0.1,0.1-0.1,0.1-0.1,0.2c0,0.1,0,0.2,0.1,0.2s0.1,0.1,0.2,0.1c0.1,0,0.2,0,0.2-0.1
	s0.1-0.1,0.1-0.2c0-0.1,0-0.2-0.1-0.2C167.2,64.8,167.1,64.7,167.1,64.7z M167.1,65.3c-0.1,0-0.1,0-0.1-0.1c0,0-0.1-0.1-0.1-0.1
	c0-0.1,0-0.1,0.1-0.1c0,0,0.1-0.1,0.1-0.1c0,0,0.1,0,0.1,0s0.1,0,0.1,0c0,0,0,0,0.1,0.1c0,0,0,0.1,0,0.1c0,0,0,0.1,0,0.1
	c0,0,0,0.1-0.1,0.1C167.2,65.2,167.2,65.3,167.1,65.3C167.1,65.3,167.1,65.3,167.1,65.3z M170.4,64.7c-0.1,0-0.1,0-0.2,0.1
	c-0.1,0-0.1,0.1-0.1,0.1s0,0.1,0,0.2c0,0.1,0,0.1,0.1,0.2c0,0,0.1,0.1,0.2,0.1c0.1,0,0.1,0,0.2,0c0.1,0,0.1-0.1,0.1-0.1
	c0-0.1,0.1-0.1,0.1-0.2c0-0.1,0-0.2-0.1-0.2C170.5,64.8,170.5,64.7,170.4,64.7L170.4,64.7z M170.4,65.3c-0.1,0-0.1,0-0.1-0.1
	c0,0-0.1-0.1-0.1-0.1c0-0.1,0-0.1,0.1-0.1c0,0,0.1-0.1,0.1-0.1c0,0,0.1,0,0.1,0s0.1,0,0.1,0c0,0,0,0,0.1,0.1c0,0,0,0.1,0,0.1
	c0,0,0,0.1,0,0.1c0,0,0,0.1-0.1,0.1C170.5,65.2,170.5,65.3,170.4,65.3C170.4,65.3,170.4,65.3,170.4,65.3z M173.7,64.7
	c-0.1,0-0.1,0-0.2,0.1c-0.1,0-0.1,0.1-0.1,0.1c0,0.1,0,0.1,0,0.2c0,0.1,0,0.1,0.1,0.2c0,0,0.1,0.1,0.2,0.1c0.1,0,0.1,0,0.2,0
	c0.1,0,0.1-0.1,0.1-0.1c0-0.1,0.1-0.1,0.1-0.2c0-0.1,0-0.2-0.1-0.2C173.9,64.8,173.8,64.7,173.7,64.7L173.7,64.7z M173.7,65.3
	c-0.1,0-0.1,0-0.1-0.1c0,0-0.1-0.1-0.1-0.1c0-0.1,0-0.1,0.1-0.1c0,0,0.1-0.1,0.1-0.1c0,0,0.1,0,0.1,0c0,0,0.1,0,0.1,0
	c0,0,0,0,0.1,0.1c0,0,0,0.1,0,0.1c0,0,0,0.1,0,0.1c0,0,0,0.1-0.1,0.1C173.8,65.2,173.8,65.3,173.7,65.3
	C173.8,65.3,173.7,65.3,173.7,65.3z M177,64.7c-0.1,0-0.1,0-0.2,0.1c-0.1,0-0.1,0.1-0.1,0.1c0,0.1,0,0.1,0,0.2c0,0.1,0,0.1,0.1,0.2
	c0,0,0.1,0.1,0.2,0.1c0.1,0,0.1,0,0.2,0c0.1,0,0.1-0.1,0.1-0.1c0-0.1,0.1-0.1,0.1-0.2c0-0.1,0-0.2-0.1-0.2
	C177.2,64.8,177.1,64.7,177,64.7L177,64.7z M177,65.3C177,65.3,177,65.3,177,65.3c-0.1,0-0.2,0-0.2-0.1s0,0-0.1-0.1c0,0,0-0.1,0-0.1
	c0,0,0-0.1,0-0.1c0,0,0-0.1,0.1-0.1s0.1,0,0.1,0c0,0,0.1,0,0.1,0c0.1,0,0.1,0,0.1,0.1c0,0,0.1,0.1,0.1,0.1c0,0.1,0,0.1-0.1,0.1
	C177.1,65.2,177.1,65.3,177,65.3z M162.1,71.7c-0.1,0-0.2,0-0.2,0.1c-0.1,0.1-0.1,0.1-0.1,0.2c0,0.1,0,0.2,0.1,0.2
	c0.1,0.1,0.1,0.1,0.2,0.1c0.1,0,0.2,0,0.2-0.1c0.1-0.1,0.1-0.1,0.1-0.2c0-0.1,0-0.2-0.1-0.2C162.2,71.8,162.2,71.7,162.1,71.7
	L162.1,71.7z M162.1,72.3c0,0-0.1,0-0.1,0c0,0-0.1-0.1-0.1-0.1c0,0,0-0.1,0-0.1c0,0,0-0.1,0.1-0.1c0,0,0.1-0.1,0.1-0.1
	c0,0,0.1,0,0.1,0c0,0,0.1,0,0.1,0.1c0,0,0,0.1,0,0.1c0,0.1,0,0.1-0.1,0.2C162.2,72.3,162.1,72.3,162.1,72.3L162.1,72.3z M165.4,71.7
	c-0.1,0-0.2,0-0.2,0.1c-0.1,0.1-0.1,0.1-0.1,0.2c0,0.1,0,0.1,0.1,0.2c0,0.1,0.1,0.1,0.1,0.1c0.1,0,0.1,0,0.2,0c0.1,0,0.1,0,0.2-0.1
	c0,0,0.1-0.1,0.1-0.2c0-0.1,0-0.1,0-0.2c0-0.1-0.1-0.1-0.1-0.1C165.5,71.7,165.5,71.7,165.4,71.7z M165.4,72.3c0,0-0.1,0-0.1,0
	c0,0-0.1-0.1-0.1-0.1c0,0,0-0.1,0-0.1c0,0,0-0.1,0.1-0.1c0,0,0.1-0.1,0.1-0.1c0,0,0.1,0,0.1,0c0,0,0.1,0,0.1,0.1c0,0,0,0.1,0,0.1
	c0,0.1,0,0.1-0.1,0.2C165.5,72.3,165.5,72.3,165.4,72.3L165.4,72.3z M168.7,71.7c-0.1,0-0.2,0-0.2,0.1c-0.1,0.1-0.1,0.1-0.1,0.2
	c0,0.1,0,0.2,0.1,0.2c0.1,0.1,0.1,0.1,0.2,0.1c0.1,0,0.2,0,0.2-0.1c0.1-0.1,0.1-0.1,0.1-0.2c0-0.1,0-0.2-0.1-0.2
	C168.9,71.8,168.8,71.7,168.7,71.7L168.7,71.7z M168.7,72.3c-0.1,0-0.1,0-0.2-0.1c0,0-0.1-0.1-0.1-0.2c0-0.1,0-0.1,0.1-0.2
	c0,0,0.1-0.1,0.2-0.1c0.1,0,0.1,0,0.2,0.1c0,0,0.1,0.1,0.1,0.2c0,0.1,0,0.1-0.1,0.2C168.8,72.2,168.8,72.3,168.7,72.3z M172,71.7
	c-0.1,0-0.2,0-0.2,0.1c-0.1,0.1-0.1,0.1-0.1,0.2c0,0.1,0,0.2,0.1,0.2c0.1,0.1,0.1,0.1,0.2,0.1c0.1,0,0.2,0,0.2-0.1
	c0.1-0.1,0.1-0.1,0.1-0.2c0-0.1,0-0.2-0.1-0.2C172.2,71.8,172.1,71.7,172,71.7L172,71.7z M172,72.3c-0.1,0-0.1,0-0.2-0.1
	c0,0-0.1-0.1-0.1-0.2c0-0.1,0-0.1,0.1-0.2c0,0,0.1-0.1,0.2-0.1c0.1,0,0.1,0,0.2,0.1c0,0,0.1,0.1,0.1,0.2c0,0.1,0,0.1-0.1,0.2
	C172.2,72.2,172.1,72.3,172,72.3z M175.4,71.7c-0.1,0-0.2,0-0.2,0.1c-0.1,0.1-0.1,0.1-0.1,0.2c0,0.1,0,0.2,0.1,0.2
	c0.1,0.1,0.1,0.1,0.2,0.1s0.2,0,0.2-0.1c0.1-0.1,0.1-0.1,0.1-0.2c0-0.1,0-0.2-0.1-0.2C175.5,71.8,175.4,71.7,175.4,71.7L175.4,71.7z
	 M175.4,72.3c0,0-0.1,0-0.1,0s-0.1-0.1-0.1-0.1c0,0,0-0.1,0-0.1s0-0.1,0.1-0.1c0,0,0.1-0.1,0.1-0.1c0,0,0.1,0,0.1,0
	c0,0,0.1,0,0.1,0.1c0,0,0,0.1,0,0.1c0,0,0,0.1,0,0.1c0,0,0,0.1,0,0.1C175.5,72.2,175.5,72.3,175.4,72.3
	C175.4,72.3,175.4,72.3,175.4,72.3L175.4,72.3z M178.8,72.2c0,0-0.1,0-0.1,0c-0.1,0-0.1,0-0.2-0.1c0,0-0.1-0.1-0.1-0.2
	c0-0.1,0-0.1,0.1-0.2c0,0,0.1-0.1,0.2-0.1h0c0,0,0-0.1,0-0.1h0c-0.1,0-0.2,0-0.2,0.1c-0.1,0.1-0.1,0.1-0.1,0.2c0,0.1,0,0.2,0.1,0.2
	c0.1,0.1,0.1,0.1,0.2,0.1C178.7,72.4,178.8,72.4,178.8,72.2L178.8,72.2z M163.7,69.4c-0.1,0-0.1,0-0.2,0.1c-0.1,0-0.1,0.1-0.1,0.1
	c0,0.1,0,0.1,0,0.2c0,0.1,0,0.1,0.1,0.2c0,0,0.1,0.1,0.2,0.1c0.1,0,0.1,0,0.2,0c0.1,0,0.1-0.1,0.1-0.1c0-0.1,0.1-0.1,0.1-0.2
	c0-0.1,0-0.2-0.1-0.2C163.9,69.4,163.8,69.4,163.7,69.4L163.7,69.4z M163.7,70c-0.1,0-0.1,0-0.2-0.1c0,0-0.1-0.1-0.1-0.2
	c0-0.1,0-0.1,0.1-0.2c0,0,0.1-0.1,0.2-0.1c0.1,0,0.1,0,0.2,0.1c0,0,0.1,0.1,0.1,0.2c0,0.1,0,0.1-0.1,0.2
	C163.8,69.9,163.8,70,163.7,70z M167.1,69.4c-0.1,0-0.1,0-0.2,0.1c-0.1,0-0.1,0.1-0.1,0.1c0,0.1,0,0.1,0,0.2c0,0.1,0,0.1,0.1,0.2
	c0,0,0.1,0.1,0.2,0.1c0.1,0,0.1,0,0.2,0c0.1,0,0.1-0.1,0.1-0.1c0-0.1,0.1-0.1,0.1-0.2c0-0.1,0-0.2-0.1-0.2
	C167.2,69.4,167.1,69.4,167.1,69.4L167.1,69.4z M167.1,70c-0.1,0-0.1,0-0.2-0.1c0,0-0.1-0.1-0.1-0.2c0-0.1,0-0.1,0.1-0.2
	c0,0,0.1-0.1,0.2-0.1c0.1,0,0.1,0,0.2,0.1c0,0,0.1,0.1,0.1,0.2c0,0.1,0,0.1-0.1,0.2C167.2,69.9,167.1,70,167.1,70z M170.4,69.4
	c-0.1,0-0.1,0-0.2,0.1c-0.1,0-0.1,0.1-0.1,0.1c0,0.1,0,0.1,0,0.2c0,0.1,0,0.1,0.1,0.2c0,0,0.1,0.1,0.2,0.1c0.1,0,0.1,0,0.2,0
	c0.1,0,0.1-0.1,0.1-0.1c0-0.1,0.1-0.1,0.1-0.2c0-0.1,0-0.2-0.1-0.2C170.5,69.4,170.5,69.4,170.4,69.4L170.4,69.4z M170.4,70
	c-0.1,0-0.1,0-0.2-0.1c0,0-0.1-0.1-0.1-0.2c0-0.1,0-0.1,0.1-0.2c0,0,0.1-0.1,0.2-0.1c0.1,0,0.1,0,0.2,0.1c0,0,0.1,0.1,0.1,0.2
	c0,0.1,0,0.1-0.1,0.2C170.5,69.9,170.4,70,170.4,70z M173.7,69.4c-0.1,0-0.1,0-0.2,0.1c-0.1,0-0.1,0.1-0.1,0.1c0,0.1,0,0.1,0,0.2
	c0,0.1,0,0.1,0.1,0.2c0,0,0.1,0.1,0.2,0.1c0.1,0,0.1,0,0.2,0c0.1,0,0.1-0.1,0.1-0.1c0-0.1,0.1-0.1,0.1-0.2c0-0.1,0-0.2-0.1-0.2
	C173.9,69.4,173.8,69.4,173.7,69.4L173.7,69.4z M173.7,70c-0.1,0-0.1,0-0.2-0.1c0,0-0.1-0.1-0.1-0.2c0-0.1,0-0.1,0.1-0.2
	c0,0,0.1-0.1,0.2-0.1c0.1,0,0.1,0,0.2,0.1c0,0,0.1,0.1,0.1,0.2c0,0.1,0,0.1-0.1,0.2C173.8,69.9,173.8,70,173.7,70z M177,69.4
	c-0.1,0-0.1,0-0.2,0.1c-0.1,0-0.1,0.1-0.1,0.1c0,0.1,0,0.1,0,0.2c0,0.1,0,0.1,0.1,0.2c0,0,0.1,0.1,0.2,0.1c0.1,0,0.1,0,0.2,0
	c0.1,0,0.1-0.1,0.1-0.1c0-0.1,0.1-0.1,0.1-0.2c0-0.1,0-0.2-0.1-0.2C177.2,69.4,177.1,69.4,177,69.4L177,69.4z M177,70
	c-0.1,0-0.1,0-0.2-0.1c0,0-0.1-0.1-0.1-0.2c0-0.1,0-0.1,0.1-0.2c0,0,0.1-0.1,0.2-0.1c0.1,0,0.1,0,0.2,0.1c0,0,0.1,0.1,0.1,0.2
	c0,0.1,0,0.1-0.1,0.2C177.1,69.9,177.1,70,177,70z M158.9,76.4C158.9,76.5,158.9,76.5,158.9,76.4c0,0.1,0,0.1,0.1,0.2
	c0,0,0,0.1,0,0.1c0,0.1,0,0.1-0.1,0.1c0,0-0.1,0.1-0.1,0.1c0,0,0,0.1,0,0.1c0.1,0,0.2,0,0.2-0.1c0.1-0.1,0.1-0.1,0.1-0.2
	c0-0.1,0-0.1,0-0.2C159,76.5,158.9,76.5,158.9,76.4L158.9,76.4z M162.1,76.4c-0.1,0-0.1,0-0.2,0.1c-0.1,0-0.1,0.1-0.1,0.1
	c0,0.1,0,0.1,0,0.2c0,0.1,0,0.1,0.1,0.2c0,0,0.1,0.1,0.2,0.1c0.1,0,0.1,0,0.2,0c0.1,0,0.1-0.1,0.1-0.1c0-0.1,0.1-0.1,0.1-0.2
	c0,0,0-0.1,0-0.1s0-0.1-0.1-0.1c0,0-0.1-0.1-0.1-0.1C162.2,76.4,162.1,76.4,162.1,76.4L162.1,76.4z M162.1,76.9
	c-0.1,0-0.1,0-0.2-0.1c0,0-0.1-0.1-0.1-0.2c0,0,0-0.1,0-0.1c0,0,0-0.1,0-0.1c0,0,0,0,0.1-0.1c0,0,0.1,0,0.1,0c0,0,0.1,0,0.1,0
	c0,0,0.1,0,0.1,0.1c0,0,0,0.1,0,0.1c0,0,0,0.1,0,0.1c0,0,0,0.1,0,0.1c0,0,0,0.1,0,0.1S162.2,76.9,162.1,76.9
	C162.1,76.9,162.1,77,162.1,76.9L162.1,76.9z M165.4,76.4c-0.1,0-0.1,0-0.2,0.1c-0.1,0-0.1,0.1-0.1,0.1c0,0.1,0,0.1,0,0.2
	c0,0.1,0,0.1,0.1,0.2c0,0,0.1,0.1,0.2,0.1c0.1,0,0.1,0,0.2,0c0.1,0,0.1-0.1,0.1-0.1c0-0.1,0.1-0.1,0.1-0.2c0,0,0-0.1,0-0.1
	c0,0,0-0.1-0.1-0.1c0,0-0.1-0.1-0.1-0.1C165.5,76.4,165.4,76.4,165.4,76.4L165.4,76.4z M165.4,76.9c-0.1,0-0.1,0-0.2-0.1
	c0,0-0.1-0.1-0.1-0.2c0,0,0-0.1,0-0.1c0,0,0-0.1,0-0.1c0,0,0,0,0.1-0.1c0,0,0.1,0,0.1,0s0.1,0,0.1,0c0,0,0.1,0,0.1,0.1
	c0,0,0,0.1,0,0.1s0,0.1,0,0.1c0,0,0,0.1,0,0.1c0,0,0,0.1,0,0.1S165.5,76.9,165.4,76.9C165.5,76.9,165.4,77,165.4,76.9L165.4,76.9z
	 M168.7,76.4c-0.1,0-0.1,0-0.2,0.1c-0.1,0-0.1,0.1-0.1,0.1c0,0.1,0,0.1,0,0.2c0,0.1,0,0.1,0.1,0.2c0,0,0.1,0.1,0.2,0.1
	c0.1,0,0.1,0,0.2,0c0.1,0,0.1-0.1,0.1-0.1c0-0.1,0.1-0.1,0.1-0.2c0,0,0-0.1,0-0.1s0-0.1-0.1-0.1c0,0-0.1-0.1-0.1-0.1
	C168.8,76.4,168.8,76.4,168.7,76.4L168.7,76.4z M168.7,76.9c-0.1,0-0.1,0-0.2-0.1c0,0-0.1-0.1-0.1-0.2c0-0.1,0-0.1,0.1-0.2
	c0,0,0.1-0.1,0.2-0.1c0,0,0.1,0,0.1,0c0,0,0.1,0,0.1,0c0,0,0,0,0,0.1c0,0,0,0.1,0,0.1c0,0,0,0.1,0,0.1c0,0,0,0.1,0,0.1
	C168.9,76.9,168.8,76.9,168.7,76.9C168.8,76.9,168.8,77,168.7,76.9L168.7,76.9z M172.1,76.4c-0.1,0-0.1,0-0.2,0.1
	c-0.1,0-0.1,0.1-0.1,0.1c0,0.1,0,0.1,0,0.2c0,0.1,0,0.1,0.1,0.2c0,0,0.1,0.1,0.2,0.1c0.1,0,0.1,0,0.2,0c0.1,0,0.1-0.1,0.1-0.1
	c0-0.1,0.1-0.1,0.1-0.2c0,0,0-0.1,0-0.1c0,0,0-0.1-0.1-0.1c0,0-0.1-0.1-0.1-0.1C172.1,76.4,172.1,76.4,172.1,76.4L172.1,76.4z
	 M172.1,76.9c-0.1,0-0.1,0-0.2-0.1c0,0-0.1-0.1-0.1-0.2c0-0.1,0-0.1,0.1-0.2c0,0,0.1-0.1,0.2-0.1c0,0,0.1,0,0.1,0c0,0,0.1,0,0.1,0
	c0,0,0,0,0,0.1c0,0,0,0.1,0,0.1c0,0,0,0.1,0,0.1c0,0,0,0.1,0,0.1C172.2,76.9,172.2,76.9,172.1,76.9C172.1,76.9,172.1,77,172.1,76.9
	L172.1,76.9z M175.4,76.4c-0.1,0-0.2,0-0.2,0.1s-0.1,0.1-0.1,0.2c0,0.1,0,0.2,0.1,0.2s0.1,0.1,0.2,0.1c0.1,0,0.2,0,0.2-0.1
	s0.1-0.1,0.1-0.2c0-0.1,0-0.2-0.1-0.2S175.5,76.4,175.4,76.4z M175.4,76.9c-0.1,0-0.1,0-0.2-0.1c0,0-0.1-0.1-0.1-0.2
	c0,0,0-0.1,0-0.1c0,0,0-0.1,0-0.1c0,0,0,0,0.1-0.1c0,0,0.1,0,0.1,0c0,0,0.1,0,0.1,0c0,0,0.1,0,0.1,0.1c0,0,0,0.1,0,0.1
	c0,0,0,0.1,0,0.1c0,0,0,0.1,0,0.1c0,0,0,0.1-0.1,0.1C175.5,76.9,175.5,76.9,175.4,76.9C175.4,77,175.4,77,175.4,76.9L175.4,76.9z
	 M178.7,76.4c-0.1,0-0.1,0-0.2,0.1c-0.1,0-0.1,0.1-0.1,0.1c0,0.1,0,0.1,0,0.2c0,0.1,0,0.1,0.1,0.2c0,0,0.1,0.1,0.2,0.1
	c0.1,0,0.1,0,0.2,0c0.1,0,0.1-0.1,0.1-0.1c0-0.1,0.1-0.1,0.1-0.2c0,0,0-0.1,0-0.1s0-0.1-0.1-0.1c0,0-0.1-0.1-0.1-0.1
	C178.8,76.4,178.7,76.4,178.7,76.4L178.7,76.4z M178.7,76.9c-0.1,0-0.1,0-0.2-0.1c0,0-0.1-0.1-0.1-0.2c0,0,0-0.1,0-0.1
	c0,0,0-0.1,0-0.1c0,0,0,0,0.1-0.1c0,0,0.1,0,0.1,0c0,0,0.1,0,0.1,0c0,0,0.1,0,0.1,0.1c0,0,0,0.1,0,0.1s0,0.1,0,0.1c0,0,0,0.1,0,0.1
	c0,0,0,0.1,0,0.1C178.8,76.9,178.8,76.9,178.7,76.9C178.8,76.9,178.7,77,178.7,76.9L178.7,76.9z M160.4,74.1c-0.1,0-0.2,0-0.2,0.1
	c-0.1,0.1-0.1,0.1-0.1,0.2c0,0.1,0,0.2,0.1,0.2s0.1,0.1,0.2,0.1s0.2,0,0.2-0.1s0.1-0.1,0.1-0.2c0-0.1,0-0.2-0.1-0.2
	C160.6,74.1,160.5,74.1,160.4,74.1L160.4,74.1z M160.4,74.6c-0.1,0-0.1,0-0.2-0.1c0,0-0.1-0.1-0.1-0.2c0-0.1,0-0.1,0.1-0.2
	c0,0,0.1-0.1,0.2-0.1s0.1,0,0.2,0.1c0,0,0.1,0.1,0.1,0.2c0,0.1,0,0.1-0.1,0.2C160.5,74.6,160.5,74.6,160.4,74.6z M163.7,74.1
	c-0.1,0-0.2,0-0.2,0.1c-0.1,0.1-0.1,0.1-0.1,0.2c0,0.1,0,0.2,0.1,0.2s0.1,0.1,0.2,0.1c0.1,0,0.2,0,0.2-0.1s0.1-0.1,0.1-0.2
	c0-0.1,0-0.2-0.1-0.2C163.9,74.1,163.8,74.1,163.7,74.1L163.7,74.1z M163.7,74.6c-0.1,0-0.1,0-0.2-0.1c0,0-0.1-0.1-0.1-0.2
	c0-0.1,0-0.1,0.1-0.2c0,0,0.1-0.1,0.2-0.1c0.1,0,0.1,0,0.2,0.1c0,0,0.1,0.1,0.1,0.2c0,0.1,0,0.1-0.1,0.2
	C163.9,74.6,163.8,74.6,163.7,74.6z M167.1,74.1c-0.1,0-0.2,0-0.2,0.1c-0.1,0.1-0.1,0.1-0.1,0.2c0,0.1,0,0.2,0.1,0.2
	s0.1,0.1,0.2,0.1c0.1,0,0.2,0,0.2-0.1s0.1-0.1,0.1-0.2c0-0.1,0-0.2-0.1-0.2C167.2,74.1,167.1,74.1,167.1,74.1L167.1,74.1z
	 M167.1,74.6c0,0-0.1,0-0.1,0c0,0-0.1-0.1-0.1-0.1c0,0,0-0.1,0-0.1c0,0,0-0.1,0.1-0.1c0,0,0.1-0.1,0.1-0.1c0,0,0.1,0,0.1,0
	c0,0,0.1,0,0.1,0.1c0,0,0,0.1,0,0.1c0,0,0,0.1,0,0.1c0,0,0,0.1,0,0.1C167.2,74.6,167.2,74.6,167.1,74.6
	C167.1,74.6,167.1,74.6,167.1,74.6L167.1,74.6z M170.4,74.1c-0.1,0-0.2,0-0.2,0.1c-0.1,0.1-0.1,0.1-0.1,0.2c0,0.1,0,0.2,0.1,0.2
	s0.1,0.1,0.2,0.1c0.1,0,0.2,0,0.2-0.1s0.1-0.1,0.1-0.2c0-0.1,0-0.2-0.1-0.2C170.5,74.1,170.5,74.1,170.4,74.1L170.4,74.1z
	 M170.4,74.6c0,0-0.1,0-0.1,0c0,0-0.1-0.1-0.1-0.1c0,0,0-0.1,0-0.1c0,0,0-0.1,0.1-0.1c0,0,0.1-0.1,0.1-0.1c0,0,0.1,0,0.1,0
	c0,0,0.1,0,0.1,0.1c0,0,0,0.1,0,0.1c0,0,0,0.1,0,0.1c0,0,0,0.1,0,0.1C170.5,74.6,170.5,74.6,170.4,74.6
	C170.4,74.6,170.4,74.6,170.4,74.6L170.4,74.6z M173.7,74.1c-0.1,0-0.2,0-0.2,0.1c-0.1,0.1-0.1,0.1-0.1,0.2c0,0.1,0,0.1,0.1,0.2
	c0,0.1,0.1,0.1,0.1,0.1c0.1,0,0.1,0,0.2,0c0.1,0,0.1,0,0.2-0.1c0,0,0.1-0.1,0.1-0.2c0-0.1,0-0.1,0-0.2c0-0.1-0.1-0.1-0.1-0.1
	C173.8,74.1,173.8,74.1,173.7,74.1z M173.7,74.6c0,0-0.1,0-0.1,0c0,0-0.1-0.1-0.1-0.1c0,0,0-0.1,0-0.1s0-0.1,0.1-0.1
	c0,0,0.1-0.1,0.1-0.1c0,0,0.1,0,0.1,0c0,0,0.1,0,0.1,0.1c0,0,0,0.1,0,0.1c0,0,0,0.1,0,0.1c0,0,0,0.1,0,0.1
	C173.9,74.6,173.8,74.6,173.7,74.6C173.8,74.6,173.7,74.6,173.7,74.6L173.7,74.6z M177,74.1c-0.1,0-0.2,0-0.2,0.1
	c-0.1,0.1-0.1,0.1-0.1,0.2c0,0.1,0,0.2,0.1,0.2s0.1,0.1,0.2,0.1c0.1,0,0.2,0,0.2-0.1s0.1-0.1,0.1-0.2c0-0.1,0-0.2-0.1-0.2
	C177.2,74.1,177.1,74.1,177,74.1L177,74.1z M177,74.6c-0.1,0-0.1,0-0.2-0.1c0,0-0.1-0.1-0.1-0.2c0-0.1,0-0.1,0.1-0.2
	c0,0,0.1-0.1,0.2-0.1c0.1,0,0.1,0,0.2,0.1c0,0,0.1,0.1,0.1,0.2c0,0.1,0,0.1-0.1,0.2C177.2,74.6,177.1,74.6,177,74.6z"/>
<path class="st9" d="M174.9,54.8c5.5,6.1,11.7,16.4,9.1,18.6c-2.4,2-11.3,0.1-16.9-2.1c-1.1-0.4,3.2-9.8,4.3-9.2
	c1.1,0.6,2.3,1.1,3.5,1.6c0.3,0.1-1.4-2-3.2-6.9C169.8,51.8,171.7,51.4,174.9,54.8z"/>
<path class="st9" d="M157.9,61.4c0,1.1,2.7,0.9,2.7,0.9c-0.4,0.3-0.7,0.6-0.8,1.1c-0.2,0.8,1,1.5,1,1.5c-0.3,0.3-0.6,0.8-0.7,1.3
	c-0.1,0.8,1,1.6,1,1.6c-0.1,0.5-0.1,1,0.1,1.5c0.6,1.2,2.8,1.3,4.1,1.5c1.5,0.3,2.9,0.8,4.4,1.4l2.5-9.8c0,0-5.8-3.4-7.4-3.3
	C163.3,59.1,157.9,59.7,157.9,61.4z"/>
<path class="st5" d="M160.6,62.2c1.4-0.4,2.9-0.5,4.4-0.5c0,0,0,0,0,0c0,0,0,0,0,0c0,0,0,0,0,0s0,0,0,0
	C163.5,61.8,162,62.2,160.6,62.2C160.5,62.3,160.5,62.2,160.6,62.2z"/>
<path class="st5" d="M160.7,64.7c0.3-0.1,0.7-0.1,1-0.1c0.4,0,0.7,0,1.1,0c0.7,0,1.4,0.1,2.1,0.2c0,0,0,0.1,0,0.1
	c-0.7,0-1.4-0.1-2.1-0.1c-0.4,0-0.7,0-1.1,0C161.4,64.8,161.1,64.8,160.7,64.7C160.7,64.8,160.7,64.8,160.7,64.7
	C160.7,64.8,160.7,64.8,160.7,64.7C160.7,64.7,160.7,64.7,160.7,64.7C160.7,64.7,160.7,64.7,160.7,64.7z"/>
<path class="st5" d="M161,67.7c0.3-0.1,0.6-0.1,0.9,0c0.3,0,0.6,0,1,0.1c0.6,0,1.3,0.1,2,0.1c0,0,0,0,0,0c0,0,0,0,0,0s0,0,0,0
	c0,0,0,0,0,0c-0.7,0-1.3,0-2,0c-0.3,0-0.7,0-1,0C161.6,67.9,161.3,67.9,161,67.7C161,67.8,161,67.8,161,67.7
	C161,67.8,161,67.8,161,67.7C161,67.8,161,67.7,161,67.7C161,67.7,161,67.7,161,67.7z"/>
<path class="st6" d="M172.3,62.3l-2.1,10.6c0,0,13.2,3.4,14.6,0.1c1.4-3.3-6.4-15.7-10.9-19.3c-4.5-3.5-2.8,2-2.7,2.5
	c0.6,2,3.4,7.1,3.4,7.1L172.3,62.3z"/>
<path class="st10" d="M172,53c-0.1,0-0.1,0-0.2,0.1c-0.1,0-0.1,0.1-0.1,0.1c0,0.1,0,0.1,0,0.2c0,0.1,0,0.1,0.1,0.2
	c0,0,0.1,0.1,0.2,0.1c0.1,0,0.1,0,0.2,0c0.1,0,0.1-0.1,0.1-0.1c0-0.1,0.1-0.1,0.1-0.2c0-0.1,0-0.2-0.1-0.2
	C172.2,53.1,172.1,53,172,53z M172,53.6c-0.1,0-0.1,0-0.2-0.1c0,0-0.1-0.1-0.1-0.2c0-0.1,0-0.1,0.1-0.2c0,0,0.1-0.1,0.2-0.1
	c0.1,0,0.1,0,0.2,0.1c0,0,0.1,0.1,0.1,0.2c0,0.1,0,0.1-0.1,0.2C172.2,53.6,172.1,53.6,172,53.6z M172,57.7c-0.1,0-0.1,0-0.2,0.1
	c0,0,0,0.1,0,0.1c0,0,0.1,0,0.1,0c0,0,0.1,0,0.1,0c0,0,0.1,0,0.1,0c0,0,0,0,0,0.1c0,0,0,0.1,0,0.1c0,0,0,0.1,0,0.1s-0.1,0.1-0.1,0.1
	c0,0,0,0.1,0,0.1c0.1,0,0.1-0.1,0.2-0.1c0-0.1,0.1-0.1,0.1-0.2c0,0,0-0.1,0-0.1c0,0,0-0.1-0.1-0.1c0,0-0.1-0.1-0.1-0.1
	C172.1,57.7,172.1,57.7,172,57.7z M175.4,57.7c-0.1,0-0.2,0-0.2,0.1S175,58,175,58c0,0.1,0,0.2,0.1,0.2s0.1,0.1,0.2,0.1
	c0.1,0,0.2,0,0.2-0.1s0.1-0.1,0.1-0.2c0,0,0-0.1,0-0.1c0,0,0-0.1-0.1-0.1s-0.1-0.1-0.1-0.1C175.4,57.7,175.4,57.7,175.4,57.7
	L175.4,57.7z M175.4,58.3c0,0-0.1,0-0.1,0c0,0-0.1-0.1-0.1-0.1c0,0,0-0.1,0-0.1c0,0,0-0.1,0.1-0.1c0,0,0.1-0.1,0.1-0.1
	c0,0,0.1,0,0.1,0c0,0,0.1,0,0.1,0.1c0,0,0,0.1,0,0.1c0,0,0,0.1,0,0.1c0,0,0,0.1,0,0.1C175.5,58.2,175.5,58.2,175.4,58.3
	C175.4,58.3,175.4,58.3,175.4,58.3L175.4,58.3z M173.7,55.4c-0.1,0-0.1,0-0.2,0.1c-0.1,0-0.1,0.1-0.1,0.1c0,0.1,0,0.1,0,0.2
	c0,0.1,0,0.1,0.1,0.2c0,0,0.1,0.1,0.2,0.1c0.1,0,0.1,0,0.2,0c0.1,0,0.1-0.1,0.1-0.1c0-0.1,0.1-0.1,0.1-0.2c0-0.1,0-0.2-0.1-0.2
	C173.9,55.4,173.8,55.4,173.7,55.4z M173.7,55.9c-0.1,0-0.1,0-0.2-0.1c0,0-0.1-0.1-0.1-0.2c0-0.1,0-0.1,0.1-0.2s0.1-0.1,0.2-0.1
	c0.1,0,0.1,0,0.2,0.1c0,0,0.1,0.1,0.1,0.2c0,0.1,0,0.1-0.1,0.2C173.8,55.9,173.8,55.9,173.7,55.9z M172.3,62.5l0,0.1
	c0,0,0,0.1,0,0.1c0,0,0,0.1,0,0.1c0,0,0,0.1-0.1,0.1l0,0.1c0.1,0,0.1-0.1,0.1-0.1c0,0,0.1-0.1,0.1-0.1s0-0.1,0-0.2
	C172.3,62.6,172.3,62.5,172.3,62.5z M175.4,62.4c-0.1,0-0.2,0-0.2,0.1s-0.1,0.1-0.1,0.2c0,0.1,0,0.2,0.1,0.2
	c0.1,0.1,0.1,0.1,0.2,0.1c0.1,0,0.2,0,0.2-0.1c0.1-0.1,0.1-0.1,0.1-0.2c0-0.1,0-0.2-0.1-0.2S175.4,62.4,175.4,62.4z M175.4,62.9
	c-0.1,0-0.1,0-0.1-0.1c0,0-0.1-0.1-0.1-0.1c0-0.1,0-0.1,0.1-0.1c0,0,0.1-0.1,0.1-0.1c0,0,0.1,0,0.1,0s0.1,0,0.1,0c0,0,0,0,0.1,0.1
	c0,0,0,0.1,0,0.1c0,0,0,0.1,0,0.1c0,0,0,0.1-0.1,0.1C175.5,62.9,175.5,62.9,175.4,62.9C175.4,62.9,175.4,62.9,175.4,62.9z
	 M178.7,62.4c-0.1,0-0.1,0-0.2,0.1c-0.1,0-0.1,0.1-0.1,0.1c0,0.1,0,0.1,0,0.2c0,0.1,0,0.1,0.1,0.2c0,0,0.1,0.1,0.2,0.1
	c0.1,0,0.1,0,0.2,0c0.1,0,0.1-0.1,0.1-0.1c0-0.1,0.1-0.1,0.1-0.2c0-0.1,0-0.2-0.1-0.2C178.9,62.4,178.8,62.4,178.7,62.4z
	 M178.7,62.9c-0.1,0-0.1,0-0.1-0.1c0,0-0.1-0.1-0.1-0.1c0-0.1,0-0.1,0.1-0.1c0,0,0.1-0.1,0.1-0.1c0,0,0.1,0,0.1,0s0.1,0,0.1,0
	c0,0,0,0,0.1,0.1c0,0,0,0.1,0,0.1c0,0,0,0.1,0,0.1c0,0,0,0.1-0.1,0.1C178.8,62.9,178.8,62.9,178.7,62.9
	C178.8,62.9,178.7,62.9,178.7,62.9z M173.7,60.1c-0.1,0-0.2,0-0.2,0.1c-0.1,0.1-0.1,0.1-0.1,0.2c0,0.1,0,0.1,0.1,0.2
	c0,0.1,0.1,0.1,0.1,0.1c0.1,0,0.1,0,0.2,0c0.1,0,0.1,0,0.2-0.1c0,0,0.1-0.1,0.1-0.2c0-0.1,0-0.1,0-0.2c0-0.1-0.1-0.1-0.1-0.1
	C173.8,60.1,173.8,60.1,173.7,60.1z M173.7,60.6c0,0-0.1,0-0.1,0c0,0-0.1-0.1-0.1-0.1c0,0,0-0.1,0-0.1s0-0.1,0.1-0.1
	c0,0,0.1-0.1,0.1-0.1c0,0,0.1,0,0.1,0c0,0,0.1,0,0.1,0.1c0,0,0,0.1,0,0.1c0,0.1,0,0.1-0.1,0.1S173.8,60.6,173.7,60.6L173.7,60.6z
	 M177,60.1c-0.1,0-0.2,0-0.2,0.1c-0.1,0.1-0.1,0.1-0.1,0.2c0,0.1,0,0.2,0.1,0.2c0.1,0.1,0.1,0.1,0.2,0.1c0.1,0,0.2,0,0.2-0.1
	c0.1-0.1,0.1-0.1,0.1-0.2c0,0,0-0.1,0-0.1c0,0,0-0.1-0.1-0.1c0,0-0.1-0.1-0.1-0.1C177.1,60.1,177.1,60.1,177,60.1L177,60.1z
	 M177,60.6c-0.1,0-0.1,0-0.2-0.1c0,0-0.1-0.1-0.1-0.2c0-0.1,0-0.1,0.1-0.2c0,0,0.1-0.1,0.2-0.1c0.1,0,0.1,0,0.2,0.1
	c0,0,0.1,0.1,0.1,0.2c0,0.1,0,0.1-0.1,0.2S177.1,60.6,177,60.6z M172,67.1c-0.1,0-0.1,0-0.2,0.1c-0.1,0-0.1,0.1-0.1,0.1
	c0,0.1,0,0.1,0,0.2c0,0.1,0,0.1,0.1,0.2c0,0,0.1,0.1,0.2,0.1c0.1,0,0.1,0,0.2,0c0.1,0,0.1-0.1,0.1-0.1c0-0.1,0.1-0.1,0.1-0.2
	c0,0,0-0.1,0-0.1c0,0,0-0.1-0.1-0.1c0,0-0.1-0.1-0.1-0.1C172.1,67.1,172.1,67.1,172,67.1L172,67.1z M172,67.6c-0.1,0-0.1,0-0.2-0.1
	c0,0-0.1-0.1-0.1-0.2c0-0.1,0-0.1,0.1-0.2c0,0,0.1-0.1,0.2-0.1c0.1,0,0.1,0,0.2,0.1c0,0,0.1,0.1,0.1,0.2c0,0.1,0,0.1-0.1,0.2
	C172.2,67.6,172.1,67.6,172,67.6z M175.4,67.1c-0.1,0-0.1,0-0.2,0.1c-0.1,0-0.1,0.1-0.1,0.1c0,0.1,0,0.1,0,0.2c0,0.1,0,0.1,0.1,0.2
	c0,0,0.1,0.1,0.2,0.1c0.1,0,0.1,0,0.2,0c0.1,0,0.1-0.1,0.1-0.1c0-0.1,0.1-0.1,0.1-0.2c0,0,0-0.1,0-0.1c0,0,0-0.1-0.1-0.1
	c0,0-0.1-0.1-0.1-0.1C175.4,67.1,175.4,67.1,175.4,67.1L175.4,67.1z M175.4,67.6c-0.1,0-0.1,0-0.2-0.1c0,0-0.1-0.1-0.1-0.2
	c0-0.1,0-0.1,0.1-0.2c0,0,0.1-0.1,0.2-0.1c0.1,0,0.1,0,0.2,0.1c0,0,0.1,0.1,0.1,0.2c0,0.1,0,0.1-0.1,0.2
	C175.5,67.6,175.4,67.6,175.4,67.6z M178.7,67.1c-0.1,0-0.1,0-0.2,0.1c-0.1,0-0.1,0.1-0.1,0.1c0,0.1,0,0.1,0,0.2
	c0,0.1,0,0.1,0.1,0.2c0,0,0.1,0.1,0.2,0.1c0.1,0,0.1,0,0.2,0c0.1,0,0.1-0.1,0.1-0.1c0-0.1,0.1-0.1,0.1-0.2c0,0,0-0.1,0-0.1
	c0,0,0-0.1-0.1-0.1c0,0-0.1-0.1-0.1-0.1C178.8,67.1,178.7,67.1,178.7,67.1L178.7,67.1z M178.7,67.6c-0.1,0-0.1,0-0.2-0.1
	c0,0-0.1-0.1-0.1-0.2c0-0.1,0-0.1,0.1-0.2c0,0,0.1-0.1,0.2-0.1c0.1,0,0.1,0,0.2,0.1c0,0,0.1,0.1,0.1,0.2c0,0.1,0,0.1-0.1,0.2
	C178.8,67.6,178.7,67.6,178.7,67.6z M182,67.1c-0.1,0-0.1,0-0.2,0.1c-0.1,0-0.1,0.1-0.1,0.1c0,0.1,0,0.1,0,0.2c0,0.1,0,0.1,0.1,0.2
	c0,0,0.1,0.1,0.2,0.1c0.1,0,0.1,0,0.2,0c0.1,0,0.1-0.1,0.1-0.1c0-0.1,0.1-0.1,0.1-0.2c0,0,0-0.1,0-0.1c0,0,0-0.1-0.1-0.1
	c0,0-0.1-0.1-0.1-0.1C182.1,67.1,182.1,67.1,182,67.1L182,67.1z M182,67.6c-0.1,0-0.1,0-0.2-0.1c0,0-0.1-0.1-0.1-0.2
	c0-0.1,0-0.1,0.1-0.2c0,0,0.1-0.1,0.2-0.1c0.1,0,0.1,0,0.2,0.1c0,0,0.1,0.1,0.1,0.2c0,0.1,0,0.1-0.1,0.2
	C182.1,67.6,182.1,67.6,182,67.6z M173.7,64.7c-0.1,0-0.1,0-0.2,0.1c-0.1,0-0.1,0.1-0.1,0.1c0,0.1,0,0.1,0,0.2c0,0.1,0,0.1,0.1,0.2
	c0,0,0.1,0.1,0.2,0.1c0.1,0,0.1,0,0.2,0c0.1,0,0.1-0.1,0.1-0.1c0-0.1,0.1-0.1,0.1-0.2c0-0.1,0-0.2-0.1-0.2
	C173.9,64.8,173.8,64.7,173.7,64.7L173.7,64.7z M173.7,65.3c-0.1,0-0.1,0-0.1-0.1c0,0-0.1-0.1-0.1-0.1c0-0.1,0-0.1,0.1-0.1
	c0,0,0.1-0.1,0.1-0.1c0,0,0.1,0,0.1,0s0.1,0,0.1,0c0,0,0,0,0.1,0.1c0,0,0,0.1,0,0.1c0,0,0,0.1,0,0.1c0,0,0,0.1-0.1,0.1
	C173.8,65.2,173.8,65.3,173.7,65.3C173.8,65.3,173.7,65.3,173.7,65.3z M177,64.7c-0.1,0-0.1,0-0.2,0.1c-0.1,0-0.1,0.1-0.1,0.1
	c0,0.1,0,0.1,0,0.2c0,0.1,0,0.1,0.1,0.2c0,0,0.1,0.1,0.2,0.1c0.1,0,0.1,0,0.2,0c0.1,0,0.1-0.1,0.1-0.1c0-0.1,0.1-0.1,0.1-0.2
	c0-0.1,0-0.2-0.1-0.2C177.2,64.8,177.1,64.7,177,64.7L177,64.7z M177,65.3C177,65.3,177,65.3,177,65.3c-0.1,0-0.1,0-0.2-0.1
	c0,0,0,0-0.1-0.1c0,0,0-0.1,0-0.1c0,0,0-0.1,0-0.1c0,0,0-0.1,0.1-0.1c0,0,0.1,0,0.1,0s0.1,0,0.1,0c0.1,0,0.1,0,0.1,0.1
	c0,0,0.1,0.1,0.1,0.1c0,0.1,0,0.1-0.1,0.1C177.1,65.2,177.1,65.3,177,65.3z M180.3,64.7c-0.1,0-0.1,0-0.2,0.1
	c-0.1,0-0.1,0.1-0.1,0.1c0,0.1,0,0.1,0,0.2c0,0.1,0,0.1,0.1,0.2c0,0,0.1,0.1,0.2,0.1c0.1,0,0.1,0,0.2,0c0.1,0,0.1-0.1,0.1-0.1
	c0-0.1,0.1-0.1,0.1-0.2c0-0.1,0-0.2-0.1-0.2C180.5,64.8,180.4,64.7,180.3,64.7L180.3,64.7z M180.3,65.3
	C180.3,65.3,180.3,65.3,180.3,65.3c-0.1,0-0.1,0-0.2-0.1c0,0,0,0-0.1-0.1c0,0,0-0.1,0-0.1c0,0,0-0.1,0-0.1c0,0,0-0.1,0.1-0.1
	c0,0,0.1,0,0.1,0s0.1,0,0.1,0c0.1,0,0.1,0,0.1,0.1c0,0,0.1,0.1,0.1,0.1c0,0.1,0,0.1-0.1,0.1C180.4,65.2,180.4,65.3,180.3,65.3z
	 M172,71.7c-0.1,0-0.2,0-0.2,0.1c-0.1,0.1-0.1,0.1-0.1,0.2c0,0.1,0,0.2,0.1,0.2c0.1,0.1,0.1,0.1,0.2,0.1c0.1,0,0.2,0,0.2-0.1
	c0.1-0.1,0.1-0.1,0.1-0.2c0-0.1,0-0.2-0.1-0.2C172.2,71.8,172.1,71.7,172,71.7L172,71.7z M172,72.3c-0.1,0-0.1,0-0.2-0.1
	c0,0-0.1-0.1-0.1-0.2c0-0.1,0-0.1,0.1-0.2c0,0,0.1-0.1,0.2-0.1c0.1,0,0.1,0,0.2,0.1c0,0,0.1,0.1,0.1,0.2c0,0.1,0,0.1-0.1,0.2
	C172.1,72.2,172.1,72.3,172,72.3z M175.3,71.7c-0.1,0-0.2,0-0.2,0.1c-0.1,0.1-0.1,0.1-0.1,0.2c0,0.1,0,0.2,0.1,0.2
	c0.1,0.1,0.1,0.1,0.2,0.1s0.2,0,0.2-0.1c0.1-0.1,0.1-0.1,0.1-0.2c0-0.1,0-0.2-0.1-0.2C175.5,71.8,175.4,71.7,175.3,71.7L175.3,71.7z
	 M175.3,72.3c0,0-0.1,0-0.1,0c0,0-0.1-0.1-0.1-0.1c0,0,0-0.1,0-0.1c0,0,0-0.1,0.1-0.1c0,0,0.1-0.1,0.1-0.1c0,0,0.1,0,0.1,0
	c0,0,0.1,0,0.1,0.1c0,0,0,0.1,0,0.1c0,0.1,0,0.1-0.1,0.2C175.5,72.3,175.4,72.3,175.3,72.3L175.3,72.3z M178.7,71.7
	c-0.1,0-0.2,0-0.2,0.1c-0.1,0.1-0.1,0.1-0.1,0.2c0,0.1,0,0.2,0.1,0.2c0.1,0.1,0.1,0.1,0.2,0.1c0.1,0,0.2,0,0.2-0.1
	c0.1-0.1,0.1-0.1,0.1-0.2c0-0.1,0-0.2-0.1-0.2C178.8,71.8,178.8,71.7,178.7,71.7L178.7,71.7z M178.7,72.3c0,0-0.1,0-0.1,0
	c0,0-0.1-0.1-0.1-0.1c0,0,0-0.1,0-0.1s0-0.1,0.1-0.1c0,0,0.1-0.1,0.1-0.1c0,0,0.1,0,0.1,0c0,0,0.1,0,0.1,0.1c0,0,0,0.1,0,0.1
	c0,0.1,0,0.1-0.1,0.2C178.8,72.2,178.7,72.3,178.7,72.3L178.7,72.3z M182,71.7c-0.1,0-0.2,0-0.2,0.1c-0.1,0.1-0.1,0.1-0.1,0.2
	c0,0.1,0,0.1,0.1,0.2c0,0.1,0.1,0.1,0.1,0.1c0.1,0,0.1,0,0.2,0c0.1,0,0.1,0,0.2-0.1c0,0,0.1-0.1,0.1-0.2c0-0.1,0-0.1,0-0.2
	c0-0.1-0.1-0.1-0.1-0.1C182.1,71.7,182.1,71.7,182,71.7z M182,72.3c0,0-0.1,0-0.1,0c0,0-0.1-0.1-0.1-0.1c0,0,0-0.1,0-0.1
	s0-0.1,0.1-0.1c0,0,0.1-0.1,0.1-0.1c0,0,0.1,0,0.1,0c0,0,0.1,0,0.1,0.1c0,0,0,0.1,0,0.1c0,0.1,0,0.1-0.1,0.2
	C182.1,72.2,182.1,72.3,182,72.3L182,72.3z M173.7,69.4c-0.1,0-0.1,0-0.2,0.1c-0.1,0-0.1,0.1-0.1,0.1c0,0.1,0,0.1,0,0.2
	c0,0.1,0,0.1,0.1,0.2c0,0,0.1,0.1,0.2,0.1c0.1,0,0.1,0,0.2,0c0.1,0,0.1-0.1,0.1-0.1c0-0.1,0.1-0.1,0.1-0.2c0-0.1,0-0.1-0.1-0.2
	C173.9,69.5,173.8,69.4,173.7,69.4L173.7,69.4z M173.7,69.9c-0.1,0-0.1,0-0.2-0.1c0,0-0.1-0.1-0.1-0.2c0-0.1,0-0.1,0.1-0.2
	c0,0,0.1-0.1,0.2-0.1c0.1,0,0.1,0,0.2,0.1c0,0,0.1,0.1,0.1,0.2c0,0.1,0,0.1-0.1,0.2C173.8,69.9,173.7,69.9,173.7,69.9z M177,69.4
	c-0.1,0-0.1,0-0.2,0.1c-0.1,0-0.1,0.1-0.1,0.1c0,0.1,0,0.1,0,0.2c0,0.1,0,0.1,0.1,0.2c0,0,0.1,0.1,0.2,0.1c0.1,0,0.1,0,0.2,0
	c0.1,0,0.1-0.1,0.1-0.1c0-0.1,0.1-0.1,0.1-0.2c0-0.1,0-0.1-0.1-0.2C177.2,69.5,177.1,69.4,177,69.4L177,69.4z M177,69.9
	C177,69.9,176.9,69.9,177,69.9c-0.1,0-0.1,0-0.2-0.1c0,0,0,0,0-0.1c0,0,0-0.1,0-0.1s0-0.1,0-0.1c0,0,0-0.1,0-0.1c0,0,0,0,0.1,0
	c0,0,0.1,0,0.1,0c0.1,0,0.1,0,0.2,0.1c0,0,0.1,0.1,0.1,0.2c0,0.1,0,0.1-0.1,0.2C177.1,69.9,177.1,69.9,177,69.9z M180.3,69.4
	c-0.1,0-0.1,0-0.2,0.1c-0.1,0-0.1,0.1-0.1,0.1c0,0.1,0,0.1,0,0.2c0,0.1,0,0.1,0.1,0.2c0,0,0.1,0.1,0.2,0.1c0.1,0,0.1,0,0.2,0
	c0.1,0,0.1-0.1,0.1-0.1c0-0.1,0.1-0.1,0.1-0.2c0-0.1,0-0.1-0.1-0.2C180.5,69.5,180.4,69.4,180.3,69.4L180.3,69.4z M180.3,69.9
	C180.3,69.9,180.3,69.9,180.3,69.9c-0.1,0-0.1,0-0.2-0.1c0,0,0,0,0-0.1c0,0,0-0.1,0-0.1s0-0.1,0-0.1c0,0,0-0.1,0-0.1c0,0,0,0,0.1,0
	c0,0,0.1,0,0.1,0c0.1,0,0.1,0,0.2,0.1c0,0,0.1,0.1,0.1,0.2c0,0.1,0,0.1-0.1,0.2C180.4,69.9,180.4,69.9,180.3,69.9z M183.6,69.4
	c-0.1,0-0.1,0-0.2,0.1c-0.1,0-0.1,0.1-0.1,0.1c0,0.1,0,0.1,0,0.2c0,0.1,0,0.1,0.1,0.2c0,0,0.1,0.1,0.2,0.1c0.1,0,0.1,0,0.2,0
	c0.1,0,0.1-0.1,0.1-0.1c0-0.1,0.1-0.1,0.1-0.2c0-0.1,0-0.1-0.1-0.2C183.8,69.5,183.8,69.4,183.6,69.4L183.6,69.4z M183.6,69.9
	c-0.1,0-0.1,0-0.2-0.1c0,0-0.1-0.1-0.1-0.2c0-0.1,0-0.1,0.1-0.2c0,0,0.1-0.1,0.2-0.1c0,0,0.1,0,0.1,0c0,0,0.1,0,0.1,0c0,0,0,0,0,0.1
	c0,0,0,0.1,0,0.1s0,0.1,0,0.1c0,0,0,0.1,0,0.1C183.8,69.9,183.8,69.9,183.6,69.9C183.7,69.9,183.7,69.9,183.6,69.9z M177,74.1
	c0,0-0.1,0-0.1,0l0.3,0C177.2,74.1,177.1,74.1,177,74.1L177,74.1z M180.3,74.1c-0.1,0-0.2,0-0.2,0.1c-0.1,0.1-0.1,0.1-0.1,0.2h0.1
	c0-0.1,0-0.1,0.1-0.1c0,0,0.1-0.1,0.1-0.1c0.1,0,0.1,0,0.1,0.1c0,0,0.1,0.1,0.1,0.1h0.1c0-0.1,0-0.1-0.1-0.2
	C180.5,74.1,180.4,74.1,180.3,74.1L180.3,74.1z"/>
<path class="st5" d="M172.5,62.3c1.5,0.5,5.5,2.5,6.4,3.3c0,0,0,0.1,0,0c-0.9-0.6-5.8-3-6.5-3.3c0,0,0,0.1-0.1,0.1c0,0,0,0,0,0
	c0-0.1,0-0.2,0.1-0.3L172.5,62.3z"/>
<path class="st5" d="M173.7,68.2c0.1-0.7,0.7-3.7,0.8-4.4c0,0,0,0,0,0c-0.2,0.7-0.8,3.6-1,4.3c-0.3,1.5-0.6,2.9-0.7,4.4c0,0,0,0,0,0
	C173.1,71.1,173.4,69.6,173.7,68.2z"/>
<path class="st5" d="M179.1,74.3c-1.6,0-7.4-1.2-8.9-1.5c0-0.2,0-0.2,0-0.4c0,0,0,0,0,0c0,0.2-0.2,0.6-0.1,0.6
	C170.8,73.3,177.6,74.5,179.1,74.3C179.1,74.4,179.2,74.4,179.1,74.3C179.2,74.4,179.2,74.4,179.1,74.3
	C179.2,74.3,179.2,74.3,179.1,74.3C179.2,74.3,179.1,74.3,179.1,74.3z"/>
<path class="st5" d="M163.3,73.2l-11,1.5l-4.2-15.2l11-1.5L163.3,73.2z"/>
<path class="st7" d="M162.7,73.3l-11,1.5l-4.2-15.2l11-1.5L162.7,73.3z"/>
<path class="st2" d="M153.7,66c0.1,0.3,0.2,0.5,0.5,0.7c0.2,0.2,0.5,0.2,0.8,0.2c0.1,0,0.3-0.1,0.4-0.1c0.1-0.1,0.2-0.2,0.3-0.3
	c0.1-0.1,0.1-0.2,0.2-0.4s0-0.3,0-0.4c-0.1-0.3-0.2-0.5-0.5-0.7c-0.2-0.2-0.5-0.2-0.8-0.2c-0.1,0-0.3,0.1-0.4,0.1
	c-0.1,0.1-0.2,0.2-0.3,0.3c-0.1,0.1-0.1,0.2-0.2,0.4C153.6,65.7,153.6,65.8,153.7,66z"/>
<path class="st9" d="M147.7,62.7c-0.5,1.3-1.8,3-1.8,4c0,0.2,0.1,0.5,0.2,0.7c0.1,0.2,0.3,0.4,0.6,0.4c0,0-1,0.6-0.8,1.5
	c0.1,0.5,0.9,0.8,0.9,0.8c-0.2,0.1-0.4,0.3-0.5,0.6c-0.1,0.2-0.1,0.5-0.1,0.7c0.1,0.6,0.9,0.9,0.9,0.9s-0.5,0.8-0.1,1.4
	c0.7,1.2,6.3,0.7,7-1.5c0.3-1-1.1-0.8-1.1-0.8s1.9-0.8,1.8-1.9c-0.1-1.2-1.8-0.8-1.8-0.8s1.8-0.8,1.6-2c-0.2-1.2-1.9-0.6-1.9-0.6
	s1.2-1,0.8-1.9c-0.6-1.5-2.8,0.7-4.1,0.5l-0.9-2L147.7,62.7z"/>
<path class="st9" d="M146.8,64.6c0.3-1.3-1.3-2.6-1.2-3.8c0.2-1.7,2.2-0.3,2.9,2.1l0.2,1.9L146.8,64.6z"/>
<path class="st5" d="M146.8,70.1C146.8,70.1,146.8,70.1,146.8,70.1C146.8,70.1,146.8,70.1,146.8,70.1
	C146.8,70.2,146.8,70.2,146.8,70.1C146.8,70.2,146.8,70.2,146.8,70.1c2.2,0.3,4.4-0.2,6.2-1.4c0.1,0,0.1-0.1,0-0.1
	C151.7,69.4,148.6,70.1,146.8,70.1z"/>
<path class="st5" d="M152.7,66c-1.8,1.2-3.8,1.6-5.9,1.8c0,0,0,0,0,0c1.1,0.2,2.4-0.1,3.4-0.3C151.2,67.3,152.1,66.8,152.7,66
	C152.8,66.1,152.8,66,152.7,66z"/>
<path class="st5" d="M166.6,53.7C166.6,53.7,166.6,53.7,166.6,53.7c0,0.9,0.1,3.1,1.6,2.9c0.6-0.2,1.1-0.5,1.5-0.9
	c0.4-0.4,0.8-0.9,1.1-1.4c0.4-0.5,0.7-1.1,1-1.7c0,0,0.1,0,0,0c-0.3,0.6-0.5,1.2-0.9,1.8c-0.3,0.6-0.8,1.1-1.2,1.5
	c-0.4,0.5-1,0.8-1.6,0.9c-0.3,0-0.5,0-0.8-0.2c-0.2-0.1-0.4-0.4-0.5-0.6C166.6,55.3,166.5,54.5,166.6,53.7z"/>
<path class="st9" d="M168.1,55.6c1.1,0,2.7-2.1,3.1-3.5c0-0.1-0.3-1-0.7-2.1c-0.2-0.7-0.4-1.4-0.6-2.1l-4.1,2c0.4,0.8,0.8,1.7,1,2.6
	c0,0.1,0,0.2,0,0.3c0,0,0,0,0,0C166.9,53.4,167,55.6,168.1,55.6z"/>
<path class="st5" d="M166.8,52.8C166.8,52.8,166.8,52.8,166.8,52.8c0.2,0,0.3,0,0.5,0c2.5-0.6,2.4-3.8,2.3-4.7l-1,0.5l-2.8,1.4
	c0.4,0.8,0.8,1.7,1,2.6C166.8,52.6,166.8,52.7,166.8,52.8z"/>
<path class="st9" d="M169.6,43c0.8,1.5,0.9,6.1-0.1,7.3c-1.3,1.8-3.9,2.4-5.5,0.7c-1.6-1.6-1.5-7.7-0.5-8.8
	C165.1,40.6,168.4,40.9,169.6,43z"/>
<path class="st5" d="M165.9,46.8C165.9,46.8,165.9,46.8,165.9,46.8c0,0.3,0.1,0.7,0.3,0.8c0,0,0,0,0,0
	C165.9,47.6,165.8,47.1,165.9,46.8z"/>
<path class="st5" d="M166.1,46.5c0.5,0,0.6,1,0.1,1C165.8,47.5,165.7,46.5,166.1,46.5z"/>
<path class="st5" d="M164.1,46.8C164.1,46.8,164.1,46.8,164.1,46.8c0,0.3,0,0.7-0.3,0.8v0C164.2,47.6,164.2,47.1,164.1,46.8z"/>
<path class="st5" d="M163.8,46.5c-0.5,0-0.5,1,0,1C164.3,47.5,164.2,46.5,163.8,46.5z"/>
<path class="st5" d="M166.5,46c-0.1,0-0.3-0.1-0.4-0.1c-0.1,0-0.3-0.1-0.4-0.2c0,0,0-0.1,0-0.1c0,0,0-0.1,0.1-0.1
	c0.1-0.1,0.2-0.1,0.3-0.1c0.1,0,0.2,0,0.3,0c0.2,0,0.4,0.2,0.5,0.3c0,0,0,0.1,0,0.1c0,0,0,0.1,0,0.1c0,0-0.1,0.1-0.1,0.1
	C166.6,46,166.5,46,166.5,46z"/>
<path class="st5" d="M163.4,46.3c0.1,0,0.3-0.1,0.4-0.1c0.1,0,0.3-0.1,0.4-0.2c0,0,0-0.1,0-0.1c0,0,0-0.1-0.1-0.1
	c-0.1-0.1-0.2-0.1-0.3-0.1c-0.1,0-0.2,0-0.3,0c-0.2,0-0.3,0.2-0.5,0.3c0,0,0,0.1,0,0.1c0,0,0,0.1,0,0.1s0.1,0.1,0.1,0.1
	C163.3,46.3,163.4,46.3,163.4,46.3z"/>
<path class="st5" d="M166,48.6c-0.1,0.1-0.2,0.2-0.3,0.3c-0.1,0.1-0.3,0.2-0.4,0.2c-0.1,0-0.2,0-0.4,0c0,0-0.1,0-0.1,0c0,0,0,0,0,0
	c0,0,0,0,0,0c0,0,0,0,0,0v0c0-0.2,0-0.6,0-0.6c-0.1,0-0.5,0.3-0.5,0.2c0-1.1,0-2.2,0.2-3.2c0,0,0,0,0,0c0,0,0,0,0,0c0,0,0,0,0,0
	c0,0,0,0,0,0c0,1-0.1,2-0.1,3c0.2-0.1,0.3-0.1,0.5-0.2c0,0,0,0.7,0,0.8c0.2,0,0.4,0,0.6-0.1C165.7,48.8,165.9,48.7,166,48.6
	C166,48.6,166.1,48.6,166,48.6z"/>
<path class="st5" d="M170.4,47c0,0,0.7-3.1,0-4.5c-0.3-0.6-1.3-0.8-1.3-0.8c0-0.3-0.1-0.6-0.3-0.8c-0.2-0.2-0.4-0.4-0.7-0.5
	c-1-0.5-2.9,0.3-2.9,0.3s-1.8-1.4-3.3-0.1c-1.5,1.3,0.3,2.9,0.3,2.9s-0.3,1.1,1.5,1.3c1.8,0.2,4.6-1.6,4.6-1.6
	c0.2,1.1,0.6,2.2,1.1,3.2c0.1,0.2,0.2,0.3,0.4,0.4C170,47,170.2,47.1,170.4,47z"/>
<path class="st5" d="M165,40.9c0.3-0.3,0.7-0.5,1.1-0.6c0.4-0.1,0.8-0.2,1.2-0.2c0.4,0,0.7,0.1,1,0.2s0.6,0.4,0.7,0.7
	c0.1,0.2,0.1,0.3,0.1,0.5c0,0.2,0,0.4-0.1,0.5c0,0,0,0,0,0c0.2-0.6-0.2-1.3-0.8-1.6c-0.7-0.3-1.4-0.3-2.1-0.1
	C165.8,40.5,165.4,40.7,165,40.9C165,41,165,41,165,40.9C165,40.9,165,40.9,165,40.9C164.9,40.9,164.9,40.9,165,40.9
	C165,40.9,165,40.9,165,40.9z"/>
<path class="st5" d="M161,42c0-0.3,0.1-0.5,0.2-0.7s0.3-0.4,0.5-0.6c0.5-0.3,1.1-0.5,1.7-0.5c0.6,0,1.2,0.2,1.7,0.5c0,0,0,0,0,0
	c-0.5-0.3-1-0.4-1.5-0.5c-0.5,0-1.1,0.1-1.5,0.4c-0.2,0.1-0.4,0.3-0.6,0.5s-0.2,0.4-0.3,0.7c0,0.2,0,0.5,0.1,0.7
	c0.1,0.2,0.2,0.4,0.4,0.6c0.4,0.4,0.9,0.6,1.5,0.7v0c-0.5-0.1-1-0.3-1.4-0.6c-0.2-0.1-0.4-0.3-0.5-0.6C161.1,42.5,161,42.2,161,42z"
	/>
<path class="st5" d="M163.3,45.1c0.8,0,1.6-0.1,2.3-0.4c0.8-0.3,1.5-0.7,2.2-1.1c0.4-0.3,0.8-0.5,1.2-0.8c0,0,0,0,0,0
	c-0.6,0.6-1.4,1.1-2.1,1.5c-0.7,0.4-1.5,0.7-2.3,0.8C164.2,45.2,163.8,45.2,163.3,45.1L163.3,45.1z"/>
<path class="st9" d="M169.4,46.8c0,0,0.8-1.6,1.5-1.4c0.7,0.2,0.3,2.5-0.4,2.9c-0.1,0.1-0.2,0.1-0.3,0.1c-0.1,0-0.2,0-0.3,0
	c-0.1,0-0.2-0.1-0.3-0.1c-0.1-0.1-0.2-0.1-0.2-0.2L169.4,46.8z"/>
<path class="st5" d="M170.7,46.1C170.7,46.1,170.7,46.1,170.7,46.1c-0.2,0.2-0.4,0.4-0.6,0.6c-0.1,0.2-0.2,0.5-0.2,0.8
	c0-0.1,0.1-0.1,0.1-0.2c0,0,0.1-0.1,0.2-0.1c0.1,0,0.1,0,0.2,0c0.1,0,0.1,0,0.2,0.1c0,0,0,0,0,0c-0.1,0-0.2,0-0.3,0.1
	s-0.2,0.1-0.2,0.2c-0.1,0.2-0.1,0.3-0.2,0.5c0,0.1-0.1,0-0.1,0C169.6,47.4,170,46.3,170.7,46.1z"/>
<path class="st2" d="M166.8,52.7l1.5,2.4l2.7-3.8l1.1,0.9c0,0-2.3,5.7-2.3,5.5l-1.4-2l-1.3,1.8l-0.5-3.9L166.8,52.7z"/>
<path class="st5" d="M166.6,55.6c-0.1-0.6-0.1-1.3-0.2-2c0,0,0,0,0,0c0.2,0.6,0.5,3.1,0.6,3.7c0.1-0.1,1.2-1.6,1.2-1.6
	c0.3,0.3,1.3,1.8,1.4,1.9c0.4-0.9,1.8-4.2,2.2-5.1c0,0,0,0,0,0c0,0,0,0,0,0c0,0,0,0,0,0c0,0,0,0,0,0c-0.3,1-2.1,5.4-2.2,5.4
	c-0.5-0.7-1-1.4-1.5-2.2c-0.2,0.3-1.3,2-1.3,1.9C166.8,57,166.7,56.3,166.6,55.6z"/>
<path class="st2" d="M186.5,36c-0.1,1.3-0.6,2.5-1.4,3.5c-0.8,1-1.8,1.8-3,2.3c-1.2,0.5-2.5,0.6-3.8,0.3c-1.3-0.2-2.4-0.8-3.4-1.7
	l-3.5,0.5l1.7-3c-0.4-1-0.6-2-0.5-3.1c0.1-1.1,0.4-2.1,0.9-3c0.5-0.9,1.3-1.7,2.1-2.3c0.9-0.6,1.9-1,2.9-1.1c1-0.1,2.1-0.1,3.1,0.3
	c1,0.3,1.9,0.9,2.7,1.6c0.8,0.7,1.3,1.6,1.7,2.6C186.4,33.9,186.6,35,186.5,36z"/>
<path class="st5" d="M186.5,36c-0.1,1.3-0.6,2.5-1.4,3.5c-0.2,0.3-0.4,0.5-0.6,0.7c-0.2,0.2-0.5,0.4-0.7,0.6c-1,0.8-2.3,1.3-3.6,1.4
	c-0.3,0-0.6,0-1,0c-0.3,0-0.6,0-1-0.1c-1.3-0.2-2.5-0.8-3.4-1.7l0.1,0l-3.5,0.5l-0.3,0l0.1-0.2l1.7-3V38c-0.4-1-0.6-2.1-0.5-3.2
	c0.1-1.1,0.4-2.1,0.9-3.1c0.5-0.9,1.3-1.7,2.2-2.3c1.1-0.7,2.4-1.1,3.7-1.2c1.3,0,2.6,0.3,3.8,1c1.1,0.7,2.1,1.7,2.7,2.9
	C186.3,33.4,186.6,34.7,186.5,36L186.5,36z M186.5,36c0.1-1,0-2.1-0.4-3.1c-0.4-1-0.9-1.9-1.7-2.6c-0.8-0.7-1.7-1.3-2.7-1.6
	s-2.1-0.4-3.1-0.2c-1,0.2-2,0.5-2.9,1.1c-0.8,0.6-1.6,1.4-2.1,2.3c-0.5,0.9-0.8,1.9-0.9,2.9c-0.1,1,0.1,2.1,0.5,3l0,0.1l0,0.1
	l-1.8,3l-0.1-0.2l3.5-0.5h0l0,0c0.9,0.9,2.1,1.5,3.3,1.7c0.3,0.1,0.6,0.1,1,0.1c1,0.1,1.9-0.1,2.8-0.4c0.6-0.2,1.2-0.5,1.7-0.9
	c0.5-0.4,1-0.8,1.4-1.3C185.8,38.5,186.3,37.3,186.5,36z"/>
<path class="st6" d="M178.7,39.3l-3-3l1-1l1.7,1.8l3.6-5.7l1.2,0.8L178.7,39.3z"/>
</svg>
