<?xml version="1.0" encoding="utf-8"?>
<!-- Generator: Adobe Illustrator 25.0.0, SVG Export Plug-In . SVG Version: 6.00 Build 0)  -->
<svg version="1.1" id="Layer_1" xmlns="http://www.w3.org/2000/svg" xmlns:xlink="http://www.w3.org/1999/xlink" x="0px" y="0px"
	 viewBox="0 0 240 160" style="enable-background:new 0 0 240 160;" xml:space="preserve">
<style type="text/css">
	.st0{fill:#EBEBEB;}
	.st1{fill:#FFFFFF;}
	.st2{fill:#C7C7C7;}
	.st3{fill:#DBDBDB;}
	.st4{fill:#263238;}
	.st5{fill:#0B7D77;}
	.st6{fill:#455A64;}
	.st7{opacity:0.2;fill:#FFFFFF;enable-background:new    ;}
	.st8{fill:#A6A6A6;}
	.st9{fill:#F7A9A0;}
	.st10{opacity:0.1;enable-background:new    ;}
	.st11{fill:#37474F;}
	.st12{opacity:0.2;}
	.st13{opacity:0.2;enable-background:new    ;}
	.st14{fill:#FF9CBD;}
</style>
<path class="st0" d="M219.8,39.2l1.9-3l-0.9-0.6c-0.1-0.1-0.2-0.2-0.3-0.3c-0.1-0.1-0.1-0.3-0.1-0.5c0-0.2,0-0.4,0-0.5
	c0-0.2,0-0.3,0.1-0.4c0.1-0.1,0.2-0.2,0.3-0.3l1-0.5l-1.7-3.2l-1,0.5c-0.1,0.1-0.3,0.1-0.5,0.1c-0.2,0-0.3-0.1-0.4-0.2
	c-0.1-0.1-0.3-0.2-0.5-0.3c-0.1-0.1-0.3-0.2-0.3-0.3c-0.1-0.1-0.1-0.3-0.1-0.4l0-1.1l-3.6-0.1l0,1.1c0,0.2-0.1,0.3-0.1,0.4
	c-0.1,0.1-0.2,0.2-0.4,0.3c-0.1,0-0.2,0.1-0.2,0.1s-0.2,0.1-0.2,0.1c-0.1,0.1-0.3,0.1-0.4,0.1c-0.2,0-0.3,0-0.4-0.1l-0.9-0.6l-1.9,3
	l0.9,0.6c0.1,0.1,0.2,0.2,0.3,0.3c0.1,0.1,0.1,0.3,0.1,0.5c0,0.2,0,0.4,0,0.5c0,0.2,0,0.3-0.1,0.4c-0.1,0.1-0.2,0.2-0.3,0.3l-1,0.5
	l1.7,3.2l1-0.5c0.1-0.1,0.3-0.1,0.5-0.1c0.2,0,0.3,0.1,0.4,0.2c0.1,0.1,0.3,0.2,0.5,0.3c0.1,0.1,0.3,0.2,0.3,0.3
	c0.1,0.1,0.1,0.3,0.1,0.4l0,1.1l3.6,0.1l0-1.1c0-0.2,0.1-0.3,0.1-0.4c0.1-0.1,0.2-0.2,0.4-0.3l0.2-0.1c0.1,0,0.2-0.1,0.2-0.1
	c0.1-0.1,0.3-0.1,0.4-0.1c0.2,0,0.3,0,0.4,0.1L219.8,39.2z M216.7,36.9c-0.5,0.3-1.1,0.4-1.7,0.3c-0.6-0.1-1.1-0.3-1.6-0.6
	c-0.4-0.4-0.8-0.9-0.9-1.4c-0.2-0.6-0.2-1.1,0-1.7c0.2-0.6,0.5-1,0.9-1.4c0.4-0.4,1-0.6,1.6-0.7c0.6-0.1,1.2,0.1,1.7,0.3
	c0.5,0.3,0.9,0.7,1.2,1.2c0.2,0.3,0.3,0.7,0.3,1.1c0,0.4,0,0.8-0.1,1.1c-0.1,0.4-0.3,0.7-0.5,1C217.4,36.5,217.1,36.7,216.7,36.9
	L216.7,36.9z"/>
<path class="st0" d="M40.6,81.7l-1.3-2.2l-0.7,0.4C38.6,80,38.4,80,38.3,80c-0.1,0-0.2,0-0.3-0.1c-0.1-0.1-0.2-0.1-0.3-0.2
	c-0.1-0.1-0.2-0.1-0.2-0.2c-0.1-0.1-0.1-0.2-0.1-0.3v-0.8h-2.5v0.8c0,0.1,0,0.2-0.1,0.3c-0.1,0.1-0.1,0.2-0.2,0.2
	c-0.1,0.1-0.2,0.1-0.3,0.2C34.1,79.9,34,80,33.9,80c-0.1,0-0.2,0-0.3-0.1l-0.7-0.4l-1.3,2.2l0.7,0.4c0.1,0.1,0.2,0.1,0.2,0.2
	c0.1,0.1,0.1,0.2,0.1,0.3c0,0.1,0,0.1,0,0.2c0,0.1,0,0.1,0,0.2c0,0.1,0,0.2-0.1,0.3c-0.1,0.1-0.1,0.2-0.2,0.2l-0.7,0.4l1.3,2.2
	l0.7-0.4c0.1-0.1,0.2-0.1,0.3-0.1s0.2,0,0.3,0.1c0.1,0.1,0.2,0.1,0.3,0.2c0.1,0,0.2,0.1,0.2,0.2c0.1,0.1,0.1,0.2,0.1,0.3v0.8h2.5
	v-0.8c0-0.1,0-0.2,0.1-0.3c0.1-0.1,0.1-0.2,0.2-0.2c0.1-0.1,0.2-0.1,0.3-0.2c0.1-0.1,0.2-0.1,0.3-0.1c0.1,0,0.2,0,0.3,0.1l0.7,0.4
	l1.3-2.2l-0.7-0.4c-0.1-0.1-0.2-0.1-0.2-0.2c-0.1-0.1-0.1-0.2-0.1-0.3c0-0.1,0-0.1,0-0.2s0-0.1,0-0.2c0-0.1,0-0.2,0.1-0.3
	c0.1-0.1,0.1-0.2,0.2-0.2L40.6,81.7z M38.2,82.8c0,0.4-0.1,0.8-0.3,1.1c-0.2,0.3-0.5,0.6-0.9,0.8c-0.4,0.2-0.8,0.2-1.2,0.1
	c-0.4-0.1-0.8-0.3-1.1-0.6c-0.3-0.3-0.5-0.7-0.6-1.1c-0.1-0.4,0-0.8,0.1-1.2c0.2-0.4,0.4-0.7,0.8-0.9c0.3-0.2,0.7-0.3,1.1-0.3
	c0.3,0,0.5,0.1,0.8,0.2c0.2,0.1,0.5,0.3,0.7,0.4c0.2,0.2,0.3,0.4,0.4,0.7C38.1,82.3,38.2,82.5,38.2,82.8z"/>
<path class="st0" d="M28.8,96.4c-1.9,0-3.8,0.6-5.4,1.6c-1.6,1.1-2.9,2.6-3.6,4.4c-0.7,1.8-0.9,3.7-0.6,5.6c0.4,1.9,1.3,3.6,2.7,5
	c1.4,1.4,3.1,2.3,5,2.7c1.9,0.4,3.9,0.2,5.6-0.6c1.8-0.7,3.3-2,4.4-3.6c1.1-1.6,1.6-3.5,1.6-5.4c0-1.3-0.3-2.5-0.7-3.7
	c-0.5-1.2-1.2-2.3-2.1-3.2c-0.9-0.9-2-1.6-3.2-2.1C31.3,96.6,30,96.4,28.8,96.4z M28.8,110.7c-0.9,0-1.8-0.3-2.5-0.8
	c-0.7-0.5-1.3-1.2-1.7-2c-0.3-0.8-0.4-1.7-0.3-2.6c0.2-0.9,0.6-1.7,1.2-2.3c0.6-0.6,1.4-1.1,2.3-1.2c0.9-0.2,1.8-0.1,2.6,0.3
	c0.8,0.3,1.5,0.9,2,1.7c0.5,0.8,0.8,1.6,0.8,2.5c0,1.2-0.5,2.4-1.3,3.2C31.1,110.2,30,110.7,28.8,110.7z"/>
<path class="st0" d="M30.6,96.8h-3.8l0.2-2.7h3.3L30.6,96.8z"/>
<path class="st0" d="M23.5,98.1l-2.6,2.7l-1.7-2l2.4-2.4L23.5,98.1z"/>
<path class="st0" d="M19.4,104v3.8l-2.7-0.2v-3.3L19.4,104z"/>
<path class="st0" d="M20.6,111.1l2.7,2.7l-2,1.7l-2.4-2.4L20.6,111.1z"/>
<path class="st0" d="M26.6,115.3h3.8l-0.2,2.7h-3.3L26.6,115.3z"/>
<path class="st0" d="M33.7,114l2.7-2.7l1.7,2l-2.4,2.4L33.7,114z"/>
<path class="st0" d="M37.8,108.1v-3.8l2.7,0.2v3.3L37.8,108.1z"/>
<path class="st0" d="M36.6,101l-2.7-2.7l2-1.7l2.4,2.4L36.6,101z"/>
<path class="st0" d="M203.8,122.1c1.8,0,6.5-0.1,8.3-0.1h2.7l-0.1,0.1v-3.6l0.2,0.2c-1.8,0-6.5,0-8.3,0l-2.8,0l0.1-0.1L203.8,122.1
	L203.8,122.1z M203.8,122.1l-0.1-3.6v-0.1h0.1c1.4,0,4.1-0.1,5.5-0.1l5.5,0h0.2v0.2v3.6v0.1h-0.1H212
	C210.3,122.2,205.6,122.1,203.8,122.1L203.8,122.1z"/>
<path class="st0" d="M209.9,126.6c1.8,0,6.5-0.1,8.3-0.1l2.7,0l-0.1,0.1l0-3.6l0.2,0.2c-1.8,0-6.5,0-8.3,0l-2.8,0l0.1-0.1
	L209.9,126.6z M209.9,126.6l-0.1-3.6V123h0.1c1.4,0,4.1-0.1,5.5-0.1l5.5,0h0.2v0.2v3.6v0.1H221h-2.8
	C216.4,126.7,211.8,126.7,209.9,126.6L209.9,126.6z"/>
<path class="st0" d="M198.4,66.9c1.8,0,6.5-0.1,8.3-0.1h2.7l-0.1,0.1v-3.6l0.2,0.2c-1.8,0-6.5,0-8.3,0l-2.8,0l0.1-0.1L198.4,66.9z
	 M198.4,66.9l-0.1-3.6v-0.1h0.1l5.5-0.1l5.5,0h0.2v0.2l0,3.6V67h-0.1h-2.8C204.8,67,200.2,66.9,198.4,66.9L198.4,66.9z"/>
<path class="st0" d="M204.5,71.4c1.8,0,6.5-0.1,8.3-0.1h2.7l-0.1,0.1l0-3.6l0.2,0.2c-1.8,0-6.5,0-8.3,0l-2.8,0l0.1-0.1L204.5,71.4
	L204.5,71.4z M204.5,71.4l-0.1-3.6v-0.1h0.1l5.5-0.1l5.5,0h0.2v0.2v3.6v0.1h-0.1h-2.8C211,71.6,206.3,71.5,204.5,71.4L204.5,71.4z"
	/>
<path class="st0" d="M192.2,71.4h11v-3.6h-11V71.4z"/>
<path class="st0" d="M24.2,126.6h11V123h-11V126.6z"/>
<path class="st0" d="M24.2,17.4h11v-3.6h-11V17.4z"/>
<path class="st0" d="M18,21.9c1.8,0,6.5-0.1,8.3-0.1H29l-0.1,0.1v-3.6l0.2,0.2c-1.8,0-6.5,0-8.3,0l-2.8,0l0.1-0.1L18,21.9L18,21.9z
	 M18,21.9l-0.1-3.6v-0.1H18l5.5-0.1l5.5,0h0.2v0.2v3.6v0.1H29h-2.8C24.5,22.1,19.8,22,18,21.9L18,21.9z"/>
<path class="st0" d="M211,17.4c1.8,0,6.5-0.1,8.3-0.1h2.7l-0.1,0.1v-3.6L222,14c-1.8,0-6.5,0-8.3,0l-2.8,0l0.1-0.1L211,17.4
	L211,17.4z M211,17.4l-0.1-3.6v-0.1h0.1l5.5-0.1l5.5,0h0.2v0.2v3.6v0.1H222h-2.8C217.5,17.5,212.8,17.5,211,17.4L211,17.4z"/>
<path class="st0" d="M109.2,25.7h-11v3.6h11V25.7z"/>
<path class="st0" d="M103,21.2c-1.8,0-6.5,0.1-8.3,0.1l-2.7,0l0.1-0.1v3.6L92,24.6c1.8,0,6.5,0,8.3,0l2.8,0l-0.1,0.1L103,21.2z
	 M103,21.2l0.1,3.6v0.1H103c-1.4,0-4.1,0.1-5.5,0.1L92,25h-0.2v-0.2v-3.6v-0.1H92h2.8C96.5,21.1,101.2,21.2,103,21.2L103,21.2z"/>
<path class="st0" d="M43.8,56H26.4v21.1h17.4V56z"/>
<path class="st1" d="M41.8,58H28.4v17.2h13.4V58z"/>
<path class="st2" d="M28.9,58h-0.5v17.2h0.5V58z"/>
<path class="st2" d="M44.3,56h-0.5v21.1h0.5V56z"/>
<path class="st3" d="M36.1,61.9h-3.2v9.4h3.2V61.9z"/>
<path class="st0" d="M40.1,65.1h-8.8v-4.9h8.8L40.1,65.1z M31.7,64.8h8.1v-4.3h-8.1L31.7,64.8z"/>
<path class="st0" d="M33.6,30H16.2v21.1h17.4V30z"/>
<path class="st1" d="M31.6,31.9H18.2v17.2h13.4V31.9z"/>
<path class="st2" d="M18.7,31.9h-0.5v17.2h0.5V31.9z"/>
<path class="st2" d="M34.2,30h-0.5v21.1h0.5V30z"/>
<path class="st0" d="M26.3,36.4h-2.7v6.9h2.7V36.4z"/>
<path class="st3" d="M29.4,45.4h-7.6v-5h7.6V45.4z M22.1,45.1h7v-4.4h-7L22.1,45.1z"/>
<path class="st4" d="M16.2,141.3l25.9-0.1l25.9,0l51.9-0.1l51.9,0.1l25.9,0l25.9,0.1l-25.9,0.1l-25.9,0l-51.9,0.1l-51.9-0.1l-25.9,0
	L16.2,141.3z"/>
<path class="st5" d="M210.8,114c-0.4,1.3-0.6,2.7-0.7,4c0,0.1,0,0.3,0,0.2c0,0.2-0.3,0.2-0.3,0c0-0.1,0-0.3,0-0.4
	c-0.8-1-1.9-1.6-2.8-2.4c-0.7-0.7-1.3-1.5-1.6-2.5c-0.8-2.6,0-5.4-1-8c-0.8-2.3-2.2-4.2-3.4-6.3c-1.3-2.2-2.2-4.4-2.3-7
	c-0.1-1.9,0.2-4.5,1.6-6c1.6-1.5,3.5-0.4,4.7,1c3.5,4,5.1,9,5.7,14.2c0.4,2.9,0.7,5.7,0.6,8.6C211.3,110.9,211.1,112.5,210.8,114z"
	/>
<path class="st4" d="M210.1,119c0.2-2.7,0.2-5.4-0.1-8.1c0,0,0,0,0,0c0-2.2,0.2-4.4,0.1-6.5c-0.1-2.4-0.4-4.7-1-7c0,0,0,0,0,0
	c0.4,2.3,0.7,4.6,0.8,6.9c0,1.2,0,2.5,0,3.7c0,0.4-0.1,0.8-0.1,1.2c-0.9-6.1-3.1-12-6.5-17.2c0-0.1-0.2,0-0.1,0.1
	c2.4,4,4.2,8.3,5.3,12.8c-1.7-3.1-4.2-5.6-6.1-8.6c0,0,0,0,0,0c1.7,3.3,4.5,5.9,6.2,9.2c0.3,1.3,0.6,2.7,0.7,4
	c0.2,1.9,0.4,3.7,0.4,5.6c-1-1.9-2.1-3.7-2.9-5.7c0-0.1-0.1,0-0.1,0c0.7,2.1,1.7,4.3,3,6.1c0,1.3,0,2.6-0.1,4
	c-0.2,3.5-0.8,7-1.1,10.5c0,0,0,0,0,0.1c0,0,0,0,0.1,0c0,0,0,0,0.1,0c0,0,0,0,0-0.1C209.4,126.3,209.8,122.7,210.1,119z"/>
<path class="st4" d="M206.3,91.8C206.3,91.8,206.3,91.8,206.3,91.8C206.3,91.8,206.3,91.8,206.3,91.8
	C206.3,91.8,206.3,91.8,206.3,91.8C206.3,91.8,206.3,91.8,206.3,91.8C206.3,91.8,206.3,91.8,206.3,91.8
	C206.3,91.8,206.3,91.8,206.3,91.8C206.3,91.8,206.3,91.8,206.3,91.8C206.3,91.8,206.3,91.8,206.3,91.8c0.6,1.8,1,3.6,1.4,5.4
	c0,0,0,0,0,0c0,0,0,0,0.1,0c0,0,0,0,0,0c0,0,0,0,0-0.1C207.7,95.4,207,93.5,206.3,91.8z"/>
<path class="st5" d="M222.7,99.3c-0.4,1-0.9,2.1-1.5,3c-1.2,2.1-2.4,4-2.6,6.5c-0.1,1.1-0.1,2.2-0.5,3.3c-0.3,0.9-0.7,1.8-1.3,2.6
	c-1.3,1.8-2.8,3.4-4,5.3c-1.2,2-2.1,4.1-2.7,6.4c0,0.1-0.2,0.1-0.2,0c0,0,0,0,0,0c0,0,0,0,0,0c-0.2-5.3,0.2-10.6,1.8-15.6
	c0.7-2.2,1.6-4.4,2.6-6.5c0.9-1.8,1.9-3.6,3.4-5c1-0.9,3.1-2.6,4.5-1.7C223,97.9,222.9,98.6,222.7,99.3z"/>
<path class="st4" d="M217.4,111.2c-0.9,1.5-1.9,3-3.1,4.4c-0.5,0.7-1,1.3-1.5,2c-0.2,0.3-0.5,0.6-0.7,1c0.1-0.6,0.3-1.1,0.4-1.7
	c0.7-2.7,1.3-5.3,2.3-7.9c1-2.5,2.3-4.9,3.7-7.2c0-0.1-0.1-0.1-0.1,0c-1.1,1.8-2.2,3.7-3.2,5.6c-0.5,1.1-1,2.2-1.4,3.3
	c0.4-2.4,1-4.8,1.8-7.1c0,0,0,0,0,0c-1,2.3-1.6,4.8-1.9,7.4c-0.2,0.7-0.4,1.4-0.6,2.1c-0.8,2.9-1.6,5.9-2.2,8.9c0-2,0.2-3.9,0.5-5.9
	c0,0,0,0,0,0c0,0,0,0,0,0s0,0,0,0c0,0,0,0,0,0c-0.5,2-0.7,4.1-0.5,6.2c-0.3,1.1-0.5,2.3-0.7,3.4c-0.5,2.4-1.2,4.9-1.5,7.4
	c0,0,0,0,0,0c0,0,0,0,0,0c0,0,0,0,0,0c0,0,0,0,0,0c0.4-1.3,0.6-2.7,0.9-4c0.3-1.3,0.6-2.7,0.9-4c0.5-2,0.9-3.9,1.4-5.9
	c0.3-0.7,1-1.4,1.4-1.9c0.5-0.7,1-1.3,1.5-2C215.8,113.9,216.7,112.6,217.4,111.2C217.5,111.2,217.4,111.2,217.4,111.2z"/>
<path class="st4" d="M217.6,109c-1.2,1.5-2.2,3.1-3,4.8c0,0,0,0,0,0C215.7,112.2,216.7,110.6,217.6,109
	C217.7,109,217.6,108.9,217.6,109z"/>
<path class="st5" d="M195.2,104.3c0.7,1.2,1.5,2.6,1.2,4c-0.2,0.9-0.8,1.6-1,2.5c-0.3,2,1.7,3.3,3.2,4.3c3.6,2.4,8.6,4.5,9.2,9.3
	c0,0.2,0.3,0.1,0.3,0c0,0,0,0,0,0c0,0,0,0,0,0c0.5-2.4,0.5-5-0.1-7.4c-0.5-2.5-1.6-4.7-2.9-6.9c-2.2-3.7-4.5-7.5-7.8-10.4
	c-0.9-0.8-2.8-2.2-3.5-0.4C193.2,101,194.4,102.8,195.2,104.3z"/>
<path class="st4" d="M198.5,112.1c2.4,2.6,6.2,4,8.3,7c-1.2-4.4-3.3-8.5-6.4-11.9c0,0,0,0,0-0.1c0,0,0,0,0-0.1c0,0,0,0,0.1,0
	c0,0,0,0,0.1,0c2.2,2.1,4,4.7,5.2,7.5c-0.6-2-1.3-3.9-2.2-5.7c0,0,0,0,0,0c0,0,0,0,0,0c0,0,0,0,0,0c0,0,0,0,0,0c1.1,2,2,4.2,2.4,6.4
	c2.7,6.6,3,14.3,2.4,21.2c0,0,0,0,0,0c0,0,0,0-0.1,0c0,0,0,0-0.1,0c0,0,0,0,0,0c0.2-5.5,0.1-11-1.2-16.4c0-0.1-0.1-0.2-0.1-0.3
	C204.7,116.6,200.9,115.2,198.5,112.1C198.5,112.2,198.5,112.1,198.5,112.1z"/>
<path class="st4" d="M198,109.9c1.3,1.2,2.5,2.3,3.8,3.5c0,0,0,0,0,0C200.3,112.5,199,111.3,198,109.9
	C197.9,110,197.9,110,198,109.9C197.9,109.9,197.9,109.9,198,109.9C197.9,109.9,197.9,109.9,198,109.9
	C197.9,109.9,198,109.9,198,109.9z"/>
<path class="st4" d="M197.8,104.9c1.1,1.8,2.4,3.6,3.8,5.2c0,0,0,0,0,0c0,0,0,0,0,0c0,0,0,0,0,0c0,0,0,0,0,0c0,0,0,0,0,0
	c0,0,0,0,0,0s0,0,0,0c0,0,0,0,0,0C199.9,108.6,198.7,106.9,197.8,104.9C197.7,105,197.7,104.9,197.8,104.9
	C197.7,104.9,197.7,104.9,197.8,104.9C197.7,104.9,197.7,104.9,197.8,104.9C197.7,104.9,197.8,104.9,197.8,104.9z"/>
<path class="st6" d="M203.4,141.3h11l-1.5-14.8h-7.8L203.4,141.3z"/>
<path class="st4" d="M204.8,128.9h8.4l-0.2-2.4h-7.8L204.8,128.9z"/>
<path class="st6" d="M203.8,127.2h10.3v-2.4h-10.3V127.2z"/>
<path class="st2" d="M218,134.2H22v7.1H218V134.2z"/>
<path class="st3" d="M200.7,26.3H39.3v107.9h161.3V26.3z"/>
<path class="st4" d="M199.5,27.6h-159v105.3h159V27.6z"/>
<path class="st1" d="M192.4,34.3H47.6v91.7h144.9V34.3z"/>
<path class="st6" d="M192.4,34.3H47.6v3.5h144.9V34.3z"/>
<path class="st2" d="M50.9,36.1c0,0.1,0,0.3-0.1,0.4c-0.1,0.1-0.2,0.2-0.3,0.2c-0.1,0.1-0.3,0.1-0.4,0c-0.1,0-0.2-0.1-0.3-0.2
	c-0.1-0.1-0.2-0.2-0.2-0.3c0-0.1,0-0.3,0-0.4c0.1-0.1,0.1-0.2,0.2-0.3c0.1-0.1,0.2-0.1,0.4-0.1c0.2,0,0.3,0.1,0.5,0.2
	C50.8,35.8,50.9,35.9,50.9,36.1z"/>
<path class="st1" d="M53.6,36.1c0,0.1,0,0.3-0.1,0.4c-0.1,0.1-0.2,0.2-0.3,0.2c-0.1,0.1-0.3,0.1-0.4,0c-0.1,0-0.2-0.1-0.3-0.2
	c-0.1-0.1-0.2-0.2-0.2-0.3c0-0.1,0-0.3,0-0.4c0.1-0.1,0.1-0.2,0.2-0.3c0.1-0.1,0.2-0.1,0.4-0.1c0.1,0,0.2,0,0.3,0.1
	c0.1,0,0.2,0.1,0.2,0.1c0.1,0.1,0.1,0.1,0.1,0.2C53.6,35.9,53.6,36,53.6,36.1z"/>
<path class="st5" d="M56.3,36.1c0,0.1,0,0.3-0.1,0.4c-0.1,0.1-0.2,0.2-0.3,0.2c-0.1,0.1-0.3,0.1-0.4,0c-0.1,0-0.2-0.1-0.3-0.2
	c-0.1-0.1-0.2-0.2-0.2-0.3c0-0.1,0-0.3,0-0.4c0.1-0.1,0.1-0.2,0.2-0.3c0.1-0.1,0.2-0.1,0.4-0.1c0.2,0,0.3,0.1,0.5,0.2
	C56.2,35.8,56.3,35.9,56.3,36.1z"/>
<path class="st2" d="M93.8,104.1h-0.8v-0.8h0.2v0.5h0.5V104.1z"/>
<path class="st2" d="M144.9,104.1h-1.3v-0.2h1.3V104.1z M142.3,104.1H141v-0.2h1.3V104.1z M139.8,104.1h-1.3v-0.2h1.3V104.1z
	 M137.2,104.1h-1.3v-0.2h1.3V104.1z M134.6,104.1h-1.3v-0.2h1.3V104.1z M132.1,104.1h-1.3v-0.2h1.3V104.1z M129.5,104.1h-1.3v-0.2
	h1.3V104.1z M127,104.1h-1.3v-0.2h1.3V104.1z M124.4,104.1h-1.3v-0.2h1.3V104.1z M121.8,104.1h-1.3v-0.2h1.3V104.1z M119.3,104.1
	H118v-0.2h1.3V104.1z M116.7,104.1h-1.3v-0.2h1.3V104.1z M114.2,104.1h-1.3v-0.2h1.3V104.1z M111.6,104.1h-1.3v-0.2h1.3V104.1z
	 M109,104.1h-1.3v-0.2h1.3V104.1z M106.5,104.1h-1.3v-0.2h1.3V104.1z M103.9,104.1h-1.3v-0.2h1.3V104.1z M101.4,104.1h-1.3v-0.2h1.3
	V104.1z M98.8,104.1h-1.3v-0.2h1.3V104.1z M96.2,104.1H95v-0.2h1.3V104.1z"/>
<path class="st2" d="M146.9,104.1h-0.8v-0.2h0.5v-0.5h0.2V104.1z"/>
<path class="st2" d="M146.9,102h-0.2v-1.3h0.2V102z M146.9,99.5h-0.2v-1.3h0.2V99.5z M146.9,96.9h-0.2v-1.3h0.2V96.9z M146.9,94.3
	h-0.2v-1.3h0.2V94.3z M146.9,91.8h-0.2v-1.3h0.2V91.8z M146.9,89.2h-0.2v-1.3h0.2V89.2z M146.9,86.7h-0.2v-1.3h0.2V86.7z
	 M146.9,84.1h-0.2v-1.3h0.2V84.1z M146.9,81.5h-0.2v-1.3h0.2V81.5z M146.9,79h-0.2v-1.3h0.2V79z M146.9,76.4h-0.2v-1.3h0.2V76.4z
	 M146.9,73.9h-0.2v-1.3h0.2V73.9z M146.9,71.3h-0.2V70h0.2V71.3z M146.9,68.7h-0.2v-1.3h0.2V68.7z M146.9,66.2h-0.2v-1.3h0.2V66.2z
	 M146.9,63.6h-0.2v-1.3h0.2V63.6z M146.9,61.1h-0.2v-1.3h0.2V61.1z M146.9,58.5h-0.2v-1.3h0.2V58.5z M146.9,55.9h-0.2v-1.3h0.2V55.9
	z M146.9,53.4h-0.2v-1.3h0.2V53.4z"/>
<path class="st2" d="M146.9,51h-0.2v-0.5h-0.5v-0.2h0.8V51z"/>
<path class="st2" d="M144.9,50.5h-1.3v-0.2h1.3V50.5z M142.3,50.5H141v-0.2h1.3V50.5z M139.8,50.5h-1.3v-0.2h1.3V50.5z M137.2,50.5
	h-1.3v-0.2h1.3V50.5z M134.6,50.5h-1.3v-0.2h1.3V50.5z M132.1,50.5h-1.3v-0.2h1.3V50.5z M129.5,50.5h-1.3v-0.2h1.3V50.5z M127,50.5
	h-1.3v-0.2h1.3V50.5z M124.4,50.5h-1.3v-0.2h1.3V50.5z M121.8,50.5h-1.3v-0.2h1.3V50.5z M119.3,50.5H118v-0.2h1.3V50.5z M116.7,50.5
	h-1.3v-0.2h1.3V50.5z M114.2,50.5h-1.3v-0.2h1.3V50.5z M111.6,50.5h-1.3v-0.2h1.3V50.5z M109,50.5h-1.3v-0.2h1.3V50.5z M106.5,50.5
	h-1.3v-0.2h1.3V50.5z M103.9,50.5h-1.3v-0.2h1.3V50.5z M101.4,50.5h-1.3v-0.2h1.3V50.5z M98.8,50.5h-1.3v-0.2h1.3V50.5z M96.2,50.5
	H95v-0.2h1.3V50.5z"/>
<path class="st2" d="M93.3,51h-0.2v-0.8h0.8v0.2h-0.5V51z"/>
<path class="st2" d="M93.3,102h-0.2v-1.3h0.2V102z M93.3,99.5h-0.2v-1.3h0.2V99.5z M93.3,96.9h-0.2v-1.3h0.2V96.9z M93.3,94.3h-0.2
	v-1.3h0.2V94.3z M93.3,91.8h-0.2v-1.3h0.2V91.8z M93.3,89.2h-0.2v-1.3h0.2V89.2z M93.3,86.7h-0.2v-1.3h0.2V86.7z M93.3,84.1h-0.2
	v-1.3h0.2V84.1z M93.3,81.5h-0.2v-1.3h0.2V81.5z M93.3,79h-0.2v-1.3h0.2V79z M93.3,76.4h-0.2v-1.3h0.2V76.4z M93.3,73.9h-0.2v-1.3
	h0.2V73.9z M93.3,71.3h-0.2V70h0.2V71.3z M93.3,68.7h-0.2v-1.3h0.2V68.7z M93.3,66.2h-0.2v-1.3h0.2V66.2z M93.3,63.6h-0.2v-1.3h0.2
	V63.6z M93.3,61.1h-0.2v-1.3h0.2V61.1z M93.3,58.5h-0.2v-1.3h0.2V58.5z M93.3,55.9h-0.2v-1.3h0.2V55.9z M93.3,53.4h-0.2v-1.3h0.2
	V53.4z"/>
<path class="st5" d="M131.7,90.3h-23.5v-7.2h1.5v5.7h20.5v-5.3h1.5V90.3z"/>
<path class="st5" d="M133.3,80.1h-28.1v0c-1.3-0.2-2.5-0.8-3.4-1.9c-0.8-1-1.3-2.3-1.2-3.7c0.1-1.3,0.7-2.6,1.6-3.5s2.2-1.4,3.6-1.4
	c0.2,0,0.3,0,0.5,0c0.2-1.5,0.9-2.8,2-3.8c1.1-1,2.6-1.5,4-1.5c0.8,0,1.6,0.2,2.4,0.5c0.9-2.1,2.4-3.9,4.4-5c2-1.1,4.3-1.5,6.5-1.1
	c2.2,0.4,4.3,1.5,5.8,3.2c1.5,1.7,2.4,3.9,2.6,6.1c1.6,0.1,3.1,0.9,4.1,2.1c1,1.2,1.5,2.8,1.4,4.4c-0.1,1.6-0.8,3.1-2,4.1
	C136.4,79.6,134.9,80.2,133.3,80.1L133.3,80.1z M105.7,79.4h27.6c1.4,0.1,2.9-0.4,3.9-1.4c1.1-1,1.7-2.3,1.8-3.8
	c0.1-1.4-0.4-2.9-1.4-3.9c-1-1.1-2.3-1.7-3.8-1.8l-0.3,0v-0.3c-0.1-2.2-0.9-4.3-2.3-5.9c-1.4-1.6-3.4-2.7-5.6-3.1
	c-2.2-0.3-4.4,0.1-6.3,1.2c-1.9,1.1-3.3,2.8-4.1,4.9l-0.1,0.3l-0.3-0.2c-0.8-0.4-1.6-0.6-2.4-0.6c-1.4,0-2.7,0.5-3.7,1.5
	c-1,1-1.6,2.3-1.7,3.6l0,0.4l-0.4-0.1c-0.2,0-0.5-0.1-0.7-0.1c-1.2,0-2.3,0.5-3.2,1.3c-0.9,0.8-1.4,1.9-1.4,3.1
	c0,1.2,0.4,2.3,1.2,3.2c0.8,0.9,1.9,1.4,3.1,1.5L105.7,79.4z"/>
<path class="st5" d="M123.6,76.5h-7.2v9.3h7.2V76.5z"/>
<path class="st5" d="M112.7,76.5h14.6L120,69L112.7,76.5z"/>
<path class="st0" d="M154.8,109H85.2v5.7h69.6V109z"/>
<path class="st5" d="M127.3,110.3H86.9v3h40.5V110.3z"/>
<path class="st7" d="M91.2,113.4h-2.1l-2.3-3h2.1L91.2,113.4z"/>
<path class="st7" d="M95.6,113.4h-2.1l-2.3-3h2.1L95.6,113.4z"/>
<path class="st7" d="M100,113.4h-2.1l-2.3-3h2.1L100,113.4z"/>
<path class="st7" d="M104.3,113.4h-2.1l-2.3-3h2.1L104.3,113.4z"/>
<path class="st7" d="M108.7,113.4h-2.1l-2.3-3h2.1L108.7,113.4z"/>
<path class="st7" d="M113.1,113.4H111l-2.3-3h2.1L113.1,113.4z"/>
<path class="st7" d="M117.4,113.4h-2.1l-2.3-3h2.1L117.4,113.4z"/>
<path class="st7" d="M121.8,113.4h-2.1l-2.3-3h2.1L121.8,113.4z"/>
<path class="st7" d="M126.2,113.4h-2.1l-2.3-3h2.1L126.2,113.4z"/>
<path class="st7" d="M127.3,110.3v1.5l-1.1-1.5H127.3z"/>
<path class="st0" d="M151.7,65.1h13.1V52.1h-13.1V65.1z"/>
<path class="st3" d="M152.5,64.4H164V52.8h-11.5V64.4z"/>
<path class="st2" d="M154.3,55.6c0,0.2,0,0.5,0.1,0.7c0.1,0.2,0.3,0.4,0.5,0.5c0.2,0.1,0.4,0.2,0.7,0.1c0.2,0,0.4-0.1,0.6-0.3
	c0.2-0.2,0.3-0.4,0.3-0.6s0-0.5-0.1-0.7c-0.1-0.2-0.3-0.4-0.5-0.5c-0.2-0.1-0.4-0.1-0.7-0.1c-0.2,0-0.4,0.1-0.6,0.3
	C154.5,55.2,154.4,55.4,154.3,55.6z"/>
<path class="st2" d="M155.7,61.4h8.3l-4.2-4.7L155.7,61.4z"/>
<path class="st8" d="M152.5,61.4h6.9l-3.4-3L152.5,61.4z"/>
<path class="st8" d="M164,61.4h-11.5v3H164V61.4z"/>
<path class="st2" d="M185.7,67h-1.3v-0.2h1.3V67z M183.1,67h-1.3v-0.2h1.3V67z M180.6,67h-1.3v-0.2h1.3V67z M178,67h-1.3v-0.2h1.3
	V67z M175.4,67h-1.3v-0.2h1.3V67z M172.9,67h-1.3v-0.2h1.3V67z M170.3,67H169v-0.2h1.3V67z M167.8,67h-1.3v-0.2h1.3V67z M165.2,67
	h-1.3v-0.2h1.3V67z M162.6,67h-1.3v-0.2h1.3V67z M160.1,67h-1.3v-0.2h1.3V67z M157.5,67h-1.3v-0.2h1.3V67z M155,67h-1.3v-0.2h1.3V67
	z M152.4,67h-1.3v-0.2h1.3V67z M150.1,66.7h-0.2v-1.3h0.2V66.7z M185.8,66.2h-0.2v-1.3h0.2V66.2z M150.1,64.1h-0.2v-1.3h0.2V64.1z
	 M185.8,63.6h-0.2v-1.3h0.2V63.6z M150.1,61.6h-0.2v-1.3h0.2V61.6z M185.8,61h-0.2v-1.3h0.2V61z M150.1,59h-0.2v-1.3h0.2V59z
	 M185.8,58.5h-0.2v-1.3h0.2V58.5z M150.1,56.5h-0.2v-1.3h0.2V56.5z M185.8,55.9h-0.2v-1.3h0.2V55.9z M150.1,53.9h-0.2v-1.3h0.2V53.9
	z M185.8,53.4h-0.2v-1.3h0.2V53.4z M150.1,51.3h-0.2v-1.1h0.4v0.2h-0.2V51.3z M185.8,50.8h-0.2v-0.3h-0.7v-0.2h1L185.8,50.8z
	 M183.6,50.5h-1.3v-0.2h1.3V50.5z M181,50.5h-1.3v-0.2h1.3V50.5z M178.4,50.5h-1.3v-0.2h1.3V50.5z M175.9,50.5h-1.3v-0.2h1.3V50.5z
	 M173.3,50.5H172v-0.2h1.3V50.5z M170.8,50.5h-1.3v-0.2h1.3V50.5z M168.2,50.5h-1.3v-0.2h1.3V50.5z M165.6,50.5h-1.3v-0.2h1.3V50.5z
	 M163.1,50.5h-1.3v-0.2h1.3V50.5z M160.5,50.5h-1.3v-0.2h1.3V50.5z M158,50.5h-1.3v-0.2h1.3V50.5z M155.4,50.5h-1.3v-0.2h1.3V50.5z
	 M152.8,50.5h-1.3v-0.2h1.3V50.5z"/>
<path class="st0" d="M166.3,52.7C166.3,52.7,166.3,52.7,166.3,52.7c0-0.1,0-0.1,0-0.1c0,0,0,0,0.1,0s0,0,0.1,0c0,0,0.1,0,0.1,0
	c0,0,0.1,0.1,0.1,0.1v1.8c0,0,0,0.1-0.1,0.1c0,0-0.1,0-0.1,0c0,0,0,0-0.1,0c0,0,0,0-0.1,0c0,0,0,0,0-0.1c0,0,0,0,0-0.1V52.7z"/>
<path class="st0" d="M168.5,53.8v0.7c0,0,0,0.1,0,0.1c0,0-0.1,0-0.1,0c0,0-0.1,0-0.1,0c0,0-0.1-0.1-0.1-0.1v-0.7
	c0-0.1,0-0.2-0.1-0.2c-0.1-0.1-0.1-0.1-0.2-0.1c-0.1,0-0.2,0-0.2,0.1c-0.1,0.1-0.1,0.1-0.1,0.2v0.7c0,0,0,0,0,0c0,0,0,0,0,0
	c0,0,0,0.1-0.1,0.1c0,0-0.1,0-0.1,0h0c0,0-0.1,0-0.1-0.1c0,0,0-0.1,0-0.1v-0.7v-0.5c0,0,0,0,0-0.1c0,0,0,0,0-0.1c0,0,0,0,0.1,0
	c0,0,0,0,0.1,0c0,0,0.1,0,0.1,0c0,0,0,0,0.1,0.1c0.1-0.1,0.2-0.1,0.3-0.1c0.1,0,0.2,0,0.3,0.1c0.1,0,0.2,0.1,0.2,0.2
	c0.1-0.1,0.1-0.1,0.2-0.2c0.1,0,0.2-0.1,0.3-0.1c0.2,0,0.3,0.1,0.5,0.2c0.1,0.1,0.2,0.3,0.2,0.5v0.7c0,0,0,0.1,0,0.1
	c0,0-0.1,0-0.1,0c0,0-0.1,0-0.1,0c0,0,0-0.1-0.1-0.1v-0.7c0-0.1,0-0.2-0.1-0.2c-0.1-0.1-0.1-0.1-0.2-0.1c0,0-0.1,0-0.1,0
	c0,0-0.1,0-0.1,0.1c0,0,0,0.1-0.1,0.1C168.5,53.7,168.5,53.8,168.5,53.8z"/>
<path class="st0" d="M171.5,53.9v0.6c0,0,0,0.1,0,0.1c0,0-0.1,0-0.1,0c0,0-0.1,0-0.1,0c0,0-0.1-0.1-0.1-0.1
	c-0.1,0.1-0.3,0.1-0.4,0.1c-0.1,0-0.2,0-0.3-0.1c-0.1,0-0.2-0.1-0.2-0.2c-0.1-0.1-0.2-0.3-0.2-0.5c0-0.2,0.1-0.4,0.2-0.5
	c0.1-0.1,0.1-0.1,0.2-0.2c0.1,0,0.2-0.1,0.3-0.1c0.1,0,0.3,0,0.4,0.1c0,0,0-0.1,0.1-0.1c0,0,0.1,0,0.1,0c0,0,0.1,0,0.1,0
	c0,0,0,0.1,0,0.1V53.9z M171.1,53.9c0-0.1,0-0.2-0.1-0.3c0,0-0.1-0.1-0.1-0.1c-0.1,0-0.1,0-0.2,0c-0.1,0-0.1,0-0.2,0
	c0,0-0.1,0.1-0.1,0.1c-0.1,0.1-0.1,0.2-0.1,0.3c0,0.1,0,0.2,0.1,0.3c0,0,0.1,0.1,0.1,0.1c0,0,0.1,0,0.2,0c0.1,0,0.1,0,0.2,0
	c0,0,0.1-0.1,0.1-0.1C171.1,54.2,171.1,54.1,171.1,53.9L171.1,53.9z"/>
<path class="st0" d="M173.6,54v0.6c0,0.2-0.1,0.4-0.2,0.5c-0.1,0.1-0.3,0.2-0.5,0.2c-0.1,0-0.2,0-0.3-0.1c0,0,0,0-0.1,0
	c0,0,0,0,0-0.1c0,0,0,0,0-0.1c0,0,0,0,0-0.1c0,0,0.1-0.1,0.1-0.1c0,0,0.1,0,0.1,0c0.1,0,0.1,0,0.2,0c0.1,0,0.2,0,0.3-0.1
	c0.1-0.1,0.1-0.1,0.1-0.2c-0.1,0.1-0.3,0.1-0.4,0.1c-0.1,0-0.2,0-0.3-0.1c-0.1,0-0.2-0.1-0.2-0.2c-0.1-0.1-0.1-0.2-0.2-0.3
	c0-0.1-0.1-0.2-0.1-0.3c0-0.2,0.1-0.4,0.2-0.5c0.1-0.1,0.1-0.1,0.2-0.2c0.1,0,0.2-0.1,0.3-0.1c0.1,0,0.3,0,0.4,0.1
	c0,0,0-0.1,0.1-0.1s0.1,0,0.1,0c0,0,0.1,0,0.1,0c0,0,0,0.1,0,0.1L173.6,54L173.6,54z M173.2,54c0-0.1,0-0.2-0.1-0.3
	c0,0-0.1-0.1-0.1-0.1c-0.1,0-0.1,0-0.2,0c-0.1,0-0.1,0-0.2,0c0,0-0.1,0.1-0.1,0.1c-0.1,0.1-0.1,0.2-0.1,0.3c0,0.1,0,0.2,0.1,0.3
	c0,0,0.1,0.1,0.1,0.1c0,0,0.1,0,0.2,0c0.1,0,0.1,0,0.2,0c0.1,0,0.1-0.1,0.1-0.1C173.2,54.2,173.2,54.1,173.2,54L173.2,54z"/>
<path class="st0" d="M174.1,53.9c0-0.2,0.1-0.4,0.2-0.5c0.1-0.1,0.3-0.2,0.5-0.2c0.2,0,0.4,0.1,0.5,0.2c0.1,0.1,0.2,0.3,0.2,0.5
	c0,0,0,0,0,0c0,0,0,0.1-0.1,0.1c0,0-0.1,0-0.1,0h-1c0,0.1,0.1,0.1,0.1,0.2c0.1,0.1,0.2,0.1,0.3,0.1c0.1,0,0.2,0,0.3-0.1
	c0,0,0.1,0,0.1,0c0,0,0.1,0,0.1,0c0,0,0,0,0,0c0,0,0,0,0,0.1c0,0,0,0,0,0.1c0,0,0,0,0,0c-0.2,0.1-0.3,0.2-0.6,0.2
	c-0.2,0-0.4-0.1-0.5-0.2C174.2,54.3,174.1,54.1,174.1,53.9z M174.4,53.8h0.9c0-0.1-0.1-0.2-0.2-0.2c-0.1-0.1-0.2-0.1-0.3-0.1
	c-0.1,0-0.2,0-0.3,0.1C174.5,53.6,174.5,53.7,174.4,53.8L174.4,53.8z"/>
<path class="st0" d="M175.7,55.1c0,0,0-0.1,0-0.1c0,0,0.1,0,0.1,0h1.9c0,0,0.1,0,0.1,0c0,0,0,0.1,0,0.1s0,0.1,0,0.1c0,0-0.1,0-0.1,0
	h-1.9c0,0-0.1,0-0.1,0C175.7,55.1,175.7,55.1,175.7,55.1z"/>
<path class="st0" d="M179.5,54.1C179.5,54.2,179.5,54.2,179.5,54.1c0,0.1,0,0.1-0.1,0.1c0,0,0,0-0.1,0c0,0,0,0-0.1,0h0v0.2
	c0,0,0,0.1-0.1,0.1c0,0-0.1,0-0.1,0s-0.1,0-0.1,0c0,0-0.1-0.1-0.1-0.1v-0.2h-1c0,0,0,0-0.1,0c0,0,0,0,0,0c0,0,0,0,0,0c0,0,0,0,0-0.1
	c0,0,0,0,0-0.1c0,0,0,0,0-0.1l1.1-1.4h0h0h0h0.1h0h0v0v0c0,0,0,0,0,0c0,0,0,0,0,0v1.3h0c0,0,0.1-0.1,0.1-0.1c0,0,0.1,0,0.1,0
	c0,0,0.1,0.1,0.1,0.1C179.5,54.1,179.5,54.1,179.5,54.1z M179,53.2l-0.6,0.8h0.6V53.2z"/>
<path class="st0" d="M151.7,83.7h13.1V70.6h-13.1V83.7z"/>
<path class="st3" d="M152.5,82.9H164V71.4h-11.5V82.9z"/>
<path class="st2" d="M154.3,74.1c0,0.2,0,0.5,0.1,0.7c0.1,0.2,0.3,0.4,0.5,0.5c0.2,0.1,0.4,0.2,0.7,0.1c0.2,0,0.4-0.1,0.6-0.3
	c0.2-0.2,0.3-0.4,0.3-0.6c0-0.2,0-0.5-0.1-0.7c-0.1-0.2-0.3-0.4-0.5-0.5c-0.2-0.1-0.4-0.1-0.7-0.1c-0.2,0-0.4,0.1-0.6,0.3
	C154.5,73.7,154.4,73.9,154.3,74.1z"/>
<path class="st2" d="M155.7,79.9h8.3l-4.2-4.7L155.7,79.9z"/>
<path class="st8" d="M152.5,79.9h6.9l-3.4-3L152.5,79.9z"/>
<path class="st8" d="M164,79.9h-11.5v3H164V79.9z"/>
<path class="st2" d="M185.7,85.5h-1.3v-0.2h1.3V85.5z M183.1,85.5h-1.3v-0.2h1.3V85.5z M180.6,85.5h-1.3v-0.2h1.3V85.5z M178,85.5
	h-1.3v-0.2h1.3V85.5z M175.4,85.5h-1.3v-0.2h1.3V85.5z M172.9,85.5h-1.3v-0.2h1.3V85.5z M170.3,85.5H169v-0.2h1.3V85.5z M167.8,85.5
	h-1.3v-0.2h1.3V85.5z M165.2,85.5h-1.3v-0.2h1.3V85.5z M162.6,85.5h-1.3v-0.2h1.3V85.5z M160.1,85.5h-1.3v-0.2h1.3V85.5z
	 M157.5,85.5h-1.3v-0.2h1.3V85.5z M155,85.5h-1.3v-0.2h1.3V85.5z M152.4,85.5h-1.3v-0.2h1.3V85.5z M150.1,85.2h-0.2V84h0.2V85.2z
	 M185.8,84.7h-0.2v-1.3h0.2V84.7z M150.1,82.7h-0.2v-1.3h0.2V82.7z M185.8,82.1h-0.2v-1.3h0.2V82.1z M150.1,80.1h-0.2v-1.3h0.2V80.1
	z M185.8,79.6h-0.2v-1.3h0.2V79.6z M150.1,77.6h-0.2v-1.3h0.2V77.6z M185.8,77h-0.2v-1.3h0.2V77z M150.1,75h-0.2v-1.3h0.2V75z
	 M185.8,74.5h-0.2v-1.3h0.2V74.5z M150.1,72.4h-0.2v-1.3h0.2V72.4z M185.8,71.9h-0.2v-1.3h0.2V71.9z M150.1,69.9h-0.2v-1.1h0.4V69
	h-0.2V69.9z M185.8,69.3h-0.2V69h-0.7v-0.2h1L185.8,69.3z M183.6,69h-1.3v-0.2h1.3V69z M181,69h-1.3v-0.2h1.3V69z M178.4,69h-1.3
	v-0.2h1.3V69z M175.9,69h-1.3v-0.2h1.3V69z M173.3,69H172v-0.2h1.3V69z M170.8,69h-1.3v-0.2h1.3V69z M168.2,69h-1.3v-0.2h1.3V69z
	 M165.6,69h-1.3v-0.2h1.3V69z M163.1,69h-1.3v-0.2h1.3V69z M160.5,69h-1.3v-0.2h1.3V69z M158,69h-1.3v-0.2h1.3V69z M155.4,69h-1.3
	v-0.2h1.3V69z M152.8,69h-1.3v-0.2h1.3V69z"/>
<path class="st0" d="M166.3,71C166.3,71,166.4,71,166.3,71c0-0.1,0-0.1,0.1-0.1c0,0,0,0,0.1,0c0,0,0,0,0.1,0c0,0,0,0,0.1,0
	c0,0,0,0,0.1,0c0,0,0,0,0,0.1c0,0,0,0,0,0.1v1.8c0,0,0,0.1-0.1,0.1c0,0-0.1,0-0.1,0c0,0-0.1,0-0.1,0c0,0,0-0.1,0-0.1V71z"/>
<path class="st0" d="M168.5,72.1v0.7c0,0,0,0.1,0,0.1c0,0-0.1,0-0.1,0c0,0-0.1,0-0.1-0.1s0-0.1-0.1-0.1v-0.7c0-0.1,0-0.2-0.1-0.2
	c-0.1-0.1-0.1-0.1-0.2-0.1c-0.1,0-0.2,0-0.2,0.1c-0.1,0.1-0.1,0.1-0.1,0.2v0.7c0,0,0,0,0,0c0,0,0,0,0,0c0,0,0,0.1-0.1,0.1
	c0,0-0.1,0-0.1,0h0c0,0-0.1,0-0.1-0.1c0,0,0-0.1,0-0.1v-0.7v-0.5c0,0,0,0,0-0.1c0,0,0,0,0-0.1s0,0,0.1,0c0,0,0,0,0.1,0
	c0,0,0.1,0,0.1,0c0,0,0,0,0.1,0.1c0.1-0.1,0.2-0.1,0.3-0.1c0.1,0,0.2,0,0.3,0.1c0.1,0,0.2,0.1,0.2,0.2c0.1-0.1,0.1-0.1,0.2-0.2
	c0.1,0,0.2-0.1,0.3-0.1c0.2,0,0.3,0.1,0.5,0.2c0.1,0.1,0.2,0.3,0.2,0.5v0.7c0,0,0,0.1,0,0.1c0,0-0.1,0-0.1,0c0,0-0.1,0-0.1,0
	c0,0,0-0.1-0.1-0.1v-0.7c0-0.1,0-0.2-0.1-0.2c-0.1-0.1-0.1-0.1-0.2-0.1c0,0-0.1,0-0.1,0c0,0-0.1,0-0.1,0.1c0,0,0,0.1-0.1,0.1
	C168.5,72,168.5,72.1,168.5,72.1z"/>
<path class="st0" d="M171.5,72.3v0.6c0,0,0,0.1,0,0.1c0,0-0.1,0-0.1,0.1c0,0-0.1,0-0.1,0c0,0-0.1-0.1-0.1-0.1
	c-0.1,0.1-0.3,0.1-0.4,0.1c-0.1,0-0.2,0-0.3-0.1c-0.1,0-0.2-0.1-0.2-0.2c-0.1-0.1-0.2-0.3-0.2-0.5s0.1-0.4,0.2-0.5
	c0.1-0.1,0.1-0.1,0.2-0.2c0.1,0,0.2-0.1,0.3-0.1c0.1,0,0.3,0,0.4,0.1c0,0,0-0.1,0.1-0.1c0,0,0.1,0,0.1,0c0,0,0.1,0,0.1,0
	c0,0,0,0.1,0,0.1V72.3z M171.1,72.3c0-0.1,0-0.2-0.1-0.3c0,0-0.1-0.1-0.1-0.1c-0.1,0-0.1,0-0.2,0c-0.1,0-0.1,0-0.2,0
	c0,0-0.1,0.1-0.1,0.1c-0.1,0.1-0.1,0.2-0.1,0.3c0,0.1,0,0.2,0.1,0.3c0,0,0.1,0.1,0.1,0.1s0.1,0,0.2,0c0.1,0,0.1,0,0.2,0
	c0.1,0,0.1-0.1,0.1-0.1C171.1,72.5,171.1,72.4,171.1,72.3L171.1,72.3z"/>
<path class="st0" d="M173.6,72.3v0.6c0,0.1,0,0.2-0.1,0.4c-0.1,0.1-0.1,0.2-0.3,0.3c-0.1,0.1-0.2,0.1-0.4,0.1c-0.1,0-0.2,0-0.4-0.1
	c0,0,0,0-0.1,0c0,0,0,0,0-0.1c0,0,0,0,0-0.1c0,0,0,0,0-0.1c0,0,0.1-0.1,0.1-0.1c0,0,0.1,0,0.1,0c0.1,0,0.1,0,0.2,0
	c0.1,0,0.2,0,0.3-0.1c0.1-0.1,0.1-0.1,0.1-0.2c-0.1,0.1-0.3,0.1-0.4,0.1c-0.1,0-0.2,0-0.3-0.1s-0.2-0.1-0.2-0.2
	c-0.1-0.1-0.1-0.2-0.2-0.2c0-0.1-0.1-0.2-0.1-0.3c0-0.2,0.1-0.4,0.2-0.6c0.1-0.1,0.1-0.1,0.2-0.2c0.1,0,0.2-0.1,0.3-0.1
	c0.1,0,0.3,0,0.4,0.1c0,0,0-0.1,0.1-0.1c0,0,0.1,0,0.1,0c0,0,0.1,0,0.1,0c0,0,0,0.1,0,0.1V72.3L173.6,72.3z M173.2,72.3
	c0-0.1,0-0.2-0.1-0.3c0,0-0.1-0.1-0.1-0.1c0,0-0.1,0-0.2,0c-0.1,0-0.1,0-0.2,0c0,0-0.1,0.1-0.1,0.1c-0.1,0.1-0.1,0.2-0.1,0.3
	c0,0.1,0,0.1,0,0.2c0,0.1,0.1,0.1,0.1,0.1c0,0,0.1,0.1,0.1,0.1c0,0,0.1,0,0.2,0c0.1,0,0.1,0,0.2,0c0.1,0,0.1-0.1,0.1-0.1
	C173.2,72.5,173.2,72.4,173.2,72.3L173.2,72.3z"/>
<path class="st0" d="M174.1,72.2c0-0.2,0.1-0.4,0.2-0.5c0.1-0.1,0.3-0.2,0.5-0.2c0.2,0,0.4,0.1,0.5,0.2c0.1,0.1,0.2,0.3,0.2,0.5v0
	c0,0,0,0,0,0c0,0,0,0.1-0.1,0.1c0,0-0.1,0-0.1,0h-1c0,0.1,0.1,0.1,0.1,0.2c0.1,0.1,0.2,0.1,0.3,0.1c0.1,0,0.2,0,0.3-0.1
	c0,0,0.1,0,0.1,0c0,0,0.1,0,0.1,0c0,0,0,0,0,0c0,0,0,0,0,0.1c0,0,0,0,0,0.1c0,0,0,0,0,0c-0.2,0.1-0.3,0.2-0.6,0.2
	c-0.1,0-0.2,0-0.3-0.1c-0.1,0-0.2-0.1-0.2-0.2c-0.1-0.1-0.1-0.2-0.2-0.3C174.1,72.5,174.1,72.4,174.1,72.2z M174.4,72.1h0.9
	c0-0.1-0.1-0.2-0.2-0.2c-0.1-0.1-0.2-0.1-0.3-0.1c-0.1,0-0.2,0-0.3,0.1C174.5,71.9,174.5,72,174.4,72.1L174.4,72.1z"/>
<path class="st0" d="M175.7,73.4c0,0,0-0.1,0-0.1c0,0,0.1,0,0.1,0h1.9c0,0,0.1,0,0.1,0c0,0,0,0.1,0,0.1c0,0,0,0.1,0,0.1
	c0,0-0.1,0-0.1,0h-1.9c0,0-0.1,0-0.1,0C175.7,73.4,175.7,73.4,175.7,73.4z"/>
<path class="st0" d="M179,71.7c0.1,0.1,0.1,0.2,0.2,0.2s0.1,0.2,0.1,0.3c0,0.2-0.1,0.4-0.2,0.5c-0.1,0.1-0.3,0.2-0.5,0.2
	c-0.1,0-0.2,0-0.3-0.1c-0.1,0-0.2-0.1-0.2-0.2c0,0,0,0,0-0.1c0,0,0,0,0-0.1s0,0,0-0.1c0,0,0,0,0-0.1c0,0,0.1-0.1,0.1-0.1
	c0,0,0.1,0,0.1,0.1c0,0,0.1,0.1,0.1,0.1c0,0,0.1,0,0.2,0c0.1,0,0.1,0,0.2,0c0.1,0,0.1-0.1,0.1-0.1c0,0,0.1-0.1,0.1-0.1
	c0-0.1,0-0.1,0-0.2c0-0.1,0-0.1,0-0.2c0-0.1-0.1-0.1-0.1-0.1c0,0-0.1-0.1-0.1-0.1c-0.1,0-0.1,0-0.2,0c-0.1,0-0.1,0-0.2,0
	c-0.1,0-0.1,0.1-0.1,0.1c0,0,0,0-0.1,0c0,0,0,0-0.1,0s0,0-0.1,0c0,0,0,0-0.1,0l0,0c0,0,0,0,0,0c0,0,0,0,0,0c0,0,0,0,0-0.1L178,71
	c0-0.1,0-0.1,0.1-0.1c0,0,0.1,0,0.1,0h0.9c0,0,0,0,0.1,0c0,0,0,0,0.1,0c0,0,0,0,0,0.1c0,0,0,0,0,0.1c0,0,0,0.1-0.1,0.1
	c0,0-0.1,0.1-0.1,0.1h-0.8l0,0.3c0.1,0,0.1,0,0.2,0C178.6,71.5,178.8,71.6,179,71.7z"/>
<path class="st0" d="M151.7,102.2h13.1V89.2h-13.1V102.2z"/>
<path class="st3" d="M152.5,101.5H164V89.9h-11.5V101.5z"/>
<path class="st2" d="M154.3,92.7c0,0.2,0,0.5,0.1,0.7c0.1,0.2,0.3,0.4,0.5,0.5c0.2,0.1,0.4,0.2,0.7,0.1c0.2,0,0.4-0.1,0.6-0.3
	c0.2-0.2,0.3-0.4,0.3-0.6c0-0.2,0-0.5-0.1-0.7c-0.1-0.2-0.3-0.4-0.5-0.5c-0.2-0.1-0.4-0.1-0.7-0.1c-0.2,0-0.4,0.1-0.6,0.3
	C154.5,92.3,154.4,92.5,154.3,92.7z"/>
<path class="st2" d="M155.7,98.5h8.3l-4.2-4.7L155.7,98.5z"/>
<path class="st8" d="M152.5,98.5h6.9l-3.4-3L152.5,98.5z"/>
<path class="st8" d="M164,98.5h-11.5v3H164V98.5z"/>
<path class="st2" d="M185.7,104.1h-1.3v-0.2h1.3V104.1z M183.1,104.1h-1.3v-0.2h1.3V104.1z M180.6,104.1h-1.3v-0.2h1.3V104.1z
	 M178,104.1h-1.3v-0.2h1.3V104.1z M175.4,104.1h-1.3v-0.2h1.3V104.1z M172.9,104.1h-1.3v-0.2h1.3V104.1z M170.3,104.1H169v-0.2h1.3
	V104.1z M167.8,104.1h-1.3v-0.2h1.3V104.1z M165.2,104.1h-1.3v-0.2h1.3V104.1z M162.6,104.1h-1.3v-0.2h1.3V104.1z M160.1,104.1h-1.3
	v-0.2h1.3V104.1z M157.5,104.1h-1.3v-0.2h1.3V104.1z M155,104.1h-1.3v-0.2h1.3V104.1z M152.4,104.1h-1.3v-0.2h1.3V104.1z
	 M150.1,103.8h-0.2v-1.3h0.2V103.8z M185.8,103.2h-0.2V102h0.2V103.2z M150.1,101.2h-0.2V100h0.2V101.2z M185.8,100.7h-0.2v-1.3h0.2
	V100.7z M150.1,98.7h-0.2v-1.3h0.2V98.7z M185.8,98.1h-0.2v-1.3h0.2V98.1z M150.1,96.1h-0.2v-1.3h0.2V96.1z M185.8,95.6h-0.2v-1.3
	h0.2V95.6z M150.1,93.6h-0.2v-1.3h0.2V93.6z M185.8,93h-0.2v-1.3h0.2V93z M150.1,91h-0.2v-1.3h0.2V91z M185.8,90.4h-0.2v-1.3h0.2
	V90.4z M150.1,88.4h-0.2v-1.1h0.4v0.2h-0.2V88.4z M185.8,87.9h-0.2v-0.3h-0.7v-0.2h1L185.8,87.9z M183.6,87.6h-1.3v-0.2h1.3V87.6z
	 M181,87.6h-1.3v-0.2h1.3V87.6z M178.4,87.6h-1.3v-0.2h1.3V87.6z M175.9,87.6h-1.3v-0.2h1.3V87.6z M173.3,87.6H172v-0.2h1.3V87.6z
	 M170.8,87.6h-1.3v-0.2h1.3V87.6z M168.2,87.6h-1.3v-0.2h1.3V87.6z M165.6,87.6h-1.3v-0.2h1.3V87.6z M163.1,87.6h-1.3v-0.2h1.3V87.6
	z M160.5,87.6h-1.3v-0.2h1.3V87.6z M158,87.6h-1.3v-0.2h1.3V87.6z M155.4,87.6h-1.3v-0.2h1.3V87.6z M152.8,87.6h-1.3v-0.2h1.3V87.6z
	"/>
<path class="st0" d="M166.3,89.4c0,0,0-0.1,0-0.1c0,0,0.1,0,0.1,0c0,0,0.1,0,0.1,0c0,0,0.1,0.1,0.1,0.1v1.8c0,0,0,0.1-0.1,0.1
	c0,0-0.1,0-0.1,0c0,0,0,0-0.1,0s0,0-0.1,0c0,0,0,0,0-0.1c0,0,0,0,0-0.1V89.4z"/>
<path class="st0" d="M168.5,90.5v0.7c0,0,0,0.1,0,0.1c0,0-0.1,0-0.1,0c0,0-0.1,0-0.1,0c0,0-0.1-0.1-0.1-0.1v-0.7
	c0-0.1,0-0.2-0.1-0.2c-0.1-0.1-0.1-0.1-0.2-0.1c-0.1,0-0.2,0-0.2,0.1c-0.1,0.1-0.1,0.1-0.1,0.2v0.7c0,0,0,0,0,0c0,0,0,0,0,0v0
	c0,0,0,0.1-0.1,0.1c0,0-0.1,0-0.1,0h0c0,0-0.1,0-0.1-0.1c0,0,0-0.1,0-0.1v-0.7V90c0,0,0,0,0-0.1c0,0,0,0,0-0.1c0,0,0,0,0.1,0
	c0,0,0,0,0.1,0c0,0,0.1,0,0.1,0c0,0,0,0,0.1,0.1c0.1-0.1,0.3-0.1,0.4-0.1c0.1,0,0.3,0.1,0.4,0.2c0.1-0.1,0.1-0.1,0.2-0.2
	c0.1,0,0.2-0.1,0.3-0.1c0.2,0,0.3,0.1,0.5,0.2c0.1,0.1,0.2,0.3,0.2,0.5v0.7c0,0,0,0.1,0,0.1c0,0-0.1,0-0.1,0c0,0-0.1,0-0.1,0
	c0,0,0-0.1,0-0.1v-0.7c0-0.1,0-0.2-0.1-0.2c-0.1-0.1-0.1-0.1-0.2-0.1c-0.1,0-0.2,0-0.2,0.1C168.5,90.3,168.5,90.4,168.5,90.5z"/>
<path class="st0" d="M171.5,90.6v0.6c0,0,0,0.1,0,0.1c0,0-0.1,0-0.1,0c0,0-0.1,0-0.1,0c0,0-0.1-0.1-0.1-0.1
	c-0.1,0.1-0.3,0.1-0.4,0.1c-0.1,0-0.2,0-0.3-0.1c-0.1,0-0.2-0.1-0.2-0.2c-0.1-0.1-0.2-0.3-0.2-0.5c0-0.2,0.1-0.4,0.2-0.5
	c0.1-0.1,0.1-0.1,0.2-0.2c0.1,0,0.2-0.1,0.3-0.1c0.1,0,0.3,0,0.4,0.1c0,0,0-0.1,0.1-0.1c0,0,0.1,0,0.1,0c0,0,0.1,0,0.1,0
	c0,0,0,0.1,0,0.1V90.6z M171.1,90.6c0-0.1,0-0.2-0.1-0.3c0,0-0.1-0.1-0.1-0.1c-0.1,0-0.1,0-0.2,0c-0.1,0-0.1,0-0.2,0
	c0,0-0.1,0.1-0.1,0.1c-0.1,0.1-0.1,0.2-0.1,0.3s0,0.2,0.1,0.3c0,0,0.1,0.1,0.1,0.1c0,0,0.1,0,0.2,0c0.1,0,0.1,0,0.2,0
	c0,0,0.1-0.1,0.1-0.1C171.1,90.9,171.1,90.7,171.1,90.6L171.1,90.6z"/>
<path class="st0" d="M173.6,90.6v0.6c0,0.1,0,0.2-0.1,0.4c-0.1,0.1-0.1,0.2-0.3,0.3s-0.2,0.1-0.4,0.1c-0.1,0-0.2,0-0.4-0.1
	c0,0,0,0-0.1,0c0,0,0,0,0-0.1c0,0,0,0,0-0.1c0,0,0,0,0-0.1c0,0,0.1-0.1,0.1-0.1c0,0,0.1,0,0.1,0c0.1,0,0.1,0,0.2,0
	c0.1,0,0.2,0,0.3-0.1c0.1-0.1,0.1-0.1,0.1-0.2c-0.1,0.1-0.3,0.1-0.4,0.1c-0.1,0-0.2,0-0.3-0.1s-0.2-0.1-0.2-0.2
	c-0.1-0.1-0.1-0.2-0.2-0.2c0-0.1-0.1-0.2-0.1-0.3c0-0.2,0.1-0.4,0.2-0.6c0.1-0.1,0.1-0.1,0.2-0.2c0.1,0,0.2-0.1,0.3-0.1
	c0.1,0,0.3,0,0.4,0.1c0,0,0-0.1,0.1-0.1c0,0,0.1,0,0.1,0c0,0,0.1,0,0.1,0c0,0,0,0.1,0,0.1V90.6L173.6,90.6z M173.2,90.6
	c0-0.1,0-0.2-0.1-0.3c0,0-0.1-0.1-0.1-0.1c-0.1,0-0.1,0-0.2,0c-0.1,0-0.1,0-0.2,0c0,0-0.1,0.1-0.1,0.1c-0.1,0.1-0.1,0.2-0.1,0.3
	c0,0.1,0,0.1,0,0.2c0,0.1,0.1,0.1,0.1,0.1c0,0,0.1,0.1,0.1,0.1c0,0,0.1,0,0.2,0c0.1,0,0.1,0,0.2,0c0.1,0,0.1-0.1,0.1-0.1
	C173.2,90.9,173.2,90.8,173.2,90.6L173.2,90.6z"/>
<path class="st0" d="M174.1,90.6c0-0.2,0.1-0.4,0.2-0.5c0.1-0.1,0.3-0.2,0.5-0.2c0.2,0,0.4,0.1,0.5,0.2c0.1,0.1,0.2,0.3,0.2,0.5
	c0,0,0,0,0,0c0,0,0,0.1-0.1,0.1c0,0-0.1,0-0.1,0h-1c0,0.1,0.1,0.1,0.1,0.2c0.1,0.1,0.2,0.1,0.3,0.1c0.1,0,0.2,0,0.3-0.1
	c0,0,0.1,0,0.1,0c0,0,0.1,0,0.1,0c0,0,0,0,0,0c0,0,0,0,0,0.1c0,0,0,0,0,0.1c0,0,0,0,0,0c-0.2,0.1-0.3,0.2-0.6,0.2
	c-0.2,0-0.4-0.1-0.5-0.2C174.2,91,174.1,90.8,174.1,90.6z M174.4,90.5h0.9c0-0.1-0.1-0.2-0.2-0.2c-0.1-0.1-0.2-0.1-0.3-0.1
	c-0.1,0-0.2,0-0.3,0.1C174.5,90.3,174.5,90.4,174.4,90.5L174.4,90.5z"/>
<path class="st0" d="M175.7,91.7c0,0,0-0.1,0-0.1c0,0,0.1,0,0.1,0h1.9c0,0,0.1,0,0.1,0c0,0,0,0.1,0,0.1s0,0.1,0,0.1c0,0-0.1,0-0.1,0
	h-1.9c0,0-0.1,0-0.1,0C175.7,91.8,175.7,91.8,175.7,91.7z"/>
<path class="st0" d="M179.3,90.7c0,0.2-0.1,0.4-0.2,0.5c-0.1,0.1-0.3,0.2-0.5,0.2c-0.2,0-0.4-0.1-0.5-0.2c-0.1-0.1-0.2-0.3-0.3-0.5
	c0-0.1,0-0.1,0-0.2c0-0.2,0-0.4,0.1-0.6c0.1-0.2,0.2-0.4,0.4-0.5c0.1-0.1,0.3-0.1,0.5-0.1c0,0,0.1,0,0.1,0c0,0,0.1,0.1,0.1,0.1
	c0,0,0,0.1,0,0.1c0,0-0.1,0.1-0.1,0.1c-0.1,0-0.2,0-0.3,0.1c-0.1,0.1-0.1,0.1-0.2,0.2c0,0,0,0.1,0,0.1c0.1,0,0.2-0.1,0.3-0.1
	c0.2,0,0.4,0.1,0.5,0.2C179.3,90.3,179.3,90.5,179.3,90.7z M179,90.7c0-0.1,0-0.1,0-0.2c0-0.1,0-0.1-0.1-0.1c0,0-0.1-0.1-0.1-0.1
	c-0.1,0-0.1,0-0.2,0c-0.1,0-0.1,0-0.2,0c-0.1,0-0.1,0.1-0.1,0.1c0,0-0.1,0.1-0.1,0.1c0,0.1,0,0.1,0,0.2c0,0.1,0,0.1,0,0.2
	c0,0.1,0,0.1,0.1,0.1c0,0,0.1,0.1,0.1,0.1c0.1,0,0.1,0,0.2,0c0.1,0,0.1,0,0.2,0c0.1,0,0.1-0.1,0.1-0.1c0,0,0.1-0.1,0.1-0.1
	C179,90.8,179,90.7,179,90.7z"/>
<path class="st0" d="M56,65.1h13.1V52.1H56V65.1z"/>
<path class="st3" d="M56.8,64.4h11.5V52.8H56.8V64.4z"/>
<path class="st2" d="M58.7,55.6c0,0.2,0,0.5,0.1,0.7c0.1,0.2,0.3,0.4,0.5,0.5c0.2,0.1,0.4,0.2,0.7,0.1c0.2,0,0.4-0.1,0.6-0.3
	c0.2-0.2,0.3-0.4,0.3-0.6c0-0.2,0-0.5-0.1-0.7c-0.1-0.2-0.3-0.4-0.5-0.5c-0.2-0.1-0.4-0.1-0.7-0.1c-0.2,0-0.4,0.1-0.6,0.3
	C58.8,55.2,58.7,55.4,58.7,55.6z"/>
<path class="st2" d="M60,61.4h8.3l-4.2-4.7L60,61.4z"/>
<path class="st8" d="M56.8,61.4h6.9l-3.4-3L56.8,61.4z"/>
<path class="st8" d="M68.3,61.4H56.8v3h11.5V61.4z"/>
<path class="st2" d="M90,67h-1.3v-0.2H90V67z M87.5,67h-1.3v-0.2h1.3V67z M84.9,67h-1.3v-0.2h1.3V67z M82.3,67h-1.3v-0.2h1.3V67z
	 M79.8,67h-1.3v-0.2h1.3V67z M77.2,67h-1.3v-0.2h1.3V67z M74.7,67h-1.3v-0.2h1.3V67z M72.1,67h-1.3v-0.2h1.3V67z M69.5,67h-1.3v-0.2
	h1.3V67z M67,67h-1.3v-0.2H67V67z M64.4,67h-1.3v-0.2h1.3V67z M61.9,67h-1.3v-0.2h1.3V67z M59.3,67H58v-0.2h1.3V67z M56.7,67h-1.3
	v-0.2h1.3V67z M54.4,66.7h-0.2v-1.3h0.2V66.7z M90.1,66.2h-0.2v-1.3h0.2V66.2z M54.4,64.1h-0.2v-1.3h0.2V64.1z M90.1,63.6h-0.2v-1.3
	h0.2V63.6z M54.4,61.6h-0.2v-1.3h0.2V61.6z M90.1,61h-0.2v-1.3h0.2V61z M54.4,59h-0.2v-1.3h0.2V59z M90.1,58.5h-0.2v-1.3h0.2V58.5z
	 M54.4,56.5h-0.2v-1.3h0.2V56.5z M90.1,55.9h-0.2v-1.3h0.2V55.9z M54.4,53.9h-0.2v-1.3h0.2V53.9z M90.1,53.4h-0.2v-1.3h0.2V53.4z
	 M54.4,51.3h-0.2v-1.1h0.4v0.2h-0.2V51.3z M90.1,50.8h-0.2v-0.3h-0.7v-0.2h1L90.1,50.8z M87.9,50.5h-1.3v-0.2h1.3V50.5z M85.3,50.5
	h-1.3v-0.2h1.3V50.5z M82.8,50.5h-1.3v-0.2h1.3V50.5z M80.2,50.5h-1.3v-0.2h1.3V50.5z M77.7,50.5h-1.3v-0.2h1.3V50.5z M75.1,50.5
	h-1.3v-0.2h1.3V50.5z M72.5,50.5h-1.3v-0.2h1.3V50.5z M70,50.5h-1.3v-0.2H70V50.5z M67.4,50.5h-1.3v-0.2h1.3V50.5z M64.9,50.5h-1.3
	v-0.2h1.3V50.5z M62.3,50.5H61v-0.2h1.3V50.5z M59.7,50.5h-1.3v-0.2h1.3V50.5z M57.2,50.5h-1.3v-0.2h1.3V50.5z"/>
<path class="st0" d="M70.7,52.7C70.7,52.7,70.7,52.7,70.7,52.7c0-0.1,0-0.1,0-0.1c0,0,0,0,0.1,0c0,0,0,0,0.1,0c0,0,0.1,0,0.1,0
	c0,0,0.1,0.1,0.1,0.1v1.8c0,0,0,0.1-0.1,0.1c0,0-0.1,0-0.1,0c0,0,0,0-0.1,0c0,0,0,0-0.1,0c0,0,0,0,0-0.1c0,0,0,0,0-0.1V52.7z"/>
<path class="st0" d="M72.9,53.8v0.7c0,0,0,0.1,0,0.1c0,0-0.1,0-0.1,0c0,0-0.1,0-0.1,0c0,0,0-0.1-0.1-0.1v-0.7c0-0.1,0-0.2-0.1-0.2
	c-0.1-0.1-0.1-0.1-0.2-0.1c-0.1,0-0.2,0-0.2,0.1c-0.1,0.1-0.1,0.1-0.1,0.2v0.7c0,0,0,0,0,0c0,0,0,0,0,0c0,0,0,0.1-0.1,0.1
	c0,0-0.1,0-0.1,0h0c0,0-0.1,0-0.1-0.1c0,0,0-0.1,0-0.1v-0.7v-0.5c0,0,0,0,0-0.1c0,0,0,0,0-0.1c0,0,0,0,0.1,0c0,0,0,0,0.1,0
	c0,0,0.1,0,0.1,0c0,0,0,0,0.1,0.1c0.1-0.1,0.2-0.1,0.3-0.1c0.1,0,0.2,0,0.3,0.1c0.1,0,0.2,0.1,0.2,0.2c0.1-0.1,0.1-0.1,0.2-0.2
	c0.1,0,0.2-0.1,0.3-0.1c0.2,0,0.3,0.1,0.5,0.2c0.1,0.1,0.2,0.3,0.2,0.5v0.7c0,0,0,0.1,0,0.1c0,0-0.1,0-0.1,0c0,0-0.1,0-0.1,0
	c0,0,0-0.1,0-0.1v-0.7c0-0.1,0-0.2-0.1-0.2c-0.1-0.1-0.1-0.1-0.2-0.1c0,0-0.1,0-0.1,0c0,0-0.1,0-0.1,0.1c0,0,0,0.1-0.1,0.1
	C72.9,53.7,72.9,53.8,72.9,53.8z"/>
<path class="st0" d="M75.8,53.9v0.6c0,0,0,0.1,0,0.1c0,0-0.1,0-0.1,0c0,0-0.1,0-0.1,0c0,0,0-0.1-0.1-0.1c-0.1,0.1-0.3,0.1-0.4,0.1
	c-0.1,0-0.2,0-0.3-0.1c-0.1,0-0.2-0.1-0.2-0.2c-0.1-0.1-0.2-0.3-0.2-0.5c0-0.2,0.1-0.4,0.2-0.5c0.1-0.1,0.1-0.1,0.2-0.2
	c0.1,0,0.2-0.1,0.3-0.1c0.1,0,0.3,0,0.4,0.1c0,0,0-0.1,0.1-0.1c0,0,0.1,0,0.1,0c0,0,0,0,0.1,0c0,0,0,0,0.1,0c0,0,0,0,0,0.1
	c0,0,0,0,0,0.1V53.9z M75.5,53.9c0-0.1,0-0.2-0.1-0.3c0,0-0.1-0.1-0.1-0.1c0,0-0.1,0-0.2,0c-0.1,0-0.1,0-0.2,0c0,0-0.1,0.1-0.1,0.1
	c-0.1,0.1-0.1,0.2-0.1,0.3c0,0.1,0,0.2,0.1,0.3c0,0,0.1,0.1,0.1,0.1c0,0,0.1,0,0.2,0c0.1,0,0.1,0,0.2,0c0,0,0.1-0.1,0.1-0.1
	C75.4,54.2,75.5,54.1,75.5,53.9L75.5,53.9z"/>
<path class="st0" d="M77.9,54v0.6c0,0.2-0.1,0.4-0.2,0.5c-0.1,0.1-0.3,0.2-0.5,0.2c-0.1,0-0.2,0-0.3-0.1c0,0,0,0-0.1,0
	c0,0,0,0,0-0.1c0,0,0,0,0-0.1c0,0,0,0,0-0.1c0,0,0.1-0.1,0.1-0.1c0,0,0.1,0,0.1,0c0.1,0,0.1,0,0.2,0c0.1,0,0.2,0,0.3-0.1
	c0.1-0.1,0.1-0.1,0.1-0.2c-0.1,0.1-0.3,0.1-0.5,0.1s-0.3-0.1-0.4-0.2c-0.1-0.1-0.1-0.2-0.2-0.3c0-0.1-0.1-0.2-0.1-0.3
	c0-0.2,0.1-0.4,0.2-0.5c0.1-0.1,0.1-0.1,0.2-0.2c0.1,0,0.2-0.1,0.3-0.1c0.1,0,0.3,0,0.4,0.1c0,0,0-0.1,0.1-0.1c0,0,0.1,0,0.1,0
	c0,0,0.1,0,0.1,0c0,0,0,0.1,0,0.1L77.9,54L77.9,54z M77.6,54c0-0.1,0-0.2-0.1-0.3c0,0-0.1-0.1-0.1-0.1c-0.1,0-0.1,0-0.2,0
	c-0.1,0-0.1,0-0.2,0c0,0-0.1,0.1-0.1,0.1c-0.1,0.1-0.1,0.2-0.1,0.3c0,0.1,0,0.2,0.1,0.3c0,0,0.1,0.1,0.1,0.1c0,0,0.1,0,0.2,0
	c0.1,0,0.1,0,0.2,0c0.1,0,0.1-0.1,0.1-0.1C77.5,54.2,77.6,54.1,77.6,54L77.6,54z"/>
<path class="st0" d="M78.4,53.9c0-0.2,0.1-0.4,0.2-0.5c0.1-0.1,0.3-0.2,0.5-0.2c0.2,0,0.4,0.1,0.5,0.2c0.1,0.1,0.2,0.3,0.2,0.5
	c0,0,0,0,0,0c0,0,0,0.1-0.1,0.1c0,0-0.1,0-0.1,0h-1c0,0.1,0,0.1,0.1,0.2c0.1,0.1,0.2,0.1,0.3,0.1c0.1,0,0.2,0,0.3-0.1
	c0,0,0.1,0,0.1,0c0,0,0.1,0,0.1,0c0,0,0,0,0,0c0,0,0,0,0,0.1c0,0,0,0,0,0.1c0,0,0,0,0,0c-0.2,0.1-0.3,0.2-0.6,0.2
	c-0.2,0-0.4-0.1-0.5-0.2C78.5,54.3,78.4,54.1,78.4,53.9z M78.8,53.8h0.9c0-0.1-0.1-0.2-0.2-0.2c-0.1-0.1-0.2-0.1-0.3-0.1
	c-0.1,0-0.2,0-0.3,0.1C78.9,53.6,78.8,53.7,78.8,53.8z"/>
<path class="st0" d="M80.1,55.1c0,0,0-0.1,0-0.1c0,0,0.1,0,0.1,0h1.9c0,0,0.1,0,0.1,0c0,0,0,0.1,0,0.1s0,0.1,0,0.1s-0.1,0-0.1,0
	h-1.9c0,0-0.1,0-0.1,0C80.1,55.1,80.1,55.1,80.1,55.1z"/>
<path class="st0" d="M56,83.7h13.1V70.6H56V83.7z"/>
<path class="st3" d="M56.8,82.9h11.5V71.4H56.8V82.9z"/>
<path class="st2" d="M58.7,74.1c0,0.2,0,0.5,0.1,0.7c0.1,0.2,0.3,0.4,0.5,0.5c0.2,0.1,0.4,0.2,0.7,0.1c0.2,0,0.4-0.1,0.6-0.3
	c0.2-0.2,0.3-0.4,0.3-0.6c0-0.2,0-0.5-0.1-0.7s-0.3-0.4-0.5-0.5c-0.2-0.1-0.4-0.1-0.7-0.1c-0.2,0-0.4,0.1-0.6,0.3
	C58.8,73.7,58.7,73.9,58.7,74.1z"/>
<path class="st2" d="M60,79.9h8.3l-4.2-4.7L60,79.9z"/>
<path class="st8" d="M56.8,79.9h6.9l-3.4-3L56.8,79.9z"/>
<path class="st8" d="M68.3,79.9H56.8v3h11.5V79.9z"/>
<path class="st2" d="M90,85.5h-1.3v-0.2H90V85.5z M87.5,85.5h-1.3v-0.2h1.3V85.5z M84.9,85.5h-1.3v-0.2h1.3V85.5z M82.3,85.5h-1.3
	v-0.2h1.3V85.5z M79.8,85.5h-1.3v-0.2h1.3V85.5z M77.2,85.5h-1.3v-0.2h1.3V85.5z M74.7,85.5h-1.3v-0.2h1.3V85.5z M72.1,85.5h-1.3
	v-0.2h1.3V85.5z M69.5,85.5h-1.3v-0.2h1.3V85.5z M67,85.5h-1.3v-0.2H67V85.5z M64.4,85.5h-1.3v-0.2h1.3V85.5z M61.9,85.5h-1.3v-0.2
	h1.3V85.5z M59.3,85.5H58v-0.2h1.3V85.5z M56.7,85.5h-1.3v-0.2h1.3V85.5z M54.4,85.2h-0.2V84h0.2V85.2z M90.1,84.7h-0.2v-1.3h0.2
	V84.7z M54.4,82.7h-0.2v-1.3h0.2V82.7z M90.1,82.1h-0.2v-1.3h0.2V82.1z M54.4,80.1h-0.2v-1.3h0.2V80.1z M90.1,79.6h-0.2v-1.3h0.2
	V79.6z M54.4,77.6h-0.2v-1.3h0.2V77.6z M90.1,77h-0.2v-1.3h0.2V77z M54.4,75h-0.2v-1.3h0.2V75z M90.1,74.5h-0.2v-1.3h0.2V74.5z
	 M54.4,72.4h-0.2v-1.3h0.2V72.4z M90.1,71.9h-0.2v-1.3h0.2V71.9z M54.4,69.9h-0.2v-1.1h0.4V69h-0.2V69.9z M90.1,69.3h-0.2V69h-0.7
	v-0.2h1L90.1,69.3z M87.9,69h-1.3v-0.2h1.3V69z M85.3,69h-1.3v-0.2h1.3V69z M82.8,69h-1.3v-0.2h1.3V69z M80.2,69h-1.3v-0.2h1.3V69z
	 M77.7,69h-1.3v-0.2h1.3V69z M75.1,69h-1.3v-0.2h1.3V69z M72.5,69h-1.3v-0.2h1.3V69z M70,69h-1.3v-0.2H70V69z M67.4,69h-1.3v-0.2
	h1.3V69z M64.9,69h-1.3v-0.2h1.3V69z M62.3,69H61v-0.2h1.3V69z M59.7,69h-1.3v-0.2h1.3V69z M57.2,69h-1.3v-0.2h1.3V69z"/>
<path class="st0" d="M70.7,71C70.7,71,70.7,71,70.7,71c0-0.1,0-0.1,0-0.1c0,0,0,0,0.1,0c0,0,0,0,0.1,0c0,0,0,0,0.1,0c0,0,0,0,0.1,0
	c0,0,0,0,0,0.1c0,0,0,0,0,0.1v1.8c0,0,0,0.1-0.1,0.1c0,0-0.1,0-0.1,0c0,0-0.1,0-0.1,0c0,0,0-0.1,0-0.1V71z"/>
<path class="st0" d="M72.9,72.1v0.7c0,0,0,0.1,0,0.1c0,0-0.1,0-0.1,0c0,0-0.1,0-0.1-0.1c0,0,0-0.1-0.1-0.1v-0.7c0-0.1,0-0.2-0.1-0.2
	c-0.1-0.1-0.1-0.1-0.2-0.1c-0.1,0-0.2,0-0.2,0.1c-0.1,0.1-0.1,0.1-0.1,0.2v0.7c0,0,0,0,0,0c0,0,0,0,0,0c0,0,0,0.1-0.1,0.1
	c0,0-0.1,0-0.1,0h0c0,0-0.1,0-0.1-0.1c0,0,0-0.1,0-0.1v-0.7v-0.5c0,0,0,0,0-0.1c0,0,0,0,0-0.1c0,0,0,0,0.1,0c0,0,0,0,0.1,0
	c0,0,0.1,0,0.1,0c0,0,0,0,0.1,0.1c0.1-0.1,0.2-0.1,0.3-0.1c0.1,0,0.2,0,0.3,0.1c0.1,0,0.2,0.1,0.2,0.2c0.1-0.1,0.1-0.1,0.2-0.2
	c0.1,0,0.2-0.1,0.3-0.1c0.2,0,0.3,0.1,0.5,0.2c0.1,0.1,0.2,0.3,0.2,0.5v0.7c0,0,0,0.1,0,0.1c0,0-0.1,0-0.1,0c0,0-0.1,0-0.1,0
	c0,0,0-0.1,0-0.1v-0.7c0-0.1,0-0.2-0.1-0.2s-0.1-0.1-0.2-0.1c0,0-0.1,0-0.1,0c0,0-0.1,0-0.1,0.1c0,0,0,0.1-0.1,0.1
	C72.9,72,72.9,72.1,72.9,72.1z"/>
<path class="st0" d="M75.8,72.3v0.6c0,0,0,0.1,0,0.1c0,0-0.1,0-0.1,0c0,0-0.1,0-0.1,0c0,0,0-0.1-0.1-0.1C75.4,73,75.2,73,75.1,73
	c-0.1,0-0.2,0-0.3-0.1c-0.1,0-0.2-0.1-0.2-0.2c-0.1-0.1-0.2-0.3-0.2-0.5s0.1-0.4,0.2-0.5c0.1-0.1,0.1-0.1,0.2-0.2
	c0.1,0,0.2-0.1,0.3-0.1c0.1,0,0.3,0,0.4,0.1c0,0,0-0.1,0.1-0.1c0,0,0.1,0,0.1,0c0,0,0,0,0.1,0c0,0,0,0,0.1,0c0,0,0,0,0,0.1
	c0,0,0,0,0,0.1V72.3z M75.5,72.3c0-0.1,0-0.2-0.1-0.3c0,0-0.1-0.1-0.1-0.1c0,0-0.1,0-0.2,0c-0.1,0-0.1,0-0.2,0c0,0-0.1,0.1-0.1,0.1
	c-0.1,0.1-0.1,0.2-0.1,0.3c0,0.1,0,0.2,0.1,0.3c0,0,0.1,0.1,0.1,0.1c0,0,0.1,0,0.2,0c0.1,0,0.1,0,0.2,0c0,0,0.1-0.1,0.1-0.1
	C75.4,72.5,75.5,72.4,75.5,72.3L75.5,72.3z"/>
<path class="st0" d="M77.9,72.3v0.6c0,0.1,0,0.2-0.1,0.4c-0.1,0.1-0.1,0.2-0.3,0.3c-0.1,0.1-0.2,0.1-0.4,0.1c-0.1,0-0.2,0-0.4-0.1
	c0,0-0.1-0.1-0.1-0.1c0,0,0-0.1,0-0.1c0,0,0.1-0.1,0.1-0.1c0,0,0.1,0,0.1,0c0.1,0,0.1,0,0.2,0c0.1,0,0.2,0,0.3-0.1
	c0.1-0.1,0.1-0.1,0.1-0.2c-0.1,0.1-0.3,0.1-0.5,0.1c-0.2,0-0.3-0.1-0.4-0.2c-0.1-0.1-0.1-0.2-0.2-0.2c0-0.1-0.1-0.2-0.1-0.3
	c0-0.2,0.1-0.4,0.2-0.6c0.1-0.1,0.1-0.1,0.2-0.2c0.1,0,0.2-0.1,0.3-0.1c0.1,0,0.3,0,0.4,0.1c0,0,0-0.1,0.1-0.1c0,0,0.1,0,0.1,0
	c0,0,0.1,0,0.1,0c0,0,0,0.1,0,0.1V72.3L77.9,72.3z M77.6,72.3c0-0.1,0-0.2-0.1-0.3c0,0-0.1-0.1-0.1-0.1c-0.1,0-0.1,0-0.2,0
	c-0.1,0-0.1,0-0.2,0c0,0-0.1,0.1-0.1,0.1c-0.1,0.1-0.1,0.2-0.1,0.3c0,0.1,0,0.1,0,0.2c0,0.1,0.1,0.1,0.1,0.1c0,0,0.1,0.1,0.1,0.1
	c0,0,0.1,0,0.2,0c0.1,0,0.1,0,0.2,0c0.1,0,0.1-0.1,0.1-0.1C77.5,72.5,77.6,72.4,77.6,72.3L77.6,72.3z"/>
<path class="st0" d="M78.4,72.2c0-0.2,0.1-0.4,0.2-0.5c0.1-0.1,0.3-0.2,0.5-0.2c0.2,0,0.4,0.1,0.5,0.2c0.1,0.1,0.2,0.3,0.2,0.5v0
	c0,0,0,0,0,0c0,0,0,0.1-0.1,0.1c0,0-0.1,0-0.1,0h-1c0,0.1,0,0.1,0.1,0.2c0.1,0.1,0.2,0.1,0.3,0.1c0.1,0,0.2,0,0.3-0.1
	c0,0,0.1,0,0.1,0c0,0,0.1,0,0.1,0c0,0,0,0,0,0s0,0,0,0.1c0,0,0,0,0,0.1c0,0,0,0,0,0C79.6,73,79.4,73,79.2,73c-0.1,0-0.2,0-0.3-0.1
	c-0.1,0-0.2-0.1-0.2-0.2c-0.1-0.1-0.1-0.2-0.2-0.3C78.5,72.5,78.4,72.4,78.4,72.2z M78.8,72.1h0.9c0-0.1-0.1-0.2-0.2-0.2
	s-0.2-0.1-0.3-0.1c-0.1,0-0.2,0-0.3,0.1C78.9,71.9,78.8,72,78.8,72.1z"/>
<path class="st0" d="M80.1,73.4c0,0,0-0.1,0-0.1c0,0,0.1,0,0.1,0h1.9c0,0,0.1,0,0.1,0c0,0,0,0.1,0,0.1c0,0,0,0.1,0,0.1
	c0,0-0.1,0-0.1,0h-1.9c0,0-0.1,0-0.1,0C80.1,73.4,80.1,73.4,80.1,73.4z"/>
<path class="st0" d="M83.6,72.9c0,0,0,0.1,0,0.1s-0.1,0-0.1,0h-1.1c0,0,0,0-0.1,0c0,0,0,0-0.1,0c0,0,0,0,0-0.1c0,0,0,0,0-0.1
	s0,0,0-0.1c0,0,0,0,0-0.1l0.9-0.8c0,0,0.1-0.1,0.1-0.1c0-0.1,0-0.1,0-0.2c0-0.1,0-0.2-0.1-0.3c0,0-0.1-0.1-0.1-0.1
	c-0.1,0-0.1,0-0.2,0c-0.1,0-0.2,0-0.3,0.1l-0.1,0.1c0,0,0,0-0.1,0c0,0,0,0-0.1,0c0,0,0,0-0.1,0c0,0,0,0-0.1,0c0,0,0,0,0-0.1
	c0,0,0,0,0-0.1c0,0,0,0,0-0.1c0,0,0,0,0-0.1l0.1-0.1c0.1-0.1,0.3-0.2,0.5-0.2c0.1,0,0.2,0,0.3,0.1c0.1,0,0.2,0.1,0.2,0.2
	c0.1,0.1,0.2,0.3,0.2,0.5c0,0.1,0,0.2-0.1,0.3c0,0.1-0.1,0.2-0.2,0.2l-0.6,0.5h0.7c0,0,0,0,0.1,0c0,0,0,0,0.1,0
	C83.5,72.7,83.6,72.8,83.6,72.9C83.6,72.8,83.6,72.8,83.6,72.9z"/>
<path class="st0" d="M56,102.2h13.1V89.2H56V102.2z"/>
<path class="st3" d="M56.8,101.5h11.5V89.9H56.8V101.5z"/>
<path class="st2" d="M58.7,92.7c-0.1,0.2,0,0.5,0.1,0.7c0.1,0.2,0.3,0.4,0.5,0.5c0.2,0.1,0.4,0.2,0.7,0.1c0.2,0,0.4-0.1,0.6-0.3
	c0.2-0.2,0.3-0.4,0.3-0.6c0-0.2,0-0.5-0.1-0.7c-0.1-0.2-0.3-0.4-0.5-0.5c-0.2-0.1-0.4-0.1-0.7-0.1c-0.2,0-0.4,0.1-0.6,0.3
	C58.8,92.3,58.7,92.5,58.7,92.7z"/>
<path class="st2" d="M60,98.5h8.3l-4.2-4.7L60,98.5z"/>
<path class="st8" d="M56.8,98.5h6.9l-3.4-3L56.8,98.5z"/>
<path class="st8" d="M68.3,98.5H56.8v3h11.5V98.5z"/>
<path class="st2" d="M90,104.1h-1.3v-0.2H90V104.1z M87.5,104.1h-1.3v-0.2h1.3V104.1z M84.9,104.1h-1.3v-0.2h1.3V104.1z M82.3,104.1
	h-1.3v-0.2h1.3V104.1z M79.8,104.1h-1.3v-0.2h1.3V104.1z M77.2,104.1h-1.3v-0.2h1.3V104.1z M74.7,104.1h-1.3v-0.2h1.3V104.1z
	 M72.1,104.1h-1.3v-0.2h1.3V104.1z M69.5,104.1h-1.3v-0.2h1.3V104.1z M67,104.1h-1.3v-0.2H67V104.1z M64.4,104.1h-1.3v-0.2h1.3
	V104.1z M61.9,104.1h-1.3v-0.2h1.3V104.1z M59.3,104.1H58v-0.2h1.3V104.1z M56.7,104.1h-1.3v-0.2h1.3V104.1z M54.4,103.8h-0.2v-1.3
	h0.2V103.8z M90.1,103.2h-0.2V102h0.2V103.2z M54.4,101.2h-0.2V100h0.2V101.2z M90.1,100.7h-0.2v-1.3h0.2V100.7z M54.4,98.7h-0.2
	v-1.3h0.2V98.7z M90.1,98.1h-0.2v-1.3h0.2V98.1z M54.4,96.1h-0.2v-1.3h0.2V96.1z M90.1,95.6h-0.2v-1.3h0.2V95.6z M54.4,93.6h-0.2
	v-1.3h0.2V93.6z M90.1,93h-0.2v-1.3h0.2V93z M54.4,91h-0.2v-1.3h0.2V91z M90.1,90.4h-0.2v-1.3h0.2V90.4z M54.4,88.4h-0.2v-1.1h0.4
	v0.2h-0.2V88.4z M90.1,87.9h-0.2v-0.3h-0.7v-0.2h1L90.1,87.9z M87.9,87.6h-1.3v-0.2h1.3V87.6z M85.3,87.6h-1.3v-0.2h1.3V87.6z
	 M82.8,87.6h-1.3v-0.2h1.3V87.6z M80.2,87.6h-1.3v-0.2h1.3V87.6z M77.7,87.6h-1.3v-0.2h1.3V87.6z M75.1,87.6h-1.3v-0.2h1.3V87.6z
	 M72.5,87.6h-1.3v-0.2h1.3V87.6z M70,87.6h-1.3v-0.2H70V87.6z M67.4,87.6h-1.3v-0.2h1.3V87.6z M64.9,87.6h-1.3v-0.2h1.3V87.6z
	 M62.3,87.6H61v-0.2h1.3V87.6z M59.7,87.6h-1.3v-0.2h1.3V87.6z M57.2,87.6h-1.3v-0.2h1.3V87.6z"/>
<path class="st0" d="M70.7,89.4c0,0,0-0.1,0-0.1s0.1,0,0.1,0c0,0,0.1,0,0.1,0c0,0,0.1,0.1,0.1,0.1v1.8c0,0,0,0.1-0.1,0.1
	c0,0-0.1,0-0.1,0c0,0,0,0-0.1,0c0,0,0,0-0.1,0c0,0,0,0,0-0.1c0,0,0,0,0-0.1V89.4z"/>
<path class="st0" d="M72.9,90.5v0.7c0,0,0,0.1,0,0.1c0,0-0.1,0-0.1,0c0,0-0.1,0-0.1,0c0,0,0-0.1-0.1-0.1v-0.7c0-0.1,0-0.2-0.1-0.2
	c-0.1-0.1-0.1-0.1-0.2-0.1c-0.1,0-0.2,0-0.2,0.1c-0.1,0.1-0.1,0.1-0.1,0.2v0.7c0,0,0,0,0,0c0,0,0,0,0,0v0c0,0,0,0.1-0.1,0.1
	c0,0-0.1,0-0.1,0h0c0,0-0.1,0-0.1-0.1c0,0,0-0.1,0-0.1v-0.7V90c0,0,0,0,0-0.1c0,0,0,0,0-0.1c0,0,0,0,0.1,0c0,0,0,0,0.1,0
	c0,0,0.1,0,0.1,0c0,0,0,0,0.1,0.1c0.1-0.1,0.2-0.1,0.3-0.1c0.1,0,0.2,0,0.3,0.1c0.1,0,0.2,0.1,0.2,0.2c0.1-0.1,0.1-0.1,0.2-0.2
	c0.1,0,0.2-0.1,0.3-0.1c0.2,0,0.3,0.1,0.5,0.2c0.1,0.1,0.2,0.3,0.2,0.5v0.7c0,0,0,0.1,0,0.1c0,0-0.1,0-0.1,0c0,0-0.1,0-0.1,0
	c0,0,0-0.1,0-0.1v-0.7c0-0.1,0-0.2-0.1-0.2c-0.1-0.1-0.1-0.1-0.2-0.1c-0.1,0-0.2,0-0.2,0.1C72.9,90.3,72.9,90.4,72.9,90.5z"/>
<path class="st0" d="M75.8,90.6v0.6c0,0,0,0.1,0,0.1c0,0-0.1,0-0.1,0c0,0-0.1,0-0.1,0c0,0,0-0.1-0.1-0.1c-0.1,0.1-0.3,0.1-0.4,0.1
	c-0.1,0-0.2,0-0.3-0.1c-0.1,0-0.2-0.1-0.2-0.2c-0.1-0.1-0.2-0.3-0.2-0.5c0-0.2,0.1-0.4,0.2-0.5c0.1-0.1,0.1-0.1,0.2-0.2
	c0.1,0,0.2-0.1,0.3-0.1c0.1,0,0.3,0,0.4,0.1c0,0,0-0.1,0.1-0.1c0,0,0.1,0,0.1,0c0,0,0,0,0.1,0c0,0,0,0,0.1,0c0,0,0,0,0,0.1
	c0,0,0,0,0,0.1V90.6z M75.5,90.6c0-0.1,0-0.2-0.1-0.3c0,0-0.1-0.1-0.1-0.1c0,0-0.1,0-0.2,0c-0.1,0-0.1,0-0.2,0c0,0-0.1,0.1-0.1,0.1
	c-0.1,0.1-0.1,0.2-0.1,0.3s0,0.2,0.1,0.3c0,0,0.1,0.1,0.1,0.1c0,0,0.1,0,0.2,0c0.1,0,0.1,0,0.2,0c0,0,0.1-0.1,0.1-0.1
	C75.4,90.9,75.5,90.8,75.5,90.6L75.5,90.6z"/>
<path class="st0" d="M77.9,90.6v0.6c0,0.1,0,0.2-0.1,0.4c-0.1,0.1-0.1,0.2-0.3,0.3c-0.1,0.1-0.2,0.1-0.4,0.1c-0.1,0-0.2,0-0.4-0.1
	c0,0-0.1-0.1-0.1-0.1c0,0,0-0.1,0-0.1c0,0,0.1-0.1,0.1-0.1c0,0,0.1,0,0.1,0c0.1,0,0.1,0,0.2,0c0.1,0,0.2,0,0.3-0.1
	c0.1-0.1,0.1-0.1,0.1-0.2c-0.1,0.1-0.3,0.1-0.5,0.1c-0.2,0-0.3-0.1-0.4-0.2c-0.1-0.1-0.1-0.2-0.2-0.2c0-0.1-0.1-0.2-0.1-0.3
	c0-0.2,0.1-0.4,0.2-0.6c0.1-0.1,0.1-0.1,0.2-0.2s0.2-0.1,0.3-0.1c0.1,0,0.3,0,0.4,0.1c0,0,0-0.1,0.1-0.1c0,0,0.1,0,0.1,0
	c0,0,0.1,0,0.1,0c0,0,0,0.1,0,0.1V90.6L77.9,90.6z M77.6,90.6c0-0.1,0-0.2-0.1-0.3c0,0-0.1-0.1-0.1-0.1c-0.1,0-0.1,0-0.2,0
	c-0.1,0-0.1,0-0.2,0c0,0-0.1,0.1-0.1,0.1c-0.1,0.1-0.1,0.2-0.1,0.3c0,0.1,0,0.1,0,0.2c0,0.1,0.1,0.1,0.1,0.1c0,0,0.1,0.1,0.1,0.1
	c0,0,0.1,0,0.2,0c0.1,0,0.1,0,0.2,0c0.1,0,0.1-0.1,0.1-0.1C77.5,90.9,77.6,90.8,77.6,90.6L77.6,90.6z"/>
<path class="st0" d="M78.4,90.6c0-0.2,0.1-0.4,0.2-0.5c0.1-0.1,0.3-0.2,0.5-0.2c0.2,0,0.4,0.1,0.5,0.2c0.1,0.1,0.2,0.3,0.2,0.5
	c0,0,0,0,0,0c0,0,0,0.1-0.1,0.1c0,0-0.1,0-0.1,0h-1c0,0.1,0,0.1,0.1,0.2c0.1,0.1,0.2,0.1,0.3,0.1c0.1,0,0.2,0,0.3-0.1
	c0,0,0.1,0,0.1,0c0,0,0.1,0,0.1,0c0,0,0,0,0,0c0,0,0,0,0,0.1s0,0,0,0.1c0,0,0,0,0,0c-0.2,0.1-0.3,0.2-0.6,0.2
	c-0.2,0-0.4-0.1-0.5-0.2C78.5,91,78.4,90.8,78.4,90.6z M78.8,90.5h0.9c0-0.1-0.1-0.2-0.2-0.2c-0.1-0.1-0.2-0.1-0.3-0.1
	c-0.1,0-0.2,0-0.3,0.1C78.9,90.3,78.8,90.4,78.8,90.5z"/>
<path class="st0" d="M80.1,91.7c0,0,0-0.1,0-0.1c0,0,0.1,0,0.1,0h1.9c0,0,0.1,0,0.1,0s0,0.1,0,0.1s0,0.1,0,0.1c0,0-0.1,0-0.1,0h-1.9
	c0,0-0.1,0-0.1,0C80.1,91.8,80.1,91.8,80.1,91.7z"/>
<path class="st0" d="M83.4,90.1c0.1,0.1,0.1,0.2,0.2,0.2c0,0.1,0.1,0.2,0.1,0.3c0,0.2,0,0.3-0.1,0.4c-0.1,0.1-0.2,0.2-0.3,0.3
	c-0.1,0.1-0.3,0.1-0.4,0c-0.1,0-0.3-0.1-0.4-0.2c0,0-0.1-0.1-0.1-0.1c0,0,0-0.1,0.1-0.1c0,0,0.1-0.1,0.1-0.1c0,0,0.1,0,0.1,0.1
	c0,0,0.1,0.1,0.1,0.1c0.1,0,0.1,0,0.2,0c0.1,0,0.2,0,0.3-0.1c0,0,0.1-0.1,0.1-0.1c0-0.1,0-0.1,0-0.2c0-0.1,0-0.1,0-0.2
	c0-0.1-0.1-0.1-0.1-0.1c0,0-0.1-0.1-0.1-0.1c-0.1,0-0.1,0-0.2,0c0,0,0,0-0.1,0c0,0,0,0-0.1,0c0,0-0.1-0.1-0.1-0.1c0,0,0-0.1,0.1-0.1
	l0.3-0.3h-0.5c0,0,0,0-0.1,0c0,0,0,0-0.1,0c0,0,0,0,0-0.1c0,0,0,0,0-0.1c0,0,0,0,0-0.1c0,0,0,0,0-0.1c0,0,0,0,0.1,0c0,0,0,0,0.1,0
	h0.9c0,0,0,0,0.1,0c0,0,0,0,0.1,0c0,0,0,0,0,0.1c0,0,0,0,0,0.1c0,0,0,0.1,0,0.1c0,0,0,0,0,0l-0.4,0.4C83.2,90,83.3,90,83.4,90.1z"/>
<path class="st4" d="M72,43c2.4,2.2,1.6,5.2,2.6,6.9c0.6,1,2.6,2.2,3,3.4c0.6,2-1,2.6-0.7,3.7c0.5,1.5,2.5,1.4,2.8,3.9
	c0.3,2.4-2.5,5-8.8,5.5c-6.4,0.5-9.8-1.9-10-4c-0.2-2.1,2-2.7,2.1-4.3c0.1-1-1.2-1.7-1.2-3.5c0-1.8,1.8-2.4,2.1-3.9
	s-0.4-5.3,1.9-7.2C68.1,41.7,70.8,41.9,72,43z"/>
<path class="st4" d="M71.7,43c0.7,0.5,1.2,1.2,1.6,1.9c0.4,0.8,0.7,1.7,0.8,2.5c0.1,0.5,0.2,1,0.5,1.5c0.2,0.4,0.5,0.8,0.8,1.1
	c0.7,0.6,1.5,1.1,2.1,1.9c0.6,0.7,1,1.6,0.7,2.5c-0.1,0.5-0.5,0.9-0.7,1.3c-0.2,0.5-0.3,1,0.1,1.3c0.3,0.3,0.8,0.5,1.1,0.7
	c0.3,0.3,0.7,0.6,0.9,0.9c0.3,0.4,0.4,0.8,0.5,1.2c0.1,0.4,0.1,0.9,0,1.3c-0.4,2-2.3,3-4,3.7l-0.7,0.3c0,0-0.1,0,0-0.1
	c1.7-0.7,3.8-1.6,4.5-3.5c0.2-0.4,0.2-0.9,0.2-1.3c0-0.4-0.2-0.9-0.4-1.3c-0.2-0.4-0.5-0.7-0.9-1c-0.3-0.3-0.7-0.4-1.1-0.7
	c-0.2-0.1-0.3-0.3-0.4-0.5c-0.1-0.2-0.1-0.4-0.1-0.6c0.1-0.5,0.2-0.9,0.5-1.3c0.3-0.4,0.4-0.8,0.4-1.3c0-0.5-0.2-0.9-0.5-1.3
	c-0.5-0.8-1.3-1.3-2-1.9c-0.7-0.6-1.2-1.3-1.5-2.2C74,48,74,47.5,73.9,47.1c-0.1-0.4-0.2-0.9-0.3-1.3c-0.3-0.8-0.7-1.6-1.3-2.2
	C72.1,43.4,71.9,43.2,71.7,43C71.7,43.1,71.7,43,71.7,43z"/>
<path class="st4" d="M60.6,60.9c0.1-0.3,0.2-0.6,0.5-0.9c0.2-0.3,0.5-0.5,0.8-0.8c0.3-0.2,0.4-0.5,0.5-0.8c0.1-0.4,0-0.8-0.2-1.2
	c-0.2-0.4-0.4-0.7-0.5-1.1c-0.1-0.4-0.2-0.8-0.2-1.2c0-0.8,0.2-1.7,0.7-2.4c0.2-0.3,0.5-0.7,0.7-1c0.3-0.4,0.5-0.8,0.6-1.2
	c0.3-1,0.4-2,0.7-2.9c0.3-1,0.6-1.9,1.1-2.9c0,0,0,0,0,0c-0.4,0.8-0.7,1.7-1,2.6c-0.2,0.8-0.3,1.7-0.5,2.6c-0.1,0.4-0.2,0.8-0.4,1.2
	c-0.2,0.4-0.4,0.7-0.6,1.1c-0.4,0.7-0.9,1.4-1,2.2c-0.1,0.8,0,1.7,0.3,2.4c0.3,0.6,0.8,1.4,0.5,2.1c-0.3,0.6-0.9,1-1.3,1.5
	c-0.2,0.3-0.4,0.6-0.5,0.9c-0.1,0.3-0.1,0.7,0,1.1c0.3,1.8,2.1,2.7,3.7,2.9c0,0,0,0,0,0c0,0,0,0,0,0c0,0,0,0,0,0c0,0,0,0,0,0
	c-1.5-0.1-3-0.7-3.7-2.1C60.5,62.3,60.5,61.6,60.6,60.9z"/>
<path class="st9" d="M70.1,57.5c2.7,1.4,12.2,5.5,14.9,4c1.8-1,10.2-8.2,10.5-9.7c0.2-1-5.6-5.8-6.2-5c-0.7,0.9-7.1,7.7-7.8,8.1
	c-0.7,0.3-8.8-1.1-11.5-1C65.1,54.3,68.6,56.8,70.1,57.5z"/>
<path class="st5" d="M87.1,48.5l6.3,6.5c0,0-7.2,7.2-9.3,7.3s-10-2.2-14.4-4.7s-2.6-4.3,1.2-3.8c3.8,0.5,9.8,1.2,10.2,1
	C81.6,54.4,87.1,48.5,87.1,48.5z"/>
<path class="st4" d="M91.2,55.8c-0.9-0.9-1.7-1.7-2.6-2.6c-0.4-0.4-0.8-0.9-1.2-1.3c-0.4-0.4-0.8-1-1.2-1.4c0,0,0-0.1,0-0.1
	c0.4,0.4,0.9,0.8,1.3,1.3c0.4,0.4,0.9,0.9,1.3,1.4C89.6,53.9,90.5,54.9,91.2,55.8C91.3,55.8,91.3,55.9,91.2,55.8z"/>
<path class="st10" d="M79.1,61.3c-3.1-0.9-6.8-2.3-9.4-3.7c-3.6-2-3.1-3.6-0.8-3.9L79.1,61.3z"/>
<path class="st5" d="M69.8,53.7c0.8,1.1,3.6,5.5,4.6,8c1,2.5,6.4,30.6,5.3,31.9s-11.4,1-12.9-1c-2.9-3.9-0.6-21.8-0.6-21.8
	s-0.4-9.7,1.6-14.7C68.5,54,69.8,53.7,69.8,53.7z"/>
<path class="st4" d="M95.5,58c-0.2-1.2-0.1-2.4,0.2-3.6C95.9,55.6,95.8,56.8,95.5,58z"/>
<path class="st4" d="M92.8,58.5c-0.7-1-1.3-2.1-1.7-3.2C91.9,56.2,92.5,57.3,92.8,58.5z"/>
<path class="st4" d="M90.7,60.3c-1.1-0.5-2.2-1.1-3-2C88.8,58.8,89.8,59.5,90.7,60.3z"/>
<path class="st4" d="M89.8,63c-1.2,0.2-2.4,0.1-3.6-0.2C87.4,62.6,88.6,62.7,89.8,63z"/>
<path class="st4" d="M90.3,65.7c-1,0.7-2.1,1.3-3.2,1.6C88.1,66.6,89.2,66.1,90.3,65.7z"/>
<path class="st4" d="M92.2,67.8c-0.5,1.1-1.1,2.2-2,3C90.7,69.7,91.3,68.7,92.2,67.8z"/>
<path class="st4" d="M94.8,68.7c0.2,1.2,0.1,2.4-0.2,3.6C94.5,71.1,94.5,69.9,94.8,68.7z"/>
<path class="st4" d="M97.5,68.2c0.7,1,1.3,2.1,1.7,3.2C98.5,70.4,97.9,69.3,97.5,68.2z"/>
<path class="st4" d="M99.6,66.3c1.1,0.5,2.2,1.1,3,2C101.6,67.8,100.5,67.2,99.6,66.3z"/>
<path class="st4" d="M100.6,63.7c1.2-0.2,2.4-0.1,3.6,0.2C103,64.1,101.7,64,100.6,63.7z"/>
<path class="st4" d="M100,61c1-0.7,2.1-1.3,3.2-1.6C102.3,60.1,101.2,60.6,100,61z"/>
<path class="st4" d="M98.2,58.9c0.5-1.1,1.1-2.2,2-3C99.7,57,99,58,98.2,58.9z"/>
<path class="st9" d="M84.6,141.2c-0.6,0.2-17.8,0-18.5-0.5c-0.2-0.2-0.4-2.7-0.4-5.7c0-0.7,0-1.3,0-2c0-4.5,0-9.2,0-9.2l11.2,0.1
	l0,9.3l-0.1,2c0,0,6.6,3,7.2,3.6C84.7,139.2,85.2,141,84.6,141.2z"/>
<path class="st0" d="M84.6,141.2c-0.6,0.2-17.8,0-18.5-0.5c-0.3-0.2-0.4-3.9-0.4-7.7l11.2,0.1l-0.1,2c0,0,6.6,3,7.2,3.6
	C84.7,139.2,85.2,141,84.6,141.2z"/>
<path class="st5" d="M84.6,141.2c-0.6,0.2-17.8,0-18.5-0.5c-0.2-0.2-0.4-2.7-0.4-5.7l11.1,0.1c0,0,6.6,3,7.2,3.6
	C84.7,139.2,85.2,141,84.6,141.2z"/>
<path class="st4" d="M84.4,140.5c-2.9-0.1-14.5-0.3-17.4-0.2c0,0,0,0,0,0C69.8,140.5,81.5,140.6,84.4,140.5
	C84.4,140.5,84.4,140.5,84.4,140.5z"/>
<path class="st4" d="M82.9,138.1c-0.3,0-0.6,0-0.9,0.2c-0.3,0.1-0.6,0.3-0.8,0.5c-0.4,0.4-0.7,1-0.7,1.5c0,0,0,0,0,0
	c0.1-0.6,0.4-1.1,0.8-1.5C81.8,138.4,82.4,138.2,82.9,138.1C83,138.1,83,138.1,82.9,138.1C83,138.1,83,138.1,82.9,138.1
	C83,138.1,83,138.1,82.9,138.1C83,138.1,83,138.1,82.9,138.1z"/>
<path class="st4" d="M77.9,135.4c-1.2,0-2.5,0.4-3.2,1.3c0,0,0,0.1,0.1,0.1c1-0.5,2.1-0.9,3.2-1.2c0,0,0,0,0,0
	C78,135.5,78,135.5,77.9,135.4C78,135.5,78,135.4,77.9,135.4C78,135.4,78,135.4,77.9,135.4z"/>
<path class="st4" d="M78.8,135.8c-1.2,0-2.5,0.4-3.2,1.3c0,0,0,0.1,0.1,0.1c1-0.5,2.1-0.9,3.2-1.2c0,0,0,0,0,0
	C78.9,135.9,78.9,135.9,78.8,135.8C78.9,135.8,78.9,135.8,78.8,135.8C78.9,135.8,78.8,135.8,78.8,135.8z"/>
<path class="st4" d="M79.7,136.1c-1.2,0-2.5,0.4-3.2,1.3c0,0,0,0.1,0.1,0.1c1-0.5,2.1-0.9,3.2-1.2c0,0,0,0,0,0
	C79.8,136.2,79.8,136.2,79.7,136.1C79.8,136.2,79.8,136.2,79.7,136.1C79.8,136.1,79.7,136.1,79.7,136.1z"/>
<path class="st4" d="M80.6,136.5c-1.2,0-2.5,0.4-3.2,1.3c0,0,0,0.1,0.1,0.1c1-0.5,2.1-0.9,3.2-1.2c0,0,0,0,0,0
	C80.7,136.6,80.7,136.6,80.6,136.5C80.7,136.5,80.7,136.5,80.6,136.5C80.6,136.5,80.6,136.5,80.6,136.5z"/>
<path class="st1" d="M67.7,137.6c-1.3,0-1.3,2,0,2S69,137.6,67.7,137.6z"/>
<path class="st4" d="M79.2,132.4c-0.6-0.5-1.3,0-1.7,0.5c-0.6,0.9-1,1.9-1.1,2.9c0,0,0,0,0,0c0,0,0,0,0,0c0,0,0,0,0,0c0,0,0,0,0,0
	c0,0,0,0,0,0.1c0,0,0,0,0.1,0c0,0,0,0,0.1,0c0,0,0,0,0.1,0c0.8-0.6,1.8-1.1,2.4-1.9C79.5,133.6,79.8,132.8,79.2,132.4z M77.8,134.8
	c-0.4,0.3-0.8,0.5-1.2,0.8c0.2-0.6,0.4-1.2,0.7-1.7c0.1-0.3,0.3-0.5,0.4-0.8c0.3-0.4,1.4-1.3,1.5-0.1
	C79.2,133.8,78.3,134.5,77.8,134.8z"/>
<path class="st4" d="M73.6,136.2c1,0.2,2-0.1,3-0.2c0,0,0,0,0.1,0c0,0,0,0,0-0.1c0,0,0,0,0-0.1c0,0,0,0,0-0.1c0,0,0,0,0,0
	c0,0,0,0,0,0s0,0,0,0c0,0,0,0,0,0c-0.8-0.7-1.7-1.2-2.8-1.5c-0.6-0.1-1.5,0-1.6,0.8C72.3,135.7,73,136.1,73.6,136.2z M72.9,135.5
	c-0.8-1,0.7-1.1,1.2-1c0.3,0.1,0.6,0.2,0.8,0.3c0.6,0.2,1.1,0.5,1.6,0.8c-0.5,0-1,0.1-1.5,0.2C74.5,135.9,73.3,136,72.9,135.5z"/>
<path class="st11" d="M62.9,70.6c0,0,2.2,31.2,2.6,33.5c0.1,0.5,0.1,3.5,0.1,7.3c-0.1,8.2-0.1,23.1-0.1,23.1l11.9,0.2
	c0,0,0.9-25.8,0.4-30.5c-0.5-4.8-3.6-33.4-3.6-33.4L62.9,70.6z"/>
<path class="st4" d="M76.8,132.5c-1.9-0.1-1.3-0.1-3.2-0.1c-0.9,0-6.9-0.2-7.7-0.1c0,0,0,0,0,0c0.8,0.2,6.8,0.2,7.7,0.2
	C75.5,132.5,74.9,132.5,76.8,132.5C76.8,132.5,76.8,132.5,76.8,132.5z"/>
<path class="st4" d="M67.9,117.6c0-1.9,0-3.8,0.1-5.6c0-1.8,0.1-3.6,0-5.5c-0.1-3.7-0.8-7.3-1.3-11s-0.8-7.3-1.2-11
	c-0.4-4.1-0.7-8.2-1-12.4c0,0,0,0,0,0c0.5,7.4,1,14.7,1.9,22c0.2,1.8,0.5,3.6,0.7,5.4c0.3,1.8,0.5,3.7,0.6,5.5
	c0.1,1.9,0.1,3.6,0.1,5.4l0,5.6c0,4.2-0.1,10.6-0.1,14.8c0,0,0,0,0,0c0,0,0,0,0,0c0,0,0,0,0,0c0,0,0,0,0,0
	C67.8,127.3,67.9,121.3,67.9,117.6z"/>
<path class="st4" d="M60.1,70.5c0,0,4.9,31.2,5.3,33.6c0.1,0.5,0.1,3.5,0.1,7.3l6.9-40.6L60.1,70.5z"/>
<path class="st9" d="M53.8,141.3c-0.6-0.2-14.9-9.8-15.2-10.5c-0.1-0.3,1.2-2.4,2.8-5c0.4-0.6,0.7-1.1,1.1-1.7
	c2.4-3.8,5.1-7.7,5.1-7.7l9.3,6.2l-5.1,7.7l-1.2,1.6c0,0,3.8,6.1,4.1,7C55,139.7,54.5,141.5,53.8,141.3z"/>
<path class="st0" d="M53.8,141.3c-0.6-0.2-14.9-9.8-15.2-10.5c-0.1-0.3,1.8-3.5,3.9-6.7l9.3,6.2l-1.2,1.6c0,0,3.8,6.1,4.1,6.9
	C55,139.7,54.5,141.5,53.8,141.3z"/>
<path class="st5" d="M53.8,141.3c-0.6-0.2-14.9-9.8-15.2-10.5c-0.1-0.3,1.2-2.4,2.8-5l9.2,6.2c0,0,3.8,6.1,4.1,7
	C55,139.7,54.5,141.5,53.8,141.3z"/>
<path class="st4" d="M54,140.6c-2.4-1.7-12-8.2-14.5-9.7c0,0,0,0,0,0C41.8,132.6,51.6,139.1,54,140.6C54,140.7,54.1,140.6,54,140.6z
	"/>
<path class="st4" d="M54.2,137.8c-0.3-0.2-0.6-0.3-0.9-0.4c-0.3-0.1-0.6-0.1-1,0c-0.6,0.1-1.1,0.4-1.4,0.9c0,0,0,0,0,0
	c0.4-0.4,0.9-0.7,1.5-0.8C53,137.5,53.6,137.6,54.2,137.8C54.2,137.8,54.2,137.8,54.2,137.8z"/>
<path class="st4" d="M51.4,132.8c-1-0.7-2.3-1.1-3.4-0.7c0,0,0,0.1,0,0.1c1.1,0.1,2.3,0.4,3.3,0.7c0,0,0,0,0,0
	C51.4,133,51.4,132.9,51.4,132.8C51.4,132.9,51.4,132.9,51.4,132.8C51.4,132.9,51.4,132.8,51.4,132.8z"/>
<path class="st4" d="M52,133.6c-1-0.7-2.3-1.1-3.4-0.7c0,0,0,0.1,0,0.1c1.1,0.1,2.3,0.4,3.4,0.7c0,0,0,0,0.1,0c0,0,0,0,0,0
	C52,133.7,52,133.7,52,133.6C52,133.6,52,133.6,52,133.6z"/>
<path class="st4" d="M52.5,134.4c-1-0.7-2.3-1.1-3.4-0.7c0,0,0,0.1,0,0.1c1.1,0.1,2.3,0.4,3.3,0.7c0,0,0,0,0,0
	C52.5,134.5,52.5,134.5,52.5,134.4C52.5,134.5,52.5,134.5,52.5,134.4C52.5,134.4,52.5,134.4,52.5,134.4z"/>
<path class="st4" d="M53,135.2c-1-0.7-2.3-1.1-3.4-0.7c0,0,0,0.1,0,0.1c1.1,0.1,2.3,0.4,3.3,0.7c0,0,0,0,0.1,0
	C53.1,135.3,53.1,135.3,53,135.2C53.1,135.3,53.1,135.3,53,135.2C53.1,135.2,53.1,135.2,53,135.2z"/>
<path class="st1" d="M41.7,129.1c-1.1-0.7-2.2,1-1.1,1.7C41.6,131.4,42.8,129.8,41.7,129.1z"/>
<path class="st4" d="M54.2,131c-0.2-0.7-1.1-0.7-1.7-0.5c-1,0.4-1.9,1-2.5,1.9c0,0,0,0,0,0c0,0,0,0,0,0c0,0,0,0,0,0c0,0,0,0,0,0
	c0,0,0,0,0,0.1c0,0,0,0,0,0.1c0,0,0,0,0,0c0,0,0,0,0.1,0c1,0,2.1,0.1,3-0.2C53.7,132.1,54.4,131.7,54.2,131z M51.6,132.2
	c-0.5,0-1,0-1.5,0c0.5-0.4,1-0.7,1.5-1.1c0.3-0.2,0.5-0.3,0.8-0.4c0.4-0.2,1.9-0.3,1.3,0.8C53.4,132.2,52.2,132.2,51.6,132.2
	L51.6,132.2z"/>
<path class="st4" d="M47.4,131.1c0.7,0.7,1.8,1,2.7,1.5c0.1,0,0.2,0,0.2-0.1c0,0,0,0,0,0s0,0,0,0c0,0,0,0,0,0c0,0,0,0,0,0
	c-0.3-1-0.8-2-1.5-2.7c-0.4-0.4-1.2-0.8-1.7-0.2C46.5,130,46.9,130.7,47.4,131.1z M47.1,130.1c-0.1-1.3,1.2-0.5,1.5-0.2
	c0.2,0.2,0.4,0.5,0.5,0.7c0.4,0.5,0.6,1,0.9,1.6c-0.4-0.2-0.9-0.4-1.3-0.6C48.3,131.3,47.2,130.8,47.1,130.1L47.1,130.1z"/>
<path class="st11" d="M51.6,131.4l-10.1-6.2c0,0,12.8-19.2,12.9-21c0.1-2.6,1.6-13.3,2.8-22c0,0-1.9-4.7,1.9-11.8l14.9,0.3
	c0,0-1.1,6.7-2.9,11c-1.2,0.4-2.3,0.9-3.4,1.5c0,0-1.8,19.3-1.9,21.8C65.7,109.8,51.6,131.4,51.6,131.4z"/>
<path class="st4" d="M52.7,128.8c-1.6-1-1.1-0.8-2.7-1.8c-0.8-0.5-5.9-3.7-6.7-4.1c0,0,0,0,0,0c0.6,0.6,5.8,3.7,6.6,4.2
	C51.5,128.2,51.1,127.9,52.7,128.8C52.7,128.9,52.8,128.8,52.7,128.8z"/>
<path class="st4" d="M71.8,81.5c-1.4,0.5-2.7,1-3.9,1.7c0,0,0,0,0,0c0,0,0,0,0,0c0,0,0,0,0,0c0,0,0,0,0,0c1.3-0.5,2.7-1,3.9-1.7
	c0,0,0,0,0,0C71.9,81.6,71.9,81.6,71.8,81.5C71.8,81.5,71.8,81.5,71.8,81.5C71.8,81.5,71.8,81.5,71.8,81.5z"/>
<path class="st4" d="M70,79.3c0.1-0.8,0.3-1.6,0.3-2.3c0.2-1.5,0.2-2.9,0-4.4c0,0,0,0,0,0c0,0,0,0,0,0c0,0,0,0,0,0c0,0,0,0,0,0
	c0,2-0.2,4.1-0.5,6.1c-0.2,1-0.7,2.4,0.3,2.6c1,0.2,1.7-2.3,1.9-2.9c0.4-1.9,0.5-3.8,0.3-5.8c0,0-0.1-0.1-0.1,0
	c0,1.5-0.1,2.9-0.3,4.4c-0.1,0.7-0.7,4.4-1.8,4.1c-0.2,0-0.3-0.2-0.3-0.5C69.8,80.1,69.9,79.7,70,79.3"/>
<path class="st4" d="M70.1,81.1c-0.1,0.2-0.2,0.5-0.3,0.8c-0.1,0.2-0.1,0.4-0.1,0.6c0,0,0.1,0,0.1,0c0.1-0.2,0.2-0.4,0.3-0.6
	c0.1-0.2,0.2-0.5,0.3-0.7c0,0,0-0.1,0-0.1c0,0,0-0.1-0.1-0.1c0,0,0,0-0.1,0C70.2,81,70.2,81,70.1,81.1C70.2,81,70.2,81,70.1,81.1z"
	/>
<path class="st4" d="M60.9,71.5c-0.5,0.8-0.9,1.6-1.2,2.4c-0.3,0.8-0.6,1.7-0.7,2.6c-0.1,0.4-0.1,0.9-0.2,1.3s-0.1,0.9-0.1,1.3
	c0,0.9,0.1,1.8,0.3,2.7v0c-0.4,3.8-0.8,7.5-1.3,11.3c-0.4,3.8-0.9,7.5-1.3,11.2l0,0.4l0,0.2c0,0.1,0,0.1,0,0.2
	c-0.1,0.2-0.2,0.4-0.4,0.6c-0.2,0.4-0.5,0.8-0.8,1.2c-0.5,0.8-1,1.6-1.5,2.4c-1,1.6-7.1,10.7-9.2,13.8l9-13.9c0.5-0.8,1-1.6,1.5-2.4
	c0.3-0.4,0.5-0.8,0.7-1.2c0.1-0.2,0.2-0.4,0.3-0.6c0,0,0-0.1,0-0.2l0-0.2l0-0.4c0.4-3.7,0.9-7.5,1.3-11.2c0.5-3.7,0.9-7.5,1.4-11.2
	v0c-0.2-0.9-0.2-1.8-0.2-2.7c0-0.5,0-0.9,0.1-1.4c0-0.5,0.1-0.9,0.2-1.3c0.2-0.9,0.4-1.8,0.8-2.6C60,73,60.4,72.2,60.9,71.5z"/>
<path class="st0" d="M74.1,70.8l0.4-3.8c0.6-0.6,0.9-1.3,1.1-2.2c0.1-0.8,0.1-1.6-0.3-2.4c-0.5-1.1-3.4-7-5.3-8.2
	c-1.8-1.2-3.3-0.8-4.2,0.2c-3.1,3.1-5.2,8.6-6.6,16.2L74.1,70.8z"/>
<path class="st4" d="M70.7,65.9c0.6,0.1,1.2,0.2,1.8,0.3c0.3,0.1,0.6,0.2,0.9,0.3c0.1,0.1,0.3,0.1,0.4,0.2c0.1,0.1,0.3,0.1,0.5,0.1
	v0c-0.3,0-0.6,0-0.9-0.1c-0.3-0.1-0.6-0.2-0.9-0.3C71.9,66.3,71.3,66.1,70.7,65.9C70.7,66,70.7,65.9,70.7,65.9z"/>
<path class="st4" d="M69.3,66.8c0.5-0.1,1-0.2,1.5-0.2c0.2,0,0.5,0,0.7,0l0.4,0c0.1,0,0.3,0.1,0.4,0.1v0c-0.1,0-0.2,0-0.4,0h-0.4
	c-0.2,0-0.5,0-0.7,0C70.3,66.8,69.8,66.8,69.3,66.8C69.3,66.8,69.3,66.8,69.3,66.8z"/>
<path class="st5" d="M66.8,53.6c0.4,1.3,2,8,2.2,10.7S66.2,95,64.7,95.9c-1.5,0.9-11.2-2.5-12-4.9C51.2,86.4,58.8,70,58.8,70
	s2.2-10.3,5.6-14.5C65.9,53.8,66.8,53.6,66.8,53.6z"/>
<path class="st0" d="M114.3,46.3l-36.8-0.1L77.4,83l36.8,0.1L114.3,46.3z"/>
<path class="st5" d="M112.1,48.5l-32.4-0.1l-0.1,32.4l32.4,0.1L112.1,48.5z"/>
<path class="st10" d="M106.8,56.2c0.1,0.6,0,1.3-0.2,1.9c-0.3,0.6-0.7,1.1-1.3,1.4c-0.6,0.3-1.2,0.4-1.9,0.3
	c-0.6-0.1-1.2-0.4-1.7-0.9c-0.5-0.5-0.8-1.1-0.9-1.7c-0.1-0.6,0-1.3,0.3-1.9c0.3-0.6,0.8-1,1.4-1.3c0.6-0.3,1.3-0.4,1.9-0.2
	c0.6,0.1,1.1,0.4,1.6,0.8C106.4,55.1,106.7,55.6,106.8,56.2z"/>
<path class="st10" d="M103,72.5l-23.4-0.1l11.8-13.1L103,72.5z"/>
<path class="st5" d="M112,72.5l-19.3-0.1l9.7-8.5L112,72.5z"/>
<g class="st12">
	<path d="M112,72.5l-19.3-0.1l9.7-8.5L112,72.5z"/>
</g>
<path class="st5" d="M79.6,80.8l32.4,0.1l0-8.4l-32.4-0.1L79.6,80.8z"/>
<path class="st13" d="M79.6,80.8l32.4,0.1l0-8.4l-32.4-0.1L79.6,80.8z"/>
<path class="st9" d="M64.3,57.4c-1.9,4.7-4,14.6-2.9,16.3c1.9,2.9,6.5,6.3,9.3,7.7c0.9,0.5,4.6-6.8,3.5-7c-1.3-0.3-6.5-4.4-6.6-4.7
	c-0.1-0.4-0.3-6.6-0.5-10.9C66.9,53.7,65,55.5,64.3,57.4z"/>
<path class="st9" d="M69.9,81c2.4,1.5,5.3,3.5,8.5,3.6c0.4,0,0.7-0.1,1-0.3c1.4,0.1,1.9-0.6,1.9-0.6c1.4-0.4,1.7-1.1,1.7-1.1
	s1.7,0.1,1.9-1c0.2-1.1-2.2-1-3.6-1.7c-3.2-1.7-7.2-4.9-8-5.5L69.9,81z"/>
<path class="st4" d="M76.9,80.5c0.9,0.5,1.9,0.9,2.8,1.3c1.1,0.3,2.2,0.6,3.3,0.8c0,0,0,0,0,0c0,0,0,0,0,0c0,0,0,0,0,0c0,0,0,0,0,0
	C80.8,82.5,78.7,81.8,76.9,80.5C76.8,80.5,76.8,80.5,76.9,80.5z"/>
<path class="st4" d="M75.6,82.3c0.9,0.4,2.6,1.1,5.8,1.4v0C79.3,83.8,77.3,83.3,75.6,82.3C75.5,82.3,75.5,82.2,75.6,82.3z"/>
<path class="st4" d="M74.9,83.2c1.6,0.6,2.7,0.8,4.5,1.1v0C77.4,84.3,76.6,84,74.9,83.2C74.8,83.3,74.9,83.2,74.9,83.2z"/>
<path class="st9" d="M77.7,77.7c-0.3-0.4-0.1-0.6,0.7-0.4c0.9,0.2,4.2,1.6,4.6,0.4s-4.3-3.1-5.8-3.3c-1.3-0.1-2.6-0.1-3.9,0
	C74.2,75,76.1,76.6,77.7,77.7z"/>
<path class="st5" d="M73.6,73.6l-4.1,8c0,0-8.6-5.7-9-8.4c-0.4-2.7,2.1-12.3,3.4-15.3c1.2-3,2.8-4,3.3,0s0.6,11.4,0.6,11.6
	S73.6,73.6,73.6,73.6z"/>
<path class="st4" d="M68.4,79.7c0.5-1.1,1-2.2,1.6-3.3c0.3-0.5,0.5-1.1,0.8-1.6s0.6-1.1,0.9-1.6c0,0,0.1,0,0.1,0
	c-0.3,0.5-0.5,1.1-0.7,1.6s-0.6,1.1-0.8,1.7C69.6,77.6,69,78.7,68.4,79.7C68.4,79.8,68.4,79.8,68.4,79.7
	C68.4,79.8,68.4,79.8,68.4,79.7C68.4,79.8,68.4,79.8,68.4,79.7C68.4,79.8,68.4,79.8,68.4,79.7z"/>
<path class="st4" d="M69.5,70.8c-0.6-0.4-1.2-0.7-1.7-1.2c-0.1-0.3-0.1-0.6-0.1-1c-0.2-3-0.3-6-0.2-9l0.1,1.5l0.1,1.5
	c0.1,1.5,0.2,4.5,0.2,6c0,0.3,0,0.6,0.1,0.9C68.4,70,68.9,70.4,69.5,70.8L69.5,70.8z"/>
<path class="st4" d="M67.8,60.6c0,0.2,0,0.5-0.1,0.7c-0.1,0.2-0.2,0.4-0.3,0.6C67.6,61.4,67.7,61,67.8,60.6z"/>
<path class="st4" d="M63.1,60.2c-0.6,1.8-1.1,3.7-1.5,5.6c-0.4,1.9-0.8,3.8-1,5.7c-0.1,0.5-0.1,0.9,0,1.4c0.2,1.4,1.3,2.5,2.3,3.5
	c0.7,0.7,1.5,1.3,2.2,1.9s1.5,1.2,2.3,1.8c-1.6-1.1-3.2-2.3-4.6-3.5c-1.5-1.3-2.8-2.9-2.4-5.1C60.9,67.7,61.8,63.9,63.1,60.2
	L63.1,60.2z"/>
<path class="st4" d="M62.7,60.6c-0.1,0.5-0.2,1-0.1,1.5c-0.1-0.2-0.2-0.5-0.2-0.8C62.4,61.1,62.5,60.8,62.7,60.6z"/>
<path class="st9" d="M66.8,54.5c0,0.3,1.9,2.5,3.3,2.6c0.4,0,0-2.5,0-2.5l0.1-0.2l0.9-2.4l-2.7-2.3L68,49.4c0,0-0.2,0.7-0.5,1.5
	l0,0.1c0,0,0,0.1,0,0.1c0,0.1-0.1,0.3-0.1,0.4s-0.1,0.2-0.1,0.3l-0.1,0.3C67,53,66.9,53.7,66.8,54.5z"/>
<path class="st4" d="M67.6,51c0.2,0.7,0.5,1.4,0.9,2c0.5,0.6,1,1.1,1.7,1.5l0.9-2.4l-2.7-2.3L68,49.4C68,49.4,67.8,50.1,67.6,51z"/>
<path class="st9" d="M75.2,48.1c0.3,4.6-2.4,5.3-3.4,5.3c-0.9,0.1-3.9,0.2-4.7-4.3s1.2-6.1,3.3-6.4C72.4,42.5,74.8,43.6,75.2,48.1z"
	/>
<path class="st4" d="M74.4,47.6c-0.1,0-0.2,0-0.3-0.1c-0.1,0-0.2,0-0.3-0.1c0,0,0-0.1,0-0.1s0-0.1,0-0.1c0.1,0,0.1-0.1,0.2-0.1
	c0.1,0,0.1,0,0.2,0c0.1,0,0.3,0.1,0.4,0.2c0,0,0,0.1,0,0.1c0,0,0,0.1,0,0.1C74.5,47.5,74.5,47.5,74.4,47.6
	C74.4,47.6,74.4,47.6,74.4,47.6z"/>
<path class="st4" d="M71.3,47.7c0.1,0,0.2-0.1,0.3-0.1c0.1,0,0.2-0.1,0.3-0.1c0,0,0-0.1,0-0.1c0,0,0-0.1,0-0.1
	c-0.1,0-0.1-0.1-0.2-0.1c-0.1,0-0.1,0-0.2,0c-0.1,0-0.3,0.1-0.4,0.2c0,0,0,0.1,0,0.1c0,0,0,0.1,0,0.1C71.1,47.6,71.2,47.6,71.3,47.7
	C71.2,47.7,71.2,47.7,71.3,47.7z"/>
<path class="st4" d="M72,48.5C72,48.5,71.9,48.5,72,48.5c0,0.3,0,0.7-0.3,0.8v0C72,49.3,72,48.8,72,48.5z"/>
<path class="st4" d="M71.7,48.2c-0.5,0-0.5,1,0,1C72.1,49.2,72.1,48.2,71.7,48.2z"/>
<path class="st4" d="M71.5,48.2c-0.1,0.1-0.2,0.2-0.3,0.2c-0.1,0-0.2-0.1-0.3-0.2c0,0.2,0.1,0.4,0.3,0.4
	C71.4,48.6,71.5,48.5,71.5,48.2C71.5,48.3,71.5,48.2,71.5,48.2z"/>
<path class="st4" d="M73.6,48.5C73.6,48.5,73.7,48.5,73.6,48.5c0,0.3,0,0.7,0.3,0.8c0,0,0,0,0,0C73.6,49.3,73.6,48.8,73.6,48.5z"/>
<path class="st4" d="M73.9,48.2c0.5,0,0.5,1,0.1,1C73.5,49.2,73.5,48.2,73.9,48.2z"/>
<path class="st4" d="M74.1,48.2c0.1,0.1,0.2,0.1,0.3,0.2s0.2-0.1,0.3-0.2c0,0.2-0.1,0.4-0.2,0.4C74.2,48.6,74.1,48.5,74.1,48.2
	C74.1,48.3,74.1,48.2,74.1,48.2z"/>
<path class="st4" d="M73.2,49.9c0,0,0.1,0.5,0.1,0.7c0,0-0.1,0-0.1,0c-0.2,0-0.4,0-0.6-0.1c-0.2-0.1-0.3-0.2-0.5-0.3c0,0,0,0,0,0
	c0.3,0.2,0.6,0.3,1,0.3c0-0.1-0.1-0.8-0.1-0.8c0.2,0,0.3,0.1,0.5,0.1c-0.1-1-0.4-1.9-0.5-2.9c0,0,0,0,0.1,0c0.3,1,0.5,2,0.6,3.1
	C73.8,50.1,73.3,49.9,73.2,49.9z"/>
<path class="st4" d="M73,50.5c-0.1,0.2-0.3,0.3-0.4,0.4c-0.1,0-0.2,0.1-0.3,0c-0.2-0.1-0.2-0.3-0.2-0.4c0-0.1,0-0.2,0.1-0.3
	C72.4,50.4,72.7,50.5,73,50.5z"/>
<path class="st14" d="M72.6,50.8c-0.1,0-0.2,0.1-0.3,0c-0.2-0.1-0.2-0.3-0.2-0.4c0.1,0,0.2,0,0.3,0.1C72.5,50.6,72.6,50.7,72.6,50.8
	z"/>
<path class="st4" d="M67.5,49.9c0.3-0.2,0.5-0.4,0.7-0.7c0.2-0.3,0.3-0.6,0.3-0.9c0.8-0.4,1.4-1,1.9-1.7c0,0.1-0.2,0.8-0.3,1.1
	c2.8-0.7,3.5-3,3.5-3c0.6,0.5,1.1,1.1,1.4,1.7c0,0-0.1-1.8-1.1-2.9c-0.3-0.4-0.7-0.7-1.2-0.9c-0.5-0.2-1-0.2-1.5-0.1
	c-0.7-0.1-1.5,0-2.1,0.2c-0.7,0.3-1.3,0.7-1.7,1.3C65.6,46.3,67.5,49.9,67.5,49.9z"/>
<path class="st4" d="M72.2,47.1c-0.4,0.3-0.9,0.5-1.4,0.6c0.8-0.3,1.5-0.8,2-1.4c0.2-0.3,0.4-0.6,0.6-0.9c0.2-0.3,0.3-0.7,0.3-1.1
	c0,0,0,0,0,0c0,0,0,0,0,0c0,0,0,0,0,0c0,0,0,0,0,0c0,0.4,0,0.8-0.2,1.1c-0.1,0.4-0.3,0.7-0.6,1C72.7,46.7,72.4,46.9,72.2,47.1"/>
<path class="st9" d="M68.2,49.1c0,0-1-1.4-1.6-1.1c-0.7,0.3,0.1,2.4,0.8,2.7c0.1,0,0.2,0.1,0.3,0.1c0.1,0,0.2,0,0.3-0.1
	c0.1,0,0.2-0.1,0.3-0.2c0.1-0.1,0.1-0.2,0.2-0.3L68.2,49.1z"/>
<path class="st4" d="M66.8,48.6C66.8,48.6,66.8,48.7,66.8,48.6c0.2,0.1,0.5,0.3,0.6,0.5c0.2,0.2,0.3,0.5,0.4,0.7
	c0-0.1-0.1-0.1-0.1-0.1c-0.1,0-0.1-0.1-0.2-0.1c-0.1,0-0.1,0-0.2,0c-0.1,0-0.1,0-0.2,0.1c0,0,0,0,0,0c0.1,0,0.2,0,0.3,0
	c0.1,0,0.2,0.1,0.2,0.2c0.1,0.1,0.2,0.3,0.2,0.4c0,0,0.1,0,0.1,0C68,49.7,67.5,48.7,66.8,48.6z"/>
<path class="st9" d="M87.5,47c1.1-0.7,2.3-2.2,3.3-2.4c0.2-0.1,0.5,0,0.7,0c0.2,0.1,0.4,0.2,0.5,0.4c0,0,0.4-1,1.2-1
	c0.4,0,0.9,0.7,0.9,0.7c0.1-0.2,0.2-0.4,0.4-0.5c0.2-0.1,0.4-0.2,0.7-0.2c0.6,0,1,0.7,1,0.7s0.7-0.6,1.3-0.4c1.3,0.4,1.8,5.6,0,6.7
	c-0.9,0.5-0.9-0.8-0.9-0.8s-0.4,1.9-1.4,2c-1.1,0.1-1.1-1.5-1.1-1.5s-0.4,1.8-1.5,1.8c-1.2,0-0.9-1.6-0.9-1.6s-0.7,1.2-1.5,1.1
	c-1.4-0.3,0.1-2.7-0.3-3.8l-2-0.4L87.5,47z"/>
<path class="st9" d="M89.1,45.8c-1.1,0.5-2.6-0.7-3.7-0.3c-1.5,0.5,0.2,2.1,2.4,2.2l1.8-0.2L89.1,45.8z"/>
<path class="st4" d="M94.1,44.7C94.1,44.7,94.1,44.7,94.1,44.7c0.7,1.9,0.7,4-0.1,5.9c0,0.1-0.1,0.1-0.1,0
	C94.4,49.3,94.4,46.4,94.1,44.7z"/>
<path class="st4" d="M91.5,50.9c0.7-1.9,0.7-3.8,0.5-5.7c0,0,0,0,0,0c0.4,0.9,0.4,2.2,0.3,3.2C92.3,49.2,92.1,50.1,91.5,50.9
	C91.5,50.9,91.5,50.9,91.5,50.9z"/>
</svg>
